<svg viewBox="0 0 34 34" fill="none" xmlns="http://www.w3.org/2000/svg">
<path d="M16.4909 17.1877C16.8256 17.7723 16.9907 18.4387 16.9676 19.1119C16.9806 19.8385 16.7948 20.5548 16.4302 21.1834C16.2093 21.5766 15.9151 21.9238 15.5635 22.2062C15.1651 22.5286 14.6957 22.7515 14.194 22.8562C13.6243 22.9773 13.043 23.0354 12.4605 23.0296H7V10.011H12.8766C13.4747 9.9643 14.0752 10.0665 14.6242 10.3085C15.1733 10.5505 15.6538 10.9248 16.0229 11.3978C16.4047 11.9879 16.5981 12.6801 16.5776 13.3827C16.6113 14.0665 16.4127 14.7416 16.0142 15.2982C15.7591 15.6051 15.4434 15.8559 15.0868 16.0349C15.6727 16.2476 16.1682 16.6544 16.4909 17.1877Z" stroke="white" stroke-linecap="round" stroke-linejoin="round"/>
<path d="M9.60025 15.2115H12.2005C12.6468 15.2307 13.0901 15.1289 13.4833 14.9168C13.6401 14.8036 13.7644 14.6511 13.8435 14.4746C13.9226 14.2981 13.9538 14.1038 13.934 13.9114C13.9581 13.6847 13.9077 13.4563 13.7904 13.2608C13.6731 13.0653 13.4953 12.9134 13.2839 12.828C12.8213 12.6822 12.3388 12.6091 11.8538 12.6113H9.60025V15.2115ZM13.934 18.7912C13.9554 18.537 13.8967 18.2825 13.7661 18.0633C13.6355 17.8441 13.4396 17.6713 13.2059 17.5691C12.8414 17.4288 12.4522 17.3639 12.0618 17.3784H9.60025V20.412H12.0185C12.4156 20.4318 12.8121 20.3637 13.1799 20.2127C13.4337 20.0787 13.6413 19.8716 13.7758 19.618C13.9103 19.3645 13.9654 19.0764 13.934 18.7912Z" stroke="white" stroke-linecap="round" stroke-linejoin="round"/>
<path d="M26.9179 18.6785V18.2451C26.9721 17.0391 26.5467 15.8607 25.7346 14.9674C24.9225 14.0741 23.7898 13.5387 22.5841 13.478C21.3784 13.5387 20.2458 14.0741 19.4337 14.9674C18.6216 15.8607 18.1962 17.0391 18.2504 18.2451C18.1962 19.4512 18.6216 20.6296 19.4337 21.5229C20.2458 22.4162 21.3784 22.9516 22.5841 23.0123C23.4077 22.9903 24.208 22.734 24.8911 22.2735C25.5742 21.8129 26.1119 21.1672 26.4412 20.412H24.1096C23.945 20.6657 23.7224 20.8767 23.4601 21.0274C23.1979 21.1781 22.9036 21.2643 22.6015 21.2788C21.5094 21.2788 20.6166 20.1433 20.4693 18.6785H26.9179ZM22.5841 15.2115C23.0489 15.2625 23.4862 15.4567 23.8356 15.7673C24.1851 16.0779 24.4292 16.4895 24.5343 16.945H20.634C20.7401 16.4869 20.9868 16.0735 21.3396 15.7626C21.6924 15.4518 22.1337 15.2591 22.6015 15.2115H22.5841Z" stroke="white" stroke-linecap="round" stroke-linejoin="round"/>
<path d="M20.0012 10.011H25.2017V11.7445H20.0012V10.011Z" stroke="white" stroke-linecap="round" stroke-linejoin="round"/>
<rect x="0.5" y="0.5" width="33" height="33" rx="16.5" stroke="white"/>
</svg>
