<svg viewBox="0 0 34 34" fill="none" xmlns="http://www.w3.org/2000/svg">
<path d="M16.75 7C14.1642 7 11.6842 8.02723 9.85573 9.85571C8.02725 11.6842 7.00002 14.1641 7.00002 16.75C6.99597 18.995 7.74586 21.1763 9.12948 22.9443C10.5131 24.7122 12.4503 25.9644 14.6305 26.5V23.9565H13.7826C11.5613 23.9565 10.7813 20.5652 9.54349 20.5652C11.9089 20.5652 12.3668 22.2609 13.7826 22.2609C13.8976 22.2762 14.0145 22.2649 14.1244 22.2277C14.2343 22.1905 14.3341 22.1285 14.4161 22.0465C14.4981 21.9645 14.5601 21.8647 14.5973 21.7548C14.6345 21.645 14.6458 21.528 14.6305 21.413V21.1163C12.1633 20.4211 10.3913 18.5728 10.3913 16.3261C10.4112 15.1573 10.8892 14.043 11.7224 13.223C11.51 12.7647 11.4315 12.2556 11.4961 11.7546C11.5606 11.2535 11.7654 10.7809 12.087 10.3913C12.8626 10.6241 13.5601 11.0638 14.1048 11.663C15.8137 11.0424 17.6864 11.0424 19.3952 11.663C19.9399 11.0638 20.6375 10.6241 21.4131 10.3913C21.7346 10.7809 21.9395 11.2535 22.004 11.7546C22.0685 12.2556 21.99 12.7647 21.7776 13.223C22.6109 14.043 23.0889 15.1573 23.1087 16.3261C23.1087 18.6491 21.1672 20.5652 18.5135 21.2096C18.7869 21.8036 18.9092 22.456 18.8696 23.1087V26.5C21.0498 25.9644 22.9869 24.7122 24.3706 22.9443C25.7542 21.1763 26.5041 18.995 26.5 16.75C26.5 14.1641 25.4728 11.6842 23.6443 9.85571C21.8158 8.02723 19.3359 7 16.75 7Z" stroke="white" stroke-linecap="round" stroke-linejoin="round"/>
<rect x="0.5" y="0.5" width="33" height="33" rx="16.5" stroke="white"/>
</svg>
