<svg viewBox="0 0 34 34" fill="none" xmlns="http://www.w3.org/2000/svg">
    <path d="M17 12.5C16.11 12.5 15.24 12.7639 14.4999 13.2584C13.7599 13.7529 13.1831 14.4557 12.8425 15.2779C12.5019 16.1002 12.4128 17.005 12.5865 17.8779C12.7601 18.7508 13.1887 19.5526 13.818 20.182C14.4474 20.8113 15.2492 21.2399 16.1221 21.4135C16.995 21.5872 17.8998 21.4981 18.7221 21.1575C19.5443 20.8169 20.2471 20.2401 20.7416 19.5001C21.2361 18.76 21.5 17.89 21.5 17C21.4988 15.8069 21.0243 14.663 20.1806 13.8194C19.337 12.9757 18.1931 12.5012 17 12.5ZM17 20C16.4067 20 15.8266 19.8241 15.3333 19.4944C14.8399 19.1648 14.4554 18.6962 14.2284 18.1481C14.0013 17.5999 13.9419 16.9967 14.0576 16.4147C14.1734 15.8328 14.4591 15.2982 14.8787 14.8787C15.2982 14.4591 15.8328 14.1734 16.4147 14.0576C16.9967 13.9419 17.5999 14.0013 18.1481 14.2284C18.6962 14.4554 19.1648 14.8399 19.4944 15.3333C19.8241 15.8266 20 16.4067 20 17C20 17.7956 19.6839 18.5587 19.1213 19.1213C18.5587 19.6839 17.7956 20 17 20ZM21.5 7.25H12.5C11.1081 7.25149 9.77358 7.80509 8.78933 8.78933C7.80509 9.77358 7.25149 11.1081 7.25 12.5V21.5C7.25149 22.8919 7.80509 24.2264 8.78933 25.2107C9.77358 26.1949 11.1081 26.7485 12.5 26.75H21.5C22.8919 26.7485 24.2264 26.1949 25.2107 25.2107C26.1949 24.2264 26.7485 22.8919 26.75 21.5V12.5C26.7485 11.1081 26.1949 9.77358 25.2107 8.78933C24.2264 7.80509 22.8919 7.25149 21.5 7.25ZM25.25 21.5C25.25 22.4946 24.8549 23.4484 24.1516 24.1516C23.4484 24.8549 22.4946 25.25 21.5 25.25H12.5C11.5054 25.25 10.5516 24.8549 9.84835 24.1516C9.14509 23.4484 8.75 22.4946 8.75 21.5V12.5C8.75 11.5054 9.14509 10.5516 9.84835 9.84835C10.5516 9.14509 11.5054 8.75 12.5 8.75H21.5C22.4946 8.75 23.4484 9.14509 24.1516 9.84835C24.8549 10.5516 25.25 11.5054 25.25 12.5V21.5ZM23 12.125C23 12.3475 22.934 12.565 22.8104 12.75C22.6868 12.935 22.5111 13.0792 22.3055 13.1644C22.1 13.2495 21.8738 13.2718 21.6555 13.2284C21.4373 13.185 21.2368 13.0778 21.0795 12.9205C20.9222 12.7632 20.815 12.5627 20.7716 12.3445C20.7282 12.1262 20.7505 11.9 20.8356 11.6945C20.9208 11.4889 21.065 11.3132 21.25 11.1896C21.435 11.066 21.6525 11 21.875 11C22.1734 11 22.4595 11.1185 22.6705 11.3295C22.8815 11.5405 23 11.8266 23 12.125Z" fill="white"/>
    <rect x="0.5" y="0.5" width="33" height="33" rx="16.5" stroke="white"/>
</svg>
