<svg width="34" height="34" viewBox="0 0 34 34" fill="none" xmlns="http://www.w3.org/2000/svg">
    <path fill-rule="evenodd" clip-rule="evenodd" d="M10 6.25C9.27065 6.25 8.57118 6.53973 8.05546 7.05546C7.53973 7.57118 7.25 8.27065 7.25 9C7.25 9.72935 7.53973 10.4288 8.05546 10.9445C8.57118 11.4603 9.27065 11.75 10 11.75C10.7293 11.75 11.4288 11.4603 11.9445 10.9445C12.4603 10.4288 12.75 9.72935 12.75 9C12.75 8.27065 12.4603 7.57118 11.9445 7.05546C11.4288 6.53973 10.7293 6.25 10 6.25ZM8.75 9C8.75 8.66848 8.8817 8.35054 9.11612 8.11612C9.35054 7.8817 9.66848 7.75 10 7.75C10.3315 7.75 10.6495 7.8817 10.8839 8.11612C11.1183 8.35054 11.25 8.66848 11.25 9C11.25 9.33152 11.1183 9.64946 10.8839 9.88388C10.6495 10.1183 10.3315 10.25 10 10.25C9.66848 10.25 9.35054 10.1183 9.11612 9.88388C8.8817 9.64946 8.75 9.33152 8.75 9ZM7.25 13C7.25 12.8011 7.32902 12.6103 7.46967 12.4697C7.61032 12.329 7.80109 12.25 8 12.25H12C12.1989 12.25 12.3897 12.329 12.5303 12.4697C12.671 12.6103 12.75 12.8011 12.75 13V26C12.75 26.1989 12.671 26.3897 12.5303 26.5303C12.3897 26.671 12.1989 26.75 12 26.75H8C7.80109 26.75 7.61032 26.671 7.46967 26.5303C7.32902 26.3897 7.25 26.1989 7.25 26V13ZM8.75 13.75V25.25H11.25V13.75H8.75ZM14.25 13C14.25 12.8011 14.329 12.6103 14.4697 12.4697C14.6103 12.329 14.8011 12.25 15 12.25H19C19.1989 12.25 19.3897 12.329 19.5303 12.4697C19.671 12.6103 19.75 12.8011 19.75 13V13.434L20.185 13.247C20.935 12.9265 21.7307 12.7257 22.543 12.652C25.318 12.4 27.75 14.58 27.75 17.38V26C27.75 26.1989 27.671 26.3897 27.5303 26.5303C27.3897 26.671 27.1989 26.75 27 26.75H23C22.8011 26.75 22.6103 26.671 22.4697 26.5303C22.329 26.3897 22.25 26.1989 22.25 26V19C22.25 18.6685 22.1183 18.3505 21.8839 18.1161C21.6495 17.8817 21.3315 17.75 21 17.75C20.6685 17.75 20.3505 17.8817 20.1161 18.1161C19.8817 18.3505 19.75 18.6685 19.75 19V26C19.75 26.1989 19.671 26.3897 19.5303 26.5303C19.3897 26.671 19.1989 26.75 19 26.75H15C14.8011 26.75 14.6103 26.671 14.4697 26.5303C14.329 26.3897 14.25 26.1989 14.25 26V13ZM15.75 13.75V25.25H18.25V19C18.25 18.2707 18.5397 17.5712 19.0555 17.0555C19.5712 16.5397 20.2707 16.25 21 16.25C21.7293 16.25 22.4288 16.5397 22.9445 17.0555C23.4603 17.5712 23.75 18.2707 23.75 19V25.25H26.25V17.38C26.25 15.476 24.589 13.972 22.68 14.146C22.0242 14.2057 21.3817 14.3676 20.776 14.626L19.296 15.261C19.1818 15.31 19.0573 15.3299 18.9336 15.3189C18.8098 15.3079 18.6907 15.2663 18.587 15.1979C18.4833 15.1295 18.3982 15.0364 18.3394 14.927C18.2806 14.8176 18.2499 14.6952 18.25 14.571V13.75H15.75Z" fill="white"/>
    <rect x="0.5" y="0.5" width="33" height="33" rx="16.5" stroke="white"/>
</svg>
