<svg viewBox="0 0 34 34" fill="none" xmlns="http://www.w3.org/2000/svg">
    <path d="M26 9.5H8C7.80109 9.5 7.61032 9.57902 7.46967 9.71967C7.32902 9.86032 7.25 10.0511 7.25 10.25V23C7.25 23.3978 7.40804 23.7794 7.68934 24.0607C7.97064 24.342 8.35218 24.5 8.75 24.5H25.25C25.6478 24.5 26.0294 24.342 26.3107 24.0607C26.592 23.7794 26.75 23.3978 26.75 23V10.25C26.75 10.0511 26.671 9.86032 26.5303 9.71967C26.3897 9.57902 26.1989 9.5 26 9.5ZM17 17.4828L9.92844 11H24.0716L17 17.4828ZM14.2541 17L8.75 22.0447V11.9553L14.2541 17ZM15.3641 18.0172L16.4891 19.0531C16.6274 19.1801 16.8084 19.2506 16.9963 19.2506C17.1841 19.2506 17.3651 19.1801 17.5034 19.0531L18.6284 18.0172L24.0659 23H9.92844L15.3641 18.0172ZM19.7459 17L25.25 11.9544V22.0456L19.7459 17Z" fill="white"/>
    <rect x="0.5" y="0.5" width="33" height="33" rx="16.5" stroke="white"/>
</svg>
