<svg viewBox="0 0 34 34" fill="none" xmlns="http://www.w3.org/2000/svg">
<path fill-rule="evenodd" clip-rule="evenodd" d="M12.125 11.375C9.02037 11.375 6.5 13.8958 6.5 17C6.5 20.1046 9.02037 22.625 12.125 22.625C15.2296 22.625 17.75 20.1046 17.75 17C17.75 13.8958 15.2296 11.375 12.125 11.375ZM12.125 12.125C14.8156 12.125 17 14.3094 17 17C17 19.691 14.8156 21.875 12.125 21.875C9.43437 21.875 7.25 19.691 7.25 17C7.25 14.3094 9.43437 12.125 12.125 12.125ZM21.5 11.75C20.8126 11.75 20.1635 12.1422 19.6479 12.8442C18.959 13.7825 18.5004 15.2934 18.5004 17.0004C18.5004 18.7066 18.959 20.2179 19.6479 21.1561C20.1635 21.8581 20.8126 22.25 21.5004 22.25C22.1877 22.25 22.8369 21.8577 23.3521 21.1558C24.0414 20.2175 24.5 18.707 24.5 17C24.5 15.293 24.0414 13.7821 23.3525 12.8439C22.8365 12.1422 22.1874 11.75 21.5 11.75ZM21.5 12.5C21.9718 12.5 22.394 12.8067 22.7476 13.2882C23.3622 14.1249 23.75 15.4782 23.75 17.0004C23.75 18.5221 23.3622 19.8755 22.7476 20.7121C22.394 21.1936 21.9714 21.5 21.5 21.5C21.0286 21.5 20.606 21.1936 20.2524 20.7121C19.6381 19.8755 19.25 18.5221 19.25 17C19.25 15.4775 19.6381 14.1245 20.2524 13.2879C20.606 12.8064 21.0286 12.5 21.5 12.5ZM26.375 12.5C26.2588 12.5 26.1414 12.5375 26.03 12.6275C25.9108 12.7235 25.7799 12.9178 25.6768 13.2118C25.4277 13.922 25.25 15.3522 25.25 17.0004C25.25 18.6481 25.4277 20.0784 25.6768 20.7886C25.7799 21.0826 25.9108 21.2769 26.03 21.3729C26.1414 21.4629 26.2588 21.5004 26.375 21.5004C26.4912 21.5004 26.609 21.4629 26.72 21.3729C26.8396 21.2769 26.9705 21.0826 27.0736 20.7886C27.3226 20.0784 27.5 18.6481 27.5 17C27.5 15.3519 27.3226 13.9216 27.0736 13.2114C26.9705 12.9174 26.8396 12.7231 26.7204 12.6271C26.6237 12.5455 26.5015 12.5005 26.375 12.5ZM26.375 13.4878C26.6026 14.1601 26.75 15.482 26.75 17.0004C26.75 18.5184 26.6026 19.8403 26.375 20.5126C26.1478 19.8403 26 18.5184 26 17.0004C26 15.482 26.1478 14.1601 26.375 13.4878Z" fill="white"/>
<rect x="0.5" y="0.5" width="33" height="33" rx="16.5" stroke="white"/>
</svg>
