<svg viewBox="0 0 34 34" fill="none" xmlns="http://www.w3.org/2000/svg">
<path d="M25.0124 10.0409V7.7502C24.8509 7.7502 24.6418 7.75 24.1847 7.75L9.70129 7.7502C9.24419 7.7502 9.04229 7.7502 8.87364 7.7502V10.0409C8.98184 10.0409 9.24419 10.0412 9.70129 10.0412L24.1847 10.0409C24.6418 10.0409 24.8908 10.0409 25.0124 10.0409Z" stroke="white" stroke-linecap="round" stroke-linejoin="round"/>
<path d="M25.0124 14.1752V11.8845H9.70124C9.24414 11.8845 9.01239 11.8845 8.87359 11.8845V14.1752C9.00589 14.1752 9.24414 14.1752 9.70124 14.1752H25.0124Z" stroke="white" stroke-linecap="round" stroke-linejoin="round"/>
<path d="M25.1278 26.25V16.1589C25.1278 16.0773 24.6416 16.1051 24.1845 16.1051H9.70109C9.24399 16.1051 8.87344 16.0773 8.87344 16.1589V26.1028C9.01414 26.0217 16.5442 21.9969 16.958 21.8039C17.2158 21.9525 23.7806 25.4735 25.1278 26.25Z" stroke="white" stroke-linecap="round" stroke-linejoin="round"/>
<rect x="0.5" y="0.5" width="33" height="33" rx="16.5" stroke="white"/>
</svg>
