<svg viewBox="0 0 34 34" fill="none" xmlns="http://www.w3.org/2000/svg">
<path d="M17 7.25C15.0716 7.25 13.1866 7.82183 11.5832 8.89317C9.97982 9.96451 8.73013 11.4873 7.99218 13.2688C7.25422 15.0504 7.06114 17.0108 7.43735 18.9021C7.81355 20.7934 8.74215 22.5307 10.1057 23.8943C11.4693 25.2579 13.2066 26.1865 15.0979 26.5627C16.9892 26.9389 18.9496 26.7458 20.7312 26.0078C22.5127 25.2699 24.0355 24.0202 25.1068 22.4168C26.1782 20.8134 26.75 18.9284 26.75 17C26.7473 14.415 25.7192 11.9366 23.8913 10.1087C22.0634 8.28084 19.585 7.25273 17 7.25ZM25.2153 16.25H21.4813C21.3491 13.5819 20.5184 11.0497 19.1263 9.03125C20.7568 9.469 22.2142 10.3954 23.3027 11.6858C24.3912 12.9763 25.0587 14.569 25.2153 16.25ZM17 25.2397C15.2441 23.3394 14.1791 20.6459 14.0216 17.75H19.9784C19.8209 20.6441 18.7559 23.3394 17 25.2397ZM14.0216 16.25C14.1791 13.3559 15.2403 10.6606 17 8.76031C18.7559 10.6606 19.8209 13.3541 19.9784 16.25H14.0216ZM14.8738 9.03125C13.4816 11.0497 12.6509 13.5819 12.5188 16.25H8.78469C8.94133 14.569 9.60876 12.9763 10.6973 11.6858C11.7858 10.3954 13.2432 9.469 14.8738 9.03125ZM8.78469 17.75H12.5188C12.6509 20.4181 13.4816 22.9503 14.8738 24.9688C13.2432 24.531 11.7858 23.6046 10.6973 22.3142C9.60876 21.0237 8.94133 19.431 8.78469 17.75ZM19.1263 24.9688C20.5184 22.9475 21.3491 20.4153 21.4813 17.75H25.2153C25.0587 19.431 24.3912 21.0237 23.3027 22.3142C22.2142 23.6046 20.7568 24.531 19.1263 24.9688Z" fill="white"/>
<rect x="0.5" y="0.5" width="33" height="33" rx="16.5" stroke="white"/>
</svg>
