<svg viewBox="0 0 24 24" fill="none" xmlns="http://www.w3.org/2000/svg">
    <path d="M12.0002 1.5002C10.6189 1.49164 9.2497 1.75738 7.97191 2.28202C6.69413 2.80666 5.53321 3.57976 4.55649 4.55649C3.57976 5.53321 2.80666 6.69413 2.28202 7.97191C1.75738 9.2497 1.49164 10.6189 1.5002 12.0002C1.49164 13.3815 1.75738 14.7507 2.28202 16.0285C2.80666 17.3063 3.57976 18.4672 4.55649 19.4439C5.53321 20.4206 6.69413 21.1937 7.97191 21.7184C9.2497 22.243 10.6189 22.5088 12.0002 22.5002C13.3815 22.5088 14.7507 22.243 16.0285 21.7184C17.3063 21.1937 18.4672 20.4206 19.4439 19.4439C20.4206 18.4672 21.1937 17.3063 21.7184 16.0285C22.243 14.7507 22.5088 13.3815 22.5002 12.0002C22.5088 10.6189 22.243 9.2497 21.7184 7.97191C21.1937 6.69413 20.4206 5.53321 19.4439 4.55649C18.4672 3.57976 17.3063 2.80666 16.0285 2.28202C14.7507 1.75738 13.3815 1.49164 12.0002 1.5002ZM16.084 17.2502L6.7502 7.9172L7.9172 6.7502L17.2502 16.084L16.084 17.2502Z" fill="#EA4335"/>
</svg>
