<svg width="249" height="48" viewBox="0 0 249 48" fill="none" xmlns="http://www.w3.org/2000/svg">
    <path d="M19.7403 7.55448C16.8347 7.55448 15.963 8.83293 15.963 11.6804V16.3874H23.7499L22.9945 24.0581H15.963V47.2446H6.60708V24.0581H0.331055V16.4455H6.60708V11.8547C6.60708 4.0678 9.7451 0 18.4037 0C20.2051 0 22.0647 0.116223 23.8662 0.348668V7.55448" fill="#999999"/>
    <path d="M24.3892 30.857C24.3892 22.2565 28.457 15.748 37.0575 15.748C41.7064 15.748 44.5539 18.1306 45.9485 21.1524V16.4454H54.8977V47.3025H45.8904V42.6536C44.612 45.6173 41.6483 47.9418 36.9994 47.9418C28.457 47.9418 24.3311 41.4914 24.3311 32.8328M33.7452 32.949C33.7452 37.5398 35.4304 40.6197 39.7887 40.6197C43.6241 40.6197 45.5418 37.8304 45.5418 33.4139V30.2759C45.5418 25.8594 43.566 23.0701 39.7887 23.0701C35.4304 23.0701 33.7452 26.0919 33.7452 30.7408V32.949Z" fill="#999999"/>
    <path d="M74.3068 15.748C77.9097 15.748 81.3964 16.5035 83.2559 17.8401L81.1639 24.4648C79.2463 23.535 77.0961 23.0701 74.946 23.0701C69.8903 23.0701 67.6821 25.9756 67.6821 30.9732V32.7747C67.6821 37.7723 69.8903 40.6778 74.946 40.6778C77.0961 40.6778 79.2463 40.1548 81.1639 39.225L83.2559 45.8497C81.3964 47.1282 77.9678 47.9418 74.3068 47.9418C63.3237 47.9418 58.3843 42.0725 58.3843 32.6003V31.1476C58.3843 21.6754 63.3237 15.748 74.3068 15.748Z" fill="#999999"/>
    <path d="M84.4763 33.0071V30.2759C84.4763 21.5011 89.4739 15.748 99.6434 15.748C109.232 15.748 113.474 21.5592 113.474 30.1597V35.0991H93.8322C94.0066 39.3413 95.9243 41.2008 101.096 41.2008C104.467 41.2008 107.837 40.5616 111.033 39.3413L112.718 45.7335C110.278 47.012 105.222 47.9999 100.748 47.9999C88.8928 47.9418 84.4763 42.0725 84.4763 33.0071ZM93.8322 28.9393H105.106V28.1839C105.106 24.8134 103.769 22.1403 99.6434 22.1403C95.4594 22.1403 93.8322 24.8134 93.8322 28.9393Z" fill="#999999"/>
    <path d="M148.108 32.8329C148.108 41.4334 143.982 47.9419 135.382 47.9419C130.733 47.9419 127.479 45.6174 126.2 42.6537V47.3027H117.367V0.92977L126.723 0.116211V20.7458C128.06 18.0145 131.082 15.8063 135.44 15.8063C143.982 15.8063 148.166 22.2566 148.166 30.9152M138.752 30.6828C138.752 26.3244 137.067 23.0702 132.593 23.0702C128.757 23.0702 126.723 25.8014 126.723 30.2179V33.4721C126.723 37.8886 128.815 40.6198 132.593 40.6198C137.067 40.6198 138.752 37.3656 138.752 33.0073V30.6828Z" fill="#999999"/>
    <path d="M151.188 32.6003V31.0313C151.188 22.1403 156.244 15.748 166.53 15.748C176.815 15.748 181.871 22.1403 181.871 31.0313V32.6003C181.871 41.4914 176.815 47.8836 166.53 47.8836C156.244 47.8836 151.188 41.5495 151.188 32.6003ZM172.573 30.3921C172.573 26.3243 170.888 23.0701 166.53 23.0701C162.171 23.0701 160.486 26.3243 160.486 30.3921V33.2977C160.486 37.3655 162.171 40.6197 166.53 40.6197C170.888 40.6197 172.573 37.3655 172.573 33.2977V30.3921Z" fill="#999999"/>
    <path d="M185.067 32.6003V31.0313C185.067 22.1403 190.123 15.748 200.409 15.748C210.694 15.748 215.75 22.1403 215.75 31.0313V32.6003C215.75 41.4914 210.694 47.8836 200.409 47.8836C190.123 47.8836 185.067 41.5495 185.067 32.6003ZM206.452 30.3921C206.452 26.3243 204.767 23.0701 200.409 23.0701C196.05 23.0701 194.365 26.3243 194.365 30.3921V33.2977C194.365 37.3655 196.05 40.6197 200.409 40.6197C204.767 40.6197 206.452 37.3655 206.452 33.2977V30.3921Z" fill="#999999"/>
    <path d="M228.592 31.1477L237.832 16.3874H247.711L238.065 31.6707L248.118 47.3027H238.181L228.592 32.1937V47.3027H219.295V0.929776L228.592 0.0581055" fill="#999999"/>
</svg>
