<svg viewBox="0 0 148 48" fill="none" xmlns="http://www.w3.org/2000/svg">
    <path d="M18.1106 0H19.4183C23.9581 0.0986915 28.4239 1.92448 31.6314 5.15663C30.4471 6.3656 29.2381 7.52523 28.0785 8.7342C26.2773 7.10579 24.1061 5.84747 21.7375 5.40336C18.234 4.66318 14.459 5.32934 11.523 7.32785C8.31548 9.42504 6.14427 12.9779 5.67548 16.7776C5.15735 20.5278 6.21829 24.4755 8.6609 27.3869C11.0048 30.2243 14.5824 32.0007 18.2833 32.1241C21.7375 32.3215 25.3398 31.2605 27.8564 28.8426C29.8302 27.1402 30.7431 24.5495 31.0392 22.0329C26.9435 22.0329 22.8478 22.0576 18.7521 22.0329V16.9503H35.9985C36.8867 22.403 35.6037 28.5465 31.4587 32.4448C28.6953 35.2082 24.871 36.8366 20.9727 37.1574C17.1977 37.5275 13.2994 36.8119 9.94389 34.9862C5.92221 32.8396 2.71474 29.2127 1.13567 24.9443C-0.344702 21.0213 -0.369375 16.5802 1.01231 12.6325C2.27062 9.03028 4.68857 5.84747 7.79735 3.62691C10.7828 1.43103 14.4097 0.222056 18.1106 0Z" fill="#999999"/>
    <path d="M117.049 1.28296H122.329V36.5158C120.577 36.5158 118.801 36.5405 117.049 36.4912C117.074 24.7715 117.049 13.0273 117.049 1.28296Z" fill="#999999"/>
    <path d="M47.7428 13.496C50.9996 12.8791 54.5278 13.57 57.2172 15.5191C59.6598 17.2462 61.3622 19.9603 61.8803 22.921C62.5465 26.3505 61.7076 30.1008 59.4871 32.8148C57.0938 35.8496 53.1708 37.478 49.3465 37.2313C45.843 37.0339 42.4381 35.2821 40.3656 32.4201C38.0217 29.2619 37.4542 24.9195 38.7372 21.2186C40.0202 17.2462 43.6471 14.2115 47.7428 13.496ZM48.483 18.1838C47.1506 18.5292 45.917 19.2941 45.0288 20.3797C42.6355 23.2418 42.7835 27.9049 45.4235 30.5696C46.9286 32.0993 49.1985 32.8148 51.2957 32.3954C53.2448 32.05 54.9473 30.7423 55.8848 29.0152C57.5132 26.0791 57.0445 22.0328 54.5525 19.7382C52.9488 18.2578 50.6048 17.641 48.483 18.1838Z" fill="#999999"/>
    <path d="M73.896 13.4961C77.6216 12.7806 81.6926 13.8168 84.4806 16.4321C89.0204 20.5032 89.5139 28.1271 85.6403 32.8149C83.2963 35.7757 79.4967 37.4041 75.7464 37.2314C72.1689 37.1327 68.6406 35.3562 66.5188 32.4202C64.1255 29.188 63.6074 24.7469 64.9644 20.972C66.3214 17.123 69.8743 14.1869 73.896 13.4961ZM74.6362 18.1839C73.3038 18.5293 72.0702 19.2942 71.1819 20.3551C68.8134 23.1678 68.912 27.757 71.4534 30.4463C72.9584 32.0501 75.3023 32.8396 77.4735 32.3955C79.398 32.0254 81.1251 30.7424 82.0627 29.0153C83.6664 26.0546 83.1976 22.0082 80.681 19.7136C79.0773 18.2333 76.7333 17.6411 74.6362 18.1839Z" fill="#999999"/>
    <path d="M96.0769 14.9271C98.9143 13.1507 102.689 12.6572 105.749 14.1869C106.711 14.6064 107.5 15.3219 108.265 16.0374C108.29 15.3712 108.265 14.6804 108.29 13.9896C109.943 14.0142 111.596 13.9896 113.274 14.0142V35.7757C113.249 39.0572 112.41 42.5361 110.042 44.9294C107.451 47.5694 103.479 48.3836 99.9012 47.8408C96.0769 47.2733 92.746 44.4853 91.2657 40.957C92.746 40.2415 94.3004 39.674 95.8301 39.0079C96.6937 41.0311 98.4455 42.7582 100.641 43.1529C102.837 43.5477 105.379 43.0049 106.81 41.1791C108.339 39.3039 108.339 36.738 108.265 34.4434C107.13 35.5537 105.823 36.5406 104.244 36.9107C100.814 37.8729 97.0391 36.6886 94.3991 34.3694C91.7345 32.0501 90.1554 28.4726 90.3034 24.9197C90.3774 20.898 92.6473 17.0243 96.0769 14.9271ZM101.184 18.0853C99.6791 18.332 98.2728 19.1709 97.3105 20.3305C94.9913 23.0939 94.9913 27.5103 97.3352 30.2243C98.6675 31.8281 100.814 32.7163 102.887 32.4942C104.836 32.2969 106.637 31.0632 107.599 29.3608C109.228 26.474 108.956 22.5511 106.76 20.0344C105.403 18.48 103.232 17.7152 101.184 18.0853Z" fill="#999999"/>
    <path d="M128.67 16.1855C131.631 13.4221 136.195 12.4845 139.995 13.9402C143.597 15.2972 145.891 18.7268 147.051 22.255C141.697 24.4756 136.368 26.6714 131.014 28.892C131.754 30.2984 132.889 31.5814 134.419 32.0995C136.565 32.8643 139.131 32.5929 140.932 31.1619C141.648 30.6191 142.215 29.9036 142.758 29.2128C144.115 30.1257 145.472 31.0139 146.829 31.9268C144.905 34.8135 141.672 36.8367 138.194 37.1574C134.345 37.6262 130.249 36.1458 127.757 33.1357C123.661 28.3986 124.056 20.4539 128.67 16.1855ZM131.31 20.75C130.471 21.9589 130.126 23.4393 130.15 24.895C133.728 23.4146 137.305 21.9343 140.883 20.4292C140.291 19.0475 138.86 18.2087 137.404 17.9866C135.06 17.5672 132.617 18.8255 131.31 20.75Z" fill="#999999"/>
</svg>
