<svg width="69" height="48" viewBox="0 0 69 48" fill="none" xmlns="http://www.w3.org/2000/svg">
    <path fill-rule="evenodd" clip-rule="evenodd" d="M0.512573 0.837658H10.8111V28.4766C10.8111 32.8506 12.8119 35.4561 14.3941 36.573C12.7191 38.0619 7.60064 39.3648 3.78509 36.2005C1.53558 34.3354 0.512573 31.2685 0.512573 28.3834V0.837658ZM64.8745 23.7967V20.8921H68.0155V10.7022H64.5662C63.2421 4.58434 57.7954 0 51.2815 0C43.7775 0 37.6947 6.08322 37.6947 13.5869V37.3835C39.8325 37.684 42.3794 37.3462 44.5463 35.5493C46.7955 33.6838 47.8185 30.6172 47.8185 27.7321V26.8554H52.962V16.6655H47.8185V13.5869H47.8309C47.8309 11.6813 49.3756 10.1365 51.2815 10.1365C53.1871 10.1365 54.738 11.6813 54.738 13.5869V23.7967C54.738 31.3003 60.8274 37.3835 68.331 37.3835V27.247C66.4255 27.247 64.8745 25.7022 64.8745 23.7967ZM25.8702 10.7022V25.657C25.8702 26.506 25.1658 27.1943 24.2966 27.1943C23.4274 27.1943 22.723 26.506 22.723 25.657V10.7022H12.5327V28.2906C12.5327 31.4545 13.6057 35.4561 18.4888 36.759C23.3771 38.0633 26.2128 35.3632 26.2128 35.3632C25.9544 37.142 24.2791 38.4449 21.5805 38.7241C19.5386 38.9352 16.9273 38.2589 15.6247 37.7005V47.0189C18.9438 47.9977 22.4544 48.3139 25.89 47.6472C32.125 46.4375 36.0601 41.2262 36.0601 34.2929V10.7022H25.8702Z" fill="#999999"/>
</svg>
