<svg viewBox="0 0 147 48" fill="none" xmlns="http://www.w3.org/2000/svg">
    <path d="M132.48 31.547C128.413 31.547 125.547 28.3735 125.547 24.202C125.547 20.0276 128.413 16.857 132.48 16.857C136.546 16.857 139.333 20.0304 139.333 24.202C139.333 28.3735 136.506 31.547 132.48 31.547ZM131.826 35.9205C135.104 35.9205 137.891 34.6409 139.651 31.9622C139.984 34.5612 141.864 35.5081 144.238 35.5081H146.132V31.3878H145.319C143.971 31.3878 143.638 30.7337 143.638 29.201V12.91H139.293V16.257C137.814 13.911 135.028 12.4977 131.826 12.4977C126.119 12.4977 120.881 17.2835 120.881 24.2048C120.881 31.1233 126.133 35.9119 131.826 35.9119V35.9205ZM109.441 30.2674C109.441 33.9726 111.733 35.5081 114.48 35.5081H119.772V31.3878H115.919C114.318 31.3878 113.985 30.7736 113.985 29.201V17.0276H119.772V12.9072H113.985V5.32047H109.438V30.2674H109.441ZM88.7366 35.5053H93.2835V25.8115H94.802L102.548 35.5053H108.295L98.4162 23.2124L106.003 12.9072H100.884L94.6854 21.6143H93.2864V5.32332H88.7394V35.5053H88.7366ZM73.9783 12.4949C67.62 12.4949 62.3793 17.2807 62.3793 24.202C62.3793 31.1205 67.6314 35.9091 73.9783 35.9091C80.3252 35.9091 85.5774 31.1233 85.5774 24.202C85.5774 17.2807 80.3224 12.4949 73.9783 12.4949ZM73.9783 31.547C69.912 31.547 67.0456 28.3735 67.0456 24.202C67.0456 20.0276 69.912 16.857 73.9783 16.857C78.0447 16.857 80.911 20.0304 80.911 24.202C80.911 28.3735 78.0447 31.547 73.9783 31.547Z" fill="#999999"/>
    <path fill-rule="evenodd" clip-rule="evenodd" d="M26.9281 0.335543L25.9414 12.4948C25.4751 12.4408 25.0087 12.4152 24.5281 12.4152C23.9281 12.4152 23.3424 12.455 22.7679 12.5488L22.2078 6.65403C22.1935 6.46635 22.3414 6.30711 22.5291 6.30711H23.53L23.0495 0.34692C23.0352 0.159242 23.1831 0 23.3566 0H26.6239C26.8115 0 26.9566 0.159242 26.931 0.34692V0.335543H26.9281ZM18.6874 0.935543C18.6333 0.762083 18.4485 0.65687 18.2751 0.722273L15.2096 1.84265C15.0362 1.90806 14.9566 2.10995 15.0362 2.26919L17.53 7.70901L16.5831 8.05592C16.4096 8.12132 16.33 8.32322 16.4096 8.48246L18.9575 13.8284C19.8788 13.3223 20.8769 12.9355 21.9319 12.6938L18.7044 0.935543H18.6874ZM11.1689 4.32227L18.221 14.2692C17.3281 14.855 16.5149 15.5488 15.821 16.3479L11.5954 12.1877C11.4618 12.054 11.476 11.8408 11.6096 11.7213L12.3831 11.0815L8.18311 6.82749C8.04946 6.69384 8.06368 6.48057 8.2087 6.36114L10.7025 4.26825C10.8504 4.14881 11.0495 4.17441 11.1547 4.32227H11.1689ZM5.24851 10.0806C5.10064 9.97251 4.88737 10.0265 4.79638 10.1886L3.16984 13.0152C3.076 13.1744 3.14424 13.3763 3.30349 13.4559L8.7177 16.0152L8.21154 16.8825C8.1177 17.0417 8.18595 17.255 8.35941 17.3232L13.7452 19.7886C14.1319 18.7877 14.6523 17.855 15.2921 17.0161L5.24851 10.0806ZM1.26178 17.7611C1.28737 17.5735 1.47505 17.4682 1.64851 17.5081L13.4495 20.5877C13.1424 21.5886 12.9689 22.6408 12.9433 23.7355L7.03714 23.255C6.84946 23.2408 6.71581 23.0673 6.75846 22.8825L6.93192 21.8957L0.971731 21.3355C0.784053 21.3213 0.664622 21.1479 0.693058 20.963L1.25325 17.7498L1.26178 17.7611ZM0.823864 25.7346C0.636186 25.7488 0.516755 25.9223 0.545191 26.1071L1.1196 29.3204C1.14519 29.5081 1.33287 29.6133 1.50633 29.5735L7.29306 28.0663L7.46652 29.0531C7.49211 29.2408 7.67979 29.346 7.85325 29.3062L13.5604 27.7337C13.2277 26.7469 13.0144 25.6948 12.9604 24.6142L0.809646 25.7346H0.823864ZM2.7177 34.1858C2.62386 34.0265 2.69211 33.8246 2.85135 33.745L13.8646 28.5185C14.2769 29.5052 14.8371 30.4237 15.5054 31.2512L10.6798 34.6919C10.5319 34.8 10.3187 34.7573 10.2277 34.5981L9.7215 33.7194L4.80206 37.1204C4.6542 37.2284 4.44093 37.1744 4.34993 37.0123L2.70917 34.1858H2.7177ZM16.0627 31.8938L7.48927 40.5725C7.35562 40.7062 7.36984 40.9194 7.51486 41.0389L10.0201 43.1318C10.1679 43.2512 10.367 43.2256 10.4722 43.0777L13.9386 38.1981L14.712 38.8521C14.8599 38.9716 15.0732 38.946 15.1784 38.7867L18.5395 33.9071C17.6324 33.3469 16.7935 32.6673 16.0741 31.8938H16.0627ZM14.3679 45.8246C14.1945 45.7592 14.1149 45.5574 14.1945 45.3981L19.2732 34.3052C20.2059 34.7858 21.221 35.1441 22.2732 35.346L20.7803 41.0787C20.7405 41.2521 20.5414 41.3573 20.3679 41.2919L19.421 40.945L17.8343 46.7175C17.7803 46.891 17.5954 46.9962 17.422 46.9308L14.3566 45.8104L14.3679 45.8246ZM23.1149 35.4938L22.1281 47.6531C22.1139 47.8408 22.2618 48 22.4352 48H25.7025C25.8902 48 26.0352 47.8408 26.0096 47.6531L25.5291 41.6929H26.53C26.7177 41.6929 26.8627 41.5336 26.8514 41.346L26.2912 35.454C25.7168 35.5479 25.131 35.5877 24.531 35.5877C24.0476 35.5848 23.5812 35.5592 23.1149 35.4938ZM34.8732 2.5763C34.9528 2.40284 34.8732 2.21517 34.6997 2.14976L31.6343 1.02938C31.4608 0.96398 31.2732 1.06919 31.222 1.24265L29.6352 7.01517L28.6883 6.66825C28.5149 6.60284 28.3272 6.70806 28.276 6.88152L26.7831 12.6142C27.8495 12.8275 28.8504 13.1886 29.7831 13.655L34.8732 2.5763ZM41.567 7.41327L32.9935 16.0919C32.2741 15.3185 31.4466 14.6389 30.5281 14.0787L33.8893 9.19905C33.9973 9.05118 34.2106 9.01137 34.3556 9.13365L35.1291 9.78768L38.5954 4.90806C38.7035 4.76019 38.9168 4.7346 39.0476 4.85403L41.5528 6.94692C41.7006 7.06635 41.7006 7.27962 41.5784 7.41327H41.567ZM46.2078 14.2408C46.3812 14.1611 46.4352 13.9621 46.3414 13.8L44.7006 10.9735C44.6068 10.8142 44.3935 10.7744 44.2485 10.8654L39.3291 14.2664L38.8229 13.3991C38.7291 13.2398 38.5158 13.1858 38.3708 13.3052L33.5452 16.746C34.2106 17.5735 34.7594 18.4919 35.186 19.4787L46.1992 14.2521L46.2078 14.2408ZM47.9395 18.6682L48.4997 21.8815C48.5253 22.0692 48.4059 22.2284 48.221 22.254L36.076 23.3886C36.022 22.2967 35.8087 21.2559 35.476 20.2692L41.1831 18.6967C41.3566 18.6427 41.5442 18.7621 41.5698 18.9498L41.7433 19.9365L47.53 18.4294C47.7035 18.3896 47.8912 18.4948 47.9168 18.6825L47.9395 18.6682ZM47.3935 30.4663C47.567 30.5062 47.7547 30.401 47.7803 30.2133L48.3405 27C48.3661 26.8123 48.2466 26.6531 48.0618 26.6275L42.1016 26.0673L42.2751 25.0806C42.3006 24.8929 42.1812 24.7336 41.9964 24.7081L36.0902 24.2275C36.0646 25.3194 35.8912 26.3744 35.5841 27.3725L47.3822 30.4521L47.3935 30.4663ZM44.2457 37.8C44.1518 37.9592 43.9386 37.9991 43.7935 37.9081L33.7556 30.9754C34.3954 30.1365 34.9158 29.2009 35.3025 28.2028L40.6883 30.6682C40.8618 30.7479 40.9272 30.9469 40.8362 31.109L40.33 31.9763L45.7443 34.5355C45.9035 34.6152 45.9717 34.8142 45.8779 34.9763L44.2457 37.8ZM30.821 33.7052L37.8732 43.6521C37.9812 43.8 38.1945 43.8256 38.3253 43.7062L40.8191 41.6133C40.967 41.4938 40.967 41.2806 40.8447 41.1469L36.6447 36.8929L37.4182 36.2531C37.5661 36.1336 37.5661 35.9204 37.4324 35.7867L33.2068 31.6265C32.5016 32.4256 31.6997 33.1337 30.8068 33.7052H30.821ZM30.7556 47.2521C30.5822 47.3175 30.3945 47.2123 30.3433 47.0389L27.1158 35.2806C28.1679 35.0417 29.1689 34.655 30.0902 34.146L32.6352 39.4919C32.7149 39.6654 32.6352 39.8645 32.4618 39.9185L31.5149 40.2654L34.0087 45.7052C34.0883 45.8787 34.0087 46.0663 33.8352 46.1318L30.7698 47.2521H30.7556Z" fill="#999999"/>
</svg>
