<svg viewBox="0 0 270 48" fill="none" xmlns="http://www.w3.org/2000/svg">
    <path d="M38.4709 4.57969H2.36985C1.1575 4.57969 0.124756 5.61243 0.124756 6.86968V10.9557C0.124756 12.213 1.1575 13.2457 2.36985 13.2457H38.4709C39.7281 13.2457 40.716 12.213 40.7609 10.9557V6.91458C40.7609 5.61243 39.7281 4.57969 38.4709 4.57969ZM38.4709 27.2551H2.36985C1.78612 27.2551 1.2024 27.4796 0.798283 27.9286C0.349265 28.3776 0.124756 28.9164 0.124756 29.5451V33.6311C0.124756 34.8884 1.1575 35.9211 2.36985 35.9211H38.4709C39.7281 35.9211 40.716 34.9333 40.7609 33.6311V29.5451C40.716 28.2429 39.7281 27.2551 38.4709 27.2551ZM22.7104 38.5703H2.36985C1.78612 38.5703 1.2024 38.7948 0.798283 39.2439C0.394167 39.6929 0.124756 40.2317 0.124756 40.8603V44.9464C0.124756 46.2036 1.1575 47.2364 2.36985 47.2364H22.6655C23.9227 47.2364 24.9105 46.2036 24.9105 44.9913V40.9052C24.9554 39.5582 23.9676 38.5254 22.7104 38.5703ZM40.7609 15.8949H2.36985C1.78612 15.8949 1.2024 16.1194 0.798283 16.5685C0.394167 17.0175 0.124756 17.5563 0.124756 18.1849V22.271C0.124756 23.5282 1.1575 24.561 2.36985 24.561H40.716C41.9732 24.561 42.9611 23.5282 42.9611 22.271V18.1849C43.006 16.9277 41.9732 15.9398 40.7609 15.8949Z" fill="#999999"/>
    <path d="M82.744 13.7399C81.6215 12.5725 80.3193 11.6745 78.8376 11.0458C77.3558 10.4172 75.7842 10.1029 74.1678 10.1029C72.5962 10.058 71.0696 10.4172 69.6327 11.0907C68.6898 11.5398 67.8366 12.1684 67.1182 12.9317V12.2133C67.1182 11.8541 66.9835 11.4949 66.759 11.2254C66.5345 10.956 66.1753 10.7764 65.7712 10.7764H60.7871C60.4278 10.7764 60.0686 10.9111 59.8441 11.2254C59.5747 11.4949 59.44 11.8541 59.4849 12.2133V45.7998C59.4849 46.159 59.6196 46.5182 59.8441 46.7877C60.1135 47.0571 60.4278 47.1918 60.7871 47.1918H65.9059C66.2651 47.1918 66.5794 47.0571 66.8488 46.7877C67.1182 46.5631 67.2978 46.2039 67.2529 45.7998V34.305C67.9713 35.1132 68.9143 35.6969 69.947 36.0561C71.2941 36.55 72.686 36.8195 74.1229 36.8195C75.7393 36.8195 77.3558 36.5051 78.8376 35.8765C80.3193 35.2479 81.6664 34.3499 82.7889 33.1824C83.9564 31.9701 84.8544 30.5332 85.483 28.9616C86.2015 27.2105 86.5158 25.3246 86.4709 23.4387C86.5158 21.5529 86.1566 19.667 85.483 17.8709C84.8095 16.3891 83.9115 14.9523 82.744 13.7399ZM78.164 25.9083C77.8946 26.6268 77.4905 27.2554 76.9517 27.8391C75.919 28.9616 74.4372 29.5903 72.9105 29.5903C72.1472 29.5903 71.3839 29.4556 70.6654 29.0963C69.9919 28.782 69.3633 28.3779 68.8245 27.8391C68.2857 27.3003 67.8815 26.6268 67.6121 25.9083C67.0284 24.3817 67.0284 22.7203 67.6121 21.1936C67.8815 20.4752 68.3306 19.8466 68.8245 19.3078C69.3633 18.7689 69.9919 18.3199 70.6654 18.0056C71.3839 17.6913 72.1472 17.5117 72.9105 17.5117C73.7188 17.5117 74.4372 17.6464 75.2005 18.0056C75.8741 18.3199 76.5027 18.724 76.9966 19.2629C77.5354 19.8017 77.8946 20.4303 78.2089 21.1487C78.7478 22.7203 78.7029 24.3817 78.164 25.9083ZM113.906 10.8213H108.832C108.473 10.8213 108.114 10.956 107.889 11.2254C107.62 11.4949 107.485 11.8541 107.485 12.2582V12.8868C106.856 12.1235 106.048 11.5398 105.195 11.1356C103.803 10.4621 102.276 10.1478 100.75 10.1478C97.4718 10.1478 94.3736 11.45 92.0387 13.7399C90.8263 14.9523 89.8834 16.3892 89.2548 17.9607C88.5364 19.7119 88.1771 21.5978 88.222 23.5285C88.1771 25.4144 88.5364 27.3003 89.2548 29.0963C89.9283 30.6679 90.8263 32.1048 92.0387 33.3171C94.3287 35.652 97.4718 36.9542 100.705 36.9542C102.231 36.9991 103.758 36.6399 105.15 35.9663C106.003 35.5173 106.856 34.9336 107.485 34.2152V34.8887C107.485 35.2479 107.62 35.6071 107.889 35.8765C108.158 36.101 108.473 36.2806 108.832 36.2806H113.906C114.265 36.2806 114.624 36.1459 114.849 35.8765C115.118 35.6071 115.253 35.2479 115.253 34.8887V12.3031C115.253 11.9439 115.118 11.5847 114.894 11.3152C114.624 11.0009 114.265 10.8213 113.906 10.8213ZM107.036 25.9083C106.766 26.6268 106.362 27.2554 105.824 27.8391C105.285 28.3779 104.701 28.8269 104.027 29.1413C102.591 29.8148 100.929 29.8148 99.4924 29.1413C98.8189 28.8269 98.1902 28.3779 97.6514 27.8391C97.1126 27.3003 96.7085 26.6268 96.4391 25.9083C95.9003 24.3817 95.9003 22.7203 96.4391 21.1936C96.7085 20.4752 97.1126 19.8915 97.6514 19.3078C98.1902 18.7689 98.774 18.3199 99.4924 18.0056C100.929 17.3321 102.591 17.3321 103.983 18.0056C104.656 18.3199 105.285 18.724 105.779 19.2629C106.273 19.8017 106.677 20.4303 106.991 21.1487C107.62 22.7203 107.62 24.3817 107.036 25.9083ZM164.465 22.855C163.747 22.2264 162.894 21.6876 161.996 21.3283C161.053 20.9242 160.02 20.6548 159.032 20.4303L155.171 19.667C154.183 19.4874 153.464 19.218 153.105 18.9037C152.791 18.6791 152.566 18.3199 152.566 17.9158C152.566 17.5117 152.791 17.1525 153.285 16.8382C153.958 16.479 154.677 16.2993 155.44 16.3442C156.428 16.3442 157.416 16.5688 158.314 16.928C159.212 17.3321 160.065 17.7362 160.873 18.275C161.996 18.9935 162.984 18.8588 163.657 18.0505L165.498 15.9401C165.857 15.5809 166.037 15.1319 166.082 14.638C166.037 14.0992 165.767 13.6501 165.363 13.2909C164.6 12.6174 163.343 11.899 161.681 11.1805C160.02 10.4621 157.91 10.1029 155.44 10.1029C153.913 10.058 152.432 10.2825 150.995 10.7315C149.782 11.1356 148.615 11.7194 147.582 12.4827C146.639 13.2011 145.921 14.0992 145.382 15.1768C144.888 16.2095 144.619 17.3321 144.619 18.4546C144.619 20.565 145.247 22.2713 146.505 23.5285C147.762 24.7858 149.423 25.6389 151.489 26.043L155.53 26.9411C156.383 27.0758 157.281 27.3452 158.089 27.7493C158.538 27.9289 158.808 28.3779 158.808 28.8718C158.808 29.3209 158.583 29.725 158.089 30.0842C157.595 30.4434 156.787 30.6679 155.709 30.6679C154.632 30.6679 153.509 30.4434 152.521 29.9495C151.578 29.5005 150.725 28.9167 149.917 28.2432C149.558 27.9738 149.199 27.7493 148.75 27.5697C148.301 27.435 147.717 27.5697 147.133 28.0636L144.933 29.725C144.304 30.174 143.99 30.9373 144.17 31.6558C144.304 32.4191 144.888 33.1375 146.011 33.9907C148.795 35.8765 152.117 36.8644 155.485 36.7746C157.056 36.7746 158.628 36.5949 160.11 36.1459C161.412 35.7418 162.624 35.1581 163.702 34.3499C164.69 33.6314 165.498 32.6885 166.037 31.5659C166.576 30.4883 166.845 29.3209 166.845 28.1085C166.89 27.0309 166.665 25.9532 166.216 24.9654C165.767 24.247 165.184 23.4836 164.465 22.855ZM186.647 29.0066C186.422 28.6024 186.018 28.333 185.524 28.2432C185.075 28.2432 184.581 28.3779 184.222 28.6473C183.593 29.0514 182.875 29.276 182.157 29.3209C181.932 29.3209 181.663 29.276 181.438 29.2311C181.169 29.1862 180.944 29.0514 180.765 28.8718C180.54 28.6473 180.36 28.3779 180.226 28.1085C180.046 27.6595 179.956 27.2105 180.001 26.7615V17.5566H186.557C186.961 17.5566 187.32 17.377 187.59 17.1076C187.859 16.8382 188.039 16.5239 188.039 16.1197V12.2133C188.039 11.8092 187.904 11.45 187.59 11.2254C187.32 10.956 186.961 10.8213 186.602 10.8213H180.001V4.53508C180.001 4.17587 179.867 3.77175 179.597 3.54724C179.328 3.32273 179.013 3.18803 178.654 3.14312H173.535C173.176 3.14312 172.817 3.27783 172.548 3.54724C172.278 3.81665 172.099 4.17587 172.099 4.53508V10.8213H169.18C168.821 10.8213 168.462 10.956 168.192 11.2703C167.968 11.5398 167.833 11.899 167.833 12.2582V16.1646C167.833 16.5239 167.968 16.8831 168.192 17.1525C168.417 17.4668 168.776 17.6015 169.18 17.6015H172.099V28.5575C172.054 29.8597 172.323 31.1618 172.862 32.3293C173.356 33.3171 173.984 34.1703 174.838 34.8887C175.646 35.5622 176.589 36.0561 177.621 36.3255C178.654 36.6398 179.732 36.8195 180.81 36.8195C182.201 36.8195 183.638 36.5949 184.985 36.1459C186.243 35.7418 187.365 35.0234 188.263 34.0804C188.847 33.4967 188.892 32.5538 188.443 31.8803L186.647 29.0066ZM214.396 10.8213H209.322C208.963 10.8213 208.649 10.956 208.379 11.2254C208.11 11.4949 207.975 11.8541 207.975 12.2582V12.8868C207.346 12.1235 206.583 11.5398 205.685 11.1356C204.293 10.4621 202.766 10.1478 201.24 10.1478C197.962 10.1478 194.864 11.45 192.529 13.7399C191.317 14.9523 190.374 16.3892 189.745 17.9607C189.027 19.7119 188.667 21.5977 188.712 23.4836C188.667 25.3695 189.027 27.2554 189.745 29.0515C190.374 30.623 191.361 32.0599 192.529 33.2722C194.819 35.6071 197.917 36.9093 201.195 36.9093C202.722 36.9542 204.248 36.595 205.64 35.9663C206.538 35.5173 207.346 34.9336 207.975 34.2152V34.8887C207.975 35.2479 208.11 35.6071 208.379 35.8316C208.649 36.101 208.963 36.2357 209.322 36.2357H214.396C215.159 36.2357 215.743 35.652 215.743 34.8887V12.3031C215.743 11.9439 215.608 11.5847 215.384 11.3152C215.159 11.0009 214.8 10.8213 214.396 10.8213ZM207.571 25.9083C207.302 26.6268 206.897 27.2554 206.359 27.8391C205.82 28.3779 205.236 28.8269 204.563 29.1413C203.844 29.4556 203.081 29.6352 202.273 29.6352C201.464 29.6352 200.746 29.4556 200.027 29.1413C199.354 28.8269 198.725 28.3779 198.187 27.8391C197.648 27.3003 197.244 26.6268 197.019 25.9083C196.48 24.3817 196.48 22.7203 197.019 21.1936C197.288 20.4752 197.693 19.8466 198.187 19.3078C198.725 18.7689 199.354 18.3199 200.027 18.0056C200.746 17.6913 201.509 17.5117 202.273 17.5117C203.036 17.5117 203.799 17.6464 204.563 18.0056C205.236 18.3199 205.82 18.724 206.359 19.2629C206.897 19.8017 207.302 20.4303 207.571 21.1487C208.155 22.6754 208.155 24.3817 207.571 25.9083ZM242.235 28.6473L239.317 26.4022C238.778 25.9532 238.239 25.8185 237.79 25.9981C237.386 26.1777 237.027 26.4472 236.712 26.7615C236.084 27.5248 235.32 28.1983 234.512 28.782C233.614 29.276 232.671 29.5454 231.683 29.4556C230.516 29.4556 229.438 29.1413 228.495 28.4677C227.552 27.7942 226.834 26.8962 226.475 25.7736C226.205 25.0103 226.07 24.247 226.07 23.4836C226.07 22.6754 226.205 21.9121 226.475 21.1038C226.744 20.3854 227.103 19.7568 227.642 19.218C228.181 18.6791 228.765 18.2301 229.438 17.9607C230.157 17.6464 230.92 17.4668 231.728 17.4668C232.716 17.4219 233.704 17.6913 234.557 18.1852C235.41 18.724 236.128 19.3976 236.757 20.2058C237.027 20.5201 237.386 20.7895 237.79 20.9691C238.239 21.1487 238.778 21.014 239.317 20.565L242.235 18.3648C242.594 18.1403 242.864 17.7811 242.999 17.377C243.178 16.928 243.133 16.4341 242.864 16.0299C241.741 14.2788 240.215 12.8419 238.374 11.8092C236.443 10.7315 234.153 10.1478 231.593 10.1478C229.797 10.1478 228.001 10.507 226.295 11.1805C224.679 11.8541 223.242 12.797 222.029 14.0094C220.817 15.2217 219.829 16.6586 219.156 18.275C217.764 21.6427 217.764 25.4144 219.156 28.782C219.829 30.3536 220.772 31.8354 222.029 33.0028C224.589 35.5173 228.001 36.8644 231.593 36.8644C234.153 36.8644 236.443 36.2806 238.374 35.203C240.215 34.1702 241.786 32.7334 242.909 30.9373C243.133 30.5332 243.178 30.0393 243.043 29.6352C242.864 29.276 242.594 28.9167 242.235 28.6473ZM269.266 33.9008L261.229 22.1366L268.099 13.0664C268.413 12.6623 268.548 12.0786 268.368 11.5847C268.233 11.2254 267.919 10.8662 267.066 10.8662H261.633C261.318 10.8662 261.004 10.956 260.735 11.0907C260.375 11.2703 260.106 11.5398 259.926 11.8541L254.448 19.5323H253.146V1.39196C253.146 1.03274 253.012 0.673524 252.742 0.404113C252.473 0.134703 252.158 0 251.799 0H246.725C246.366 0 246.007 0.134703 245.737 0.404113C245.468 0.673524 245.333 0.987842 245.333 1.39196V34.8438C245.333 35.2479 245.468 35.5622 245.737 35.8316C246.007 36.101 246.366 36.2357 246.725 36.2357H251.799C252.158 36.2357 252.518 36.101 252.742 35.8316C253.012 35.5622 253.146 35.203 253.146 34.8438V25.9981H254.583L260.555 35.1581C260.914 35.8316 261.588 36.2357 262.306 36.2357H268.009C268.862 36.2357 269.221 35.8316 269.401 35.4724C269.625 34.9336 269.58 34.3499 269.266 33.9008ZM142.733 10.8213H137.03C136.581 10.8213 136.177 10.956 135.863 11.2703C135.593 11.5398 135.414 11.8541 135.324 12.2133L131.103 27.8391H130.071L125.58 12.2133C125.491 11.899 125.356 11.5847 125.131 11.2703C124.862 10.956 124.503 10.7764 124.099 10.7764H118.306C117.543 10.7764 117.094 11.0009 116.869 11.5398C116.735 11.9888 116.735 12.4827 116.869 12.9317L124.054 34.9336C124.188 35.2479 124.323 35.6071 124.592 35.8316C124.862 36.101 125.266 36.2357 125.67 36.2357H128.723L128.454 36.9542L127.781 38.9747C127.556 39.6034 127.197 40.1422 126.658 40.5463C126.164 40.9055 125.58 41.13 124.952 41.0851C124.413 41.0851 123.919 40.9504 123.425 40.7708C122.931 40.5463 122.482 40.2769 122.078 39.9626C121.719 39.6932 121.27 39.5585 120.776 39.5585H120.731C120.192 39.6034 119.698 39.8728 119.429 40.3667L117.633 43.0159C116.914 44.1833 117.318 44.9018 117.767 45.3059C118.755 46.2039 119.878 46.8775 121.135 47.2816C122.527 47.7755 123.964 48 125.401 48C128.005 48 130.16 47.2816 131.822 45.8896C133.528 44.363 134.83 42.3873 135.459 40.1422L143.81 12.9317C143.99 12.4378 144.035 11.9439 143.855 11.4949C143.81 11.1805 143.496 10.8213 142.733 10.8213Z" fill="#999999"/>
</svg>
