<svg viewBox="0 0 159 48" fill="none" xmlns="http://www.w3.org/2000/svg">
    <path d="M61.2364 16.3862H57.3357C57.1512 16.3599 56.9667 16.4389 56.8349 16.5707C56.7032 16.6762 56.6241 16.8343 56.6241 16.9924V30.8294C56.6241 31.0139 56.7295 31.1984 56.914 31.2775C57.283 31.5147 57.7574 31.5147 58.1264 31.2775C58.3109 31.1984 58.4163 31.0139 58.4163 30.8294V25.4791H61.1046C62.2643 25.5318 63.424 25.1365 64.3201 24.3985C65.1898 23.5024 65.6379 22.2637 65.5325 20.9986V20.8141C65.6379 19.6017 65.2426 18.363 64.3992 17.4668C63.5294 16.6762 62.3961 16.3072 61.2364 16.3862ZM63.9247 21.1303C63.9775 21.921 63.7139 22.7117 63.2131 23.3179C62.6597 23.8714 61.8953 24.1349 61.131 24.1086H58.4427V17.9413H61.131C61.869 17.8885 62.6069 18.1785 63.1604 18.6792C63.6875 19.2854 63.9511 20.0761 63.872 20.8668L63.9247 21.1303ZM72.8858 17.3878C72.0161 18.2839 71.568 19.549 71.6734 20.8141V27.0341C71.568 28.2992 72.0161 29.5379 72.8858 30.4604C74.8098 31.91 77.4454 31.91 79.3694 30.4604C80.2655 29.5643 80.7136 28.2992 80.5818 27.0341V20.8668C80.7136 19.5753 80.2655 18.3102 79.3694 17.3878C77.4454 15.9382 74.7835 15.9382 72.8858 17.3878ZM78.8423 27.0341C78.9214 27.8512 78.6578 28.6418 78.1307 29.248C77.6036 29.7752 76.8656 30.0387 76.1276 29.986C74.3091 29.986 73.4393 28.9845 73.4393 27.0341V20.8668C73.4393 18.9164 74.3354 17.9149 76.1276 17.9149C76.8656 17.8622 77.6036 18.1257 78.1307 18.6529C78.6578 19.2591 78.9214 20.0497 78.8423 20.8404V27.0341ZM93.2591 23.3443C92.5739 23.0543 91.915 22.7644 91.2561 22.5272C90.6235 22.3164 90.0437 22.0001 89.5429 21.5784C89.0948 21.2094 88.8313 20.6032 88.884 20.0234C88.8313 19.3645 89.1212 18.7583 89.6747 18.3893C90.2809 18.0203 90.9925 17.8622 91.6777 17.8885C92.3367 17.8622 92.9956 17.994 93.6017 18.2839C93.8917 18.4157 94.2079 18.5474 94.5242 18.6529C94.7614 18.6529 94.9459 18.5211 95.0513 18.3102C95.1568 18.1257 95.2622 17.9149 95.2622 17.6777C95.2622 17.256 94.8668 16.9134 94.0762 16.6498C93.2855 16.4126 92.4684 16.2808 91.625 16.2808C91.0979 16.2808 90.5708 16.3335 90.0437 16.4653C89.5429 16.5971 89.0421 16.7816 88.5941 17.0451C88.1197 17.3351 87.7507 17.7568 87.4871 18.2575C87.1972 18.8374 87.0654 19.4963 87.0654 20.1552C87.0391 20.9722 87.2763 21.7629 87.7507 22.4218C88.1987 23.0016 88.7786 23.4497 89.4638 23.766C90.1491 24.0559 90.808 24.3194 91.4669 24.5566C92.0994 24.7938 92.6793 25.1628 93.18 25.6372C93.6545 26.138 93.8917 26.7969 93.8653 27.4822C93.918 28.1938 93.6281 28.9054 93.101 29.4062C92.4948 29.8806 91.7568 30.0914 90.9925 30.0651C90.4654 30.0914 89.9646 29.986 89.4902 29.8015C89.1212 29.6961 88.8049 29.4852 88.515 29.2217L87.8561 28.5891C87.7243 28.4573 87.5662 28.3519 87.3817 28.3256C87.1709 28.3519 86.9864 28.4573 86.8809 28.6155C86.7492 28.8 86.6437 29.0108 86.6437 29.2744C86.6437 29.7752 87.0654 30.2759 87.9879 30.7767C88.9367 31.3302 90.0173 31.5937 91.0979 31.5674C92.2839 31.6201 93.47 31.2247 94.3924 30.4868C95.2622 29.6434 95.7102 28.4573 95.6312 27.2713C95.7366 25.6372 94.7878 24.0559 93.2591 23.3443ZM109.837 16.3862H101.43C101.245 16.3862 101.087 16.4653 100.981 16.6234C100.744 16.9661 100.744 17.4141 100.981 17.7304C101.087 17.8622 101.245 17.9676 101.43 17.9676H104.777V30.8294C104.777 31.0139 104.882 31.1984 105.04 31.2775C105.409 31.5147 105.884 31.5147 106.253 31.2775C106.437 31.1984 106.516 31.0139 106.516 30.8294V17.9676H109.811C109.995 17.994 110.18 17.8885 110.259 17.7304C110.364 17.5723 110.443 17.3614 110.417 17.1769C110.417 16.9924 110.364 16.8079 110.259 16.6498C110.18 16.4653 110.022 16.3862 109.837 16.3862ZM126.521 16.3862C125.993 16.3862 125.545 16.7552 125.176 17.4932L121.908 23.7132L118.666 17.4932C118.297 16.7552 117.823 16.3862 117.322 16.3862H116.953C116.558 16.4653 116.268 16.8343 116.321 17.256V30.803C116.321 31.0139 116.426 31.1984 116.611 31.2775C116.795 31.3829 117.006 31.4619 117.243 31.4356C117.454 31.4356 117.639 31.3565 117.823 31.2511C118.008 31.172 118.087 30.9875 118.087 30.803V19.8916L121.223 25.8481C121.302 26.138 121.566 26.3489 121.856 26.3489C122.172 26.3225 122.435 26.138 122.541 25.8481L125.677 19.997V30.7767C125.677 30.9612 125.783 31.1457 125.941 31.2247C126.31 31.4356 126.784 31.4356 127.153 31.2247C127.338 31.1457 127.417 30.9612 127.417 30.7767V17.2033C127.443 17.1242 127.443 17.0715 127.417 16.9924C127.311 16.5971 126.916 16.3072 126.521 16.3862ZM138.644 16.3862C138.065 16.3862 137.696 16.5971 137.59 16.9661L133.347 30.5922C133.32 30.6449 133.32 30.6976 133.347 30.7503C133.347 30.9875 133.479 31.1984 133.689 31.3038C133.9 31.4356 134.137 31.5147 134.401 31.5147C134.665 31.5674 134.955 31.3829 135.034 31.1193L135.93 28.1147H141.28L142.176 31.1193C142.255 31.3829 142.545 31.541 142.809 31.5147C143.072 31.541 143.336 31.4619 143.547 31.3038C143.757 31.2247 143.889 31.0402 143.889 30.803M143.889 30.7503V30.6713L139.672 16.9924C139.567 16.5971 139.224 16.4126 138.644 16.4126L143.889 30.7503ZM136.325 26.6124L138.618 18.8901L140.937 26.6124H136.325ZM158.728 16.518C158.359 16.3072 157.884 16.3072 157.515 16.518C157.357 16.5971 157.252 16.7816 157.252 16.9661V27.5612L152.112 17.4932C151.981 17.1769 151.77 16.887 151.533 16.6498C151.322 16.4653 151.084 16.3862 150.795 16.3862C150.215 16.3862 149.925 16.5971 149.925 16.9924V30.8294C149.898 31.0139 150.004 31.1984 150.188 31.2775C150.557 31.5147 151.032 31.5147 151.401 31.2775C151.559 31.1984 151.664 31.0139 151.664 30.8294V20.3397L157.015 30.724C157.199 31.172 157.621 31.4883 158.095 31.5147C158.306 31.5147 158.517 31.4619 158.728 31.3302C158.886 31.2247 158.991 31.0666 158.991 30.8821V16.9924C158.991 16.7816 158.886 16.6234 158.728 16.518Z" fill="#999999"/>
    <path d="M38.57 12.0636C38.4382 12.1163 38.3592 12.2745 38.4382 12.4063C38.4382 12.4326 38.4646 12.4326 38.4646 12.4326C38.5964 12.7225 38.57 13.0915 38.3592 13.3287C38.2537 13.4341 38.2537 13.5923 38.3328 13.6977C38.3328 13.6977 38.3328 13.6977 38.3592 13.7241C38.4119 13.7504 38.4909 13.7504 38.5436 13.7241C38.6227 13.7241 38.7018 13.6713 38.7545 13.6186C39.1235 13.1969 39.1762 12.6171 38.939 12.1163C38.8072 12.0109 38.6754 11.9846 38.57 12.0636Z" fill="#999999"/>
    <path d="M27.8693 0.203303C14.7176 -1.50985 2.7256 7.79387 1.0388 20.9456C-0.647988 34.0973 8.62936 46.1157 21.7811 47.8025C34.9328 49.4893 46.9248 40.1856 48.638 27.0602C50.3247 13.9085 41.0474 1.8901 27.8693 0.203303C27.8957 0.203303 27.8957 0.203303 27.8693 0.203303ZM32.8243 15.1472C32.3762 15.1736 31.9545 15.3317 31.6383 15.648L22.7299 24.5564L20.8323 22.6587C29.6088 13.9085 31.1902 13.8294 32.8243 15.1472ZM23.0989 24.8726L31.9809 16.0697C32.4817 15.5953 33.246 15.5953 33.7467 16.0697C33.984 16.3069 34.1157 16.6495 34.1157 16.9658C34.0894 17.3084 33.9576 17.6247 33.694 17.8619L24.3113 26.1377L23.0989 24.8726ZM23.7578 26.2168L21.5439 26.7703C21.4912 26.7966 21.4648 26.7966 21.4121 26.7703C21.3857 26.7176 21.3857 26.6649 21.4121 26.6385L22.7562 25.2943L23.7578 26.2168ZM18.1439 25.2943L20.4896 22.9486L22.2555 24.7672L18.223 25.637C18.1439 25.6633 18.0385 25.5843 18.0385 25.5052C18.0121 25.4525 18.0385 25.3998 18.0912 25.3734L18.1439 25.2943ZM10.8696 37.4972C10.8169 37.4709 10.7642 37.4445 10.7379 37.3918C10.7115 37.3391 10.7115 37.2864 10.7379 37.2337L12.6355 35.336L15.0866 37.7608L10.8696 37.4972ZM15.7192 34.967C15.5347 35.0725 15.4292 35.257 15.482 35.4678L15.8773 37.2073C15.9037 37.3127 15.8509 37.4445 15.7719 37.4972C15.6928 37.5763 15.561 37.5763 15.482 37.4972L13.0308 34.967L20.5423 27.4292L24.1795 26.6385L25.919 28.378C22.809 30.9609 19.3827 33.1748 15.7192 34.9143V34.967ZM26.288 28.1144L24.6275 26.454L34.0103 18.2045C34.0894 18.1255 34.1948 18.0464 34.2475 17.941C33.9312 20.6029 30.1623 24.4246 26.288 28.1144ZM33.5886 15.1999C32.1917 13.7504 32.2445 11.431 33.694 10.0341C35.0118 8.76905 37.0676 8.68998 38.4909 9.82329L35.2754 13.0387C35.1963 13.1442 35.1963 13.2759 35.2754 13.3814L37.7792 15.8852C36.356 16.5705 34.6692 16.2805 33.5623 15.1736L33.5886 15.1999ZM38.7544 15.1999C38.5699 15.3581 38.4118 15.5162 38.2009 15.648L35.8025 13.2496L38.8598 10.1923C40.1776 11.5891 40.1513 13.8031 38.7544 15.1999Z" fill="#999999"/>
</svg>
