<svg  viewBox="0 0 164 48" fill="none" xmlns="http://www.w3.org/2000/svg">
    <path d="M46.5611 11.5845C39.5285 11.5845 34.103 18.0231 34.103 25.9663C34.103 33.9088 38.994 40.3482 46.5611 40.3482C53.5937 40.3482 59.296 33.9088 59.296 25.9663C59.296 18.0231 53.5944 11.5845 46.5611 11.5845ZM44.9465 34.0792C40.7776 34.0792 37.6097 30.4468 37.6097 25.9663C37.6097 21.4858 40.7768 17.8535 44.9465 17.8535C49.4506 17.8535 52.2833 21.4858 52.2833 25.9663C52.2833 30.4468 49.3007 34.0792 44.9465 34.0792Z" fill="#999999"/>
    <path d="M30.8274 12.2298H37.8409V17.5312L36.2721 22.6939V29.8848L37.8866 35.8308V47.9543H30.7809L30.8274 12.2298ZM75.9068 11.5535C67.8207 11.5535 61.265 17.9921 61.265 25.9353C61.265 33.8785 67.8207 40.3172 75.9068 40.3172C83.9929 40.3172 90.5486 33.8785 90.5486 25.9353C90.5486 17.9921 83.9936 11.5535 75.9068 11.5535ZM75.8765 34.2325C71.5784 34.2325 68.0938 30.5449 68.0938 25.9965C68.0938 21.4489 71.5784 17.7613 75.8765 17.7613C80.1739 17.7613 83.6585 21.4489 83.6585 25.9965C83.6585 30.5449 80.1746 34.2325 75.8765 34.2325ZM111.343 12.1686H118.479V39.8872H111.343V12.1686Z" fill="#999999"/>
    <path d="M115.034 8.72647C117.446 8.72647 119.402 6.77298 119.402 4.36323C119.402 1.95349 117.446 0 115.034 0C112.622 0 110.667 1.95349 110.667 4.36323C110.667 6.77298 112.622 8.72647 115.034 8.72647Z" fill="#999999"/>
    <path d="M131.706 10.8166V39.7957H124.57V11.591C124.57 11.591 123.936 1.39391 133.491 1.59674C133.491 1.59674 136.32 1.65795 138.596 2.51865V8.46757C138.596 8.46757 136.814 7.76397 134.413 7.74332C134.413 7.74332 131.669 7.65482 131.706 10.8166ZM101.469 31.0928V4.91415H94.3329V32.1143C94.3329 32.1143 93.7976 40.798 103.254 40.2198C103.254 40.2198 105.985 40.2198 108.36 38.7182V32.9477C108.36 32.9477 106.578 33.9729 104.177 33.9928C104.177 33.9928 101.368 34.0673 101.469 31.0928Z" fill="#999999"/>
    <path d="M156.198 12.1686L149.609 31.2212L142.277 12.1686H121.309V18.3144H137.305L146.102 39.0885C145.369 42.223 142.841 42.0386 142.841 42.0386C141.057 42.0386 139.089 40.8091 139.089 40.8091L136.69 45.9719C138.617 47.7633 143.334 48.0001 143.334 48.0001C150.347 48.0001 152.378 41.1167 152.378 41.1167L163.513 12.1686H156.198ZM90.9997 12.1848H108.551V18.327H90.9997V12.1848ZM23.6753 13.0905C23.6753 13.0905 19.0612 9.40286 14.1393 9.40286C14.1393 9.40286 9.15753 9.14546 8.91021 12.9061C8.91021 12.9061 8.65625 16.079 12.2722 16.9876C12.2722 16.9876 21.1379 19.625 23.3652 20.7055C23.3652 20.7055 28.7995 22.9793 28.474 29.9925C28.474 29.9925 28.5124 40.1918 15.2466 40.318C15.2466 40.318 6.14175 40.5643 0.0511475 34.1109L4.35739 29.255C4.35739 29.255 9.15605 33.9265 15.6158 33.9265C15.6158 33.9265 20.7703 34.0983 21.3373 30.2388C21.3373 30.2388 21.9818 26.8182 17.0923 25.6905C17.0923 25.6905 9.52518 23.7855 7.06458 22.556C7.06458 22.556 1.43833 20.5315 1.65095 13.2756C1.65095 13.2756 1.9145 2.83809 14.5704 3.01141C14.5704 3.01141 21.8954 2.77245 27.4899 7.80536L23.6753 13.0905Z" fill="#999999"/>
</svg>
