<svg width="159" height="142" viewBox="0 0 159 142" fill="none" xmlns="http://www.w3.org/2000/svg">
<path d="M87.4224 35.3721C87.4993 36.3379 87.572 37.3036 87.6193 38.2729C87.6503 38.7861 87.6755 39.3022 87.7408 39.8115C88.0925 42.5294 88.4767 45.2449 88.7625 47.9717C88.9305 49.6512 89.0811 51.3326 89.2144 53.0157L89.4065 55.5409L89.5704 58.068C89.5902 58.5803 89.569 59.0933 89.507 59.6022C89.4909 59.8117 89.4252 60.0144 89.3153 60.1935C89.2055 60.3727 89.0546 60.5231 88.8751 60.6324C88.3846 60.9462 87.8219 60.6989 87.6445 60.0284C87.5398 59.5895 87.4904 59.1393 87.4974 58.6881C87.4938 57.6601 87.4463 56.6363 87.3551 55.6168C87.2676 54.5969 87.1384 53.5808 86.9674 52.5684C86.8736 52.0095 86.7428 51.4309 86.7697 50.8777C86.8534 49.1103 86.5578 47.363 86.4973 45.6038C86.4514 44.2962 86.3067 42.9906 86.2214 41.6834L85.9901 38.1867C85.9064 37.0217 85.8516 35.8535 85.7714 34.6875C85.753 34.2325 85.7646 33.7767 85.806 33.3232C85.8559 32.8953 85.9295 32.4705 86.0264 32.0507C86.1113 31.6793 86.3625 31.674 86.5328 32.0748C86.776 32.6504 86.9786 33.2423 87.1394 33.8462C87.2056 34.094 87.2579 34.3469 87.2995 34.6019C87.3306 34.858 87.3618 35.1151 87.3928 35.3706L87.4224 35.3721Z" fill="#34A853"/>
<path d="M115.031 40.3464L114.557 41.4917L114.055 42.6269C113.878 43.0287 113.7 43.4326 113.558 43.8475C113.368 44.4007 113.184 44.9563 113.003 45.5125L112.45 47.1772L111.35 50.5076L109.987 54.6048L108.646 58.71C108.498 59.1221 108.322 59.523 108.117 59.9098C108.04 60.0718 107.925 60.2135 107.784 60.3235C107.642 60.4336 107.476 60.5089 107.3 60.5436C106.816 60.6497 106.445 60.2852 106.504 59.6896C106.551 59.3032 106.647 58.9245 106.79 58.5628C107.408 56.9073 107.921 55.2144 108.326 53.4943C108.409 53.0104 108.547 52.5375 108.738 52.0849C109.408 50.7149 109.785 49.2351 110.37 47.8345C110.805 46.7947 111.166 45.7221 111.597 44.6787C112.372 42.8211 113.165 40.9724 114.026 39.153C114.345 38.4587 114.777 37.8221 115.304 37.2687C115.531 37.0287 115.758 37.1445 115.718 37.514C115.656 38.0428 115.56 38.567 115.43 39.0832C115.314 39.5079 115.173 39.9253 115.008 40.3332L115.031 40.3464Z" fill="#34A853"/>
<path d="M133.93 58.78C133.337 59.1815 132.742 59.5805 132.145 59.9771C131.819 60.174 131.505 60.3901 131.205 60.6242C130.418 61.2649 129.646 61.9231 128.874 62.581C128.102 63.2379 127.326 63.8892 126.54 64.5275C125.574 65.3158 124.6 66.0935 123.628 66.8735L120.698 69.1973C120.389 69.4234 120.054 69.6109 119.699 69.7556C119.364 69.9072 118.979 69.8011 118.598 69.5623C118.043 69.2145 117.786 68.5689 118.081 68.1256C118.278 67.8489 118.531 67.6161 118.822 67.442C120.113 66.6097 121.3 65.6283 122.361 64.5182C122.657 64.2114 122.943 63.8647 123.322 63.6823C124.526 63.0956 125.47 62.1601 126.586 61.4573C127.412 60.9328 128.187 60.332 129.004 59.7918C129.732 59.31 130.463 58.8341 131.198 58.3639L133.433 56.9977C134.014 56.6381 134.672 56.4225 135.354 56.3688C135.422 56.3592 135.492 56.3703 135.554 56.4007C135.616 56.431 135.668 56.4792 135.702 56.5391C135.737 56.599 135.752 56.6679 135.748 56.7368C135.743 56.8058 135.717 56.8717 135.675 56.9261C135.404 57.3097 135.111 57.6769 134.797 58.0257C134.521 58.2891 134.226 58.5318 133.914 58.7517L133.93 58.78Z" fill="#34A853"/>
<path d="M133.105 80.1894C132.915 80.2192 132.726 80.2559 132.534 80.2741L131.957 80.3269C131.753 80.3403 131.55 80.3709 131.351 80.4183C130.825 80.5638 130.302 80.7297 129.774 80.8656C129.247 81.0076 128.72 81.1466 128.188 81.266C127.534 81.4138 126.878 81.5502 126.218 81.6645L124.238 82.0083C124.028 82.0295 123.816 82.0114 123.612 81.9549C123.41 81.9113 123.241 81.6673 123.103 81.3329C122.902 80.8456 122.915 80.2837 123.159 80.1076C123.312 80.0053 123.494 79.9543 123.678 79.962C124.502 79.9561 125.316 79.7869 126.074 79.4641C126.287 79.3758 126.502 79.2489 126.731 79.285C127.46 79.3927 128.128 79.133 128.834 79.1051C129.36 79.088 129.869 78.9629 130.392 78.9305C131.326 78.8684 132.255 78.7845 133.194 78.7532C133.582 78.7343 133.967 78.8366 134.294 79.0459C134.334 79.0723 134.367 79.107 134.392 79.1477C134.417 79.1884 134.433 79.234 134.438 79.2814C134.443 79.3288 134.438 79.3768 134.423 79.422C134.408 79.4672 134.383 79.5086 134.35 79.5432C134.246 79.6264 134.138 79.7061 134.028 79.7814C133.922 79.8575 133.809 79.9244 133.691 79.9813C133.501 80.0598 133.303 80.1207 133.102 80.1632L133.105 80.1894Z" fill="#34A853"/>
<path d="M67.0425 56.4946C67.3615 56.8261 67.6765 57.1603 67.9874 57.4972C68.1476 57.6797 68.3187 57.8524 68.4997 58.0143C68.9994 58.4239 69.4955 58.8398 69.9843 59.2656C70.4712 59.6934 70.9414 60.1394 71.3949 60.6037C71.9465 61.1807 72.4813 61.7746 72.9901 62.3904C73.4991 63.0059 73.991 63.635 74.4659 64.2777C74.6038 64.4835 74.7059 64.7111 74.768 64.9509C74.8401 65.1795 74.7149 65.4498 74.4904 65.7197C74.163 66.1124 73.6534 66.3118 73.3708 66.1351C73.1991 66.0172 73.0608 65.8568 72.9694 65.6697C72.5238 64.8427 71.9181 64.1127 71.1878 63.522C70.987 63.3556 70.7523 63.2069 70.64 62.9748C70.2822 62.2286 69.6324 61.7312 69.14 61.098C68.9552 60.8634 68.7579 60.639 68.5489 60.4258C68.3445 60.2081 68.1335 59.9968 67.9314 59.7765C67.2099 58.9916 66.4781 58.2096 65.7096 57.461C65.3964 57.1359 65.1958 56.7188 65.1374 56.2711C65.0926 56.0594 65.2392 55.888 65.5073 55.864L65.7723 55.8682C65.8136 55.8668 65.8547 55.8735 65.8933 55.888L66.0038 55.9223C66.1492 55.9689 66.2916 56.0241 66.4303 56.0878C66.5412 56.1401 66.6463 56.2039 66.7437 56.2784C66.8371 56.3567 66.9274 56.4393 67.0219 56.5158L67.0425 56.4946Z" fill="#34A853"/>
<rect y="93.7129" width="102" height="49" rx="8" transform="rotate(-10 0 93.7129)" fill="#34A853"/>
<path d="M20.3543 104.729L31.4925 102.765L31.9756 105.505L23.7051 106.963L24.6352 112.238L32.0863 110.924L32.5648 113.638L25.1138 114.952L26.4547 122.557L23.5869 123.062L20.3543 104.729ZM38.179 101.586L41.4564 101.008L51.5768 118.127L48.4018 118.687L45.9368 114.29L38.537 115.595L37.6989 120.574L34.5239 121.134L38.179 101.586ZM44.4943 111.799L41.5867 106.688L40.495 104.689L40.3414 104.716L39.9992 106.968L39.0148 112.765L44.4943 111.799ZM66.2499 114.985C65.0639 115.846 63.7199 116.408 62.2177 116.673C60.4424 116.986 58.7556 116.852 57.1571 116.272C55.5557 115.674 54.2073 114.715 53.112 113.395C52.0338 112.071 51.3397 110.53 51.0297 108.772C50.7197 107.014 50.8464 105.337 51.4099 103.742C51.9875 102.126 52.9265 100.764 54.227 99.6543C55.5274 98.5449 57.0653 97.8337 58.8406 97.5207C60.6159 97.2077 62.2957 97.3515 63.8801 97.9522C65.4815 98.5498 66.8299 99.5089 67.9252 100.829C69.0174 102.133 69.7186 103.664 70.0286 105.422C70.2784 106.839 70.2401 108.218 69.9136 109.561C69.584 110.886 69.0025 112.08 68.169 113.142L69.8571 114.93L67.9335 116.748L66.2499 114.985ZM61.7346 113.934C62.6564 113.771 63.4954 113.438 64.2515 112.935L61.6267 110.177L63.5413 108.308L66.1661 111.066C66.6411 110.367 66.96 109.58 67.1228 108.706C67.2856 107.833 67.2812 106.91 67.1096 105.937C66.8749 104.605 66.377 103.479 65.616 102.557C64.852 101.618 63.9153 100.947 62.8058 100.544C61.6964 100.141 60.5357 100.047 59.3237 100.26C58.1117 100.474 57.0533 100.96 56.1485 101.718C55.2437 102.476 54.5844 103.428 54.1706 104.575C53.7708 105.701 53.6883 106.93 53.9231 108.262C54.1578 109.593 54.6572 110.728 55.4212 111.667C56.1992 112.586 57.143 113.247 58.2525 113.65C59.3619 114.053 60.5226 114.147 61.7346 113.934ZM71.5289 101.171L72.4871 98.969C72.0935 98.9328 71.7416 98.7837 71.4314 98.5215C71.1181 98.2424 70.9224 97.8809 70.8441 97.437C70.7478 96.8908 70.8543 96.3968 71.1636 95.955C71.487 95.4932 71.9218 95.2141 72.4681 95.1178C73.0143 95.0215 73.5098 95.1365 73.9546 95.4629C74.3963 95.7722 74.6654 96.2 74.7617 96.7463C74.8159 97.0535 74.8088 97.3628 74.7405 97.6741C74.6691 97.9682 74.5511 98.2971 74.3864 98.6605L72.9581 101.79L71.5289 101.171ZM84.1468 112.807C82.6446 113.071 81.3584 112.964 80.2881 112.484C79.2148 111.987 78.3915 111.26 77.8183 110.305L80.1335 108.762C80.5611 109.391 81.0797 109.836 81.6891 110.098C82.3157 110.357 82.9874 110.424 83.7043 110.297C84.4042 110.174 84.972 109.951 85.4079 109.627C85.8407 109.287 86.0134 108.869 85.9262 108.374C85.8419 107.896 85.5708 107.557 85.113 107.356C84.6551 107.155 83.9814 107.027 83.0918 106.973L81.4622 106.864C80.3757 106.792 79.4339 106.492 78.6368 105.963C77.8396 105.435 77.3537 104.676 77.1791 103.686C77.0437 102.918 77.1467 102.204 77.4882 101.546C77.8468 100.884 78.383 100.332 79.097 99.8892C79.808 99.4294 80.6158 99.1198 81.5205 98.9602C82.7325 98.7465 83.843 98.8059 84.8521 99.1384C85.8581 99.4539 86.6472 100.036 87.2195 100.886L84.951 102.395C84.2784 101.475 83.2849 101.131 81.9705 101.363C81.3389 101.474 80.8323 101.695 80.4507 102.027C80.0691 102.358 79.9144 102.728 79.9867 103.138C80.0559 103.531 80.2752 103.826 80.6447 104.025C81.0112 104.207 81.5253 104.328 82.187 104.387L84.1931 104.535C85.5306 104.633 86.5823 104.958 87.3483 105.51C88.1285 106.041 88.6028 106.785 88.7713 107.741C88.9158 108.56 88.8048 109.328 88.4382 110.043C88.0856 110.739 87.5298 111.33 86.7706 111.816C86.0115 112.302 85.1368 112.632 84.1468 112.807Z" fill="white"/>
</svg>
