<svg width="71" height="71" viewBox="0 0 71 71" fill="none" xmlns="http://www.w3.org/2000/svg">
    <path d="M30.8612 40.5904L16.9197 32.5381C15.0086 31.462 12.5874 32.1385 11.5114 34.0496C10.4519 35.9313 11.0904 38.3149 12.949 39.4145L26.8905 47.464C28.8201 48.5062 31.229 47.7872 32.2712 45.858C33.2721 44.006 32.6534 41.695 30.8612 40.5904Z" fill="#4285F4"/>
    <path d="M58.6634 32.538L44.7219 24.489C42.7989 23.4356 40.3863 24.1402 39.333 26.0632C38.3131 27.9247 38.9384 30.2592 40.752 31.3621L54.6936 39.4145C56.5926 40.5107 59.0208 39.8602 60.1167 37.9612C61.213 36.0621 60.5625 33.6343 58.6634 32.538Z" fill="#34A853"/>
    <path d="M54.1415 40.3714L47.6349 36.6133L40.7519 40.591C38.8532 41.6873 38.2023 44.1151 39.2986 46.0142C40.3948 47.9132 42.8226 48.5637 44.7217 47.4675L55.9292 40.9976C55.2993 40.9022 54.693 40.6901 54.1415 40.3714Z" fill="#F9AB00"/>
    <path d="M17.4709 31.5824L23.9783 35.3405L30.8614 31.3628C32.7282 30.2125 33.309 27.7665 32.1582 25.8996C31.0541 24.1075 28.7427 23.4888 26.8907 24.4893L15.6841 30.9596C16.3135 31.0537 16.9194 31.265 17.4709 31.5824Z" fill="#EA4335"/>
</svg>
