<svg viewBox="0 0 48 48" fill="none" xmlns="http://www.w3.org/2000/svg">
    <rect width="48" height="48" rx="24" fill="#FDE293"/>
    <path fill-rule="evenodd" clip-rule="evenodd" d="M17 13.25C16.2707 13.25 15.5712 13.5397 15.0555 14.0555C14.5397 14.5712 14.25 15.2707 14.25 16C14.25 16.7293 14.5397 17.4288 15.0555 17.9445C15.5712 18.4603 16.2707 18.75 17 18.75C17.7293 18.75 18.4288 18.4603 18.9445 17.9445C19.4603 17.4288 19.75 16.7293 19.75 16C19.75 15.2707 19.4603 14.5712 18.9445 14.0555C18.4288 13.5397 17.7293 13.25 17 13.25ZM15.75 16C15.75 15.6685 15.8817 15.3505 16.1161 15.1161C16.3505 14.8817 16.6685 14.75 17 14.75C17.3315 14.75 17.6495 14.8817 17.8839 15.1161C18.1183 15.3505 18.25 15.6685 18.25 16C18.25 16.3315 18.1183 16.6495 17.8839 16.8839C17.6495 17.1183 17.3315 17.25 17 17.25C16.6685 17.25 16.3505 17.1183 16.1161 16.8839C15.8817 16.6495 15.75 16.3315 15.75 16ZM14.25 20C14.25 19.8011 14.329 19.6103 14.4697 19.4697C14.6103 19.329 14.8011 19.25 15 19.25H19C19.1989 19.25 19.3897 19.329 19.5303 19.4697C19.671 19.6103 19.75 19.8011 19.75 20V33C19.75 33.1989 19.671 33.3897 19.5303 33.5303C19.3897 33.671 19.1989 33.75 19 33.75H15C14.8011 33.75 14.6103 33.671 14.4697 33.5303C14.329 33.3897 14.25 33.1989 14.25 33V20ZM15.75 20.75V32.25H18.25V20.75H15.75ZM21.25 20C21.25 19.8011 21.329 19.6103 21.4697 19.4697C21.6103 19.329 21.8011 19.25 22 19.25H26C26.1989 19.25 26.3897 19.329 26.5303 19.4697C26.671 19.6103 26.75 19.8011 26.75 20V20.434L27.185 20.247C27.935 19.9265 28.7307 19.7257 29.543 19.652C32.318 19.4 34.75 21.58 34.75 24.38V33C34.75 33.1989 34.671 33.3897 34.5303 33.5303C34.3897 33.671 34.1989 33.75 34 33.75H30C29.8011 33.75 29.6103 33.671 29.4697 33.5303C29.329 33.3897 29.25 33.1989 29.25 33V26C29.25 25.6685 29.1183 25.3505 28.8839 25.1161C28.6495 24.8817 28.3315 24.75 28 24.75C27.6685 24.75 27.3505 24.8817 27.1161 25.1161C26.8817 25.3505 26.75 25.6685 26.75 26V33C26.75 33.1989 26.671 33.3897 26.5303 33.5303C26.3897 33.671 26.1989 33.75 26 33.75H22C21.8011 33.75 21.6103 33.671 21.4697 33.5303C21.329 33.3897 21.25 33.1989 21.25 33V20ZM22.75 20.75V32.25H25.25V26C25.25 25.2707 25.5397 24.5712 26.0555 24.0555C26.5712 23.5397 27.2707 23.25 28 23.25C28.7293 23.25 29.4288 23.5397 29.9445 24.0555C30.4603 24.5712 30.75 25.2707 30.75 26V32.25H33.25V24.38C33.25 22.476 31.589 20.972 29.68 21.146C29.0242 21.2057 28.3817 21.3676 27.776 21.626L26.296 22.261C26.1818 22.31 26.0573 22.3299 25.9336 22.3189C25.8098 22.3079 25.6907 22.2663 25.587 22.1979C25.4833 22.1295 25.3982 22.0364 25.3394 21.927C25.2806 21.8176 25.2499 21.6952 25.25 21.571V20.75H22.75Z" fill="#333333"/>
</svg>
