<svg viewBox="0 0 48 48" fill="none" xmlns="http://www.w3.org/2000/svg">
    <rect width="48" height="48" rx="24" fill="#FDE293"/>
    <path d="M35 15.0101C35 15.0101 32.982 16.2021 31.86 16.5401C31.2577 15.8476 30.4573 15.3567 29.567 15.134C28.6767 14.9112 27.7395 14.9673 26.8821 15.2945C26.0247 15.6218 25.2884 16.2045 24.773 16.9638C24.2575 17.7231 23.9877 18.6224 24 19.5401V20.5401C22.2426 20.5856 20.5013 20.1959 18.931 19.4055C17.3607 18.6151 16.0103 17.4487 15 16.0101C15 16.0101 11 25.0101 20 29.0101C17.9405 30.408 15.4872 31.109 13 31.0101C22 36.0101 33 31.0101 33 19.5101C33 19.2321 32.972 18.9541 32.92 18.6801C33.94 17.6741 35 15.0101 35 15.0101Z" stroke="#333333" stroke-width="1.5" stroke-linecap="round" stroke-linejoin="round"/>
</svg>
