<svg viewBox="0 0 48 48" fill="none" xmlns="http://www.w3.org/2000/svg">
    <rect width="48" height="48" rx="24" fill="#FDE293"/>
    <mask id="mask0_853_3043" style="mask-type:alpha" maskUnits="userSpaceOnUse" x="11" y="11" width="25" height="25">
        <rect x="11.7253" y="11.877" width="24" height="24" fill="#D9D9D9"/>
    </mask>
    <g mask="url(#mask0_853_3043)">
        <path d="M18.7253 28.877C17.342 28.877 16.1628 28.3895 15.1878 27.4145C14.2128 26.4395 13.7253 25.2603 13.7253 23.877C13.7253 22.4936 14.2128 21.3145 15.1878 20.3395C16.1628 19.3645 17.342 18.877 18.7253 18.877H21.7253C22.0087 18.877 22.2462 18.9728 22.4378 19.1645C22.6295 19.3561 22.7253 19.5936 22.7253 19.877C22.7253 20.1603 22.6295 20.3978 22.4378 20.5895C22.2462 20.7811 22.0087 20.877 21.7253 20.877H18.7253C17.892 20.877 17.1837 21.1686 16.6003 21.752C16.017 22.3353 15.7253 23.0436 15.7253 23.877C15.7253 24.7103 16.017 25.4186 16.6003 26.002C17.1837 26.5853 17.892 26.877 18.7253 26.877H21.7253C22.0087 26.877 22.2462 26.9728 22.4378 27.1645C22.6295 27.3561 22.7253 27.5936 22.7253 27.877C22.7253 28.1603 22.6295 28.3978 22.4378 28.5895C22.2462 28.7811 22.0087 28.877 21.7253 28.877H18.7253ZM20.7253 24.877C20.442 24.877 20.2045 24.7811 20.0128 24.5895C19.8212 24.3978 19.7253 24.1603 19.7253 23.877C19.7253 23.5936 19.8212 23.3561 20.0128 23.1645C20.2045 22.9728 20.442 22.877 20.7253 22.877H26.7253C27.0087 22.877 27.2462 22.9728 27.4378 23.1645C27.6295 23.3561 27.7253 23.5936 27.7253 23.877C27.7253 24.1603 27.6295 24.3978 27.4378 24.5895C27.2462 24.7811 27.0087 24.877 26.7253 24.877H20.7253ZM25.7253 28.877C25.442 28.877 25.2045 28.7811 25.0128 28.5895C24.8212 28.3978 24.7253 28.1603 24.7253 27.877C24.7253 27.5936 24.8212 27.3561 25.0128 27.1645C25.2045 26.9728 25.442 26.877 25.7253 26.877H28.7253C29.5587 26.877 30.267 26.5853 30.8503 26.002C31.4337 25.4186 31.7253 24.7103 31.7253 23.877C31.7253 23.0436 31.4337 22.3353 30.8503 21.752C30.267 21.1686 29.5587 20.877 28.7253 20.877H25.7253C25.442 20.877 25.2045 20.7811 25.0128 20.5895C24.8212 20.3978 24.7253 20.1603 24.7253 19.877C24.7253 19.5936 24.8212 19.3561 25.0128 19.1645C25.2045 18.9728 25.442 18.877 25.7253 18.877H28.7253C30.1087 18.877 31.2878 19.3645 32.2628 20.3395C33.2378 21.3145 33.7253 22.4936 33.7253 23.877C33.7253 25.2603 33.2378 26.4395 32.2628 27.4145C31.2878 28.3895 30.1087 28.877 28.7253 28.877H25.7253Z" fill="#333333"/>
    </g>
</svg>
