<svg width="24" height="24" viewBox="0 0 24 24" fill="none" xmlns="http://www.w3.org/2000/svg">
<mask id="mask0_39_4671" style="mask-type:alpha" maskUnits="userSpaceOnUse" x="0" y="0" width="24" height="24">
<rect width="24" height="24" fill="#D9D9D9"/>
</mask>
<g mask="url(#mask0_39_4671)">
<path d="M13.0004 12.6V9C13.0004 8.71667 12.9046 8.47917 12.7129 8.2875C12.5212 8.09584 12.2837 8 12.0004 8C11.7171 8 11.4796 8.09584 11.2879 8.2875C11.0962 8.47917 11.0004 8.71667 11.0004 9V12.975C11.0004 13.1083 11.0254 13.2375 11.0754 13.3625C11.1254 13.4875 11.2004 13.6 11.3004 13.7L14.1004 16.5C14.2837 16.6833 14.5171 16.775 14.8004 16.775C15.0837 16.775 15.3171 16.6833 15.5004 16.5C15.6837 16.3167 15.7754 16.0833 15.7754 15.8C15.7754 15.5167 15.6837 15.2833 15.5004 15.1L13.0004 12.6ZM12.0004 22C10.7504 22 9.57956 21.7625 8.48789 21.2875C7.39622 20.8125 6.44622 20.1708 5.63789 19.3625C4.82956 18.5542 4.18789 17.6042 3.71289 16.5125C3.23789 15.4208 3.00039 14.25 3.00039 13C3.00039 11.75 3.23789 10.5792 3.71289 9.4875C4.18789 8.39583 4.82956 7.44583 5.63789 6.6375C6.44622 5.82917 7.39622 5.1875 8.48789 4.7125C9.57956 4.2375 10.7504 4 12.0004 4C13.2504 4 14.4212 4.2375 15.5129 4.7125C16.6046 5.1875 17.5546 5.82917 18.3629 6.6375C19.1712 7.44583 19.8129 8.39583 20.2879 9.4875C20.7629 10.5792 21.0004 11.75 21.0004 13C21.0004 14.25 20.7629 15.4208 20.2879 16.5125C19.8129 17.6042 19.1712 18.5542 18.3629 19.3625C17.5546 20.1708 16.6046 20.8125 15.5129 21.2875C14.4212 21.7625 13.2504 22 12.0004 22ZM2.05039 7.3C1.86706 7.11667 1.77539 6.88334 1.77539 6.6C1.77539 6.31667 1.86706 6.08333 2.05039 5.9L4.90039 3.05C5.08372 2.86667 5.31706 2.775 5.60039 2.775C5.88372 2.775 6.11706 2.86667 6.30039 3.05C6.48372 3.23333 6.57539 3.46667 6.57539 3.75C6.57539 4.03333 6.48372 4.26667 6.30039 4.45L3.45039 7.3C3.26706 7.48334 3.03372 7.575 2.75039 7.575C2.46706 7.575 2.23372 7.48334 2.05039 7.3ZM21.9504 7.3C21.7671 7.48334 21.5337 7.575 21.2504 7.575C20.9671 7.575 20.7337 7.48334 20.5504 7.3L17.7004 4.45C17.5171 4.26667 17.4254 4.03333 17.4254 3.75C17.4254 3.46667 17.5171 3.23333 17.7004 3.05C17.8837 2.86667 18.1171 2.775 18.4004 2.775C18.6837 2.775 18.9171 2.86667 19.1004 3.05L21.9504 5.9C22.1337 6.08333 22.2254 6.31667 22.2254 6.6C22.2254 6.88334 22.1337 7.11667 21.9504 7.3ZM12.0004 20C13.9504 20 15.6046 19.3208 16.9629 17.9625C18.3212 16.6042 19.0004 14.95 19.0004 13C19.0004 11.05 18.3212 9.39583 16.9629 8.0375C15.6046 6.67917 13.9504 6 12.0004 6C10.0504 6 8.39622 6.67917 7.03789 8.0375C5.67956 9.39583 5.00039 11.05 5.00039 13C5.00039 14.95 5.67956 16.6042 7.03789 17.9625C8.39622 19.3208 10.0504 20 12.0004 20Z" fill="black"/>
</g>
</svg>
