<svg width="32" height="33" viewBox="0 0 32 33" fill="none" xmlns="http://www.w3.org/2000/svg">
<path d="M16 3.16732C23.364 3.16732 29.3333 9.13665 29.3333 16.5007C29.3333 23.8647 23.364 29.834 16 29.834C8.63596 29.834 2.66663 23.8647 2.66663 16.5007C2.66663 9.13665 8.63596 3.16732 16 3.16732Z" fill="currentColor"/>
<path d="M16 12.4861C15.7467 12.4861 15.4933 12.5795 15.2933 12.7795L10.5867 17.4861C10.4007 17.6743 10.2964 17.9282 10.2964 18.1928C10.2964 18.4574 10.4007 18.7113 10.5867 18.8995C10.9733 19.2861 11.6133 19.2861 12 18.8995L16 14.8995L20 18.8995C20.3867 19.2861 21.0267 19.2861 21.4133 18.8995C21.8 18.5128 21.8 17.8728 21.4133 17.4861L16.7067 12.7795C16.5067 12.5795 16.2533 12.4861 16 12.4861Z" fill="black"/>
</svg>
