<svg width="33" height="32" viewBox="0 0 33 32" fill="none" xmlns="http://www.w3.org/2000/svg">
    <path d="M16.4999 2.66634C9.13592 2.66634 3.16659 8.63568 3.16659 15.9997C3.16659 23.3637 9.13592 29.333 16.4999 29.333C23.8639 29.333 29.8333 23.3637 29.8333 15.9997C29.8333 8.63568 23.8639 2.66634 16.4999 2.66634Z" fill="black"/>
    <path d="M11.1267 16.7068L15.1267 20.7068C15.3149 20.8928 15.5688 20.9971 15.8334 20.9971C16.098 20.9971 16.3519 20.8928 16.5401 20.7068C16.9267 20.3201 16.9267 19.6801 16.5401 19.2935L14.2467 17.0001H21.1667C21.7134 17.0001 22.1667 16.5468 22.1667 16.0001C22.1667 15.4535 21.7134 15.0001 21.1667 15.0001H14.2467L16.5401 12.7068C16.9267 12.3201 16.9267 11.6801 16.5401 11.2935C16.3401 11.0935 16.0867 11.0001 15.8334 11.0001C15.5801 11.0001 15.3267 11.0935 15.1267 11.2935L11.1267 15.2935C10.7401 15.6801 10.7401 16.3201 11.1267 16.7068Z" fill="white"/>
</svg>
