<svg width="32" height="33" viewBox="0 0 32 33" fill="none" xmlns="http://www.w3.org/2000/svg">
    <path d="M16 30.102C23.364 30.102 29.3333 24.1326 29.3333 16.7686C29.3333 9.40464 23.364 3.4353 16 3.4353C8.63596 3.4353 2.66663 9.40464 2.66663 16.7686C2.66663 24.1326 8.63596 30.102 16 30.102Z" fill="white"/>
    <path d="M21.3734 16.062L17.3734 12.062C17.1852 11.876 16.9313 11.7717 16.6667 11.7717C16.4021 11.7717 16.1482 11.876 15.96 12.062C15.5734 12.4487 15.5734 13.0887 15.96 13.4753L18.2534 15.7687H11.3334C10.7867 15.7687 10.3334 16.222 10.3334 16.7687C10.3334 17.3153 10.7867 17.7687 11.3334 17.7687H18.2534L15.96 20.062C15.5734 20.4487 15.5734 21.0887 15.96 21.4753C16.16 21.6753 16.4134 21.7687 16.6667 21.7687C16.92 21.7687 17.1734 21.6753 17.3734 21.4753L21.3734 17.4753C21.76 17.0887 21.76 16.4487 21.3734 16.062Z" fill="#34A853"/>
</svg>
