<svg width="32" height="32" viewBox="0 0 32 32" fill="none" xmlns="http://www.w3.org/2000/svg">
    <path d="M16.0001 29.3333C23.3641 29.3333 29.3334 23.364 29.3334 16C29.3334 8.63599 23.3641 2.66666 16.0001 2.66666C8.63608 2.66666 2.66675 8.63599 2.66675 16C2.66675 23.364 8.63608 29.3333 16.0001 29.3333Z" fill="black"/>
    <path d="M21.3733 15.2933L17.3733 11.2933C17.1851 11.1073 16.9312 11.0031 16.6666 11.0031C16.402 11.0031 16.1481 11.1073 15.9599 11.2933C15.5733 11.68 15.5733 12.32 15.9599 12.7067L18.2533 15H11.3333C10.7866 15 10.3333 15.4533 10.3333 16C10.3333 16.5467 10.7866 17 11.3333 17H18.2533L15.9599 19.2933C15.5733 19.68 15.5733 20.32 15.9599 20.7067C16.1599 20.9067 16.4133 21 16.6666 21C16.9199 21 17.1733 20.9067 17.3733 20.7067L21.3733 16.7067C21.7599 16.32 21.7599 15.68 21.3733 15.2933Z" fill="white"/>
</svg>
