<svg width="32" height="32" viewBox="0 0 32 32" fill="none" xmlns="http://www.w3.org/2000/svg">
<path d="M16.0003 29.3333C23.3643 29.3333 29.3337 23.364 29.3337 16C29.3337 8.63596 23.3643 2.66663 16.0003 2.66663C8.63633 2.66663 2.66699 8.63596 2.66699 16C2.66699 23.364 8.63633 29.3333 16.0003 29.3333Z" fill="#FDE293"/>
<path d="M17.4138 16L20.4805 12.9333C20.8671 12.5467 20.8671 11.9067 20.4805 11.52C20.2923 11.334 20.0384 11.2297 19.7738 11.2297C19.5092 11.2297 19.2553 11.334 19.0671 11.52L16.0005 14.5867L12.9338 11.52C12.7456 11.334 12.4917 11.2297 12.2271 11.2297C11.9626 11.2297 11.7087 11.334 11.5205 11.52C11.1338 11.9067 11.1338 12.5467 11.5205 12.9333L14.5871 16L11.5205 19.0667C11.1338 19.4533 11.1338 20.0933 11.5205 20.48C11.7205 20.68 11.9738 20.7733 12.2271 20.7733C12.4805 20.7733 12.7338 20.68 12.9338 20.48L16.0005 17.4133L19.0671 20.48C19.2671 20.68 19.5205 20.7733 19.7738 20.7733C20.0271 20.7733 20.2805 20.68 20.4805 20.48C20.8671 20.0933 20.8671 19.4533 20.4805 19.0667L17.4138 16Z" fill="black"/>
</svg>
