<svg width="20" height="20" viewBox="0 0 20 20" fill="none" xmlns="http://www.w3.org/2000/svg">
<g id="hourglass_empty">
<mask id="mask0_39_4681" style="mask-type:alpha" maskUnits="userSpaceOnUse" x="0" y="0" width="20" height="20">
<rect id="Bounding box" width="20" height="20" fill="#D9D9D9"/>
</mask>
<g mask="url(#mask0_39_4681)">
<path id="hourglass_empty_2" d="M6.66732 16.6674H13.334V14.1674C13.334 13.2507 13.0076 12.466 12.3548 11.8132C11.702 11.1604 10.9173 10.834 10.0007 10.834C9.08398 10.834 8.29926 11.1604 7.64648 11.8132C6.99371 12.466 6.66732 13.2507 6.66732 14.1674V16.6674ZM10.0007 9.16736C10.9173 9.16736 11.702 8.84097 12.3548 8.18819C13.0076 7.53541 13.334 6.75069 13.334 5.83402V3.33403H6.66732V5.83402C6.66732 6.75069 6.99371 7.53541 7.64648 8.18819C8.29926 8.84097 9.08398 9.16736 10.0007 9.16736ZM4.16732 18.334C3.93121 18.334 3.73329 18.2542 3.57357 18.0944C3.41385 17.9347 3.33398 17.7368 3.33398 17.5007C3.33398 17.2646 3.41385 17.0667 3.57357 16.9069C3.73329 16.7472 3.93121 16.6674 4.16732 16.6674H5.00065V14.1674C5.00065 13.3201 5.19857 12.525 5.5944 11.7819C5.99023 11.0389 6.54232 10.4451 7.25065 10.0007C6.54232 9.55625 5.99023 8.9625 5.5944 8.21944C5.19857 7.47639 5.00065 6.68125 5.00065 5.83402V3.33403H4.16732C3.93121 3.33403 3.73329 3.25416 3.57357 3.09444C3.41385 2.93472 3.33398 2.7368 3.33398 2.50069C3.33398 2.26458 3.41385 2.06666 3.57357 1.90694C3.73329 1.74722 3.93121 1.66736 4.16732 1.66736H15.834C16.0701 1.66736 16.268 1.74722 16.4277 1.90694C16.5875 2.06666 16.6673 2.26458 16.6673 2.50069C16.6673 2.7368 16.5875 2.93472 16.4277 3.09444C16.268 3.25416 16.0701 3.33403 15.834 3.33403H15.0007V5.83402C15.0007 6.68125 14.8027 7.47639 14.4069 8.21944C14.0111 8.9625 13.459 9.55625 12.7507 10.0007C13.459 10.4451 14.0111 11.0389 14.4069 11.7819C14.8027 12.525 15.0007 13.3201 15.0007 14.1674V16.6674H15.834C16.0701 16.6674 16.268 16.7472 16.4277 16.9069C16.5875 17.0667 16.6673 17.2646 16.6673 17.5007C16.6673 17.7368 16.5875 17.9347 16.4277 18.0944C16.268 18.2542 16.0701 18.334 15.834 18.334H4.16732Z" fill="#1C1B1F"/>
</g>
</g>
</svg>
