<svg xmlns="http://www.w3.org/2000/svg" viewBox="0 0 214 80" fill="none">
    <path d="M29.1024 8.85752C28.4652 8.49246 27.9621 7.98914 27.5934 7.34809C27.2243 6.70723 27.0399 5.99952 27.0399 5.22443C27.0399 4.44933 27.2243 3.74108 27.5934 3.10021C27.9621 2.45935 28.4652 1.95639 29.1024 1.59079C29.7396 1.22574 30.4344 1.04321 31.1873 1.04321C31.776 1.04321 32.3293 1.14751 32.8473 1.35611C33.3653 1.56471 33.7921 1.85907 34.1276 2.23936L33.4456 2.92154C33.192 2.60809 32.8659 2.36772 32.4674 2.20044C32.0686 2.0326 31.6418 1.94868 31.1873 1.94868C30.6284 1.94868 30.1048 2.08475 29.6168 2.35689C29.1285 2.62902 28.7372 3.01244 28.4428 3.50842C28.1485 4.00367 28.0012 4.57585 28.0012 5.22443C28.0012 5.87245 28.1485 6.44464 28.4428 6.94007C28.7372 7.43587 29.1285 7.81983 29.6168 8.09142C30.1048 8.36356 30.6284 8.49963 31.1873 8.49963C31.7239 8.49963 32.1729 8.41571 32.5344 8.24842C32.8958 8.08058 33.2107 7.85876 33.479 7.58277C33.6727 7.37417 33.8294 7.12113 33.9485 6.82291C34.0679 6.5247 34.1388 6.20041 34.161 5.85005H31.2097V4.96698H35.0553C35.0925 5.17558 35.1113 5.3695 35.1113 5.54817C35.1113 6.04029 35.0331 6.51901 34.8766 6.98506C34.72 7.45056 34.47 7.85876 34.1276 8.20894C33.3745 9.00644 32.3947 9.4051 31.1873 9.4051C30.4344 9.4051 29.7396 9.22257 29.1024 8.85752Z" fill="black"/>
    <path d="M39.6052 8.28724C39.8959 8.11609 40.1287 7.87205 40.3039 7.55474C40.4789 7.23817 40.5665 6.87128 40.5665 6.45407C40.5665 6.0365 40.4789 5.66961 40.3039 5.35285C40.1287 5.03628 39.8959 4.79205 39.6052 4.62054C39.3147 4.4494 39.0014 4.36346 38.6661 4.36346C38.338 4.36346 38.0289 4.4494 37.7385 4.62054C37.4476 4.79205 37.2146 5.03628 37.0397 5.35285C36.8646 5.66961 36.777 6.0365 36.777 6.45407C36.777 6.87128 36.8646 7.23817 37.0397 7.55474C37.2146 7.87205 37.4476 8.11609 37.7385 8.28724C38.0289 8.45893 38.338 8.54413 38.6661 8.54413C39.0014 8.54413 39.3147 8.45893 39.6052 8.28724ZM37.2017 9.01973C36.7694 8.76228 36.4321 8.40861 36.1899 7.95726C35.9477 7.50645 35.8269 7.00532 35.8269 6.45407C35.8269 5.90227 35.9477 5.40115 36.1899 4.95034C36.4321 4.49953 36.7694 4.1455 37.2017 3.88805C37.634 3.63115 38.1222 3.50261 38.6661 3.50261C39.21 3.50261 39.7003 3.63115 40.1365 3.88805C40.5722 4.1455 40.9112 4.49953 41.1538 4.95034C41.3958 5.40115 41.5168 5.90227 41.5168 6.45407C41.5168 7.00532 41.3958 7.50645 41.1538 7.95726C40.9112 8.40861 40.5722 8.76228 40.1365 9.01973C39.7003 9.27663 39.21 9.40498 38.6661 9.40498C38.1222 9.40498 37.634 9.27663 37.2017 9.01973Z" fill="black"/>
    <path d="M45.9439 8.28724C46.2346 8.11609 46.4674 7.87205 46.6426 7.55474C46.8176 7.23817 46.9052 6.87128 46.9052 6.45407C46.9052 6.0365 46.8176 5.66961 46.6426 5.35285C46.4674 5.03628 46.2346 4.79205 45.9439 4.62054C45.6534 4.4494 45.3401 4.36346 45.0048 4.36346C44.6767 4.36346 44.3676 4.4494 44.0771 4.62054C43.7863 4.79205 43.5532 5.03628 43.3784 5.35285C43.2033 5.66961 43.1157 6.0365 43.1157 6.45407C43.1157 6.87128 43.2033 7.23817 43.3784 7.55474C43.5532 7.87205 43.7863 8.11609 44.0771 8.28724C44.3676 8.45893 44.6767 8.54413 45.0048 8.54413C45.3401 8.54413 45.6534 8.45893 45.9439 8.28724ZM43.5404 9.01973C43.1081 8.76228 42.7708 8.40861 42.5286 7.95726C42.2864 7.50645 42.1656 7.00532 42.1656 6.45407C42.1656 5.90227 42.2864 5.40115 42.5286 4.95034C42.7708 4.49953 43.1081 4.1455 43.5404 3.88805C43.9727 3.63115 44.4609 3.50261 45.0048 3.50261C45.5487 3.50261 46.039 3.63115 46.4751 3.88805C46.9109 4.1455 47.2499 4.49953 47.4924 4.95034C47.7345 5.40115 47.8555 5.90227 47.8555 6.45407C47.8555 7.00532 47.7345 7.50645 47.4924 7.95726C47.2499 8.40861 46.9109 8.76228 46.4751 9.01973C46.039 9.27663 45.5487 9.40498 45.0048 9.40498C44.4609 9.40498 43.9727 9.27663 43.5404 9.01973Z" fill="black"/>
    <path d="M52.182 8.29154C52.4576 8.12315 52.6794 7.88149 52.8471 7.56675C53.0146 7.25201 53.0985 6.88127 53.0985 6.45415C53.0985 6.02703 53.0146 5.6539 52.8471 5.33585C52.6794 5.01726 52.4576 4.77542 52.182 4.61052C51.906 4.44599 51.6043 4.36354 51.2763 4.36354C50.9482 4.36354 50.6465 4.44801 50.3709 4.61621C50.0951 4.78497 49.8734 5.02625 49.7058 5.34099C49.5379 5.65573 49.4544 6.02703 49.4544 6.45415C49.4544 6.88127 49.5379 7.25201 49.7058 7.56675C49.8734 7.88149 50.0951 8.12315 50.3709 8.29154C50.6465 8.46029 50.9482 8.54421 51.2763 8.54421C51.6043 8.54421 51.906 8.46029 52.182 8.29154ZM49.6108 11.3392C49.1859 11.0188 48.8989 10.6462 48.7498 10.2215L49.633 9.85256C49.7449 10.1802 49.9443 10.4466 50.2313 10.6519C50.5181 10.8566 50.8589 10.9589 51.2541 10.9589C51.8428 10.9589 52.2955 10.7883 52.6124 10.4466C52.9292 10.1047 53.0875 9.62743 53.0875 9.01393V8.42136H53.0427C52.864 8.70488 52.6067 8.93956 52.2714 9.12594C51.9359 9.31214 51.556 9.40506 51.1311 9.40506C50.6615 9.40506 50.2256 9.27799 49.8231 9.02403C49.4206 8.76934 49.1002 8.41769 48.8618 7.96872C48.6231 7.51975 48.5041 7.01495 48.5041 6.45415C48.5041 5.8928 48.6231 5.388 48.8618 4.93903C49.1002 4.49006 49.4206 4.13841 49.8231 3.88427C50.2256 3.62976 50.6615 3.50269 51.1311 3.50269C51.556 3.50269 51.9359 3.59616 52.2714 3.78199C52.6067 3.96874 52.864 4.20342 53.0427 4.48639H53.0875V3.68136H53.9929V9.00255C53.9929 9.61366 53.8736 10.1319 53.6352 10.5566C53.3965 10.9813 53.0706 11.2979 52.657 11.5071C52.2433 11.7157 51.7758 11.82 51.2541 11.82C50.5833 11.82 50.0356 11.6596 49.6108 11.3392Z" fill="black"/>
    <path d="M55.1331 1.22193H56.0834V9.22629H55.1331V1.22193Z" fill="black"/>
    <path d="M61.3376 5.83922C61.3228 5.61556 61.2594 5.39172 61.1476 5.16842C61.0359 4.94476 60.8551 4.75452 60.6055 4.59807C60.3556 4.4418 60.037 4.36358 59.6495 4.36358C59.2322 4.36358 58.8708 4.49763 58.5652 4.76591C58.2597 5.03437 58.0657 5.39171 57.984 5.83922H61.3376ZM58.3024 9.02535C57.8814 8.77176 57.5516 8.4214 57.3132 7.97427C57.0745 7.52676 56.9555 7.0205 56.9555 6.454C56.9555 5.91744 57.0672 5.42348 57.2908 4.97267C57.5145 4.52187 57.8329 4.16397 58.2466 3.89937C58.6601 3.63494 59.1354 3.50255 59.6721 3.50255C60.2085 3.50255 60.6799 3.62392 61.0861 3.86576C61.4922 4.10797 61.8033 4.44933 62.0196 4.88876C62.2358 5.32873 62.3437 5.83536 62.3437 6.40902C62.3437 6.51387 62.3362 6.58824 62.3215 6.63286H57.9168C57.9315 7.05043 58.0323 7.40208 58.2187 7.68891C58.4049 7.97628 58.6379 8.19058 58.9174 8.33179C59.1969 8.47355 59.4856 8.54406 59.7838 8.54406C60.4841 8.54406 61.0246 8.20196 61.4047 7.51593L62.2431 7.91844C62.0046 8.36539 61.6748 8.7253 61.2537 8.99726C60.8328 9.26903 60.3277 9.4051 59.7391 9.4051C59.2026 9.4051 58.7235 9.27839 58.3024 9.02535Z" fill="black"/>
    <path d="M68.403 8.3209C69.3492 8.3209 70.0984 8.04876 70.65 7.50467C71.2013 6.96094 71.4771 6.20054 71.4771 5.22437C71.4771 4.24784 71.2013 3.48798 70.65 2.94371C70.0984 2.39961 69.3492 2.12748 68.403 2.12748H66.9273V8.3209H68.403ZM65.977 1.22201H68.403C69.2227 1.22201 69.9381 1.39168 70.5492 1.73066C71.1603 2.07 71.6299 2.54138 71.9578 3.14478C72.2856 3.74873 72.4498 4.44175 72.4498 5.22437C72.4498 6.00663 72.2856 6.69964 71.9578 7.30359C71.6299 7.907 71.1603 8.37874 70.5492 8.71772C69.9381 9.05706 69.2227 9.22637 68.403 9.22637H65.977V1.22201Z" fill="black"/>
    <path d="M77.6367 5.83922C77.6218 5.61556 77.5584 5.39172 77.4466 5.16842C77.335 4.94476 77.1541 4.75452 76.9045 4.59807C76.6546 4.4418 76.336 4.36358 75.9486 4.36358C75.5312 4.36358 75.1696 4.49763 74.8643 4.76591C74.5587 5.03437 74.3648 5.39171 74.2831 5.83922H77.6367ZM74.6015 9.02535C74.1804 8.77176 73.8506 8.4214 73.6123 7.97427C73.3736 7.52676 73.2546 7.0205 73.2546 6.454C73.2546 5.91744 73.3662 5.42348 73.5899 4.97267C73.8135 4.52187 74.1319 4.16397 74.5457 3.89937C74.9592 3.63494 75.4344 3.50255 75.9712 3.50255C76.5075 3.50255 76.9789 3.62392 77.3851 3.86576C77.7913 4.10797 78.1024 4.44933 78.3187 4.88876C78.5348 5.32873 78.6428 5.83536 78.6428 6.40902C78.6428 6.51387 78.6352 6.58824 78.6206 6.63286H74.2159C74.2306 7.05043 74.3314 7.40208 74.5177 7.68891C74.7039 7.97628 74.937 8.19058 75.2164 8.33179C75.4959 8.47355 75.7846 8.54406 76.0828 8.54406C76.7832 8.54406 77.3236 8.20196 77.7037 7.51593L78.5421 7.91844C78.3036 8.36539 77.9738 8.7253 77.5527 8.99726C77.1319 9.26903 76.6267 9.4051 76.0382 9.4051C75.5016 9.4051 75.0225 9.27839 74.6015 9.02535Z" fill="black"/>
    <path d="M78.8664 3.68138H79.8949L81.594 8.10848H81.6164L83.3381 3.68138H84.3442L82.0747 9.22641H81.1134L78.8664 3.68138Z" fill="black"/>
    <path d="M89.1179 5.83922C89.1031 5.61556 89.0397 5.39172 88.9279 5.16842C88.8162 4.94476 88.6354 4.75452 88.3858 4.59807C88.1359 4.4418 87.8173 4.36358 87.4298 4.36358C87.0124 4.36358 86.6511 4.49763 86.3455 4.76591C86.0399 5.03437 85.846 5.39171 85.7643 5.83922H89.1179ZM86.0829 9.02535C85.6617 8.77176 85.3319 8.4214 85.0935 7.97427C84.8548 7.52676 84.7358 7.0205 84.7358 6.454C84.7358 5.91744 84.8475 5.42348 85.0711 4.97267C85.2948 4.52187 85.6132 4.16397 86.0269 3.89937C86.4404 3.63494 86.9157 3.50255 87.4524 3.50255C87.9888 3.50255 88.4602 3.62392 88.8664 3.86576C89.2725 4.10797 89.5836 4.44933 89.7999 4.88876C90.0161 5.32873 90.124 5.83536 90.124 6.40902C90.124 6.51387 90.1165 6.58824 90.1018 6.63286H85.6971C85.7118 7.05043 85.8126 7.40208 85.999 7.68891C86.1852 7.97628 86.4182 8.19058 86.6977 8.33179C86.9772 8.47355 87.2659 8.54406 87.5641 8.54406C88.2644 8.54406 88.8048 8.20196 89.185 7.51593L90.0234 7.91844C89.7849 8.36539 89.4551 8.7253 89.034 8.99726C88.6131 9.26903 88.108 9.4051 87.5194 9.4051C86.9829 9.4051 86.5038 9.27839 86.0829 9.02535Z" fill="black"/>
    <path d="M91.0852 1.22193H92.0354V9.22629H91.0852V1.22193Z" fill="black"/>
    <path d="M96.7195 8.28724C97.0102 8.11609 97.2431 7.87205 97.4183 7.55474C97.5933 7.23817 97.6808 6.87128 97.6808 6.45407C97.6808 6.0365 97.5933 5.66961 97.4183 5.35285C97.2431 5.03628 97.0102 4.79205 96.7195 4.62054C96.4289 4.4494 96.1158 4.36346 95.7805 4.36346C95.4523 4.36346 95.1433 4.4494 94.8528 4.62054C94.5619 4.79205 94.3289 5.03628 94.1541 5.35285C93.9789 5.66961 93.8913 6.0365 93.8913 6.45407C93.8913 6.87128 93.9789 7.23817 94.1541 7.55474C94.3289 7.87205 94.5619 8.11609 94.8528 8.28724C95.1433 8.45893 95.4523 8.54413 95.7805 8.54413C96.1158 8.54413 96.4289 8.45893 96.7195 8.28724ZM94.316 9.01973C93.8838 8.76228 93.5464 8.40861 93.3042 7.95725C93.062 7.50645 92.9412 7.00532 92.9412 6.45407C92.9412 5.90227 93.062 5.40115 93.3042 4.95034C93.5464 4.49953 93.8838 4.1455 94.316 3.88805C94.7483 3.63115 95.2366 3.50261 95.7805 3.50261C96.3244 3.50261 96.8147 3.63115 97.2508 3.88805C97.6865 4.1455 98.0255 4.49953 98.2681 4.95034C98.5101 5.40115 98.6311 5.90227 98.6311 6.45407C98.6311 7.00532 98.5101 7.50645 98.2681 7.95725C98.0255 8.40861 97.6865 8.76228 97.2508 9.01973C96.8147 9.27663 96.3244 9.40498 95.7805 9.40498C95.2366 9.40498 94.7483 9.27663 94.316 9.01973Z" fill="black"/>
    <path d="M103.142 8.28729C103.422 8.11615 103.645 7.87211 103.813 7.5548C103.981 7.23822 104.064 6.87133 104.064 6.45413C104.064 6.03656 103.981 5.66967 103.813 5.35291C103.645 5.03633 103.422 4.79211 103.142 4.6206C102.863 4.44946 102.559 4.36352 102.231 4.36352C101.903 4.36352 101.599 4.44744 101.32 4.61491C101.041 4.78256 100.817 5.02495 100.649 5.34152C100.482 5.65865 100.398 6.02885 100.398 6.45413C100.398 6.87133 100.482 7.24006 100.649 7.56049C100.817 7.88111 101.041 8.12515 101.32 8.29298C101.599 8.46082 101.903 8.54419 102.231 8.54419C102.559 8.54419 102.863 8.45899 103.142 8.28729ZM99.4923 3.68134H100.398V4.49775H100.443C100.621 4.21423 100.878 3.97772 101.214 3.78766C101.549 3.59761 101.937 3.50267 102.376 3.50267C102.853 3.50267 103.293 3.63121 103.696 3.88811C104.098 4.14555 104.418 4.49775 104.657 4.9447C104.896 5.39184 105.015 5.8948 105.015 6.45413C105.015 7.01309 104.896 7.51605 104.657 7.963C104.418 8.41014 104.098 8.76234 103.696 9.01979C103.293 9.27668 102.853 9.40504 102.376 9.40504C101.937 9.40504 101.547 9.31029 101.208 9.12023C100.869 8.93017 100.614 8.68981 100.443 8.39912H100.398L100.443 9.17036V11.6413H99.4923V3.68134Z" fill="black"/>
    <path d="M110.269 5.83922C110.254 5.61556 110.19 5.39172 110.078 5.16842C109.967 4.94476 109.786 4.75452 109.536 4.59807C109.286 4.4418 108.968 4.36358 108.58 4.36358C108.163 4.36358 107.802 4.49763 107.496 4.76591C107.191 5.03437 106.997 5.39171 106.915 5.83922H110.269ZM107.234 9.02535C106.812 8.77176 106.482 8.4214 106.244 7.97427C106.005 7.52676 105.886 7.0205 105.886 6.454C105.886 5.91744 105.998 5.42348 106.222 4.97267C106.445 4.52187 106.764 4.16397 107.178 3.89937C107.591 3.63494 108.066 3.50255 108.603 3.50255C109.139 3.50255 109.611 3.62392 110.017 3.86576C110.423 4.10797 110.734 4.44933 110.951 4.88876C111.167 5.32873 111.275 5.83536 111.275 6.40902C111.275 6.51387 111.267 6.58824 111.252 6.63286H106.848C106.862 7.05043 106.963 7.40208 107.15 7.68891C107.336 7.97628 107.569 8.19058 107.848 8.33179C108.128 8.47355 108.416 8.54406 108.715 8.54406C109.415 8.54406 109.955 8.20196 110.336 7.51593L111.174 7.91844C110.935 8.36539 110.606 8.7253 110.185 8.99726C109.764 9.26903 109.259 9.4051 108.67 9.4051C108.133 9.4051 107.654 9.27839 107.234 9.02535Z" fill="black"/>
    <path d="M112.236 3.68138H113.142V4.58685H113.186C113.291 4.28148 113.505 4.02458 113.829 3.81561C114.153 3.60701 114.476 3.50271 114.796 3.50271C115.027 3.50271 115.243 3.54017 115.444 3.61454V4.63184C115.243 4.52001 114.982 4.464 114.662 4.464C114.401 4.464 114.157 4.54076 113.93 4.69354C113.702 4.84705 113.522 5.05051 113.388 5.30447C113.253 5.55806 113.186 5.83497 113.186 6.13355V9.22641H112.236V3.68138Z" fill="black"/>
    <path d="M120.335 8.85752C119.698 8.49246 119.195 7.98914 118.826 7.34809C118.457 6.70723 118.273 5.99952 118.273 5.22443C118.273 4.44933 118.457 3.74108 118.826 3.10021C119.195 2.45935 119.698 1.95639 120.335 1.59079C120.972 1.22574 121.667 1.04321 122.42 1.04321C123.009 1.04321 123.562 1.14751 124.08 1.35611C124.598 1.56471 125.025 1.85907 125.36 2.23936L124.678 2.92154C124.425 2.60809 124.099 2.36772 123.7 2.20044C123.301 2.0326 122.875 1.94868 122.42 1.94868C121.861 1.94868 121.338 2.08475 120.85 2.35689C120.361 2.62902 119.97 3.01244 119.676 3.50842C119.381 4.00367 119.234 4.57585 119.234 5.22443C119.234 5.87245 119.381 6.44464 119.676 6.94007C119.97 7.43587 120.361 7.81983 120.85 8.09142C121.338 8.36356 121.861 8.49963 122.42 8.49963C122.957 8.49963 123.406 8.41571 123.767 8.24842C124.129 8.08058 124.444 7.85876 124.712 7.58277C124.906 7.37417 125.062 7.12113 125.181 6.82291C125.301 6.5247 125.372 6.20041 125.394 5.85005H122.443V4.96698H126.288C126.325 5.17558 126.344 5.3695 126.344 5.54817C126.344 6.04029 126.266 6.51901 126.109 6.98506C125.953 7.45056 125.703 7.85876 125.36 8.20894C124.607 9.00644 123.627 9.4051 122.42 9.4051C121.667 9.4051 120.972 9.22257 120.335 8.85752Z" fill="black"/>
    <path d="M127.428 3.68138H128.334V4.58685H128.379C128.483 4.28148 128.697 4.02458 129.021 3.81561C129.346 3.60701 129.668 3.50271 129.989 3.50271C130.219 3.50271 130.435 3.54017 130.637 3.61454V4.63184C130.435 4.52001 130.175 4.464 129.854 4.464C129.593 4.464 129.349 4.54076 129.122 4.69354C128.895 4.84705 128.714 5.05051 128.58 5.30447C128.446 5.55806 128.379 5.83497 128.379 6.13355V9.22641H127.428V3.68138Z" fill="black"/>
    <path d="M134.538 8.28724C134.829 8.11609 135.062 7.87205 135.237 7.55474C135.412 7.23817 135.499 6.87128 135.499 6.45407C135.499 6.0365 135.412 5.66961 135.237 5.35285C135.062 5.03628 134.829 4.79205 134.538 4.62054C134.247 4.4494 133.934 4.36346 133.599 4.36346C133.271 4.36346 132.962 4.4494 132.671 4.62054C132.381 4.79205 132.148 5.03628 131.973 5.35285C131.798 5.66961 131.71 6.0365 131.71 6.45407C131.71 6.87128 131.798 7.23817 131.973 7.55474C132.148 7.87205 132.381 8.11609 132.671 8.28724C132.962 8.45893 133.271 8.54413 133.599 8.54413C133.934 8.54413 134.247 8.45893 134.538 8.28724ZM132.135 9.01973C131.702 8.76228 131.365 8.40861 131.123 7.95726C130.881 7.50645 130.76 7.00532 130.76 6.45407C130.76 5.90227 130.881 5.40115 131.123 4.95034C131.365 4.49953 131.702 4.1455 132.135 3.88805C132.567 3.63115 133.055 3.50261 133.599 3.50261C134.143 3.50261 134.633 3.63115 135.069 3.88805C135.505 4.1455 135.844 4.49953 136.087 4.95034C136.329 5.40115 136.45 5.90227 136.45 6.45407C136.45 7.00532 136.329 7.50645 136.087 7.95726C135.844 8.40861 135.505 8.76228 135.069 9.01973C134.633 9.27663 134.143 9.40498 133.599 9.40498C133.055 9.40498 132.567 9.27663 132.135 9.01973Z" fill="black"/>
    <path d="M137.842 8.81249C137.488 8.41769 137.311 7.87011 137.311 7.16938V3.68136H138.261V7.01293C138.261 8.03409 138.719 8.54421 139.636 8.54421C139.942 8.54421 140.215 8.45882 140.458 8.28731C140.7 8.11617 140.886 7.89233 141.017 7.61652C141.147 7.34107 141.212 7.05039 141.212 6.74465V3.68136H142.151V9.22639H141.257V8.39914H141.212C141.048 8.68266 140.8 8.92101 140.469 9.11438C140.137 9.30829 139.781 9.40506 139.401 9.40506C138.716 9.40506 138.196 9.20784 137.842 8.81249Z" fill="black"/>
    <path d="M147.042 8.28729C147.322 8.11615 147.545 7.87211 147.713 7.5548C147.88 7.23822 147.964 6.87133 147.964 6.45413C147.964 6.03656 147.88 5.66967 147.713 5.35291C147.545 5.03633 147.322 4.79211 147.042 4.6206C146.763 4.44946 146.459 4.36352 146.131 4.36352C145.803 4.36352 145.499 4.44744 145.22 4.61491C144.941 4.78256 144.717 5.02495 144.549 5.34152C144.382 5.65865 144.298 6.02885 144.298 6.45413C144.298 6.87133 144.382 7.24006 144.549 7.56049C144.717 7.88111 144.941 8.12515 145.22 8.29298C145.499 8.46082 145.803 8.54419 146.131 8.54419C146.459 8.54419 146.763 8.45898 147.042 8.28729ZM143.392 3.68134H144.298V4.49775H144.343C144.521 4.21423 144.778 3.97772 145.114 3.78766C145.449 3.59761 145.837 3.50267 146.276 3.50267C146.753 3.50267 147.193 3.63121 147.596 3.88811C147.998 4.14555 148.318 4.49775 148.557 4.9447C148.796 5.39184 148.915 5.8948 148.915 6.45413C148.915 7.01309 148.796 7.51605 148.557 7.963C148.318 8.41014 147.998 8.76234 147.596 9.01979C147.193 9.27668 146.753 9.40504 146.276 9.40504C145.837 9.40504 145.447 9.31029 145.108 9.12023C144.769 8.93017 144.514 8.68981 144.343 8.39912H144.298L144.343 9.17036V11.6413H143.392V3.68134Z" fill="black"/>
    <path d="M150.278 8.95803C149.868 8.65982 149.581 8.29109 149.417 7.85112L150.256 7.48239C150.405 7.83257 150.615 8.10104 150.887 8.28724C151.159 8.47362 151.456 8.5669 151.776 8.5669C152.134 8.5669 152.43 8.48868 152.665 8.33186C152.9 8.17541 153.017 7.98535 153.017 7.76206C153.017 7.54593 152.929 7.36707 152.754 7.22531C152.579 7.08355 152.279 6.96089 151.855 6.85659L151.094 6.66653C150.677 6.56976 150.321 6.39439 150.027 6.1408C149.732 5.88758 149.585 5.55246 149.585 5.13489C149.585 4.79205 149.684 4.4977 149.881 4.25163C150.079 4.00557 150.342 3.81937 150.67 3.69285C150.997 3.56615 151.355 3.50261 151.743 3.50261C152.22 3.50261 152.654 3.61261 153.045 3.83259C153.436 4.05203 153.714 4.36346 153.878 4.76598L153.04 5.1235C152.92 4.85522 152.739 4.658 152.497 4.53093C152.255 4.40423 151.985 4.34124 151.687 4.34124C151.396 4.34124 151.133 4.41194 150.899 4.5537C150.664 4.69491 150.547 4.87744 150.547 5.1011C150.547 5.29501 150.623 5.44779 150.776 5.55962C150.928 5.67145 151.173 5.77189 151.508 5.8615L152.335 6.06258C152.887 6.20434 153.298 6.41478 153.571 6.69444C153.842 6.97374 153.978 7.30739 153.978 7.69467C153.978 8.0151 153.885 8.30615 153.699 8.5669C153.513 8.82765 153.252 9.0324 152.917 9.18187C152.581 9.33061 152.201 9.40498 151.776 9.40498C151.187 9.40498 150.688 9.25624 150.278 8.95803Z" fill="black"/>
    <path d="M21.2621 7.06406L15.1074 10.6456C14.2584 11.1143 13.1934 10.8008 12.7284 9.94515C12.2781 9.11683 12.5542 8.07805 13.3548 7.58731L19.5095 4.00427C20.3479 3.51646 21.4199 3.80591 21.9037 4.65094C22.3876 5.49596 22.1005 6.57625 21.2621 7.06406Z" fill="#34A853"/>
    <path d="M19.2659 3.57873L16.3935 5.25097L13.3549 3.48103C12.5167 2.99322 12.2293 1.91293 12.7133 1.06791C13.1972 0.222882 14.269 -0.0665671 15.1074 0.421236L20.0551 3.30012C19.7771 3.34255 19.5094 3.43695 19.2659 3.57873Z" fill="#F9AB00"/>
    <path d="M8.83601 7.37597L2.6336 3.79356C1.7834 3.31484 0.706235 3.61581 0.227515 4.46601C-0.243859 5.30317 0.0402149 6.36363 0.867093 6.85281L7.06951 10.4339C7.92797 10.8976 8.99963 10.5777 9.46329 9.71944C9.90859 8.8955 9.63333 7.86736 8.83601 7.37597Z" fill="#4285F4"/>
    <path d="M2.87886 3.36819L5.77394 5.04012L8.83613 3.2705C9.66668 2.75872 9.92505 1.67054 9.41309 0.83999C8.92188 0.0426756 7.89357 -0.232583 7.06962 0.212532L2.08393 3.09109C2.36396 3.13296 2.63353 3.22698 2.87886 3.36819Z" fill="#EA4335"/>
    <path d="M15.0298 48.4833V36.1501C13.7923 35.1331 12.2451 34.5143 10.6095 34.5143C7.07309 34.5143 4.99509 37.2109 4.99509 42.2946C4.99509 47.157 6.94022 49.8536 10.5209 49.8536C12.1125 49.8536 13.748 49.3231 15.0298 48.4833ZM21.5726 51.6661L16.9309 54.1861L15.4279 50.9146C13.8807 52.8155 11.582 54.1861 8.62009 54.1861C2.96186 54.1861 0 49.5 0 42.2503C0 34.3819 3.49213 30.1381 9.06202 30.1381C11.6703 30.1381 13.7038 31.1105 15.0298 32.923V21.341H19.8042V48.1297L21.5726 51.6661Z" fill="black"/>
    <path d="M29.8824 39.377H41.155C40.9338 35.9289 39.2982 34.2934 36.248 34.2934C32.9323 34.2934 30.6341 36.1942 29.8824 39.377ZM45.266 42.6922H29.6171C29.9264 46.7151 33.0652 49.4117 38.0162 49.4117C40.5359 49.4117 43.2768 48.8812 45.1334 47.9088L43.6304 52.8153C42.0829 53.6556 39.4749 54.1861 36.4687 54.1861C29.3519 54.1861 24.6661 49.3675 24.6661 42.0291C24.6661 34.6467 29.1306 30.1381 36.248 30.1381C42.1272 30.1381 45.8406 33.4976 45.8406 38.9349C45.8406 40.1726 45.6193 41.6312 45.266 42.6922Z" fill="black"/>
    <path d="M56.8914 53.6112L47.8734 30.7128H53.1338L59.0135 46.715L59.6761 48.7044H59.8533L60.5162 46.715L66.3513 30.7128H71.5233L62.5496 53.6112H56.8914Z" fill="black"/>
    <path d="M87.1717 30.7569H97.5157L96.8528 34.426H86.5086L82.8838 55.0259C81.8669 60.7725 78.0211 62.9386 72.6279 62.9386C70.1525 62.9386 69.0032 62.585 67.7655 62.3197L67.6769 58.6064C68.9146 58.8276 70.3735 58.9602 72.407 58.9602C75.6338 58.9602 77.7559 57.678 78.2423 54.9816L81.8669 34.426H74.6614L75.3245 30.7569H82.5302L82.8838 28.6349C83.9006 22.9326 87.7022 20.7663 93.0512 20.7663C95.5709 20.7663 96.8528 21.1201 97.9579 21.3854L98.0462 25.187C96.8088 24.8775 95.3496 24.7449 93.3164 24.7449C90.1336 24.7449 88.0115 26.0269 87.5253 28.7235L87.1717 30.7569Z" fill="black"/>
    <path d="M103.483 39.377H114.755C114.534 35.9289 112.899 34.2934 109.848 34.2934C106.533 34.2934 104.235 36.1942 103.483 39.377ZM118.866 42.6922H103.218C103.527 46.7151 106.666 49.4117 111.617 49.4117C114.136 49.4117 116.877 48.8812 118.734 47.9088L117.231 52.8153C115.683 53.6556 113.075 54.1861 110.069 54.1861C102.952 54.1861 98.2665 49.3675 98.2665 42.0291C98.2665 34.6467 102.731 30.1381 109.848 30.1381C115.728 30.1381 119.441 33.4976 119.441 38.9349C119.441 40.1726 119.22 41.6312 118.866 42.6922Z" fill="black"/>
    <path d="M123.993 52.2409L123.684 47.1129C125.718 48.5278 129.431 49.7655 133.321 49.7655C136.283 49.7655 138.405 48.8371 138.405 46.7593C138.405 42.4271 124.17 46.45 124.17 37.6087C124.17 33.4977 127.265 30.0054 134.647 30.0054C139.156 30.0054 142.604 31.1107 142.604 33.8513C142.604 34.6912 142.25 35.3983 141.897 36.0615C139.952 35.1333 136.902 34.4702 134.338 34.4702C130.801 34.4702 128.944 35.7962 128.944 37.2551C128.944 41.1009 143.355 37.7414 143.355 46.3615C143.355 51.1799 139.112 54.186 132.79 54.186C128.502 54.186 125.275 52.8154 123.993 52.2409Z" fill="black"/>
    <path d="M167.978 48.7486L167.005 53.2134C165.855 53.6996 163.557 54.1861 161.435 54.1861C155.732 54.1861 153.301 51.2242 153.301 47.0244V34.7352H146.803V30.7126H153.301V24.4355H158.075V30.7126H167.314V34.7352H158.075V45.566C158.075 48.5276 159.623 49.8536 162.319 49.8536C163.866 49.8536 166.696 49.5003 167.978 48.7486Z" fill="black"/>
    <path d="M173.602 31.8858C174 31.4878 174.784 30.7042 175.953 29.5351C177.122 28.3534 177.899 27.5512 178.285 27.1283C178.807 26.5686 179.162 26.1146 179.348 25.7663C179.547 25.4181 179.647 25.0014 179.647 24.5163C179.647 24.0312 179.46 23.6083 179.087 23.2476C178.714 22.8869 178.21 22.7066 177.576 22.7066C176.991 22.7066 176.512 22.8807 176.139 23.229C175.779 23.5648 175.542 23.9566 175.43 24.4044L173.565 23.6394C173.689 23.1917 173.919 22.7501 174.255 22.3148C174.603 21.8795 175.063 21.5125 175.636 21.214C176.208 20.9155 176.867 20.7663 177.613 20.7663C178.422 20.7663 179.137 20.9342 179.759 21.27C180.393 21.5934 180.878 22.0411 181.214 22.6133C181.562 23.173 181.736 23.7949 181.736 24.479C181.736 25.2128 181.544 25.9218 181.158 26.6059C180.785 27.2776 180.306 27.9057 179.721 28.4903C179.473 28.7266 178.845 29.3485 177.837 30.356C176.817 31.3759 176.307 31.8858 176.307 31.8858L176.345 31.9605H181.904V33.8262H173.602V31.8858Z" fill="#F9AB00"/>
    <path d="M188.584 34.2284C187.532 34.2284 186.604 33.9339 185.802 33.3447C185 32.7431 184.379 31.9346 183.94 30.9193C183.514 29.8915 183.301 28.7508 183.301 27.4973C183.301 26.2313 183.514 25.0907 183.94 24.0754C184.379 23.0476 185 22.2391 185.802 21.6499C186.604 21.0608 187.532 20.7663 188.584 20.7663C189.637 20.7663 190.559 21.0608 191.348 21.6499C192.151 22.2391 192.765 23.0476 193.191 24.0754C193.63 25.0907 193.849 26.2313 193.849 27.4973C193.849 28.7508 193.63 29.8915 193.191 30.9193C192.765 31.9346 192.151 32.7431 191.348 33.3447C190.546 33.9339 189.625 34.2284 188.584 34.2284ZM188.584 32.273C189.224 32.273 189.782 32.0662 190.258 31.6526C190.747 31.2264 191.116 30.6561 191.367 29.9416C191.63 29.2146 191.762 28.3998 191.762 27.4973C191.762 26.5949 191.63 25.7801 191.367 25.0531C191.116 24.3261 190.747 23.7558 190.258 23.3421C189.782 22.9285 189.224 22.7217 188.584 22.7217C187.933 22.7217 187.369 22.9285 186.892 23.3421C186.416 23.7558 186.046 24.3261 185.783 25.0531C185.532 25.7801 185.407 26.5949 185.407 27.4973C185.407 28.3998 185.532 29.2146 185.783 29.9416C186.046 30.6561 186.416 31.2264 186.892 31.6526C187.369 32.0662 187.933 32.273 188.584 32.273Z" fill="#F9AB00"/>
    <path d="M195.283 31.8858C195.681 31.4878 196.465 30.7042 197.634 29.5351C198.803 28.3534 199.58 27.5512 199.966 27.1283C200.488 26.5686 200.843 26.1146 201.029 25.7663C201.229 25.4181 201.328 25.0014 201.328 24.5163C201.328 24.0312 201.141 23.6083 200.768 23.2476C200.395 22.8869 199.891 22.7066 199.257 22.7066C198.672 22.7066 198.194 22.8807 197.82 23.229C197.46 23.5648 197.223 23.9566 197.112 24.4044L195.246 23.6394C195.37 23.1917 195.6 22.7501 195.936 22.3148C196.284 21.8795 196.745 21.5125 197.317 21.214C197.889 20.9155 198.548 20.7663 199.294 20.7663C200.103 20.7663 200.818 20.9342 201.44 21.27C202.074 21.5934 202.559 22.0411 202.895 22.6133C203.243 23.173 203.418 23.7949 203.418 24.479C203.418 25.2128 203.225 25.9218 202.839 26.6059C202.466 27.2776 201.987 27.9057 201.403 28.4903C201.154 28.7266 200.526 29.3485 199.518 30.356C198.498 31.3759 197.988 31.8858 197.988 31.8858L198.026 31.9605H203.586V33.8262H195.283V31.8858Z" fill="#F9AB00"/>
    <path d="M209.382 34.2284C208.417 34.2284 207.521 33.9527 206.693 33.4011C205.866 32.8371 205.296 32.0161 204.982 30.9381L206.9 30.1484C207.076 30.8128 207.376 31.3267 207.803 31.6902C208.241 32.0537 208.768 32.2354 209.382 32.2354C210.009 32.2354 210.548 32.0474 210.999 31.6714C211.45 31.2828 211.676 30.7939 211.676 30.2048C211.676 29.6032 211.438 29.1143 210.961 28.7383C210.485 28.3497 209.89 28.1554 209.175 28.1554H208.066V26.2564H209.062C209.676 26.2564 210.19 26.0935 210.604 25.7676C211.03 25.4291 211.243 24.9716 211.243 24.395C211.243 23.8811 211.055 23.4737 210.679 23.1729C210.303 22.8595 209.827 22.7029 209.25 22.7029C208.686 22.7029 208.235 22.8533 207.897 23.1541C207.571 23.4549 207.333 23.8247 207.182 24.2634L205.283 23.4737C205.534 22.7593 205.998 22.1325 206.674 21.5935C207.351 21.042 208.216 20.7663 209.269 20.7663C210.046 20.7663 210.742 20.9167 211.356 21.2175C211.983 21.5183 212.472 21.9382 212.823 22.4772C213.174 23.0037 213.349 23.5991 213.349 24.2634C213.349 24.9403 213.186 25.5169 212.86 25.9932C212.534 26.457 212.133 26.8142 211.657 27.0649V27.1777C212.284 27.4409 212.798 27.842 213.199 28.381C213.6 28.92 213.8 29.5656 213.8 30.3176C213.8 31.0697 213.606 31.7403 213.218 32.3294C212.841 32.9186 212.315 33.3824 211.638 33.7208C210.974 34.0592 210.222 34.2284 209.382 34.2284Z" fill="#F9AB00"/>
    <path d="M173.857 65.3275H175.157V75.1556H180.017V76.4092H173.857V65.3275Z" fill="#4285F4"/>
    <path d="M183.991 76.6569C183.413 76.6569 182.898 76.5434 182.444 76.3164C181.99 76.0894 181.639 75.7798 181.391 75.3878C181.143 74.9853 181.02 74.5313 181.02 74.0257C181.02 73.19 181.334 72.5399 181.964 72.0756C182.593 71.601 183.388 71.3636 184.347 71.3636C184.822 71.3636 185.26 71.4152 185.663 71.5184C186.076 71.6216 186.39 71.7403 186.607 71.8744V71.3946C186.607 70.8065 186.401 70.337 185.988 69.9862C185.575 69.625 185.054 69.4445 184.425 69.4445C183.981 69.4445 183.573 69.5425 183.202 69.7385C182.83 69.9242 182.536 70.1874 182.32 70.5279L181.329 69.785C181.639 69.3103 182.062 68.9389 182.598 68.6706C183.145 68.4023 183.749 68.2682 184.409 68.2682C185.482 68.2682 186.323 68.5519 186.932 69.1194C187.551 69.6766 187.861 70.4402 187.861 71.4101V76.4092H186.607V75.2794H186.545C186.318 75.6612 185.978 75.9862 185.524 76.2545C185.07 76.5228 184.559 76.6569 183.991 76.6569ZM184.115 75.4961C184.559 75.4961 184.971 75.3826 185.353 75.1556C185.735 74.9286 186.039 74.6242 186.266 74.2424C186.493 73.8607 186.607 73.4428 186.607 72.9888C186.359 72.8237 186.055 72.6895 185.694 72.5863C185.333 72.4832 184.951 72.4316 184.548 72.4316C183.826 72.4316 183.279 72.5812 182.908 72.8804C182.547 73.1796 182.366 73.5666 182.366 74.0412C182.366 74.4746 182.531 74.8254 182.861 75.0937C183.192 75.362 183.609 75.4961 184.115 75.4961Z" fill="#4285F4"/>
    <path d="M193.082 80C192.154 80 191.385 79.7833 190.776 79.35C190.178 78.9166 189.775 78.3955 189.569 77.7867L190.761 77.276C190.936 77.73 191.225 78.0963 191.627 78.3749C192.04 78.6638 192.525 78.8082 193.082 78.8082C193.897 78.8082 194.527 78.5709 194.97 78.0963C195.424 77.6216 195.651 76.951 195.651 76.0842V75.202H195.589C195.331 75.6044 194.965 75.9346 194.491 76.1926C194.026 76.4402 193.495 76.564 192.896 76.564C192.215 76.564 191.591 76.3886 191.024 76.0378C190.466 75.687 190.023 75.1969 189.693 74.5675C189.362 73.938 189.197 73.2209 189.197 72.4161C189.197 71.6216 189.362 70.9096 189.693 70.2802C190.023 69.6405 190.466 69.1452 191.024 68.7944C191.591 68.4436 192.215 68.2682 192.896 68.2682C193.495 68.2682 194.026 68.3971 194.491 68.6551C194.965 68.9027 195.331 69.2329 195.589 69.6457H195.651V68.5158H196.905V76.0997C196.905 77.3689 196.554 78.3336 195.853 78.994C195.151 79.6647 194.227 80 193.082 80ZM193.082 75.3723C193.557 75.3723 193.985 75.2536 194.367 75.0163C194.759 74.779 195.068 74.4385 195.295 73.9948C195.533 73.5511 195.651 73.0249 195.651 72.4161C195.651 71.797 195.533 71.2656 195.295 70.8219C195.068 70.3783 194.759 70.0429 194.367 69.8159C193.985 69.5786 193.557 69.4599 193.082 69.4599C192.608 69.4599 192.174 69.5786 191.782 69.8159C191.39 70.0532 191.075 70.3937 190.838 70.8374C190.611 71.2811 190.497 71.8073 190.497 72.4161C190.497 73.0249 190.611 73.5563 190.838 74.0103C191.075 74.454 191.39 74.7944 191.782 75.0318C192.174 75.2588 192.608 75.3723 193.082 75.3723Z" fill="#4285F4"/>
    <path d="M202.412 76.6569C201.638 76.6569 200.941 76.4712 200.322 76.0997C199.703 75.7283 199.218 75.2227 198.868 74.5829C198.527 73.9432 198.357 73.2364 198.357 72.4625C198.357 71.6887 198.527 70.9819 198.868 70.3421C199.218 69.7024 199.703 69.1968 200.322 68.8254C200.941 68.4539 201.638 68.2682 202.412 68.2682C203.186 68.2682 203.882 68.4539 204.501 68.8254C205.12 69.1968 205.6 69.7024 205.941 70.3421C206.291 70.9819 206.467 71.6887 206.467 72.4625C206.467 73.2364 206.291 73.9432 205.941 74.5829C205.6 75.2227 205.12 75.7283 204.501 76.0997C203.882 76.4712 203.186 76.6569 202.412 76.6569ZM202.412 75.4651C202.897 75.4651 203.346 75.3465 203.758 75.1092C204.181 74.8615 204.517 74.5107 204.764 74.0567C205.022 73.6027 205.151 73.0713 205.151 72.4625C205.151 71.8538 205.022 71.3224 204.764 70.8684C204.517 70.4144 204.181 70.0687 203.758 69.8314C203.346 69.5838 202.897 69.4599 202.412 69.4599C201.927 69.4599 201.473 69.5838 201.05 69.8314C200.627 70.0687 200.286 70.4144 200.028 70.8684C199.781 71.3224 199.657 71.8538 199.657 72.4625C199.657 73.0713 199.781 73.6027 200.028 74.0567C200.286 74.5107 200.627 74.8615 201.05 75.1092C201.473 75.3465 201.927 75.4651 202.412 75.4651Z" fill="#4285F4"/>
    <path d="M210.674 76.6569C209.828 76.6569 209.121 76.4608 208.554 76.0688C207.986 75.6663 207.584 75.1556 207.346 74.5365L208.523 74.0103C208.719 74.4849 209.008 74.8512 209.389 75.1092C209.781 75.3671 210.21 75.4961 210.674 75.4961C211.169 75.4961 211.592 75.3981 211.943 75.202C212.294 74.9957 212.469 74.7067 212.469 74.3353C212.469 74.0051 212.33 73.742 212.051 73.546C211.773 73.3396 211.334 73.1642 210.736 73.0197L209.776 72.7721C209.147 72.6173 208.631 72.3542 208.229 71.9827C207.826 71.6113 207.625 71.1315 207.625 70.5433C207.625 70.0893 207.759 69.6921 208.027 69.3516C208.306 69.0008 208.672 68.7325 209.126 68.5468C209.58 68.361 210.07 68.2682 210.597 68.2682C211.288 68.2682 211.902 68.4178 212.438 68.717C212.985 69.0163 213.372 69.4341 213.599 69.9707L212.454 70.4969C212.103 69.7953 211.479 69.4445 210.581 69.4445C210.148 69.4445 209.766 69.5476 209.436 69.754C209.116 69.95 208.956 70.2029 208.956 70.5124C208.956 70.8013 209.069 71.0386 209.296 71.2243C209.523 71.3998 209.864 71.5442 210.318 71.6577L211.463 71.9518C212.237 72.1478 212.82 72.4419 213.212 72.834C213.604 73.2158 213.8 73.6852 213.8 74.2424C213.8 74.7274 213.661 75.1556 213.383 75.527C213.104 75.8882 212.727 76.1668 212.253 76.3628C211.778 76.5589 211.252 76.6569 210.674 76.6569Z" fill="#4285F4"/>
</svg>