<svg width="220" height="97" viewBox="0 0 220 97" fill="none" xmlns="http://www.w3.org/2000/svg">
    <g clip-path="url(#clip0_826_3643)">
        <path d="M29.8429 9.08348C29.1895 8.70914 28.6736 8.19302 28.2954 7.53564C27.917 6.87848 27.7279 6.15275 27.7279 5.35793C27.7279 4.56311 27.917 3.83684 28.2954 3.17966C28.6736 2.52249 29.1895 2.00673 29.8429 1.63183C30.4963 1.25749 31.2088 1.07031 31.9809 1.07031C32.5846 1.07031 33.1519 1.17727 33.6831 1.39118C34.2143 1.60509 34.6519 1.90694 34.9959 2.29691L34.2966 2.99645C34.0365 2.67502 33.7021 2.42853 33.2935 2.25699C32.8845 2.08488 32.4469 1.99883 31.9809 1.99883C31.4077 1.99883 30.8708 2.13836 30.3703 2.41742C29.8696 2.69648 29.4684 3.08965 29.1665 3.59826C28.8647 4.10611 28.7137 4.69284 28.7137 5.35793C28.7137 6.02244 28.8647 6.60919 29.1665 7.11722C29.4684 7.62563 29.8696 8.01937 30.3703 8.2979C30.8708 8.57693 31.4077 8.71649 31.9809 8.71649C32.5311 8.71649 32.9915 8.63042 33.3622 8.45888C33.7328 8.28676 34.0558 8.05932 34.3309 7.77629C34.5295 7.56239 34.6902 7.30289 34.8123 6.99711C34.9348 6.69129 35.0074 6.35877 35.0302 5.99949H32.0038V5.09393H35.9472C35.9855 5.30786 36.0047 5.50669 36.0047 5.68992C36.0047 6.19457 35.9244 6.68547 35.764 7.16337C35.6034 7.64069 35.3471 8.05932 34.9959 8.41839C34.2237 9.2362 33.2189 9.645 31.9809 9.645C31.2088 9.645 30.4963 9.45781 29.8429 9.08348Z" fill="black"/>
        <path d="M40.6129 8.49816C40.911 8.32269 41.1498 8.07243 41.3294 7.74705C41.509 7.42241 41.5985 7.04617 41.5985 6.61834C41.5985 6.19018 41.509 5.81394 41.3294 5.48914C41.1498 5.1645 40.911 4.91403 40.6129 4.73819C40.315 4.56268 39.9938 4.47456 39.6499 4.47456C39.3135 4.47456 38.9965 4.56268 38.6986 4.73819C38.4004 4.91403 38.1614 5.1645 37.9822 5.48914C37.8025 5.81394 37.7127 6.19018 37.7127 6.61834C37.7127 7.04617 37.8025 7.42241 37.9822 7.74705C38.1614 8.07243 38.4004 8.32269 38.6986 8.49816C38.9965 8.67424 39.3135 8.76159 39.6499 8.76159C39.9938 8.76159 40.315 8.67424 40.6129 8.49816ZM38.1483 9.24931C37.705 8.98531 37.3591 8.62265 37.1107 8.15977C36.8623 7.69752 36.7385 7.18362 36.7385 6.61834C36.7385 6.05252 36.8623 5.53863 37.1107 5.07637C37.3591 4.61407 37.705 4.25105 38.1483 3.98704C38.5915 3.72361 39.0922 3.5918 39.6499 3.5918C40.2077 3.5918 40.7105 3.72361 41.1577 3.98704C41.6047 4.25105 41.9523 4.61407 42.2008 5.07637C42.4492 5.53863 42.5731 6.05252 42.5731 6.61834C42.5731 7.18362 42.4492 7.69752 42.2008 8.15977C41.9523 8.62265 41.6047 8.98531 41.1577 9.24931C40.7105 9.51274 40.2077 9.64437 39.6499 9.64437C39.0922 9.64437 38.5915 9.51274 38.1483 9.24931Z" fill="black"/>
        <path d="M47.1131 8.49816C47.4111 8.32269 47.6497 8.07243 47.8292 7.74705C48.0088 7.42241 48.0988 7.04617 48.0988 6.61834C48.0988 6.19018 48.0088 5.81394 47.8292 5.48914C47.6497 5.1645 47.4111 4.91403 47.1131 4.73819C46.8151 4.56268 46.4939 4.47456 46.1501 4.47456C45.8133 4.47456 45.4967 4.56268 45.1987 4.73819C44.9003 4.91403 44.6613 5.1645 44.4821 5.48914C44.3026 5.81394 44.2126 6.19018 44.2126 6.61834C44.2126 7.04617 44.3026 7.42241 44.4821 7.74705C44.6613 8.07243 44.9003 8.32269 45.1987 8.49816C45.4967 8.67424 45.8133 8.76159 46.1501 8.76159C46.4939 8.76159 46.8151 8.67424 47.1131 8.49816ZM44.6481 9.24931C44.2052 8.98531 43.8593 8.62265 43.6108 8.15977C43.3623 7.69752 43.2385 7.18362 43.2385 6.61834C43.2385 6.05252 43.3623 5.53863 43.6108 5.07637C43.8593 4.61407 44.2052 4.25105 44.6481 3.98704C45.0914 3.72361 45.5921 3.5918 46.1501 3.5918C46.7078 3.5918 47.2105 3.72361 47.6575 3.98704C48.1046 4.25105 48.4521 4.61407 48.701 5.07637C48.9491 5.53863 49.0733 6.05252 49.0733 6.61834C49.0733 7.18362 48.9491 7.69752 48.701 8.15977C48.4521 8.62265 48.1046 8.98531 47.6575 9.24931C47.2105 9.51274 46.7078 9.64437 46.1501 9.64437C45.5921 9.64437 45.0914 9.51274 44.6481 9.24931Z" fill="black"/>
        <path d="M53.5097 8.5025C53.7925 8.32984 54.0199 8.08201 54.1916 7.75927C54.3633 7.43653 54.4496 7.05633 54.4496 6.61835C54.4496 6.18036 54.3633 5.79772 54.1916 5.4716C54.0199 5.14489 53.7925 4.8969 53.5097 4.72784C53.2266 4.5591 52.9174 4.47456 52.581 4.47456C52.2446 4.47456 51.935 4.56116 51.6527 4.73366C51.3695 4.90669 51.1425 5.15414 50.9704 5.47688C50.7983 5.79962 50.7128 6.18036 50.7128 6.61835C50.7128 7.05633 50.7983 7.43653 50.9704 7.75927C51.1425 8.08201 51.3695 8.32984 51.6527 8.5025C51.935 8.67553 52.2446 8.76159 52.581 8.76159C52.9174 8.76159 53.2266 8.67553 53.5097 8.5025ZM50.873 11.6277C50.4375 11.2992 50.1432 10.9171 49.9901 10.4815L50.8961 10.1032C51.0104 10.4392 51.2152 10.7124 51.5095 10.9229C51.8033 11.1329 52.153 11.2378 52.5583 11.2378C53.1618 11.2378 53.6261 11.0628 53.951 10.7124C54.2758 10.3618 54.4384 9.87239 54.4384 9.24329V8.63561H54.3922C54.2089 8.92637 53.9452 9.16701 53.6014 9.35816C53.2575 9.54907 52.8679 9.64437 52.432 9.64437C51.9507 9.64437 51.5037 9.51406 51.0909 9.25365C50.6781 8.99245 50.3496 8.63186 50.1052 8.17146C49.8605 7.71106 49.7383 7.19341 49.7383 6.61835C49.7383 6.04274 49.8605 5.52509 50.1052 5.06469C50.3496 4.60429 50.6781 4.2437 51.0909 3.98309C51.5037 3.7221 51.9507 3.5918 52.432 3.5918C52.8679 3.5918 53.2575 3.68764 53.6014 3.8782C53.9452 4.06971 54.2089 4.31036 54.3922 4.60054H54.4384V3.77501H55.3668V9.23161C55.3668 9.85827 55.2442 10.3897 54.9998 10.8252C54.755 11.2607 54.4211 11.5854 53.9968 11.7998C53.5725 12.0137 53.0932 12.1207 52.5583 12.1207C51.8702 12.1207 51.3089 11.9563 50.873 11.6277Z" fill="black"/>
        <path d="M56.5361 1.25391H57.5103V9.46193H56.5361V1.25391Z" fill="black"/>
        <path d="M62.8985 5.98791C62.8832 5.75858 62.818 5.52904 62.7037 5.30008C62.5889 5.0707 62.4036 4.87563 62.1477 4.71519C61.8914 4.55495 61.5644 4.47475 61.1674 4.47475C60.7393 4.47475 60.3687 4.6122 60.0554 4.88731C59.7421 5.16259 59.5431 5.52904 59.4593 5.98791H62.8985ZM59.7858 9.25516C59.3541 8.99508 59.016 8.63581 58.7717 8.17731C58.5269 7.71843 58.4047 7.19926 58.4047 6.61837C58.4047 6.06815 58.5191 5.56161 58.7486 5.09935C58.9781 4.63705 59.3046 4.27006 59.7289 3.99871C60.1528 3.72756 60.6403 3.5918 61.1905 3.5918C61.7407 3.5918 62.224 3.71626 62.6405 3.96426C63.057 4.21261 63.3761 4.56267 63.5977 5.01329C63.8194 5.46444 63.93 5.98399 63.93 6.57222C63.93 6.67975 63.9222 6.75603 63.9073 6.80176H59.3904C59.4057 7.22997 59.5089 7.59056 59.7 7.8847C59.8911 8.17937 60.1301 8.39913 60.4165 8.54392C60.703 8.6893 60.9994 8.76162 61.3048 8.76162C62.023 8.76162 62.5774 8.41081 62.967 7.70729L63.8268 8.12006C63.5825 8.57839 63.244 8.94744 62.8122 9.22635C62.3809 9.50501 61.8629 9.64457 61.2594 9.64457C60.7092 9.64457 60.2176 9.51463 59.7858 9.25516Z" fill="black"/>
        <path d="M70.1434 8.53342C71.1138 8.53342 71.882 8.25439 72.4479 7.69646C73.0129 7.13889 73.2961 6.35914 73.2961 5.3581C73.2961 4.35673 73.0129 3.57754 72.4479 3.01942C71.882 2.46148 71.1138 2.18242 70.1434 2.18242H68.6302V8.53342H70.1434ZM67.6561 1.25391H70.1434C70.9842 1.25391 71.7177 1.4279 72.3443 1.7755C72.9713 2.12348 73.4525 2.60685 73.7889 3.22561C74.1249 3.84493 74.2933 4.5556 74.2933 5.3581C74.2933 6.16027 74.1249 6.87092 73.7889 7.49024C73.4525 8.10902 72.9713 8.59274 72.3443 8.94037C71.7177 9.28833 70.9842 9.46194 70.1434 9.46194H67.6561V1.25391Z" fill="black"/>
        <path d="M79.6122 5.98792C79.5969 5.75858 79.5321 5.52904 79.4174 5.30008C79.303 5.07071 79.1173 4.87564 78.8614 4.71519C78.605 4.55496 78.2785 4.47476 77.881 4.47476C77.453 4.47476 77.0823 4.61221 76.7691 4.88732C76.4558 5.16259 76.2572 5.52904 76.1734 5.98792H79.6122ZM76.4999 9.25512C76.0682 8.99508 75.7297 8.63581 75.4854 8.17731C75.2406 7.7184 75.1184 7.19926 75.1184 6.61837C75.1184 6.06816 75.2332 5.56161 75.4622 5.09935C75.6917 4.63706 76.0182 4.27007 76.4426 3.99871C76.8665 3.72756 77.3539 3.5918 77.9042 3.5918C78.4544 3.5918 78.9377 3.71626 79.3542 3.96426C79.7707 4.21261 80.0898 4.56268 80.3114 5.01329C80.5331 5.46445 80.6441 5.98399 80.6441 6.57223C80.6441 6.67975 80.6363 6.75599 80.621 6.80177H76.1045C76.1194 7.22997 76.223 7.59056 76.4141 7.8847C76.6048 8.17937 76.8438 8.39913 77.1302 8.54393C77.4171 8.6893 77.7131 8.76162 78.0189 8.76162C78.7371 8.76162 79.2911 8.41081 79.6811 7.70729L80.5409 8.12006C80.2961 8.57839 79.9581 8.94745 79.5263 9.22631C79.0946 9.50501 78.5766 9.64457 77.9731 9.64457C77.4229 9.64457 76.9317 9.51463 76.4999 9.25512Z" fill="black"/>
        <path d="M80.8732 3.77539H81.9278L83.6701 8.31514H83.6932L85.4586 3.77539H86.4905L84.1633 9.46151H83.1772L80.8732 3.77539Z" fill="black"/>
        <path d="M91.3855 5.98792C91.3702 5.75858 91.3054 5.52904 91.1907 5.30008C91.0764 5.07071 90.8906 4.87564 90.6347 4.71519C90.3788 4.55496 90.0519 4.47476 89.6544 4.47476C89.2268 4.47476 88.8561 4.61221 88.5428 4.88732C88.2295 5.16259 88.0306 5.52904 87.9468 5.98792H91.3855ZM88.2733 9.25512C87.8415 8.99508 87.503 8.63581 87.2587 8.17731C87.0139 7.7184 86.8922 7.19926 86.8922 6.61837C86.8922 6.06816 87.0065 5.56161 87.236 5.09935C87.4651 4.63706 87.7916 4.27007 88.2159 3.99871C88.6402 3.72756 89.1273 3.5918 89.6779 3.5918C90.2277 3.5918 90.7111 3.71626 91.1275 3.96426C91.544 4.21261 91.8631 4.56268 92.0852 5.01329C92.3068 5.46445 92.4174 5.98399 92.4174 6.57223C92.4174 6.67975 92.4096 6.75599 92.3947 6.80177H87.8778C87.8927 7.22997 87.9963 7.59056 88.1874 7.8847C88.3781 8.17937 88.6171 8.39913 88.904 8.54393C89.1904 8.6893 89.4864 8.76162 89.7922 8.76162C90.5105 8.76162 91.0644 8.41081 91.4545 7.70729L92.3142 8.12006C92.0695 8.57839 91.7314 8.94745 91.2997 9.22631C90.8679 9.50501 90.3499 9.64457 89.7464 9.64457C89.1962 9.64457 88.705 9.51463 88.2733 9.25512Z" fill="black"/>
        <path d="M93.4031 1.25391H94.3773V9.46193H93.4031V1.25391Z" fill="black"/>
        <path d="M99.1806 8.49816C99.4786 8.32266 99.7176 8.07244 99.8972 7.74705C100.077 7.42241 100.166 7.04618 100.166 6.61835C100.166 6.19018 100.077 5.81395 99.8972 5.4891C99.7176 5.1645 99.4786 4.91403 99.1806 4.73816C98.8826 4.56269 98.5615 4.47456 98.2176 4.47456C97.8812 4.47456 97.5642 4.56269 97.2666 4.73816C96.9682 4.91403 96.7292 5.1645 96.5501 5.4891C96.3705 5.81395 96.2805 6.19018 96.2805 6.61835C96.2805 7.04618 96.3705 7.42241 96.5501 7.74705C96.7292 8.07244 96.9682 8.32266 97.2666 8.49816C97.5642 8.67425 97.8812 8.76159 98.2176 8.76159C98.5615 8.76159 98.8826 8.67425 99.1806 8.49816ZM96.716 9.24932C96.2727 8.98531 95.9268 8.62265 95.6783 8.15978C95.4302 7.69752 95.3064 7.18363 95.3064 6.61835C95.3064 6.05253 95.4302 5.53863 95.6783 5.07638C95.9268 4.61408 96.2727 4.25105 96.716 3.98704C97.1593 3.72361 97.66 3.5918 98.2176 3.5918C98.7753 3.5918 99.278 3.72361 99.7255 3.98704C100.172 4.25105 100.52 4.61408 100.769 5.07638C101.017 5.53863 101.141 6.05253 101.141 6.61835C101.141 7.18363 101.017 7.69752 100.769 8.15978C100.52 8.62265 100.172 8.98531 99.7255 9.24932C99.278 9.51274 98.7753 9.64437 98.2176 9.64437C97.66 9.64437 97.1593 9.51274 96.716 9.24932Z" fill="black"/>
        <path d="M105.767 8.49819C106.054 8.32268 106.283 8.07242 106.455 7.74704C106.627 7.4224 106.712 7.04616 106.712 6.61837C106.712 6.19017 106.627 5.81393 106.455 5.48912C106.283 5.16448 106.054 4.91406 105.767 4.73818C105.48 4.56267 105.169 4.47455 104.833 4.47455C104.496 4.47455 104.185 4.56061 103.898 4.73232C103.612 4.90424 103.383 5.1528 103.21 5.47744C103.039 5.80262 102.952 6.18224 102.952 6.61837C102.952 7.04616 103.039 7.42429 103.21 7.75286C103.383 8.08167 103.612 8.33188 103.898 8.50401C104.185 8.67613 104.496 8.76162 104.833 8.76162C105.169 8.76162 105.48 8.67423 105.767 8.49819ZM102.024 3.77501H102.952V4.6122H102.998C103.182 4.32145 103.445 4.07893 103.789 3.88404C104.133 3.68915 104.53 3.5918 104.982 3.5918C105.471 3.5918 105.922 3.72361 106.334 3.98704C106.747 4.25103 107.076 4.6122 107.32 5.07054C107.565 5.52904 107.687 6.04479 107.687 6.61837C107.687 7.19154 107.565 7.70729 107.32 8.16562C107.076 8.62412 106.747 8.98529 106.334 9.2493C105.922 9.51273 105.471 9.64436 104.982 9.64436C104.53 9.64436 104.131 9.54719 103.783 9.35228C103.436 9.15742 103.174 8.91091 102.998 8.61285H102.952L102.998 9.40371V11.9375H102.024V3.77501Z" fill="black"/>
        <path d="M113.074 5.98792C113.059 5.75858 112.994 5.52904 112.879 5.30008C112.765 5.07071 112.58 4.87564 112.324 4.71519C112.068 4.55496 111.741 4.47476 111.344 4.47476C110.916 4.47476 110.545 4.61221 110.232 4.88732C109.918 5.16259 109.719 5.52904 109.636 5.98792H113.074ZM109.962 9.25512C109.53 8.99508 109.192 8.63581 108.947 8.17731C108.703 7.7184 108.581 7.19926 108.581 6.61837C108.581 6.06816 108.695 5.56161 108.925 5.09935C109.154 4.63706 109.48 4.27007 109.905 3.99871C110.329 3.72756 110.816 3.5918 111.367 3.5918C111.916 3.5918 112.4 3.71626 112.816 3.96426C113.233 4.21261 113.552 4.56268 113.774 5.01329C113.996 5.46445 114.106 5.98399 114.106 6.57223C114.106 6.67975 114.098 6.75599 114.084 6.80177H109.567C109.581 7.22997 109.685 7.59056 109.876 7.8847C110.067 8.17937 110.306 8.39913 110.593 8.54393C110.879 8.6893 111.175 8.76162 111.481 8.76162C112.199 8.76162 112.754 8.41081 113.143 7.70729L114.003 8.12006C113.758 8.57839 113.42 8.94745 112.988 9.22631C112.557 9.50501 112.039 9.64457 111.435 9.64457C110.885 9.64457 110.394 9.51463 109.962 9.25512Z" fill="black"/>
        <path d="M115.092 3.77502H116.021V4.70351H116.066C116.173 4.39039 116.393 4.12695 116.726 3.91266C117.058 3.69875 117.389 3.5918 117.717 3.5918C117.954 3.5918 118.176 3.63021 118.382 3.70648V4.74966C118.176 4.63499 117.908 4.57754 117.58 4.57754C117.312 4.57754 117.062 4.65625 116.829 4.81294C116.596 4.97037 116.41 5.17898 116.273 5.43939C116.135 5.69943 116.066 5.98342 116.066 6.28961V9.46113H115.092V3.77502Z" fill="black"/>
        <path d="M123.398 9.08348C122.744 8.70914 122.228 8.19302 121.85 7.53564C121.472 6.87848 121.283 6.15275 121.283 5.35793C121.283 4.56311 121.472 3.83684 121.85 3.17966C122.228 2.52249 122.744 2.00673 123.398 1.63183C124.051 1.25749 124.763 1.07031 125.535 1.07031C126.139 1.07031 126.706 1.17727 127.238 1.39118C127.769 1.60509 128.206 1.90694 128.551 2.29691L127.851 2.99645C127.591 2.67502 127.257 2.42853 126.848 2.25699C126.439 2.08488 126.001 1.99883 125.535 1.99883C124.962 1.99883 124.425 2.13836 123.925 2.41742C123.424 2.69648 123.023 3.08965 122.721 3.59826C122.419 4.10611 122.268 4.69284 122.268 5.35793C122.268 6.02244 122.419 6.60919 122.721 7.11722C123.023 7.62563 123.424 8.01937 123.925 8.2979C124.425 8.57693 124.962 8.71649 125.535 8.71649C126.086 8.71649 126.546 8.63042 126.917 8.45888C127.288 8.28676 127.61 8.05932 127.885 7.77629C128.084 7.56239 128.245 7.30289 128.367 6.99711C128.489 6.69129 128.562 6.35877 128.585 5.99949H125.558V5.09393H129.502C129.54 5.30786 129.559 5.50669 129.559 5.68992C129.559 6.19457 129.479 6.68547 129.319 7.16337C129.158 7.64069 128.902 8.05932 128.551 8.41839C127.778 9.2362 126.774 9.645 125.535 9.645C124.763 9.645 124.051 9.45781 123.398 9.08348Z" fill="black"/>
        <path d="M130.671 3.77502H131.6V4.70355H131.645C131.752 4.39038 131.972 4.12695 132.305 3.91266C132.637 3.69875 132.968 3.5918 133.297 3.5918C133.533 3.5918 133.755 3.63021 133.961 3.70648V4.74965C133.755 4.63499 133.487 4.57757 133.159 4.57757C132.891 4.57757 132.641 4.65625 132.408 4.81293C132.175 4.97036 131.989 5.17897 131.852 5.43943C131.714 5.69947 131.645 5.98341 131.645 6.2896V9.46113H130.671V3.77502Z" fill="black"/>
        <path d="M137.962 8.49816C138.26 8.32269 138.499 8.07243 138.678 7.74705C138.858 7.42241 138.948 7.04617 138.948 6.61834C138.948 6.19018 138.858 5.81394 138.678 5.48914C138.499 5.1645 138.26 4.91403 137.962 4.73819C137.664 4.56268 137.342 4.47456 136.999 4.47456C136.662 4.47456 136.345 4.56268 136.048 4.73819C135.749 4.91403 135.51 5.1645 135.331 5.48914C135.152 5.81394 135.062 6.19018 135.062 6.61834C135.062 7.04617 135.152 7.42241 135.331 7.74705C135.51 8.07243 135.749 8.32269 136.048 8.49816C136.345 8.67424 136.662 8.76159 136.999 8.76159C137.342 8.76159 137.664 8.67424 137.962 8.49816ZM135.497 9.24931C135.054 8.98531 134.708 8.62265 134.46 8.15977C134.211 7.69752 134.087 7.18362 134.087 6.61834C134.087 6.05252 134.211 5.53863 134.46 5.07637C134.708 4.61407 135.054 4.25105 135.497 3.98704C135.94 3.72361 136.441 3.5918 136.999 3.5918C137.557 3.5918 138.059 3.72361 138.506 3.98704C138.953 4.25105 139.301 4.61407 139.55 5.07637C139.798 5.53863 139.922 6.05252 139.922 6.61834C139.922 7.18362 139.798 7.69752 139.55 8.15977C139.301 8.62265 138.953 8.98531 138.506 9.24931C138.059 9.51274 137.557 9.64437 136.999 9.64437C136.441 9.64437 135.94 9.51274 135.497 9.24931Z" fill="black"/>
        <path d="M141.35 9.03708C140.986 8.63224 140.805 8.07071 140.805 7.35217V3.77539H141.779V7.19173C141.779 8.23887 142.249 8.76197 143.189 8.76197C143.503 8.76197 143.784 8.67442 144.032 8.49854C144.28 8.32303 144.471 8.0935 144.605 7.81067C144.739 7.52821 144.806 7.23015 144.806 6.91662V3.77539H145.769V9.46152H144.852V8.61321H144.806C144.638 8.90396 144.383 9.14836 144.044 9.34665C143.703 9.54548 143.338 9.64475 142.949 9.64475C142.245 9.64475 141.712 9.4425 141.35 9.03708Z" fill="black"/>
        <path d="M150.784 8.49819C151.071 8.32268 151.3 8.07242 151.472 7.74703C151.644 7.42239 151.73 7.0462 151.73 6.61837C151.73 6.19016 151.644 5.81393 151.472 5.48912C151.3 5.16448 151.071 4.91406 150.784 4.73818C150.497 4.56267 150.186 4.47454 149.85 4.47454C149.513 4.47454 149.202 4.5606 148.915 4.73236C148.629 4.90427 148.4 5.1528 148.228 5.47744C148.056 5.80266 147.97 6.18224 147.97 6.61837C147.97 7.0462 148.056 7.42429 148.228 7.7529C148.4 8.08166 148.629 8.33188 148.915 8.50401C149.202 8.67613 149.513 8.76161 149.85 8.76161C150.186 8.76161 150.497 8.67423 150.784 8.49819ZM147.041 3.77501H147.97V4.6122H148.016C148.199 4.32145 148.463 4.07893 148.807 3.88404C149.15 3.68915 149.548 3.5918 149.999 3.5918C150.488 3.5918 150.939 3.72361 151.351 3.98704C151.764 4.25103 152.093 4.6122 152.337 5.07054C152.582 5.52904 152.704 6.04479 152.704 6.61837C152.704 7.19153 152.582 7.70733 152.337 8.16562C152.093 8.62416 151.764 8.98529 151.351 9.2493C150.939 9.51272 150.488 9.64435 149.999 9.64435C149.548 9.64435 149.148 9.54719 148.801 9.35232C148.453 9.15741 148.191 8.91091 148.016 8.61285H147.97L148.016 9.40371V11.9375H147.041V3.77501Z" fill="black"/>
        <path d="M154.102 9.18603C153.682 8.88022 153.388 8.50212 153.219 8.05097L154.08 7.67283C154.232 8.03194 154.448 8.30721 154.727 8.49816C155.006 8.68931 155.31 8.78495 155.639 8.78495C156.005 8.78495 156.309 8.70475 156.55 8.54393C156.791 8.38349 156.911 8.18858 156.911 7.95962C156.911 7.73801 156.821 7.55458 156.642 7.40924C156.462 7.26387 156.154 7.13805 155.719 7.03111L154.939 6.83624C154.511 6.73697 154.147 6.55717 153.844 6.29713C153.542 6.03746 153.392 5.69379 153.392 5.26562C153.392 4.91403 153.493 4.61222 153.695 4.35989C153.898 4.10755 154.167 3.91661 154.504 3.78687C154.84 3.65695 155.207 3.5918 155.604 3.5918C156.093 3.5918 156.538 3.70459 156.939 3.93017C157.341 4.1552 157.625 4.47456 157.794 4.88732L156.934 5.25394C156.811 4.97883 156.626 4.77658 156.378 4.64627C156.129 4.51637 155.853 4.45177 155.547 4.45177C155.249 4.45177 154.979 4.52426 154.738 4.66963C154.498 4.81443 154.377 5.00162 154.377 5.23095C154.377 5.42982 154.456 5.58647 154.613 5.70113C154.769 5.8158 155.02 5.91883 155.363 6.01071L156.212 6.21688C156.777 6.36226 157.199 6.57806 157.478 6.86484C157.757 7.15126 157.897 7.4934 157.897 7.89053C157.897 8.21909 157.801 8.51756 157.61 8.78495C157.419 9.05234 157.152 9.26231 156.808 9.41557C156.464 9.56809 156.074 9.64437 155.639 9.64437C155.035 9.64437 154.523 9.49185 154.102 9.18603Z" fill="black"/>
        <path d="M21.8031 7.24391L15.4918 10.9166C14.6212 11.3973 13.5291 11.0758 13.0523 10.1983C12.5905 9.34893 12.8736 8.28371 13.6947 7.7805L20.006 4.10628C20.8657 3.60606 21.965 3.90287 22.461 4.76942C22.9573 5.63594 22.6628 6.74372 21.8031 7.24391Z" fill="#34A853"/>
        <path d="M19.7562 3.6703L16.8106 5.38507L13.6947 3.5701C12.8351 3.06988 12.5405 1.9621 13.0368 1.09557C13.533 0.229046 14.6321 -0.0677688 15.4918 0.432447L20.5654 3.38459C20.2803 3.4281 20.0058 3.5249 19.7562 3.6703Z" fill="#F9AB00"/>
        <path d="M9.06087 7.56321L2.70062 3.88966C1.82878 3.39876 0.724206 3.70738 0.233305 4.5792C-0.250064 5.43767 0.0412381 6.5251 0.88916 7.02673L7.24941 10.699C8.12971 11.1745 9.22862 10.8464 9.70408 9.96633C10.1607 9.1214 9.87848 8.06711 9.06087 7.56321Z" fill="#4285F4"/>
        <path d="M2.95212 3.45389L5.92088 5.16837L9.061 3.35372C9.91266 2.82892 10.1776 1.71305 9.65262 0.861364C9.14892 0.0437619 8.09443 -0.238502 7.24953 0.21794L2.13696 3.16975C2.42412 3.21268 2.70055 3.30909 2.95212 3.45389Z" fill="#EA4335"/>
        <path d="M15.4123 53.7509V41.1039C14.1433 40.061 12.5567 39.4264 10.8795 39.4264C7.25308 39.4264 5.12218 42.1918 5.12218 47.4047C5.12218 52.3909 7.11683 55.156 10.7887 55.156C12.4207 55.156 14.0979 54.612 15.4123 53.7509ZM22.1216 57.0147L17.3617 59.5986L15.8205 56.244C14.2339 58.1931 11.8767 59.5986 8.83943 59.5986C3.03724 59.5986 0 54.7936 0 47.3593C0 39.2907 3.58099 34.9388 9.2926 34.9388C11.9672 34.9388 14.0525 35.936 15.4123 37.7947V25.918H20.3081V53.3881L22.1216 57.0147Z" fill="black"/>
        <path d="M30.6429 44.4135H42.2024C41.9754 40.8777 40.2983 39.2004 37.1705 39.2004C33.7704 39.2004 31.4137 41.1497 30.6429 44.4135ZM46.418 47.813H30.3708C30.688 51.9382 33.9067 54.7034 38.9837 54.7034C41.5676 54.7034 44.3781 54.1593 46.2818 53.1625L44.7405 58.1937C43.1539 59.0556 40.4795 59.5996 37.3968 59.5996C30.0988 59.5996 25.2938 54.6579 25.2938 47.1332C25.2938 39.5628 29.872 34.9395 37.1705 34.9395C43.1993 34.9395 47.007 38.3844 47.007 43.9599C47.007 45.2291 46.7804 46.725 46.418 47.813Z" fill="black"/>
        <path d="M58.3391 59.0103L49.0919 35.5293H54.4859L60.5152 51.9388L61.1946 53.9787H61.3762L62.0561 51.9388L68.0399 35.5293H73.3436L64.1414 59.0103H58.3391Z" fill="black"/>
        <path d="M89.3898 35.5749H99.9971L99.3177 39.3374H88.71L84.993 60.4615C83.95 66.3542 80.0064 68.5757 74.4762 68.5757C71.9377 68.5757 70.7592 68.2129 69.49 67.9409L69.3992 64.1331C70.6684 64.3597 72.1643 64.4959 74.2496 64.4959C77.5587 64.4959 79.7344 63.1809 80.2334 60.4161L83.95 39.3374H76.5615L77.2413 35.5749H84.6302L84.993 33.3989C86.0357 27.5515 89.9339 25.3301 95.4191 25.3301C98.003 25.3301 99.3177 25.6929 100.451 25.9649L100.541 29.8633C99.2723 29.5459 97.776 29.4099 95.6911 29.4099C92.4274 29.4099 90.2513 30.7245 89.7527 33.4898L89.3898 35.5749Z" fill="black"/>
        <path d="M106.116 44.4135H117.675C117.449 40.8777 115.772 39.2004 112.644 39.2004C109.244 39.2004 106.887 41.1497 106.116 44.4135ZM121.891 47.813H105.844C106.161 51.9382 109.38 54.7034 114.457 54.7034C117.041 54.7034 119.852 54.1593 121.755 53.1625L120.214 58.1937C118.627 59.0556 115.953 59.5996 112.87 59.5996C105.572 59.5996 100.767 54.6579 100.767 47.1332C100.767 39.5628 105.345 34.9395 112.644 34.9395C118.673 34.9395 122.48 38.3844 122.48 43.9599C122.48 45.2291 122.253 46.725 121.891 47.813Z" fill="black"/>
        <path d="M127.149 57.604L126.831 52.3454C128.917 53.7963 132.724 55.0655 136.713 55.0655C139.751 55.0655 141.927 54.1137 141.927 51.983C141.927 47.5404 127.33 51.666 127.33 42.5996C127.33 38.384 130.503 34.8027 138.073 34.8027C142.697 34.8027 146.233 35.9361 146.233 38.7465C146.233 39.6077 145.87 40.3329 145.507 41.0129C143.513 40.0612 140.385 39.3811 137.756 39.3811C134.13 39.3811 132.226 40.7409 132.226 42.2368C132.226 46.1803 147.003 42.7354 147.003 51.5752C147.003 56.516 142.652 59.5985 136.169 59.5985C131.772 59.5985 128.463 58.1931 127.149 57.604Z" fill="black"/>
        <path d="M172.252 54.0236L171.255 58.602C170.076 59.1006 167.719 59.5992 165.543 59.5992C159.695 59.5992 157.202 56.5621 157.202 52.2553V39.6536H150.539V35.5286H157.202V29.0918H162.098V35.5286H171.572V39.6536H162.098V50.7598C162.098 53.797 163.684 55.1566 166.45 55.1566C168.036 55.1566 170.937 54.7942 172.252 54.0236Z" fill="black"/>
        <path d="M178.02 36.7326C178.428 36.3245 179.231 35.5209 180.43 34.322C181.629 33.1103 182.426 32.2877 182.821 31.854C183.357 31.2801 183.721 30.8145 183.912 30.4574C184.116 30.1003 184.218 29.673 184.218 29.1756C184.218 28.6781 184.027 28.2445 183.644 27.8746C183.262 27.5047 182.745 27.3198 182.095 27.3198C181.495 27.3198 181.004 27.4983 180.621 27.8555C180.252 28.1999 180.009 28.6016 179.894 29.0608L177.981 28.2764C178.109 27.8172 178.345 27.3644 178.689 26.918C179.046 26.4716 179.518 26.0953 180.105 25.7892C180.692 25.4831 181.368 25.3301 182.133 25.3301C182.962 25.3301 183.695 25.5023 184.333 25.8467C184.983 26.1783 185.481 26.6374 185.825 27.2241C186.183 27.7981 186.361 28.4358 186.361 29.1373C186.361 29.8898 186.163 30.6168 185.768 31.3183C185.385 32.0071 184.894 32.6512 184.295 33.2506C184.039 33.493 183.396 34.1307 182.362 35.1638C181.316 36.2097 180.794 36.7326 180.794 36.7326L180.832 36.8091H186.533V38.7223H178.02V36.7326Z" fill="#F9AB00"/>
        <path d="M193.383 39.1348C192.304 39.1348 191.352 38.8328 190.53 38.2286C189.707 37.6117 189.071 36.7826 188.621 35.7415C188.184 34.6875 187.965 33.5178 187.965 32.2325C187.965 30.9342 188.184 29.7646 188.621 28.7234C189.071 27.6694 189.707 26.8404 190.53 26.2363C191.352 25.6321 192.304 25.3301 193.383 25.3301C194.463 25.3301 195.408 25.6321 196.217 26.2363C197.04 26.8404 197.67 27.6694 198.107 28.7234C198.557 29.7646 198.782 30.9342 198.782 32.2325C198.782 33.5178 198.557 34.6875 198.107 35.7415C197.67 36.7826 197.04 37.6117 196.217 38.2286C195.395 38.8328 194.45 39.1348 193.383 39.1348ZM193.383 37.1297C194.039 37.1297 194.611 36.9176 195.099 36.4934C195.601 36.0564 195.98 35.4716 196.237 34.7389C196.507 33.9934 196.642 33.1579 196.642 32.2325C196.642 31.307 196.507 30.4715 196.237 29.726C195.98 28.9805 195.601 28.3956 195.099 27.9715C194.611 27.5473 194.039 27.3353 193.383 27.3353C192.715 27.3353 192.136 27.5473 191.648 27.9715C191.16 28.3956 190.78 28.9805 190.51 29.726C190.253 30.4715 190.125 31.307 190.125 32.2325C190.125 33.1579 190.253 33.9934 190.51 34.7389C190.78 35.4716 191.16 36.0564 191.648 36.4934C192.136 36.9176 192.715 37.1297 193.383 37.1297Z" fill="#F9AB00"/>
        <path d="M200.253 36.7326C200.661 36.3245 201.464 35.5209 202.663 34.322C203.862 33.1103 204.659 32.2877 205.055 31.854C205.59 31.2801 205.954 30.8145 206.145 30.4574C206.349 30.1003 206.451 29.673 206.451 29.1756C206.451 28.6781 206.26 28.2445 205.877 27.8746C205.495 27.5047 204.978 27.3198 204.327 27.3198C203.728 27.3198 203.237 27.4983 202.855 27.8555C202.484 28.1999 202.242 28.6016 202.127 29.0608L200.214 28.2764C200.342 27.8172 200.578 27.3644 200.922 26.918C201.279 26.4716 201.751 26.0953 202.338 25.7892C202.924 25.4831 203.6 25.3301 204.366 25.3301C205.195 25.3301 205.928 25.5023 206.566 25.8467C207.216 26.1783 207.714 26.6374 208.058 27.2241C208.415 27.7981 208.594 28.4358 208.594 29.1373C208.594 29.8898 208.396 30.6168 208.001 31.3183C207.618 32.0071 207.127 32.6512 206.528 33.2506C206.273 33.493 205.628 34.1307 204.595 35.1638C203.55 36.2097 203.027 36.7326 203.027 36.7326L203.065 36.8091H208.766V38.7223H200.253V36.7326Z" fill="#F9AB00"/>
        <path d="M214.71 39.1348C213.72 39.1348 212.801 38.852 211.953 38.2865C211.105 37.7081 210.52 36.8662 210.199 35.7608L212.165 34.951C212.345 35.6322 212.653 36.1592 213.09 36.532C213.54 36.9047 214.08 37.0911 214.71 37.0911C215.353 37.0911 215.905 36.8983 216.368 36.5127C216.831 36.1142 217.062 35.6129 217.062 35.0088C217.062 34.3919 216.818 33.8906 216.329 33.5049C215.841 33.1065 215.231 32.9073 214.498 32.9073H213.36V30.96H214.382C215.012 30.96 215.539 30.7929 215.963 30.4587C216.4 30.1116 216.619 29.6424 216.619 29.0512C216.619 28.5242 216.426 28.1065 216.04 27.798C215.655 27.4766 215.166 27.316 214.575 27.316C213.997 27.316 213.534 27.4702 213.187 27.7787C212.853 28.0872 212.608 28.4664 212.454 28.9162L210.507 28.1065C210.764 27.3738 211.24 26.7311 211.934 26.1784C212.628 25.6129 213.515 25.3301 214.595 25.3301C215.391 25.3301 216.105 25.4843 216.734 25.7928C217.377 26.1013 217.878 26.5319 218.238 27.0846C218.598 27.6244 218.778 28.235 218.778 28.9162C218.778 29.6103 218.611 30.2016 218.277 30.69C217.943 31.1656 217.531 31.5319 217.043 31.789V31.9047C217.686 32.1746 218.213 32.5859 218.624 33.1387C219.035 33.6914 219.241 34.3533 219.241 35.1245C219.241 35.8957 219.042 36.5834 218.643 37.1875C218.258 37.7916 217.718 38.2672 217.024 38.6143C216.343 38.9613 215.571 39.1348 214.71 39.1348Z" fill="#F9AB00"/>
        <path d="M178.281 81.7832H179.614V91.8617H184.598V93.1471H178.281V81.7832Z" fill="#4285F4"/>
        <path d="M188.673 93.4009C188.081 93.4009 187.552 93.2849 187.086 93.0521C186.621 92.8193 186.261 92.5019 186.007 92.0998C185.753 91.6871 185.626 91.2215 185.626 90.703C185.626 89.8461 185.949 89.1795 186.594 88.7032C187.24 88.2165 188.054 87.973 189.038 87.973C189.525 87.973 189.975 88.0258 190.387 88.1319C190.81 88.2376 191.133 88.3593 191.355 88.4968V88.0048C191.355 87.4017 191.144 86.9204 190.721 86.5605C190.297 86.1903 189.763 86.0049 189.118 86.0049C188.663 86.0049 188.245 86.1056 187.864 86.3067C187.483 86.4969 187.181 86.7669 186.959 87.1161L185.944 86.3541C186.261 85.8675 186.695 85.4865 187.245 85.2116C187.806 84.9363 188.425 84.7988 189.102 84.7988C190.202 84.7988 191.064 85.0898 191.689 85.6718C192.324 86.2431 192.641 87.0261 192.641 88.0209V93.147H191.355V91.9884H191.292C191.059 92.3801 190.71 92.7132 190.245 92.9885C189.779 93.2634 189.255 93.4009 188.673 93.4009ZM188.8 92.2109C189.255 92.2109 189.678 92.0945 190.07 91.8617C190.461 91.6289 190.773 91.3168 191.006 90.9251C191.239 90.5338 191.355 90.1053 191.355 89.6397C191.101 89.4705 190.789 89.3326 190.419 89.227C190.049 89.1213 189.657 89.0681 189.244 89.0681C188.504 89.0681 187.943 89.2216 187.562 89.5283C187.192 89.8354 187.007 90.2321 187.007 90.7187C187.007 91.1633 187.176 91.5228 187.515 91.7981C187.853 92.073 188.282 92.2109 188.8 92.2109Z" fill="#4285F4"/>
        <path d="M197.996 96.8293C197.043 96.8293 196.255 96.6072 195.631 96.1627C195.017 95.7181 194.604 95.184 194.393 94.5595L195.615 94.0361C195.795 94.5013 196.091 94.8769 196.504 95.163C196.927 95.4589 197.424 95.6071 197.996 95.6071C198.831 95.6071 199.477 95.364 199.932 94.8769C200.397 94.3903 200.63 93.7026 200.63 92.8139V91.9091H200.567C200.302 92.3219 199.926 92.6604 199.44 92.925C198.963 93.1788 198.419 93.3059 197.805 93.3059C197.107 93.3059 196.467 93.126 195.885 92.766C195.313 92.4065 194.858 91.9038 194.52 91.2586C194.181 90.613 194.012 89.8775 194.012 89.0524C194.012 88.2376 194.181 87.5074 194.52 86.8622C194.858 86.2059 195.313 85.6982 195.885 85.3383C196.467 84.9788 197.107 84.7988 197.805 84.7988C198.419 84.7988 198.963 84.9313 199.44 85.1955C199.926 85.4498 200.302 85.7882 200.567 86.2113H200.63V85.0527H201.916V92.8296C201.916 94.1311 201.556 95.1205 200.837 95.7978C200.117 96.4855 199.17 96.8293 197.996 96.8293ZM197.996 92.0837C198.482 92.0837 198.921 91.962 199.313 91.7188C199.715 91.4753 200.032 91.1261 200.265 90.6713C200.508 90.2164 200.63 89.6765 200.63 89.0524C200.63 88.4175 200.508 87.8727 200.265 87.4178C200.032 86.9625 199.715 86.6187 199.313 86.3859C198.921 86.1428 198.482 86.021 197.996 86.021C197.509 86.021 197.064 86.1428 196.662 86.3859C196.26 86.6294 195.937 86.9786 195.694 87.4335C195.462 87.8884 195.345 88.4283 195.345 89.0524C195.345 89.6765 195.462 90.2217 195.694 90.6869C195.937 91.1422 196.26 91.4914 196.662 91.7345C197.064 91.9673 197.509 92.0837 197.996 92.0837Z" fill="#4285F4"/>
        <path d="M207.563 93.4009C206.769 93.4009 206.055 93.2106 205.42 92.8296C204.785 92.4486 204.288 91.9302 203.928 91.2743C203.579 90.6184 203.404 89.8936 203.404 89.0998C203.404 88.3065 203.579 87.5817 203.928 86.9258C204.288 86.2695 204.785 85.7511 205.42 85.3701C206.055 84.9895 206.769 84.7988 207.563 84.7988C208.356 84.7988 209.07 84.9895 209.705 85.3701C210.34 85.7511 210.832 86.2695 211.181 86.9258C211.541 87.5817 211.721 88.3065 211.721 89.0998C211.721 89.8936 211.541 90.6184 211.181 91.2743C210.832 91.9302 210.34 92.4486 209.705 92.8296C209.07 93.2106 208.356 93.4009 207.563 93.4009ZM207.563 92.1791C208.06 92.1791 208.52 92.0573 208.943 91.8138C209.377 91.5599 209.721 91.2004 209.975 90.7348C210.239 90.2692 210.372 89.7244 210.372 89.0998C210.372 88.4757 210.239 87.9309 209.975 87.4653C209.721 86.9997 209.377 86.6451 208.943 86.402C208.52 86.1477 208.06 86.021 207.563 86.021C207.065 86.021 206.6 86.1477 206.166 86.402C205.732 86.6451 205.383 86.9997 205.118 87.4653C204.864 87.9309 204.738 88.4757 204.738 89.0998C204.738 89.7244 204.864 90.2692 205.118 90.7348C205.383 91.2004 205.732 91.5599 206.166 91.8138C206.6 92.0573 207.065 92.1791 207.563 92.1791Z" fill="#4285F4"/>
        <path d="M216.035 93.4009C215.167 93.4009 214.443 93.1999 213.861 92.7978C213.279 92.3855 212.866 91.8617 212.623 91.2268L213.829 90.6869C214.03 91.174 214.326 91.5496 214.717 91.8138C215.12 92.0784 215.559 92.2109 216.035 92.2109C216.543 92.2109 216.977 92.1102 217.336 91.9091C217.696 91.6974 217.876 91.4014 217.876 91.0204C217.876 90.682 217.733 90.412 217.448 90.211C217.162 89.9993 216.712 89.8193 216.099 89.6715L215.115 89.4173C214.469 89.2588 213.94 88.9888 213.527 88.6078C213.115 88.2273 212.908 87.7352 212.908 87.1318C212.908 86.6666 213.046 86.2592 213.321 85.91C213.607 85.5501 213.982 85.2752 214.448 85.0845C214.914 84.8942 215.416 84.7988 215.955 84.7988C216.664 84.7988 217.294 84.9524 217.844 85.2591C218.405 85.5662 218.802 85.9946 219.035 86.5448L217.86 87.0843C217.5 86.3649 216.86 86.0049 215.94 86.0049C215.495 86.0049 215.104 86.111 214.765 86.3223C214.437 86.5234 214.273 86.7826 214.273 87.1004C214.273 87.3964 214.39 87.6399 214.623 87.8302C214.855 88.0101 215.204 88.1583 215.67 88.2747L216.844 88.5761C217.638 88.7771 218.236 89.0788 218.638 89.4808C219.04 89.8725 219.241 90.3538 219.241 90.9251C219.241 91.4225 219.098 91.8617 218.813 92.2426C218.527 92.6129 218.141 92.8985 217.654 93.0996C217.167 93.3006 216.627 93.4009 216.035 93.4009Z" fill="#4285F4"/>
    </g>
    <defs>
        <clipPath id="clip0_826_3643">
            <rect width="219.591" height="97" fill="white"/>
        </clipPath>
    </defs>
</svg>
