<svg width="180" height="40" viewBox="0 0 180 40" fill="none" xmlns="http://www.w3.org/2000/svg">
    <path d="M11.4045 25.0322V15.6738C10.4655 14.9022 9.29148 14.4326 8.05041 14.4326C5.367 14.4326 3.79023 16.4788 3.79023 20.3362C3.79023 24.0258 5.26618 26.072 7.9832 26.072C9.19084 26.072 10.4319 25.6694 11.4045 25.0322ZM16.3691 27.4473L12.847 29.3594L11.7066 26.8771C10.5325 28.3194 8.78829 29.3594 6.54085 29.3594C2.24744 29.3594 0 25.8037 0 20.3026C0 14.3321 2.6498 11.1119 6.87619 11.1119C8.85532 11.1119 10.3983 11.8498 11.4045 13.2251V4.43684H15.0272V24.7639L16.3691 27.4473Z" fill="black"/>
    <path d="M22.6745 18.1224H31.2281C31.0603 15.506 29.8192 14.2649 27.5047 14.2649C24.9888 14.2649 23.2449 15.7073 22.6745 18.1224ZM34.3475 20.6379H22.4732C22.7079 23.6905 25.0896 25.7366 28.8464 25.7366C30.7583 25.7366 32.8381 25.3341 34.2469 24.5962L33.1064 28.3192C31.9322 28.9568 29.9533 29.3594 27.6722 29.3594C22.272 29.3594 18.7164 25.703 18.7164 20.1347C18.7164 14.533 22.1041 11.1119 27.5047 11.1119C31.9658 11.1119 34.7835 13.6611 34.7835 17.7868C34.7835 18.726 34.6156 19.8328 34.3475 20.6379Z" fill="black"/>
    <path d="M43.1689 28.9219L36.3261 11.5467H40.3176L44.7791 23.6891L45.2819 25.1987H45.4163L45.9193 23.6891L50.347 11.5467H54.2715L47.4623 28.9219H43.1689Z" fill="black"/>
    <path d="M66.1452 11.5808H73.9942L73.4912 14.3649H65.642L62.8916 29.9959C62.1199 34.3564 59.2018 36 55.1095 36C53.2312 36 52.359 35.7317 51.4199 35.5304L51.3527 32.7128C52.2918 32.8806 53.3988 32.9813 54.9418 32.9813C57.3903 32.9813 59.0005 32.0083 59.3696 29.9623L62.1199 14.3649H56.6524L57.1556 11.5808H62.6233L62.8916 9.97064C63.6631 5.6438 66.5477 4 70.6065 4C72.5184 4 73.4911 4.26849 74.3297 4.46977L74.3967 7.35445C73.4577 7.11957 72.3505 7.01893 70.8077 7.01893C68.3926 7.01893 66.7824 7.9917 66.4135 10.0379L66.1452 11.5808Z" fill="black"/>
    <path d="M78.5219 18.1224H87.0755C86.9076 15.506 85.6665 14.2649 83.3521 14.2649C80.8361 14.2649 79.0923 15.7073 78.5219 18.1224ZM90.1948 20.6379H78.3206C78.5553 23.6905 80.937 25.7366 84.6938 25.7366C86.6057 25.7366 88.6855 25.3341 90.0942 24.5962L88.9538 28.3192C87.7796 28.9568 85.8006 29.3594 83.5196 29.3594C78.1193 29.3594 74.5638 25.703 74.5638 20.1347C74.5638 14.533 77.9515 11.1119 83.3521 11.1119C87.8132 11.1119 90.6308 13.6611 90.6308 17.7868C90.6308 18.726 90.463 19.8328 90.1948 20.6379Z" fill="black"/>
    <path d="M94.0851 27.8834L93.8502 23.9924C95.3934 25.066 98.211 26.0051 101.163 26.0051C103.41 26.0051 105.02 25.3007 105.02 23.7241C105.02 20.4368 94.2192 23.4894 94.2192 16.7807C94.2192 13.6613 96.5674 11.0113 102.169 11.0113C105.59 11.0113 108.207 11.85 108.207 13.9296C108.207 14.5668 107.938 15.1034 107.67 15.6066C106.194 14.9024 103.88 14.3992 101.934 14.3992C99.2508 14.3992 97.8419 15.4054 97.8419 16.5124C97.8419 19.4305 108.777 16.8813 108.777 23.4222C108.777 27.0783 105.557 29.3594 100.76 29.3594C97.5064 29.3594 95.0577 28.3194 94.0851 27.8834Z" fill="black"/>
    <path d="M127.46 25.2334L126.722 28.6213C125.85 28.9902 124.106 29.3594 122.496 29.3594C118.168 29.3594 116.324 27.1119 116.324 23.9252V14.6003H111.393V11.5479H116.324V6.78491H119.946V11.5479H126.957V14.6003H119.946V22.8185C119.946 25.0658 121.12 26.072 123.167 26.072C124.34 26.072 126.487 25.8038 127.46 25.2334Z" fill="black"/>
    <path d="M135.488 8.43745C135.79 8.13544 136.385 7.54085 137.272 6.65369C138.159 5.7571 138.749 5.14836 139.042 4.82747C139.438 4.40276 139.707 4.05828 139.849 3.79402C140 3.52976 140.075 3.21359 140.075 2.84552C140.075 2.47744 139.934 2.15655 139.65 1.88285C139.367 1.60916 138.985 1.47231 138.504 1.47231C138.06 1.47231 137.697 1.60444 137.414 1.8687C137.14 2.12352 136.961 2.42081 136.876 2.76058L135.46 2.18015C135.554 1.84038 135.729 1.50534 135.984 1.17501C136.248 0.844689 136.597 0.566272 137.031 0.339763C137.466 0.113254 137.966 0 138.532 0C139.146 0 139.688 0.127411 140.16 0.382234C140.641 0.627618 141.01 0.967381 141.264 1.40152C141.529 1.82623 141.661 2.29812 141.661 2.8172C141.661 3.37404 141.514 3.91199 141.222 4.43108C140.939 4.94072 140.575 5.41733 140.132 5.86091C139.943 6.04023 139.466 6.51213 138.702 7.27659C137.928 8.0505 137.541 8.43745 137.541 8.43745L137.569 8.49408H141.788V9.90976H135.488V8.43745Z" fill="#F9AB00"/>
    <path d="M146.857 10.215C146.058 10.215 145.354 9.99149 144.745 9.54446C144.137 9.08792 143.666 8.47445 143.333 7.70405C143.01 6.92413 142.848 6.05862 142.848 5.1075C142.848 4.14687 143.01 3.28135 143.333 2.51095C143.666 1.73103 144.137 1.11756 144.745 0.670537C145.354 0.223513 146.058 0 146.857 0C147.656 0 148.355 0.223513 148.954 0.670537C149.563 1.11756 150.029 1.73103 150.352 2.51095C150.685 3.28135 150.852 4.14687 150.852 5.1075C150.852 6.05862 150.685 6.92413 150.352 7.70405C150.029 8.47445 149.563 9.08792 148.954 9.54446C148.345 9.99149 147.646 10.215 146.857 10.215ZM146.857 8.73126C147.342 8.73126 147.765 8.57432 148.127 8.26045C148.498 7.93707 148.778 7.50431 148.968 6.96218C149.168 6.41053 149.268 5.7923 149.268 5.1075C149.268 4.4227 149.168 3.80447 148.968 3.25282C148.778 2.70117 148.498 2.26841 148.127 1.95455C147.765 1.64068 147.342 1.48374 146.857 1.48374C146.362 1.48374 145.934 1.64068 145.573 1.95455C145.211 2.26841 144.931 2.70117 144.731 3.25282C144.541 3.80447 144.446 4.4227 144.446 5.1075C144.446 5.7923 144.541 6.41053 144.731 6.96218C144.931 7.50431 145.211 7.93707 145.573 8.26045C145.934 8.57432 146.362 8.73126 146.857 8.73126Z" fill="#F9AB00"/>
    <path d="M151.94 8.43745C152.242 8.13544 152.836 7.54085 153.724 6.65369C154.611 5.7571 155.201 5.14836 155.493 4.82747C155.89 4.40276 156.159 4.05828 156.3 3.79402C156.451 3.52976 156.527 3.21359 156.527 2.84552C156.527 2.47744 156.385 2.15655 156.102 1.88285C155.819 1.60916 155.437 1.47231 154.955 1.47231C154.512 1.47231 154.148 1.60444 153.865 1.8687C153.591 2.12352 153.412 2.42081 153.327 2.76058L151.911 2.18015C152.006 1.84038 152.18 1.50534 152.435 1.17501C152.7 0.844689 153.049 0.566272 153.483 0.339763C153.917 0.113254 154.417 0 154.984 0C155.597 0 156.14 0.127411 156.612 0.382234C157.093 0.627618 157.461 0.967381 157.716 1.40152C157.98 1.82623 158.112 2.29812 158.112 2.8172C158.112 3.37404 157.966 3.91199 157.673 4.43108C157.39 4.94072 157.027 5.41733 156.583 5.86091C156.394 6.04023 155.918 6.51213 155.153 7.27659C154.38 8.0505 153.993 8.43745 153.993 8.43745L154.021 8.49408H158.24V9.90976H151.94V8.43745Z" fill="#F9AB00"/>
    <path d="M162.638 10.215C161.906 10.215 161.225 10.0058 160.598 9.58726C159.97 9.15926 159.537 8.53628 159.299 7.71832L160.755 7.11911C160.888 7.6232 161.116 8.01316 161.439 8.28899C161.772 8.56481 162.172 8.70272 162.638 8.70272C163.113 8.70272 163.522 8.56005 163.865 8.27472C164.207 7.97987 164.378 7.60894 164.378 7.16191C164.378 6.70538 164.198 6.33444 163.836 6.04911C163.475 5.75426 163.023 5.60684 162.481 5.60684H161.639V4.16589H162.395C162.861 4.16589 163.251 4.04225 163.565 3.79496C163.889 3.53816 164.05 3.191 164.05 2.75348C164.05 2.36353 163.908 2.05441 163.622 1.82615C163.337 1.58837 162.976 1.46948 162.538 1.46948C162.11 1.46948 161.768 1.58361 161.511 1.81188C161.263 2.04015 161.083 2.32073 160.969 2.65362L159.528 2.05441C159.718 1.51228 160.07 1.03672 160.583 0.627738C161.097 0.209246 161.753 0 162.552 0C163.142 0 163.67 0.114134 164.136 0.342402C164.611 0.570671 164.982 0.889295 165.249 1.29828C165.515 1.69774 165.648 2.14953 165.648 2.65362C165.648 3.16722 165.525 3.60473 165.277 3.96616C165.03 4.31807 164.726 4.58914 164.364 4.77936V4.86496C164.84 5.0647 165.23 5.36906 165.534 5.77804C165.838 6.18702 165.991 6.67684 165.991 7.24751C165.991 7.81818 165.843 8.32703 165.548 8.77406C165.263 9.22108 164.863 9.573 164.35 9.8298C163.846 10.0866 163.275 10.215 162.638 10.215Z" fill="#F9AB00"/>
    <path d="M135.76 24H137.178V34.7173H142.478V36.0844H135.76V24Z" fill="#4285F4"/>
    <path d="M146.812 36.3544C146.182 36.3544 145.619 36.2307 145.124 35.9831C144.629 35.7356 144.246 35.398 143.976 34.9705C143.706 34.5316 143.571 34.0366 143.571 33.4852C143.571 32.5738 143.914 31.865 144.601 31.3586C145.287 30.8411 146.154 30.5823 147.2 30.5823C147.718 30.5823 148.196 30.6385 148.635 30.7511C149.085 30.8636 149.428 30.993 149.664 31.1392V30.616C149.664 29.9747 149.439 29.4627 148.989 29.0802C148.539 28.6864 147.971 28.4895 147.284 28.4895C146.801 28.4895 146.356 28.5963 145.951 28.8101C145.546 29.0127 145.225 29.2996 144.989 29.6709L143.909 28.8608C144.246 28.3432 144.708 27.9381 145.293 27.6456C145.889 27.353 146.547 27.2068 147.267 27.2068C148.438 27.2068 149.355 27.5162 150.019 28.135C150.694 28.7426 151.031 29.5752 151.031 30.6329V36.0844H149.664V34.8523H149.597C149.349 35.2686 148.978 35.6231 148.483 35.9156C147.988 36.2082 147.431 36.3544 146.812 36.3544ZM146.947 35.0886C147.431 35.0886 147.881 34.9648 148.297 34.7173C148.713 34.4698 149.045 34.1378 149.293 33.7215C149.54 33.3052 149.664 32.8495 149.664 32.3544C149.394 32.1744 149.062 32.0281 148.668 31.9156C148.275 31.8031 147.858 31.7468 147.419 31.7468C146.632 31.7468 146.035 31.91 145.63 32.2363C145.237 32.5626 145.04 32.9845 145.04 33.5021C145.04 33.9747 145.22 34.3572 145.58 34.6498C145.94 34.9423 146.395 35.0886 146.947 35.0886Z" fill="#4285F4"/>
    <path d="M156.725 40C155.712 40 154.874 39.7637 154.21 39.2911C153.558 38.8186 153.119 38.2504 152.894 37.5865L154.194 37.0295C154.385 37.5246 154.7 37.924 155.139 38.2278C155.589 38.5429 156.118 38.7004 156.725 38.7004C157.614 38.7004 158.3 38.4416 158.784 37.9241C159.279 37.4065 159.527 36.6751 159.527 35.73V34.7679H159.459C159.178 35.2067 158.779 35.5668 158.261 35.8481C157.755 36.1181 157.175 36.2532 156.523 36.2532C155.78 36.2532 155.099 36.0619 154.48 35.6793C153.873 35.2968 153.389 34.7623 153.029 34.0759C152.669 33.3896 152.489 32.6076 152.489 31.73C152.489 30.8636 152.669 30.0872 153.029 29.4008C153.389 28.7032 153.873 28.1631 154.48 27.7806C155.099 27.398 155.78 27.2068 156.523 27.2068C157.175 27.2068 157.755 27.3474 158.261 27.6287C158.779 27.8987 159.178 28.2588 159.459 28.7089H159.527V27.4768H160.894V35.7468C160.894 37.1308 160.511 38.1828 159.746 38.903C158.981 39.6343 157.974 40 156.725 40ZM156.725 34.9536C157.243 34.9536 157.71 34.8242 158.126 34.5654C158.554 34.3066 158.891 33.9353 159.139 33.4515C159.397 32.9677 159.527 32.3938 159.527 31.73C159.527 31.0549 159.397 30.4754 159.139 29.9916C158.891 29.5077 158.554 29.1421 158.126 28.8945C157.71 28.6357 157.243 28.5063 156.725 28.5063C156.208 28.5063 155.735 28.6357 155.307 28.8945C154.88 29.1533 154.537 29.5246 154.278 30.0084C154.03 30.4923 153.907 31.0661 153.907 31.73C153.907 32.3938 154.03 32.9733 154.278 33.4684C154.537 33.9522 154.88 34.3235 155.307 34.5823C155.735 34.8298 156.208 34.9536 156.725 34.9536Z" fill="#4285F4"/>
    <path d="M166.899 36.3544C166.055 36.3544 165.296 36.1519 164.62 35.7468C163.945 35.3418 163.417 34.7904 163.034 34.0928C162.663 33.3952 162.477 32.6245 162.477 31.7806C162.477 30.9367 162.663 30.166 163.034 29.4684C163.417 28.7707 163.945 28.2194 164.62 27.8143C165.296 27.4093 166.055 27.2068 166.899 27.2068C167.743 27.2068 168.502 27.4093 169.177 27.8143C169.853 28.2194 170.376 28.7707 170.747 29.4684C171.13 30.166 171.321 30.9367 171.321 31.7806C171.321 32.6245 171.13 33.3952 170.747 34.0928C170.376 34.7904 169.853 35.3418 169.177 35.7468C168.502 36.1519 167.743 36.3544 166.899 36.3544ZM166.899 35.0549C167.428 35.0549 167.917 34.9255 168.367 34.6667C168.829 34.3966 169.194 34.0141 169.464 33.519C169.746 33.0239 169.886 32.4444 169.886 31.7806C169.886 31.1167 169.746 30.5373 169.464 30.0422C169.194 29.5471 168.829 29.1702 168.367 28.9114C167.917 28.6413 167.428 28.5063 166.899 28.5063C166.37 28.5063 165.875 28.6413 165.414 28.9114C164.952 29.1702 164.581 29.5471 164.3 30.0422C164.03 30.5373 163.895 31.1167 163.895 31.7806C163.895 32.4444 164.03 33.0239 164.3 33.519C164.581 34.0141 164.952 34.3966 165.414 34.6667C165.875 34.9255 166.37 35.0549 166.899 35.0549Z" fill="#4285F4"/>
    <path d="M175.909 36.3544C174.986 36.3544 174.215 36.1406 173.596 35.7131C172.977 35.2743 172.539 34.7173 172.28 34.0422L173.563 33.4684C173.776 33.9859 174.091 34.3854 174.508 34.6667C174.935 34.948 175.402 35.0886 175.909 35.0886C176.449 35.0886 176.91 34.9817 177.293 34.7679C177.675 34.5429 177.866 34.2278 177.866 33.8228C177.866 33.4627 177.714 33.1758 177.411 32.962C177.107 32.737 176.629 32.5457 175.976 32.3882L174.93 32.1181C174.243 31.9494 173.681 31.6624 173.242 31.2574C172.803 30.8523 172.584 30.3291 172.584 29.6878C172.584 29.1927 172.73 28.7595 173.022 28.3882C173.326 28.0056 173.726 27.7131 174.221 27.5105C174.716 27.308 175.25 27.2068 175.824 27.2068C176.578 27.2068 177.248 27.3699 177.833 27.6962C178.429 28.0225 178.851 28.4782 179.098 29.0633L177.849 29.6371C177.467 28.872 176.786 28.4895 175.807 28.4895C175.335 28.4895 174.918 28.602 174.558 28.827C174.21 29.0408 174.035 29.3165 174.035 29.654C174.035 29.9691 174.159 30.2278 174.406 30.4304C174.654 30.6217 175.025 30.7792 175.52 30.903L176.769 31.2236C177.613 31.4374 178.249 31.7581 178.677 32.1857C179.104 32.602 179.318 33.1139 179.318 33.7215C179.318 34.2504 179.166 34.7173 178.862 35.1224C178.558 35.5162 178.148 35.82 177.63 36.0338C177.113 36.2475 176.539 36.3544 175.909 36.3544Z" fill="#4285F4"/>
</svg>
