<svg width="24" height="24" viewBox="0 0 24 24" fill="none" xmlns="http://www.w3.org/2000/svg">
<mask id="mask0_39_4676" style="mask-type:alpha" maskUnits="userSpaceOnUse" x="0" y="0" width="24" height="24">
<rect width="24" height="24" fill="#D9D9D9"/>
</mask>
<g mask="url(#mask0_39_4676)">
<path d="M12 16.475C13.65 15.1417 14.8958 13.8583 15.7375 12.625C16.5792 11.3917 17 10.2333 17 9.15C17 8.21667 16.8292 7.42083 16.4875 6.7625C16.1458 6.10417 15.725 5.57083 15.225 5.1625C14.725 4.75417 14.1833 4.45833 13.6 4.275C13.0167 4.09167 12.4833 4 12 4C11.5167 4 10.9833 4.09167 10.4 4.275C9.81667 4.45833 9.275 4.75417 8.775 5.1625C8.275 5.57083 7.85417 6.10417 7.5125 6.7625C7.17083 7.42083 7 8.21667 7 9.15C7 10.2333 7.42083 11.3917 8.2625 12.625C9.10417 13.8583 10.35 15.1417 12 16.475ZM12 18.6C11.8333 18.6 11.6708 18.575 11.5125 18.525C11.3542 18.475 11.2083 18.4 11.075 18.3C9.725 17.25 8.375 15.9292 7.025 14.3375C5.675 12.7458 5 11.0167 5 9.15C5 7.96667 5.2125 6.92917 5.6375 6.0375C6.0625 5.14583 6.60833 4.4 7.275 3.8C7.94167 3.2 8.69167 2.75 9.525 2.45C10.3583 2.15 11.1833 2 12 2C12.8167 2 13.6417 2.15 14.475 2.45C15.3083 2.75 16.0583 3.2 16.725 3.8C17.3917 4.4 17.9375 5.14583 18.3625 6.0375C18.7875 6.92917 19 7.96667 19 9.15C19 11.0167 18.325 12.7458 16.975 14.3375C15.625 15.9292 14.275 17.25 12.925 18.3C12.7917 18.4 12.6458 18.475 12.4875 18.525C12.3292 18.575 12.1667 18.6 12 18.6ZM12 11C12.55 11 13.0208 10.8042 13.4125 10.4125C13.8042 10.0208 14 9.55 14 9C14 8.45 13.8042 7.97917 13.4125 7.5875C13.0208 7.19583 12.55 7 12 7C11.45 7 10.9792 7.19583 10.5875 7.5875C10.1958 7.97917 10 8.45 10 9C10 9.55 10.1958 10.0208 10.5875 10.4125C10.9792 10.8042 11.45 11 12 11ZM6 22C5.71667 22 5.47917 21.9042 5.2875 21.7125C5.09583 21.5208 5 21.2833 5 21C5 20.7167 5.09583 20.4792 5.2875 20.2875C5.47917 20.0958 5.71667 20 6 20H18C18.2833 20 18.5208 20.0958 18.7125 20.2875C18.9042 20.4792 19 20.7167 19 21C19 21.2833 18.9042 21.5208 18.7125 21.7125C18.5208 21.9042 18.2833 22 18 22H6Z" fill="#1C1B1F"/>
</g>
</svg>
