<svg width="32" height="32" viewBox="0 0 32 32" fill="none" xmlns="http://www.w3.org/2000/svg">
<g id="ant-design:redo-outlined">
<path id="Vector" opacity="0.9" d="M9.07562 25.198C6.44312 23.1393 4.75 19.933 4.75 16.3331C4.75 10.1203 9.77031 5.09439 15.9831 5.08595C22.2044 5.07751 27.25 10.1147 27.25 16.3331C27.25 19.8543 25.6328 22.9958 23.0988 25.0574C23.0003 25.1361 22.8569 25.1193 22.7781 25.0208L21.67 23.6005C21.5941 23.5049 21.6109 23.3671 21.7037 23.2883C21.9316 23.1027 22.1509 22.903 22.3619 22.6921C23.1842 21.8726 23.8395 20.9012 24.2913 19.8318C24.7638 18.7265 25 17.5481 25 16.3331C25 15.1181 24.7637 13.9396 24.2941 12.8315C23.8412 11.76 23.1916 10.7981 22.3647 9.97123C21.5378 9.14436 20.5759 8.49468 19.5044 8.04187C18.3934 7.57218 17.215 7.33593 16 7.33593C14.785 7.33593 13.6066 7.57218 12.4984 8.04187C11.4269 8.49468 10.465 9.14436 9.63812 9.97123C8.81125 10.7981 8.16156 11.76 7.70875 12.8315C7.23906 13.9396 7.00281 15.1181 7.00281 16.3331C7.00281 17.5481 7.23906 18.7265 7.70875 19.8346C8.16054 20.904 8.81581 21.8754 9.63812 22.6949C9.89969 22.9565 10.1753 23.2012 10.4622 23.4262L11.6069 21.9608C11.6328 21.9273 11.6676 21.9018 11.7074 21.8873C11.7472 21.8727 11.7902 21.8696 11.8317 21.8784C11.8731 21.8873 11.9112 21.9076 11.9416 21.9371C11.972 21.9666 11.9934 22.0041 12.0034 22.0452L13.1172 26.6071C13.1509 26.7477 13.0441 26.8855 12.9006 26.8855L8.20375 26.908C8.01531 26.908 7.90844 26.6914 8.02656 26.5452L9.07562 25.198Z" fill="#FFFEFA"/>
</g>
</svg>
