<svg width="33" height="32" viewBox="0 0 33 32" fill="none" xmlns="http://www.w3.org/2000/svg">
<g id="material-symbols:share">
<path id="Vector" d="M8.5 2.66536C9.61111 2.66536 10.5556 3.05425 11.3333 3.83203C12.1111 4.60981 12.5 5.55425 12.5 6.66536C12.5 6.82092 12.4889 6.98225 12.4667 7.14936C12.4444 7.31648 12.4111 7.46625 12.3667 7.5987L21.7667 13.0654C22.1444 12.732 22.5667 12.4707 23.0333 12.2814C23.5 12.092 23.9889 11.9978 24.5 11.9987C25.6111 11.9987 26.5556 12.3876 27.3333 13.1654C28.1111 13.9431 28.5 14.8876 28.5 15.9987C28.5 17.1098 28.1111 18.0543 27.3333 18.832C26.5556 19.6098 25.6111 19.9987 24.5 19.9987C23.9889 19.9987 23.5 19.904 23.0333 19.7147C22.5667 19.5254 22.1444 19.2645 21.7667 18.932L12.3667 24.3987C12.4111 24.532 12.4444 24.6818 12.4667 24.848C12.4889 25.0143 12.5 25.1756 12.5 25.332C12.5 26.4431 12.1111 27.3876 11.3333 28.1654C10.5556 28.9431 9.61111 29.332 8.5 29.332C7.38889 29.332 6.44444 28.9431 5.66667 28.1654C4.88889 27.3876 4.5 26.4431 4.5 25.332C4.5 24.2209 4.88889 23.2765 5.66667 22.4987C6.44444 21.7209 7.38889 21.332 8.5 21.332C9.01111 21.332 9.5 21.4263 9.96667 21.6147C10.4333 21.8031 10.8556 22.0645 11.2333 22.3987L20.6333 16.932C20.5889 16.7987 20.5556 16.6485 20.5333 16.4814C20.5111 16.3143 20.5 16.1534 20.5 15.9987C20.5 15.8431 20.5111 15.6818 20.5333 15.5147C20.5556 15.3476 20.5889 15.1978 20.6333 15.0654L11.2333 9.5987C10.8556 9.93203 10.4333 10.1929 9.96667 10.3814C9.5 10.5698 9.01111 10.6645 8.5 10.6654C7.38889 10.6654 6.44444 10.2765 5.66667 9.4987C4.88889 8.72092 4.5 7.77648 4.5 6.66536C4.5 5.55425 4.88889 4.60981 5.66667 3.83203C6.44444 3.05425 7.38889 2.66536 8.5 2.66536Z" fill="#050505"/>
</g>
</svg>
