<svg width="24" height="24" viewBox="0 0 24 24" fill="none" xmlns="http://www.w3.org/2000/svg">
    <mask id="mask0_34_2355" style="mask-type:alpha" maskUnits="userSpaceOnUse" x="0" y="0" width="24" height="24">
        <rect width="24" height="24" fill="#D9D9D9"/>
    </mask>
    <g mask="url(#mask0_34_2355)">
        <path d="M12 17.9405L7.85002 20.4405C7.66668 20.5572 7.47501 20.6072 7.27501 20.5905C7.07501 20.5739 6.90002 20.5072 6.75002 20.3905C6.60001 20.2739 6.48335 20.128 6.40002 19.953C6.31668 19.778 6.30002 19.5822 6.35002 19.3655L7.45002 14.6405L3.77502 11.4655C3.60835 11.3155 3.50418 11.1447 3.46252 10.953C3.42085 10.7614 3.43335 10.5739 3.50002 10.3905C3.56668 10.2072 3.66668 10.0572 3.80002 9.94054C3.93335 9.82387 4.11668 9.74887 4.35002 9.71554L9.20002 9.29054L11.075 4.84054C11.1583 4.64054 11.2875 4.49054 11.4625 4.39054C11.6375 4.29054 11.8167 4.24054 12 4.24054C12.1833 4.24054 12.3625 4.29054 12.5375 4.39054C12.7125 4.49054 12.8417 4.64054 12.925 4.84054L14.8 9.29054L19.65 9.71554C19.8833 9.74887 20.0667 9.82387 20.2 9.94054C20.3333 10.0572 20.4333 10.2072 20.5 10.3905C20.5667 10.5739 20.5792 10.7614 20.5375 10.953C20.4958 11.1447 20.3917 11.3155 20.225 11.4655L16.55 14.6405L17.65 19.3655C17.7 19.5822 17.6833 19.778 17.6 19.953C17.5167 20.128 17.4 20.2739 17.25 20.3905C17.1 20.5072 16.925 20.5739 16.725 20.5905C16.525 20.6072 16.3333 20.5572 16.15 20.4405L12 17.9405Z" fill="#F9AB00"/>
    </g>
</svg>
