<svg width="32" height="32" viewBox="0 0 32 32" fill="none" xmlns="http://www.w3.org/2000/svg">
<g id="Arrow Right">
<path id="Vector" d="M16 29.3346C23.364 29.3346 29.3333 23.3653 29.3333 16.0013C29.3333 8.6373 23.364 2.66797 16 2.66797C8.63596 2.66797 2.66663 8.6373 2.66663 16.0013C2.66663 23.3653 8.63596 29.3346 16 29.3346Z" fill="#050505"/>
<path id="Vector_2" d="M21.3734 15.2942L17.3734 11.2942C17.1852 11.1082 16.9313 11.0039 16.6667 11.0039C16.4021 11.0039 16.1482 11.1082 15.96 11.2942C15.5734 11.6808 15.5734 12.3208 15.96 12.7075L18.2534 15.0008H11.3334C10.7867 15.0008 10.3334 15.4542 10.3334 16.0008C10.3334 16.5475 10.7867 17.0008 11.3334 17.0008H18.2534L15.96 19.2942C15.5734 19.6808 15.5734 20.3208 15.96 20.7075C16.16 20.9075 16.4134 21.0008 16.6667 21.0008C16.92 21.0008 17.1734 20.9075 17.3734 20.7075L21.3734 16.7075C21.76 16.3208 21.76 15.6808 21.3734 15.2942Z" fill="#FFFAEB"/>
</g>
</svg>
