<svg viewBox="0 0 200 200" fill="none" xmlns="http://www.w3.org/2000/svg">
    <g clip-path="url(#clip0_548_251)">
        <rect width="200" height="200" rx="100" fill="#E8F8EC"/>
        <circle cx="100" cy="100" r="100" fill="#E8F8EC"/>
        <path d="M80.6345 142.471C87.2088 137.062 81.1049 106.086 81.1049 106.086H118.36C118.36 106.086 112.255 137.062 118.83 142.471C125.404 147.88 175.18 147.388 170.485 199.507H28.9802C24.284 147.388 74.0611 147.88 80.6345 142.471Z" fill="#7A241F"/>
        <path d="M93.1612 150.51L97.2945 161.606L98.4764 161.036L102.905 149.657L109.106 159.899L105.858 163.312L87.5507 163.027L93.1612 150.51Z" fill="#81C995"/>
        <path d="M70.606 143.946C70.606 143.946 75.8726 161.014 99.7327 161.149C123.592 161.014 128.858 143.946 128.858 143.946C182.85 156.239 171.28 199.507 171.28 199.507L100.012 199.996V200L99.7327 199.998L99.4526 200V199.996L28.1841 199.507C28.1841 199.507 16.6145 156.239 70.606 143.946Z" fill="#34A853"/>
        <path d="M97.9603 165.949C126.885 165.786 133.295 145.119 133.309 145.073C131.875 144.675 130.396 144.296 128.858 143.946C128.858 143.946 123.592 161.014 99.7327 161.149C75.8726 161.014 70.606 143.946 70.606 143.946C67.8965 144.562 65.3593 145.262 62.9698 146.025C64.6431 150.087 72.745 165.807 97.9603 165.949Z" fill="#81C995"/>
        <path d="M63.0422 142.828L83.4164 167.295L93.1612 153.64L97.2945 161.606L94.3422 149.657L71.3098 134.294L63.0422 142.828Z" fill="white"/>
        <path d="M132.729 142.26L112.355 167.011L102.315 153.07L98.4764 161.036L101.429 149.087L124.461 133.725L132.729 142.26Z" fill="white"/>
        <path d="M132.723 82.8227C130.099 108.232 118.96 134.685 99.4841 134.685C80.0079 134.685 68.9212 109.807 67.6631 84.2942C66.1612 53.8532 80.0079 42.1799 99.4841 42.1799C118.96 42.1799 135.659 54.3837 132.723 82.8227Z" fill="#9D322F"/>
        <path d="M139.822 95.0951C138.044 101.604 133.037 107.375 129.099 106.3C125.162 105.224 123.787 97.7075 125.565 91.1989C127.344 84.6894 131.604 81.6532 135.541 82.7284C139.478 83.8046 141.601 88.5856 139.822 95.0951Z" fill="#7A241F"/>
        <path d="M139.066 92.3256C138.837 91.5065 138.585 90.7065 138.297 89.9513C138.146 89.577 137.978 89.2161 137.797 88.897C137.617 88.5875 137.367 88.318 137.21 88.277C137.088 88.2551 137.072 88.277 136.835 88.4342L136.712 88.5475L136.52 88.758L136.428 88.9046L136.298 89.1113C135.959 89.7084 135.722 90.457 135.5 91.2084C135.273 91.9627 135.09 92.7475 134.931 93.5418C134.748 94.3303 134.59 95.1323 134.449 95.9389L134.006 98.3656L133.578 100.8L133.274 100.163C133.428 100.287 133.533 100.389 133.653 100.508C133.767 100.626 133.877 100.747 133.983 100.876C134.192 101.133 134.384 101.419 134.53 101.754C134.671 102.087 134.762 102.499 134.681 102.911C134.594 103.325 134.348 103.658 134.086 103.884C133.553 104.342 132.957 104.513 132.381 104.656C131.804 104.795 131.22 104.844 130.643 104.881C131.188 104.683 131.72 104.46 132.222 104.213C132.472 104.087 132.714 103.95 132.928 103.794C133.148 103.647 133.346 103.477 133.479 103.295C133.76 102.915 133.712 102.63 133.496 102.27C133.379 102.094 133.221 101.919 133.04 101.758C132.95 101.677 132.854 101.6 132.754 101.527C132.658 101.457 132.541 101.377 132.462 101.334L132.154 101.167L132.157 100.697C132.164 99.8399 132.17 98.9999 132.227 98.1542C132.292 97.3113 132.353 96.4656 132.468 95.6246C132.589 94.7846 132.726 93.9437 132.894 93.1027C133.088 92.2665 133.31 91.4323 133.589 90.597C133.873 89.7627 134.24 88.9408 134.796 88.1265L135.028 87.8237C135.113 87.718 135.237 87.5999 135.343 87.4961C135.459 87.3827 135.519 87.3561 135.61 87.2827C135.783 87.1446 135.865 87.1189 135.998 87.0361C136.262 86.9084 136.552 86.7799 136.931 86.7646C137.298 86.7418 137.701 86.8646 137.979 87.0684C138.527 87.4951 138.701 87.9885 138.864 88.4294C139.012 88.8761 139.083 89.318 139.127 89.7542C139.218 90.6227 139.186 91.4808 139.066 92.3256Z" fill="#631315"/>
        <path d="M59.6421 95.0951C61.4212 101.604 66.4279 107.375 70.365 106.3C74.3021 105.224 75.6783 97.7075 73.8993 91.1989C72.1203 84.6894 67.8603 81.6532 63.9231 82.7284C59.9869 83.8046 57.8631 88.5856 59.6421 95.0951Z" fill="#7A241F"/>
        <path d="M60.3983 92.3256C60.2783 91.4808 60.2459 90.6227 60.3383 89.7542C60.3812 89.318 60.4526 88.8761 60.6012 88.4294C60.764 87.9885 60.9374 87.4951 61.485 87.0684C61.764 86.8646 62.1669 86.7418 62.5336 86.7646C62.9126 86.7799 63.2021 86.9084 63.4669 87.0361C63.5993 87.1189 63.6812 87.1446 63.8545 87.2827C63.945 87.3561 64.0059 87.3827 64.1212 87.4961C64.2278 87.5999 64.3516 87.718 64.4364 87.8237L64.6697 88.1265C65.224 88.9408 65.5917 89.7627 65.8755 90.597C66.1555 91.4323 66.3774 92.2665 66.5707 93.1027C66.7383 93.9437 66.8764 94.7846 66.9964 95.6246C67.1116 96.4656 67.1726 97.3113 67.2383 98.1542C67.2945 98.9999 67.3002 99.8399 67.3069 100.697L67.3107 101.167L67.0021 101.334C66.924 101.377 66.8059 101.457 66.7107 101.527C66.6116 101.6 66.5155 101.677 66.424 101.758C66.2431 101.919 66.085 102.094 65.9698 102.27C65.7536 102.63 65.705 102.915 65.985 103.295C66.1183 103.477 66.3164 103.647 66.5364 103.794C66.7507 103.95 66.9935 104.087 67.2421 104.213C67.745 104.46 68.2774 104.683 68.8212 104.881C68.245 104.844 67.6602 104.795 67.0831 104.656C66.5069 104.513 65.9126 104.342 65.3783 103.884C65.1164 103.658 64.8707 103.325 64.784 102.911C64.7031 102.499 64.7945 102.087 64.9345 101.754C65.0802 101.419 65.2726 101.133 65.4821 100.876C65.5869 100.747 65.6974 100.626 65.8116 100.508C65.9316 100.389 66.0364 100.287 66.1907 100.163L65.8859 100.8L65.4583 98.3656L65.0155 95.9389C64.8745 95.1323 64.7164 94.3303 64.5336 93.5418C64.3745 92.7475 64.1917 91.9627 63.965 91.2084C63.7421 90.457 63.5059 89.7084 63.1659 89.1113L63.0364 88.9046L62.945 88.758L62.7526 88.5475L62.6307 88.4342C62.3926 88.277 62.3774 88.2551 62.2545 88.277C62.0974 88.318 61.8478 88.5875 61.6678 88.897C61.4859 89.2161 61.3193 89.577 61.1669 89.9513C60.8802 90.7065 60.6278 91.5065 60.3983 92.3256Z" fill="#631315"/>
        <path d="M108.206 125.058C104.792 124.426 104.069 119.403 104.069 119.403L98.1374 118.989C98.1374 118.989 97.8898 124.844 93.1717 124.644C86.6898 124.368 88.4821 109.747 88.4821 109.747C95.9307 111.265 101.31 108.92 101.31 108.92C108.62 112.23 113.723 110.575 113.723 110.575C114.551 121.196 111.93 125.747 108.206 125.058ZM128.929 82.0351C127.867 93.2466 124.885 116.674 120.619 117.885C113.115 120.017 121.962 104.87 109.961 104.708C96.3517 104.524 85.3097 99.6789 84.6202 112.506C84.0107 123.835 72.3069 103.944 70.5907 82.1085C69.3174 82.1732 68.0431 82.2342 66.7688 82.2799C67.0002 85.6894 68.3774 103.664 68.8964 112.092C70.0002 130.024 77.0345 138.713 101.861 138.85C124.097 138.974 134.175 129.249 132.723 82.8228C130.867 82.2913 129.638 82.3389 128.929 82.0351Z" fill="#20181E"/>
        <path d="M97.7212 83.9598C97.5955 84.7713 97.4536 85.5713 97.2802 86.3608C97.1259 87.157 96.9202 87.9332 96.7469 88.7198C96.3612 90.2808 95.9459 91.8256 95.5059 93.3608L94.8326 95.6551L94.1402 97.9389C93.9307 98.7037 93.6497 99.456 93.4364 100.214C93.2212 100.975 92.985 101.732 92.7278 102.487L92.1421 101.536C92.8364 101.758 93.5336 101.975 94.2231 102.218C94.9136 102.458 95.6069 102.685 96.2945 102.936C97.6697 103.436 99.044 103.942 100.397 104.524C98.9317 104.37 97.4859 104.141 96.0412 103.906C95.3193 103.788 94.6031 103.647 93.8831 103.52C93.1631 103.395 92.4497 103.244 91.7345 103.099L91.0278 102.955L91.1488 102.147C91.2688 101.342 91.4107 100.539 91.5735 99.7399C91.7097 98.9313 91.9278 98.1551 92.1355 97.3703C92.3488 96.5875 92.5317 95.796 92.8031 95.0351C93.0583 94.2675 93.3002 93.496 93.5669 92.7332L94.4374 90.4722C94.7526 89.7275 95.0764 88.9875 95.4107 88.2513C96.0983 86.7875 96.8364 85.3408 97.7212 83.9598Z" fill="#631315"/>
        <path d="M113.639 111.88C113.639 111.88 101.501 123.282 89.7258 111.794L113.639 111.88Z" fill="white"/>
        <path class="eyebrow" d="M93.3832 80.2408C93.3832 80.2408 93.3289 80.1465 93.2108 79.9951C93.0965 79.858 92.9003 79.6789 92.6489 79.4513C92.1413 79.0084 91.3794 78.4322 90.4498 77.838C89.5279 77.2437 88.4422 76.6161 87.287 76.1494C86.7117 75.9065 86.1175 75.7218 85.527 75.5818C84.9346 75.4418 84.3451 75.3618 83.7622 75.3684C83.1784 75.3361 82.6051 75.4304 82.0308 75.5456C81.4603 75.6742 80.8898 75.8665 80.3346 76.1113C79.7803 76.3542 79.2365 76.6418 78.7232 76.9551C78.4537 77.0913 78.2194 77.277 77.9727 77.4322C77.7241 77.5884 77.4841 77.7437 77.2632 77.9142C76.8127 78.2399 76.3727 78.5332 76.0051 78.8294C75.6365 79.1208 75.2794 79.3589 75.0137 79.5827C74.4613 80.0151 74.0994 80.2484 74.0994 80.2484C74.0994 80.2484 74.1679 79.838 74.3708 79.1418C74.466 78.7903 74.607 78.3723 74.8156 77.9161C75.0003 77.4427 75.2565 76.9303 75.5813 76.3875C75.9013 75.8446 76.307 75.2799 76.7984 74.7189C77.2918 74.1599 77.8784 73.6027 78.5775 73.1123C78.9289 72.8646 79.2937 72.6237 79.7051 72.4304C80.0984 72.2085 80.5298 72.0389 80.9775 71.8923C81.8689 71.5932 82.8441 71.4323 83.8127 71.4504C84.7784 71.4704 85.7384 71.6284 86.6032 71.9408C87.4765 72.2332 88.2727 72.6408 88.9622 73.1151C90.3594 74.0475 91.3698 75.197 92.0698 76.2608C92.7641 77.3342 93.1594 78.3303 93.3222 79.0665C93.4175 79.4227 93.426 79.7389 93.4289 79.9446C93.4165 80.1399 93.3775 80.2399 93.3832 80.2408Z" fill="#0D0B0D"/>
        <path class="eyebrow" d="M124.689 80.8333C124.689 80.8333 124.338 80.5866 123.726 80.1542C123.124 79.7304 122.28 79.1371 121.283 78.4923C119.299 77.2113 116.661 75.6742 114.127 75.4885C113.496 75.4456 112.864 75.4342 112.24 75.538C111.614 75.6152 110.996 75.7904 110.381 75.9818C110.076 76.0894 109.785 76.2294 109.478 76.3313C109.181 76.4723 108.892 76.6094 108.609 76.7437C108.053 77.0485 107.489 77.3218 107.002 77.6475C106.498 77.9475 106.021 78.2352 105.615 78.518C105.203 78.7942 104.818 79.0256 104.524 79.2428C103.917 79.659 103.524 79.8809 103.524 79.8809C103.524 79.8809 103.638 79.4599 103.918 78.7523C104.052 78.3952 104.235 77.9685 104.501 77.5133C104.63 77.2799 104.766 77.0304 104.911 76.7675C105.074 76.5161 105.259 76.2628 105.45 75.9885C105.822 75.439 106.327 74.9085 106.878 74.3533C107.171 74.0904 107.479 73.8266 107.805 73.5618C108.149 73.3152 108.511 73.0761 108.891 72.8409C109.677 72.4132 110.546 72.0094 111.509 71.8066C112.458 71.5485 113.481 71.5304 114.477 71.5856C115.473 71.6904 116.437 71.9304 117.32 72.2837C118.193 72.6504 119 73.0952 119.696 73.6085C121.102 74.6228 122.135 75.8104 122.878 76.8913C123.614 77.9847 124.078 78.9685 124.342 79.6837C124.612 80.3961 124.689 80.8333 124.689 80.8333Z" fill="#0D0B0D"/>
        <path class="eye" d="M112.557 88.9408C112.557 91.6008 113.295 93.758 114.203 93.758C115.113 93.758 115.849 91.6008 115.849 88.9408C115.849 86.2799 115.113 84.1227 114.203 84.1227C113.295 84.1227 112.557 86.2799 112.557 88.9408Z" fill="#0D0B0D"/>
        <path class="eye" d="M83.8413 88.2875C83.8413 90.9485 84.5775 93.1046 85.487 93.1046C86.3956 93.1046 87.1318 90.9485 87.1318 88.2875C87.1318 85.6266 86.3956 83.4694 85.487 83.4694C84.5775 83.4694 83.8413 85.6266 83.8413 88.2875Z" fill="#0D0B0D"/>
    </g>
    <defs>
        <clipPath id="clip0_548_251">
            <rect width="200" height="200" rx="100" fill="white"/>
        </clipPath>
    </defs>
</svg>
