<svg xmlns="http://www.w3.org/2000/svg" viewBox="0 0 200 200" fill="none">
    <g clip-path="url(#clip0_548_233)">
        <rect width="200" height="200" rx="100" fill="#E2ECFD"/>
        <circle cx="100" cy="100" r="100" fill="#E2ECFD"/>
        <path d="M88.0157 146.243C88.0157 146.243 82.6002 155.433 65.2252 146.126C50.3706 138.168 60.0794 127.5 60.0794 127.5C60.0794 127.5 49.903 134.031 45.7695 129.155C41.6356 124.279 55.005 120.278 55.005 120.278C55.005 120.278 29.1541 124.385 28.1549 108.995C27.1553 93.6046 47.8975 96.4484 47.8975 96.4484C47.8975 96.4484 21.5388 90.1351 28.2312 70.8437C34.9231 51.5522 51.9621 58.0589 51.9621 58.0589C51.9621 58.0589 35.2542 54.4142 36.9373 47.7494C38.6203 41.0846 54.8178 50.9237 54.8178 50.9237C54.8178 50.9237 40.7275 36.156 54.4153 21.4103C68.1032 6.66365 87.5072 31.5332 87.5072 31.5332C87.5072 31.5332 85.127 16.1761 95.6805 11.9427C106.235 7.71035 102.892 31.0027 102.892 31.0027C102.892 31.0027 101.498 10.1541 117.689 13.1894C133.88 16.2246 123.816 42.0418 123.816 42.0418C123.816 42.0418 132.051 17.7751 149.329 28.2694C166.606 38.7646 153.348 62.0503 145.657 65.9513C137.965 69.8532 152.634 50.0856 161.934 61.057C171.235 72.0284 146.65 74.538 146.65 74.538C146.65 74.538 169.261 68.4637 172.281 86.8551C175.301 105.246 149.026 107.616 149.026 107.616C149.026 107.616 159.865 106.808 160.249 115.911C160.633 125.014 143.78 116.255 143.78 116.255C143.78 116.255 156.976 128.114 148.164 138.727C139.352 149.34 124.791 133.399 124.791 133.399C124.791 133.399 131.84 144.185 122.459 147.948C113.078 151.71 107.01 135.903 107.01 135.903L88.0157 146.243Z" fill="#0D0B0D"/>
        <path d="M82.621 150.567C88.5269 145.524 83.0429 116.641 83.0429 116.641H116.51C116.51 116.641 111.026 145.524 116.932 150.567C122.838 155.609 167.553 155.151 163.335 203.747H36.2185C31.9997 155.151 76.7151 155.609 82.621 150.567Z" fill="#9D322F"/>
        <path d="M73.6117 151.942C73.6117 151.942 78.343 167.856 99.7766 167.982C121.21 167.856 125.941 151.942 125.941 151.942C174.442 163.403 164.05 203.747 164.05 203.747L100.028 204.202V204.206L99.7766 204.204L99.5252 204.206V204.202L35.5034 203.747C35.5034 203.747 25.1102 163.403 73.6117 151.942Z" fill="#4285F4"/>
        <path d="M82.7322 204.128L66.4628 152.846C66.4628 152.846 33.5852 157.357 30.7556 203.789L82.7322 204.128Z" fill="#EA4335"/>
        <path d="M117.394 204.128L133.663 152.846C133.663 152.846 164.447 157.357 167.277 203.789L117.394 204.128Z" fill="#EA4335"/>
        <path d="M138.326 103.106C136.616 109.364 131.802 114.914 128.016 113.879C124.23 112.845 122.907 105.617 124.618 99.358C126.328 93.0999 130.424 90.1799 134.21 91.2142C137.996 92.2484 140.037 96.8465 138.326 103.106Z" fill="#7A241F"/>
        <path d="M137.6 100.443C137.379 99.6551 137.137 98.8856 136.86 98.1589C136.714 97.7989 136.554 97.4523 136.379 97.1456C136.205 96.8475 135.965 96.5885 135.815 96.5494C135.697 96.5285 135.682 96.5494 135.453 96.6999L135.336 96.8094L135.151 97.0113L135.062 97.1523L134.938 97.3513C134.612 97.9256 134.384 98.6456 134.17 99.3685C133.952 100.093 133.776 100.847 133.623 101.611C133.447 102.37 133.296 103.141 133.16 103.917L132.734 106.25L132.322 108.591L132.029 107.979C132.178 108.098 132.279 108.196 132.394 108.311C132.504 108.424 132.61 108.541 132.711 108.664C132.912 108.912 133.098 109.187 133.238 109.508C133.373 109.829 133.461 110.225 133.382 110.621C133.299 111.019 133.062 111.34 132.811 111.556C132.298 111.997 131.725 112.162 131.172 112.299C130.616 112.433 130.055 112.48 129.5 112.515C130.023 112.325 130.536 112.11 131.019 111.873C131.258 111.752 131.491 111.621 131.698 111.47C131.908 111.328 132.099 111.166 132.227 110.99C132.497 110.626 132.45 110.351 132.242 110.005C132.131 109.835 131.98 109.667 131.805 109.512C131.718 109.434 131.625 109.36 131.53 109.289C131.438 109.223 131.325 109.146 131.249 109.105L130.952 108.944L130.956 108.492C130.962 107.668 130.968 106.86 131.022 106.047C131.085 105.237 131.143 104.424 131.255 103.614C131.371 102.807 131.503 101.999 131.664 101.189C131.851 100.386 132.063 99.5827 132.332 98.7799C132.605 97.978 132.959 97.1875 133.492 96.4037C133.633 96.2161 133.784 96.0123 134.02 95.798C134.131 95.6894 134.189 95.6637 134.276 95.5932C134.442 95.4599 134.522 95.4361 134.649 95.3561C134.903 95.2332 135.182 95.1094 135.546 95.0951C135.9 95.0732 136.286 95.1913 136.555 95.3866C137.081 95.797 137.248 96.2723 137.405 96.6951C137.547 97.1256 137.616 97.5494 137.658 97.9694C137.746 98.8046 137.715 99.6304 137.6 100.443Z" fill="#631315"/>
        <path d="M130.478 111.287C133.117 111.288 135.501 112.356 137.23 114.085C138.96 115.814 140.027 118.199 140.027 120.837C140.027 123.476 138.96 125.86 137.23 127.589C135.501 129.319 133.117 130.387 130.478 130.387C127.84 130.387 125.455 129.319 123.725 127.589C121.997 125.86 120.929 123.476 120.928 120.837C120.928 120.544 120.691 120.307 120.398 120.307C120.105 120.307 119.867 120.544 119.867 120.837C119.868 126.697 124.618 131.447 130.478 131.447C136.338 131.447 141.088 126.697 141.088 120.837C141.088 114.977 136.338 110.227 130.478 110.227C130.184 110.227 129.947 110.465 129.947 110.757C129.947 111.05 130.184 111.287 130.478 111.287Z" fill="white"/>
        <path d="M61.2267 103.106C62.9369 109.364 67.752 114.914 71.5377 113.879C75.3234 112.845 76.6464 105.617 74.9358 99.358C73.2256 93.0999 69.1292 90.1799 65.3435 91.2142C61.5578 92.2484 59.5162 96.8465 61.2267 103.106Z" fill="#7A241F"/>
        <path d="M61.954 100.443C61.8386 99.6304 61.807 98.8046 61.8956 97.9694C61.9373 97.5494 62.0061 97.1256 62.1482 96.6951C62.3048 96.2723 62.4723 95.797 62.9983 95.3866C63.2666 95.1913 63.6542 95.0732 64.0072 95.0951C64.371 95.1094 64.6493 95.2332 64.9038 95.3561C65.0314 95.4361 65.1106 95.4599 65.2769 95.5932C65.3644 95.6637 65.4224 95.6894 65.534 95.798C65.7687 96.0123 65.9202 96.2161 66.0608 96.4037C66.5943 97.1875 66.9477 97.978 67.2207 98.7799C67.4894 99.5827 67.7025 100.386 67.8889 101.189C68.05 101.999 68.1825 102.807 68.2982 103.614C68.4094 104.424 68.4678 105.237 68.5303 106.047C68.5849 106.86 68.5906 107.668 68.5972 108.492L68.6005 108.944L68.3037 109.105C68.2282 109.146 68.1151 109.223 68.0236 109.289C67.928 109.36 67.8353 109.434 67.7479 109.512C67.5738 109.667 67.4217 109.835 67.3108 110.005C67.1028 110.351 67.0564 110.626 67.3261 110.99C67.4544 111.166 67.6445 111.328 67.8558 111.47C68.0619 111.621 68.2951 111.752 68.5347 111.873C69.0176 112.11 69.5295 112.325 70.0533 112.515C69.4983 112.48 68.9369 112.433 68.3815 112.299C67.8275 112.162 67.2557 111.997 66.7427 111.556C66.4905 111.34 66.2543 111.019 66.1706 110.621C66.0927 110.225 66.1806 109.828 66.316 109.508C66.4559 109.187 66.6407 108.912 66.8421 108.664C66.9432 108.541 67.0492 108.424 67.1594 108.311C67.2747 108.196 67.3751 108.098 67.524 107.979L67.2308 108.591L66.8189 106.25L66.3938 103.917C66.2576 103.141 66.1062 102.37 65.9302 101.611C65.7769 100.847 65.6013 100.093 65.3829 99.3685C65.1686 98.6456 64.9414 97.9256 64.6151 97.3513L64.4908 97.1523L64.402 97.0113L64.2178 96.8094L64.0999 96.6999C63.8718 96.5494 63.8562 96.5285 63.7386 96.5494C63.588 96.5885 63.3476 96.8475 63.1743 97.1456C62.9994 97.4513 62.8386 97.7989 62.6932 98.1589C62.4168 98.8856 62.1743 99.6551 61.954 100.443Z" fill="#631315"/>
        <path d="M68.9384 110.227C63.0779 110.227 58.3283 114.977 58.3279 120.837C58.3283 126.697 63.0779 131.447 68.9384 131.447C74.7985 131.447 79.5482 126.697 79.5485 120.837C79.5485 120.544 79.3111 120.307 79.018 120.307C78.7252 120.307 78.4875 120.544 78.4875 120.837C78.4871 123.476 77.4194 125.86 75.6906 127.589C73.9611 129.319 71.5767 130.387 68.9384 130.387C66.2996 130.387 63.9157 129.319 62.1858 127.589C60.457 125.86 59.3893 123.476 59.3889 120.837C59.3893 118.199 60.457 115.814 62.1858 114.085C63.9157 112.356 66.2996 111.288 68.9384 111.287C69.2312 111.287 69.4689 111.05 69.4689 110.757C69.4689 110.465 69.2312 110.227 68.9384 110.227Z" fill="white"/>
        <path d="M131.171 91.8846C131.171 114.799 117.008 138.188 99.5377 138.188C82.0675 138.188 67.9045 114.799 67.9045 91.8846C67.9045 68.9703 82.0675 55.2084 99.5377 55.2084C117.008 55.2084 131.171 68.9703 131.171 91.8846Z" fill="#9D322F" stroke="black"/>
        <path d="M112.557 97.9408C112.557 100.601 113.295 102.758 114.203 102.758C115.113 102.758 115.849 100.601 115.849 97.9408C115.849 95.2799 115.113 93.1227 114.203 93.1227C113.295 93.1227 112.557 95.2799 112.557 97.9408Z" fill="#0D0B0D"/>
        <path d="M82.5574 97.9408C82.5574 100.601 83.2945 102.758 84.2031 102.758C85.1126 102.758 85.8488 100.601 85.8488 97.9408C85.8488 95.2799 85.1126 93.1227 84.2031 93.1227C83.2945 93.1227 82.5574 95.2799 82.5574 97.9408Z" fill="#0D0B0D"/>
        <path d="M68.1441 102.507C68.1441 102.507 65.8613 67.2494 98.2948 65.8399C130.833 64.4246 130.125 103.684 130.125 103.684C130.125 103.684 145.334 48.5094 102.184 47.0941C57.2858 45.6227 68.1441 102.507 68.1441 102.507Z" fill="#F03A4B"/>
        <path d="M97.8662 95.0694C98.1957 95.7494 98.4557 96.4637 98.6538 97.1913C98.8681 97.918 99.0053 98.6627 99.1234 99.4151C99.23 100.168 99.2786 100.931 99.2986 101.7C99.2919 102.467 99.2481 103.239 99.1529 104.012C99.0367 104.782 98.8605 105.547 98.6357 106.302C98.4167 107.062 98.071 107.783 97.7015 108.488C97.5062 108.837 97.3081 109.183 97.0729 109.508C96.8453 109.837 96.5815 110.143 96.3215 110.446C96.051 110.74 95.7767 111.03 95.4757 111.293C95.1834 111.564 94.8472 111.784 94.5348 112.024L94.4291 110.774C95.4148 111.397 96.3786 112.061 97.3415 112.727C98.2967 113.406 99.2491 114.088 100.165 114.837C99.0472 114.451 97.9643 114 96.8843 113.546C95.8129 113.076 94.7415 112.606 93.6929 112.094L92.8234 111.67L93.5881 110.846C93.8224 110.592 94.0767 110.365 94.2853 110.093C94.5186 109.847 94.7243 109.578 94.9272 109.308C95.1205 109.031 95.3157 108.757 95.4795 108.461C95.6567 108.175 95.8224 107.881 95.9757 107.58C96.1224 107.275 96.2719 106.971 96.39 106.651L96.7462 105.692C96.9653 105.043 97.1338 104.372 97.2729 103.689C97.4253 103.009 97.5329 102.313 97.6081 101.609C97.7072 100.907 97.7615 100.193 97.7995 99.4741C97.851 98.7541 97.8596 98.0294 97.8767 97.2951C97.8748 96.5627 97.8881 95.8227 97.8662 95.0694Z" fill="#631315"/>
        <path d="M109.31 121.089C109.31 121.089 97.7472 130.051 88.6631 120.084L109.31 121.089Z" fill="white"/>
        <path d="M93.8063 91.5894C93.8063 91.5894 93.4863 91.397 92.9263 91.0608C92.371 90.7399 91.6036 90.2856 90.7006 89.8228C89.7996 89.358 88.7613 88.8904 87.6817 88.5684C87.1385 88.4227 86.5927 88.2837 86.0433 88.2237C85.4945 88.1723 84.9469 88.1237 84.402 88.1904C83.854 88.2094 83.3134 88.338 82.768 88.4675C82.2308 88.6323 81.6862 88.8085 81.162 89.0465C80.6337 89.2704 80.1251 89.5437 79.6296 89.8037C79.1467 90.0894 78.6642 90.3466 78.2367 90.6323C77.7903 90.8923 77.3926 91.1618 77.0277 91.398C76.6571 91.6284 76.3238 91.8313 76.0608 92.0132C75.5221 92.3647 75.1727 92.5494 75.1727 92.5494C75.1727 92.5494 75.2624 92.178 75.4924 91.5561C75.6044 91.2427 75.749 90.8647 75.9652 90.4599C76.1694 90.0456 76.418 89.5856 76.7468 89.1161C77.0541 88.6313 77.4577 88.1513 77.9034 87.6485C78.3747 87.1694 78.8964 86.6694 79.5251 86.2361C80.1411 85.7923 80.8532 85.3989 81.6304 85.097C82.4108 84.7999 83.2598 84.5961 84.1292 84.5342C84.9972 84.4627 85.8755 84.5456 86.6977 84.7323C87.5269 84.9065 88.2825 85.2342 88.967 85.5913C90.3294 86.3313 91.3468 87.2989 92.0653 88.2065C92.791 89.1142 93.2244 89.9732 93.4786 90.5894C93.7348 91.2065 93.8063 91.5894 93.8063 91.5894Z" fill="#0D0B0D"/>
        <path d="M122.24 93.0046C122.24 93.0046 121.946 92.7712 121.431 92.3636C120.918 91.9712 120.21 91.4189 119.368 90.8351C118.529 90.2484 117.554 89.6341 116.511 89.1417C115.465 88.657 114.364 88.2836 113.241 88.1722C112.683 88.076 112.114 88.1084 111.544 88.1131C111.257 88.1408 110.971 88.1693 110.688 88.197C110.401 88.2474 110.116 88.296 109.836 88.3446C109.269 88.4627 108.714 88.616 108.173 88.7712C107.643 88.9589 107.113 89.1046 106.638 89.3036C106.148 89.4731 105.699 89.6512 105.297 89.8189C104.888 89.976 104.518 90.1074 104.224 90.2379C103.626 90.4836 103.246 90.5998 103.246 90.5998C103.246 90.5998 103.406 90.2503 103.754 89.6808C103.924 89.3913 104.146 89.0503 104.439 88.6912C104.718 88.3179 105.062 87.9208 105.48 87.5208C105.88 87.1008 106.385 86.717 106.925 86.3074C107.491 85.9303 108.115 85.555 108.821 85.2541C109.527 84.9531 110.305 84.7132 111.129 84.5789C111.957 84.4617 112.823 84.4198 113.68 84.5322C114.536 84.637 115.378 84.857 116.143 85.1893C116.922 85.4989 117.611 85.936 118.228 86.3903C119.458 87.3198 120.336 88.4141 120.933 89.4112C121.537 90.4074 121.86 91.3189 122.038 91.9655C122.217 92.6132 122.24 93.0046 122.24 93.0046Z" fill="#0D0B0D"/>
    </g>
    <defs>
        <clipPath id="clip0_548_233">
            <rect width="200" height="200" rx="100" fill="white"/>
        </clipPath>
    </defs>
</svg>