<svg xmlns="http://www.w3.org/2000/svg" width="124" height="26" viewBox="0 0 124 26" fill="none">
    <path d="M6.93546 17.684C9.28623 17.684 11.1475 17.0079 12.5179 15.6562C13.8874 14.3055 14.5726 12.4164 14.5726 9.99123C14.5726 7.5652 13.8874 5.67747 12.5179 4.32531C11.1475 2.97361 9.28623 2.29753 6.93546 2.29753H3.26949V17.684H6.93546ZM0.908691 0.0480423H6.93546C8.97191 0.0480423 10.7492 0.469566 12.2675 1.3117C13.7857 2.15474 14.9521 3.32579 15.7669 4.82484C16.5812 6.32526 16.9891 8.04694 16.9891 9.99123C16.9891 11.9346 16.5812 13.6563 15.7669 15.1567C14.9521 16.6558 13.7857 17.8277 12.2675 18.6699C10.7492 19.5129 8.97191 19.9335 6.93546 19.9335H0.908691V0.0480423Z" fill="black"/>
    <path d="M29.875 11.5187C29.8381 10.9631 29.6807 10.407 29.4029 9.85224C29.1255 9.2966 28.6762 8.82398 28.0562 8.4353C27.4353 8.04708 26.6438 7.85274 25.6813 7.85274C24.6443 7.85274 23.7461 8.18577 22.9874 8.85226C22.2283 9.51922 21.7466 10.407 21.5436 11.5187H29.875ZM22.3346 19.4341C21.2886 18.8041 20.4693 17.9337 19.8771 16.8229C19.2841 15.7111 18.9884 14.4534 18.9884 13.0461C18.9884 11.7131 19.2658 10.4859 19.8215 9.36594C20.3771 8.24598 21.1681 7.35686 22.1959 6.69949C23.2233 6.04257 24.4039 5.71365 25.7374 5.71365C27.0699 5.71365 28.241 6.0152 29.2501 6.616C30.2592 7.21772 31.032 8.06579 31.5694 9.15746C32.1063 10.2505 32.3745 11.5091 32.3745 12.9343C32.3745 13.1948 32.3558 13.3795 32.3193 13.4904H21.3766C21.4131 14.5278 21.6636 15.4014 22.1266 16.114C22.5892 16.8279 23.1681 17.3603 23.8624 17.7111C24.5567 18.0633 25.2739 18.2384 26.0147 18.2384C27.7547 18.2384 29.0972 17.3886 30.0416 15.6842L32.1245 16.6842C31.5319 17.7946 30.7126 18.6887 29.6666 19.3643C28.621 20.0395 27.366 20.3775 25.9039 20.3775C24.5709 20.3775 23.3807 20.0628 22.3346 19.4341Z" fill="black"/>
    <path d="M32.93 6.15794H35.4851L39.7063 17.1563H39.7619L44.0392 6.15794H46.5387L40.9006 19.9336H38.5124L32.93 6.15794Z" fill="black"/>
    <path d="M58.3983 11.5187C58.3613 10.9631 58.2039 10.407 57.9261 9.85224C57.6487 9.2966 57.1994 8.82398 56.5794 8.4353C55.9585 8.04708 55.1671 7.85274 54.2045 7.85274C53.1676 7.85274 52.2698 8.18577 51.5107 8.85226C50.7516 9.51922 50.2698 10.407 50.0668 11.5187H58.3983ZM50.8583 19.4341C49.8118 18.8041 48.9925 17.9337 48.4003 16.8229C47.8073 15.7111 47.5117 14.4534 47.5117 13.0461C47.5117 11.7131 47.789 10.4859 48.3447 9.36594C48.9003 8.24598 49.6914 7.35686 50.7192 6.69949C51.7465 6.04257 52.9271 5.71365 54.2606 5.71365C55.5931 5.71365 56.7642 6.0152 57.7733 6.616C58.7824 7.21772 59.5552 8.06579 60.0926 9.15746C60.6295 10.2505 60.8978 11.5091 60.8978 12.9343C60.8978 13.1948 60.8791 13.3795 60.8426 13.4904H49.8998C49.9363 14.5278 50.1868 15.4014 50.6498 16.114C51.1124 16.8279 51.6913 17.3603 52.3856 17.7111C53.08 18.0633 53.7971 18.2384 54.538 18.2384C56.2779 18.2384 57.6205 17.3886 58.5648 15.6842L60.6478 16.6842C60.0552 17.7946 59.2358 18.6887 58.1898 19.3643C57.1442 20.0395 55.8892 20.3775 54.4271 20.3775C53.0941 20.3775 51.9039 20.0628 50.8583 19.4341Z" fill="black"/>
    <path d="M63.2855 0.0478592H65.6463V19.9333H63.2855V0.0478592Z" fill="black"/>
    <path d="M77.2832 17.6004C78.0053 17.1752 78.5838 16.5689 79.019 15.7806C79.4538 14.9942 79.6714 14.0827 79.6714 13.0462C79.6714 12.0088 79.4538 11.0974 79.019 10.3104C78.5838 9.52395 78.0053 8.91721 77.2832 8.49113C76.561 8.06595 75.7832 7.85246 74.9502 7.85246C74.135 7.85246 73.3672 8.06595 72.6455 8.49113C71.9229 8.91721 71.344 9.52395 70.9097 10.3104C70.4745 11.0974 70.2569 12.0088 70.2569 13.0462C70.2569 14.0827 70.4745 14.9942 70.9097 15.7806C71.344 16.5689 71.9229 17.1752 72.6455 17.6004C73.3672 18.0269 74.135 18.2386 74.9502 18.2386C75.7832 18.2386 76.561 18.0269 77.2832 17.6004ZM71.3121 19.4202C70.2382 18.7806 69.4002 17.9019 68.7985 16.7806C68.1967 15.6607 67.8966 14.4157 67.8966 13.0462C67.8966 11.6754 68.1967 10.4304 68.7985 9.31045C69.4002 8.19049 70.2382 7.31095 71.3121 6.67137C72.386 6.03316 73.599 5.71382 74.9502 5.71382C76.3015 5.71382 77.5195 6.03316 78.603 6.67137C79.6855 7.31095 80.5276 8.19049 81.1303 9.31045C81.7315 10.4304 82.0322 11.6754 82.0322 13.0462C82.0322 14.4157 81.7315 15.6607 81.1303 16.7806C80.5276 17.9019 79.6855 18.7806 78.603 19.4202C77.5195 20.0584 76.3015 20.3772 74.9502 20.3772C73.599 20.3772 72.386 20.0584 71.3121 19.4202Z" fill="black"/>
    <path d="M93.2393 17.6005C93.9336 17.1754 94.4888 16.5691 94.9058 15.7808C95.3218 14.9943 95.5303 14.0828 95.5303 13.0464C95.5303 12.009 95.3218 11.0975 94.9058 10.3106C94.4888 9.52409 93.9336 8.91735 93.2393 8.49127C92.545 8.0661 91.79 7.8526 90.9757 7.8526C90.1609 7.8526 89.4064 8.06108 88.712 8.47713C88.0182 8.89363 87.4625 9.49581 87.046 10.2823C86.6295 11.0701 86.421 11.9898 86.421 13.0464C86.421 14.0828 86.6295 14.9989 87.046 15.7949C87.4625 16.5914 88.0182 17.1977 88.712 17.6147C89.4064 18.0316 90.1609 18.2388 90.9757 18.2388C91.79 18.2388 92.545 18.0271 93.2393 17.6005ZM84.1715 6.15784H86.421V8.18607H86.5323C86.9762 7.48171 87.6153 6.89414 88.4483 6.42198C89.2818 5.94982 90.2439 5.71396 91.3365 5.71396C92.5217 5.71396 93.6138 6.0333 94.6138 6.67151C95.6133 7.31109 96.4098 8.18608 97.0024 9.29645C97.595 10.4073 97.8911 11.6568 97.8911 13.0464C97.8911 14.435 97.595 15.6845 97.0024 16.7949C96.4098 17.9057 95.6133 18.7807 94.6138 19.4203C93.6138 20.0585 92.5217 20.3774 91.3365 20.3774C90.2439 20.3774 89.2768 20.142 88.4342 19.6698C87.5916 19.1977 86.9575 18.6005 86.5323 17.8784H86.421L86.5323 19.7944V25.9329H84.1715V6.15784Z" fill="black"/>
    <path d="M110.943 11.5187C110.906 10.9631 110.749 10.407 110.471 9.85224C110.194 9.2966 109.744 8.82398 109.125 8.4353C108.504 8.04708 107.712 7.85274 106.75 7.85274C105.713 7.85274 104.815 8.18577 104.056 8.85226C103.297 9.51922 102.815 10.407 102.612 11.5187H110.943ZM103.403 19.4341C102.357 18.8041 101.538 17.9337 100.945 16.8229C100.352 15.7111 100.057 14.4534 100.057 13.0461C100.057 11.7131 100.334 10.4859 100.89 9.36594C101.445 8.24598 102.236 7.35686 103.264 6.69949C104.292 6.04257 105.472 5.71365 106.806 5.71365C108.138 5.71365 109.309 6.0152 110.318 6.616C111.327 7.21772 112.1 8.06579 112.638 9.15746C113.175 10.2505 113.443 11.5091 113.443 12.9343C113.443 13.1948 113.424 13.3795 113.388 13.4904H102.445C102.481 14.5278 102.732 15.4014 103.195 16.114C103.658 16.8279 104.236 17.3603 104.931 17.7111C105.625 18.0633 106.342 18.2384 107.083 18.2384C108.823 18.2384 110.166 17.3886 111.11 15.6842L113.193 16.6842C112.6 17.7946 111.781 18.6887 110.735 19.3643C109.689 20.0395 108.434 20.3775 106.972 20.3775C105.639 20.3775 104.449 20.0628 103.403 19.4341Z" fill="black"/>
    <path d="M115.831 6.15794H118.081V8.40742H118.192C118.451 7.64878 118.984 7.01056 119.789 6.49141C120.594 5.97318 121.395 5.71406 122.191 5.71406C122.765 5.71406 123.302 5.80712 123.802 5.99188V8.51919C123.302 8.24137 122.654 8.10223 121.858 8.10223C121.21 8.10223 120.603 8.29292 120.039 8.67247C119.474 9.05385 119.025 9.55931 118.692 10.1902C118.359 10.8202 118.192 11.5082 118.192 12.2499V19.9336H115.831V6.15794Z" fill="black"/>
</svg>