<svg width="418" height="106" viewBox="0 0 418 106" fill="none" xmlns="http://www.w3.org/2000/svg">
    <path d="M37.339 69.2351V38.5954C34.2647 36.0689 30.4208 34.5315 26.3575 34.5315C17.5719 34.5315 12.4094 41.2307 12.4094 53.8602C12.4094 65.9402 17.2418 72.6394 26.1375 72.6394C30.0914 72.6394 34.1547 71.3215 37.339 69.2351ZM53.5935 77.1423L42.0619 83.4026L38.328 75.2754C34.4842 79.9977 28.7734 83.4026 21.4151 83.4026C7.35825 83.4026 0 71.761 0 53.7502C0 34.2026 8.6756 23.6595 22.513 23.6595C28.9928 23.6595 34.0446 26.0753 37.339 30.5782V1.80479H49.2001V68.3567L53.5935 77.1423Z" fill="black"/>
    <path d="M74.2377 46.6121H102.243C101.693 38.046 97.6298 33.9826 90.0521 33.9826C81.8148 33.9826 76.1052 38.7049 74.2377 46.6121ZM112.456 54.8482H73.5787C74.3471 64.8424 82.1449 71.5417 94.4449 71.5417C100.705 71.5417 107.514 70.2237 112.126 67.8078L108.392 79.9972C104.548 82.0848 98.0687 83.4028 90.6004 83.4028C72.9197 83.4028 61.2787 71.4316 61.2787 53.2008C61.2787 34.8605 72.3702 23.6596 90.0521 23.6596C104.658 23.6596 113.883 32.0057 113.883 45.5136C113.883 48.5885 113.334 52.2123 112.456 54.8482Z" fill="black"/>
    <path d="M141.337 81.9745L118.933 25.0873H132.002L146.609 64.8421L148.255 69.7845H148.695L150.342 64.8421L164.838 25.0873H177.687L155.394 81.9745H141.337Z" fill="black"/>
    <path d="M216.563 25.197H242.261L240.614 34.3121H214.916L205.911 85.4891C203.384 99.7654 193.83 105.147 180.432 105.147C174.282 105.147 171.427 104.268 168.352 103.609L168.132 94.3841C171.206 94.9337 174.831 95.2632 179.883 95.2632C187.899 95.2632 193.171 92.0777 194.38 85.379L203.384 34.3121H185.483L187.131 25.197H205.032L205.911 19.9251C208.437 5.75877 217.881 0.376854 231.17 0.376854C237.429 0.376854 240.614 1.25591 243.36 1.91489L243.579 11.3595C240.505 10.5905 236.88 10.261 231.829 10.261C223.921 10.261 218.65 13.4459 217.442 20.1452L216.563 25.197Z" fill="black"/>
    <path d="M257.085 46.6121H285.09C284.541 38.046 280.478 33.9826 272.9 33.9826C264.663 33.9826 258.953 38.7049 257.085 46.6121ZM295.303 54.8482H256.426C257.195 64.8424 264.993 71.5417 277.293 71.5417C283.552 71.5417 290.362 70.2237 294.974 67.8078L291.24 79.9972C287.396 82.0848 280.916 83.4028 273.448 83.4028C255.767 83.4028 244.126 71.4316 244.126 53.2008C244.126 34.8605 255.218 23.6596 272.9 23.6596C287.506 23.6596 296.731 32.0057 296.731 45.5136C296.731 48.5885 296.181 52.2123 295.303 54.8482Z" fill="black"/>
    <path d="M308.041 78.5702L307.271 65.8306C312.324 69.3456 321.549 72.4205 331.213 72.4205C338.571 72.4205 343.843 70.114 343.843 64.9522C343.843 54.1896 308.479 64.1838 308.479 42.2191C308.479 32.0061 316.168 23.3299 334.507 23.3299C345.71 23.3299 354.275 26.0758 354.275 32.8845C354.275 34.9709 353.397 36.7278 352.518 38.3752C347.687 36.0694 340.109 34.4219 333.739 34.4219C324.953 34.4219 320.341 37.7162 320.341 41.3407C320.341 50.8947 356.142 42.5486 356.142 63.9637C356.142 75.9342 345.6 83.4025 329.895 83.4025C319.242 83.4025 311.225 79.9976 308.041 78.5702Z" fill="black"/>
    <path d="M417.312 69.8941L414.896 80.9862C412.04 82.1941 406.33 83.4026 401.058 83.4026C386.891 83.4026 380.851 76.0444 380.851 65.6107V35.0804H364.707V25.0868H380.851V9.49252H392.712V25.0868H415.664V35.0804H392.712V61.9875C392.712 69.3451 396.556 72.6394 403.255 72.6394C407.098 72.6394 414.127 71.7616 417.312 69.8941Z" fill="black"/>
</svg>
