<svg width="383" height="30" viewBox="0 0 383 30" fill="none" xmlns="http://www.w3.org/2000/svg">
    <path d="M72.3 22.0172C70.717 21.1103 69.467 19.8598 68.551 18.2673C67.634 16.6751 67.176 14.917 67.176 12.9914C67.176 11.0658 67.634 9.30625 68.551 7.71413C69.467 6.12201 70.717 4.8725 72.3 3.96422C73.883 3.05731 75.6092 2.60385 77.4796 2.60385C78.9422 2.60385 80.3167 2.86297 81.6036 3.3812C82.8905 3.89944 83.9507 4.63072 84.7842 5.5755L83.0899 7.27025C82.4599 6.49153 81.6497 5.89438 80.6597 5.47878C79.6689 5.06182 78.6087 4.85334 77.4796 4.85334C76.091 4.85334 74.7903 5.19138 73.5778 5.86746C72.3648 6.54354 71.3926 7.49607 70.6613 8.72825C69.9301 9.9586 69.5642 11.3801 69.5642 12.9914C69.5642 14.6013 69.9301 16.0228 70.6613 17.2536C71.3926 18.4853 72.3648 19.4392 73.5778 20.1139C74.7903 20.79 76.091 21.128 77.4796 21.128C78.8126 21.128 79.928 20.9196 80.8262 20.504C81.724 20.087 82.5064 19.5359 83.1729 18.8503C83.6542 18.332 84.0433 17.7034 84.3394 16.9625C84.6359 16.2217 84.812 15.416 84.8672 14.5456H77.5353V12.3518H87.0889C87.1815 12.87 87.228 13.3518 87.228 13.7956C87.228 15.0182 87.0337 16.2075 86.645 17.3654C86.2559 18.5218 85.635 19.5359 84.7842 20.4059C82.9133 22.3871 80.4791 23.3775 77.4796 23.3775C75.6092 23.3775 73.883 22.9241 72.3 22.0172Z" fill="black"/>
    <path d="M98.3924 20.6004C99.1146 20.1752 99.693 19.5689 100.128 18.7806C100.563 17.9942 100.781 17.0827 100.781 16.0462C100.781 15.0088 100.563 14.0974 100.128 13.3104C99.693 12.524 99.1146 11.9172 98.3924 11.4911C97.6707 11.066 96.8925 10.8525 96.0595 10.8525C95.2442 10.8525 94.4765 11.066 93.7548 11.4911C93.0322 11.9172 92.4533 12.524 92.019 13.3104C91.5837 14.0974 91.3661 15.0088 91.3661 16.0462C91.3661 17.0827 91.5837 17.9942 92.019 18.7806C92.4533 19.5689 93.0322 20.1752 93.7548 20.6004C94.4765 21.0269 95.2442 21.2386 96.0595 21.2386C96.8925 21.2386 97.6707 21.0269 98.3924 20.6004ZM92.4213 22.4202C91.3474 21.7806 90.5094 20.9019 89.9077 19.7806C89.306 18.6607 89.0058 17.4157 89.0058 16.0462C89.0058 14.6754 89.306 13.4304 89.9077 12.3105C90.5094 11.1905 91.3474 10.311 92.4213 9.67137C93.4952 9.03316 94.7082 8.71382 96.0595 8.71382C97.4107 8.71382 98.6287 9.03316 99.7122 9.67137C100.795 10.311 101.637 11.1905 102.24 12.3105C102.841 13.4304 103.141 14.6754 103.141 16.0462C103.141 17.4157 102.841 18.6607 102.24 19.7806C101.637 20.9019 100.795 21.7806 99.7122 22.4202C98.6287 23.0584 97.4107 23.3772 96.0595 23.3772C94.7082 23.3772 93.4952 23.0584 92.4213 22.4202Z" fill="black"/>
    <path d="M114.14 20.6004C114.862 20.1752 115.44 19.5689 115.876 18.7806C116.31 17.9942 116.528 17.0827 116.528 16.0462C116.528 15.0088 116.31 14.0974 115.876 13.3104C115.44 12.524 114.862 11.9172 114.14 11.4911C113.418 11.066 112.64 10.8525 111.807 10.8525C110.992 10.8525 110.224 11.066 109.502 11.4911C108.78 11.9172 108.201 12.524 107.766 13.3104C107.331 14.0974 107.114 15.0088 107.114 16.0462C107.114 17.0827 107.331 17.9942 107.766 18.7806C108.201 19.5689 108.78 20.1752 109.502 20.6004C110.224 21.0269 110.992 21.2386 111.807 21.2386C112.64 21.2386 113.418 21.0269 114.14 20.6004ZM108.169 22.4202C107.095 21.7806 106.257 20.9019 105.655 19.7806C105.053 18.6607 104.753 17.4157 104.753 16.0462C104.753 14.6754 105.053 13.4304 105.655 12.3105C106.257 11.1905 107.095 10.311 108.169 9.67137C109.243 9.03316 110.456 8.71382 111.807 8.71382C113.158 8.71382 114.376 9.03316 115.46 9.67137C116.542 10.311 117.384 11.1905 117.987 12.3105C118.588 13.4304 118.889 14.6754 118.889 16.0462C118.889 17.4157 118.588 18.6607 117.987 19.7806C117.384 20.9019 116.542 21.7806 115.46 22.4202C114.376 23.0584 113.158 23.3772 111.807 23.3772C110.456 23.3772 109.243 23.0584 108.169 22.4202Z" fill="black"/>
    <path d="M129.637 20.6111C130.322 20.1928 130.873 19.5924 131.29 18.8105C131.706 18.0286 131.914 17.1075 131.914 16.0464C131.914 14.9853 131.706 14.0583 131.29 13.2682C130.873 12.4767 130.322 11.8759 129.637 11.4662C128.952 11.0575 128.202 10.8526 127.387 10.8526C126.572 10.8526 125.823 11.0625 125.138 11.4804C124.453 11.8996 123.902 12.4991 123.486 13.281C123.069 14.0629 122.861 14.9853 122.861 16.0464C122.861 17.1075 123.069 18.0286 123.486 18.8105C123.902 19.5924 124.453 20.1928 125.138 20.6111C125.823 21.0303 126.572 21.2388 127.387 21.2388C128.202 21.2388 128.952 21.0303 129.637 20.6111ZM123.25 28.1825C122.194 27.3865 121.481 26.4609 121.111 25.4057L123.305 24.4892C123.583 25.303 124.078 25.965 124.791 26.475C125.504 26.9837 126.35 27.2377 127.332 27.2377C128.795 27.2377 129.919 26.8139 130.707 25.965C131.494 25.1155 131.887 23.9299 131.887 22.4057V20.9336H131.775C131.332 21.638 130.692 22.221 129.859 22.684C129.026 23.1466 128.082 23.3774 127.026 23.3774C125.86 23.3774 124.777 23.0618 123.777 22.4308C122.777 21.7981 121.981 20.9245 121.389 19.8091C120.796 18.6937 120.5 17.4396 120.5 16.0464C120.5 14.6518 120.796 13.3978 121.389 12.2824C121.981 11.167 122.777 10.2934 123.777 9.66198C124.777 9.0297 125.86 8.71401 127.026 8.71401C128.082 8.71401 129.026 8.94621 129.859 9.40788C130.692 9.87183 131.332 10.4548 131.775 11.1578H131.887V9.15789H134.136V22.3775C134.136 23.8957 133.84 25.1831 133.248 26.2382C132.655 27.2934 131.845 28.0799 130.817 28.5995C129.79 29.1177 128.628 29.3768 127.332 29.3768C125.666 29.3768 124.305 28.9786 123.25 28.1825Z" fill="black"/>
    <path d="M136.969 3.04786H139.33V22.9333H136.969V3.04786Z" fill="black"/>
    <path d="M152.383 14.5187C152.346 13.9631 152.189 13.407 151.911 12.8522C151.633 12.2966 151.184 11.824 150.564 11.4353C149.943 11.0471 149.152 10.8527 148.189 10.8527C147.152 10.8527 146.254 11.1858 145.495 11.8523C144.736 12.5192 144.254 13.407 144.051 14.5187H152.383ZM144.842 22.4341C143.796 21.8041 142.977 20.9337 142.385 19.8229C141.792 18.7111 141.496 17.4534 141.496 16.0461C141.496 14.7131 141.774 13.4859 142.329 12.3659C142.885 11.246 143.676 10.3569 144.704 9.69949C145.731 9.04257 146.912 8.71366 148.245 8.71366C149.578 8.71366 150.749 9.0152 151.758 9.61601C152.767 10.2177 153.54 11.0658 154.077 12.1575C154.614 13.2505 154.882 14.5091 154.882 15.9343C154.882 16.1948 154.864 16.3795 154.827 16.4904H143.884C143.921 17.5278 144.171 18.4014 144.634 19.114C145.097 19.8279 145.676 20.3603 146.37 20.7111C147.065 21.0633 147.782 21.2384 148.523 21.2384C150.263 21.2384 151.605 20.3886 152.549 18.6842L154.632 19.6842C154.04 20.7946 153.22 21.6887 152.174 22.3643C151.129 23.0395 149.874 23.3775 148.412 23.3775C147.079 23.3775 145.889 23.0628 144.842 22.4341Z" fill="black"/>
    <path d="M169.935 20.684C172.286 20.684 174.147 20.0079 175.518 18.6562C176.887 17.3055 177.573 15.4164 177.573 12.9912C177.573 10.5652 176.887 8.67747 175.518 7.32531C174.147 5.97361 172.286 5.29753 169.935 5.29753H166.269V20.684H169.935ZM163.909 3.04804H169.935C171.972 3.04804 173.749 3.46957 175.267 4.3117C176.786 5.15474 177.952 6.32579 178.767 7.82484C179.581 9.32526 179.989 11.0469 179.989 12.9912C179.989 14.9346 179.581 16.6563 178.767 18.1567C177.952 19.6558 176.786 20.8277 175.267 21.6699C173.749 22.5129 171.972 22.9335 169.935 22.9335H163.909V3.04804Z" fill="black"/>
    <path d="M192.875 14.5187C192.838 13.9631 192.681 13.407 192.403 12.8522C192.126 12.2966 191.676 11.824 191.056 11.4353C190.435 11.0471 189.644 10.8527 188.681 10.8527C187.644 10.8527 186.746 11.1858 185.987 11.8523C185.228 12.5192 184.747 13.407 184.544 14.5187H192.875ZM185.335 22.4341C184.289 21.8041 183.469 20.9337 182.877 19.8229C182.284 18.7111 181.988 17.4534 181.988 16.0461C181.988 14.7131 182.266 13.4859 182.821 12.3659C183.377 11.246 184.168 10.3569 185.196 9.69949C186.223 9.04257 187.404 8.71365 188.737 8.71365C190.07 8.71365 191.241 9.0152 192.25 9.616C193.259 10.2177 194.032 11.0658 194.569 12.1575C195.106 13.2505 195.375 14.5091 195.375 15.9343C195.375 16.1948 195.356 16.3795 195.319 16.4904H184.377C184.413 17.5278 184.664 18.4014 185.127 19.114C185.589 19.8279 186.168 20.3603 186.862 20.7111C187.557 21.0633 188.274 21.2384 189.015 21.2384C190.755 21.2384 192.097 20.3886 193.042 18.6842L195.125 19.6842C194.532 20.7946 193.713 21.6887 192.667 22.3643C191.621 23.0395 190.366 23.3775 188.904 23.3775C187.571 23.3775 186.381 23.0628 185.335 22.4341Z" fill="black"/>
    <path d="M195.93 9.15794H198.485L202.706 20.1563H202.762L207.039 9.15794H209.539L203.901 22.9336H201.512L195.93 9.15794Z" fill="black"/>
    <path d="M221.398 14.5187C221.361 13.9631 221.204 13.407 220.926 12.8522C220.649 12.2966 220.199 11.824 219.579 11.4353C218.959 11.0471 218.167 10.8527 217.204 10.8527C216.168 10.8527 215.27 11.1858 214.511 11.8523C213.752 12.5192 213.27 13.407 213.067 14.5187H221.398ZM213.858 22.4341C212.812 21.8041 211.992 20.9337 211.4 19.8229C210.807 18.7111 210.512 17.4534 210.512 16.0461C210.512 14.7131 210.789 13.4859 211.345 12.3659C211.9 11.246 212.691 10.3569 213.719 9.69949C214.747 9.04257 215.927 8.71365 217.261 8.71365C218.593 8.71365 219.764 9.0152 220.773 9.616C221.782 10.2177 222.555 11.0658 223.093 12.1575C223.63 13.2505 223.898 14.5091 223.898 15.9343C223.898 16.1948 223.879 16.3795 223.843 16.4904H212.9C212.936 17.5278 213.187 18.4014 213.65 19.114C214.112 19.8279 214.691 20.3603 215.386 20.7111C216.08 21.0633 216.797 21.2384 217.538 21.2384C219.278 21.2384 220.62 20.3886 221.565 18.6842L223.648 19.6842C223.055 20.7946 222.236 21.6887 221.19 22.3643C220.144 23.0395 218.889 23.3775 217.427 23.3775C216.094 23.3775 214.904 23.0628 213.858 22.4341Z" fill="black"/>
    <path d="M226.286 3.04786H228.646V22.9333H226.286V3.04786Z" fill="black"/>
    <path d="M240.283 20.6004C241.005 20.1752 241.584 19.5689 242.019 18.7806C242.454 17.9942 242.671 17.0827 242.671 16.0462C242.671 15.0088 242.454 14.0974 242.019 13.3104C241.584 12.5239 241.005 11.9172 240.283 11.4911C239.561 11.066 238.783 10.8525 237.95 10.8525C237.135 10.8525 236.367 11.066 235.646 11.4911C234.923 11.9172 234.344 12.5239 233.91 13.3104C233.475 14.0974 233.257 15.0088 233.257 16.0462C233.257 17.0827 233.475 17.9942 233.91 18.7806C234.344 19.5689 234.923 20.1752 235.646 20.6004C236.367 21.0269 237.135 21.2386 237.95 21.2386C238.783 21.2386 239.561 21.0269 240.283 20.6004ZM234.312 22.4202C233.238 21.7806 232.4 20.9019 231.798 19.7806C231.197 18.6607 230.897 17.4157 230.897 16.0462C230.897 14.6754 231.197 13.4304 231.798 12.3104C232.4 11.1905 233.238 10.311 234.312 9.67137C235.386 9.03316 236.599 8.71382 237.95 8.71382C239.301 8.71382 240.52 9.03316 241.603 9.67137C242.686 10.311 243.528 11.1905 244.13 12.3104C244.732 13.4304 245.032 14.6754 245.032 16.0462C245.032 17.4157 244.732 18.6607 244.13 19.7806C243.528 20.9019 242.686 21.7806 241.603 22.4202C240.52 23.0584 239.301 23.3772 237.95 23.3772C236.599 23.3772 235.386 23.0584 234.312 22.4202Z" fill="black"/>
    <path d="M256.239 20.6005C256.934 20.1754 257.489 19.5691 257.906 18.7808C258.322 17.9943 258.53 17.0828 258.53 16.0464C258.53 15.009 258.322 14.0975 257.906 13.3106C257.489 12.5241 256.934 11.9174 256.239 11.4913C255.545 11.0661 254.79 10.8526 253.976 10.8526C253.161 10.8526 252.406 11.0611 251.712 11.4771C251.018 11.8936 250.463 12.4958 250.046 13.2823C249.63 14.0701 249.421 14.9898 249.421 16.0464C249.421 17.0828 249.63 17.9989 250.046 18.7949C250.463 19.5914 251.018 20.1977 251.712 20.6147C252.406 21.0316 253.161 21.2388 253.976 21.2388C254.79 21.2388 255.545 21.0271 256.239 20.6005ZM247.172 9.15784H249.421V11.1861H249.532C249.976 10.4817 250.615 9.89414 251.448 9.42198C252.282 8.94982 253.244 8.71396 254.337 8.71396C255.522 8.71396 256.614 9.0333 257.614 9.67151C258.613 10.3111 259.41 11.1861 260.002 12.2964C260.595 13.4073 260.891 14.6568 260.891 16.0464C260.891 17.435 260.595 18.6845 260.002 19.7949C259.41 20.9057 258.613 21.7807 257.614 22.4203C256.614 23.0585 255.522 23.3774 254.337 23.3774C253.244 23.3774 252.277 23.142 251.434 22.6698C250.592 22.1977 249.958 21.6005 249.532 20.8784H249.421L249.532 22.7944V28.9329H247.172V9.15784Z" fill="black"/>
    <path d="M273.943 14.5187C273.906 13.9631 273.749 13.407 273.471 12.8522C273.194 12.2966 272.744 11.824 272.125 11.4353C271.504 11.0471 270.712 10.8527 269.75 10.8527C268.713 10.8527 267.815 11.1858 267.056 11.8523C266.297 12.5192 265.815 13.407 265.612 14.5187H273.943ZM266.403 22.4341C265.357 21.8041 264.538 20.9337 263.945 19.8229C263.352 18.7111 263.057 17.4534 263.057 16.0461C263.057 14.7131 263.334 13.4859 263.89 12.3659C264.445 11.246 265.236 10.3569 266.264 9.69949C267.292 9.04257 268.472 8.71365 269.806 8.71365C271.138 8.71365 272.309 9.0152 273.318 9.616C274.327 10.2177 275.1 11.0658 275.638 12.1575C276.175 13.2505 276.443 14.5091 276.443 15.9343C276.443 16.1948 276.424 16.3795 276.388 16.4904H265.445C265.481 17.5278 265.732 18.4014 266.195 19.114C266.658 19.8279 267.236 20.3603 267.931 20.7111C268.625 21.0633 269.342 21.2384 270.083 21.2384C271.823 21.2384 273.166 20.3886 274.11 18.6842L276.193 19.6842C275.6 20.7946 274.781 21.6887 273.735 22.3643C272.689 23.0395 271.434 23.3775 269.972 23.3775C268.639 23.3775 267.449 23.0628 266.403 22.4341Z" fill="black"/>
    <path d="M278.831 9.15794H281.081V11.4074H281.192C281.451 10.6488 281.984 10.0106 282.789 9.49141C283.594 8.97318 284.395 8.71406 285.191 8.71406C285.765 8.71406 286.302 8.80712 286.802 8.99188V11.5192C286.302 11.2414 285.654 11.1022 284.858 11.1022C284.21 11.1022 283.603 11.2929 283.039 11.6725C282.474 12.0539 282.025 12.5593 281.692 13.1902C281.359 13.8202 281.192 14.5082 281.192 15.2499V22.9336H278.831V9.15794Z" fill="black"/>
    <path d="M298.952 22.0172C297.369 21.1103 296.119 19.8598 295.203 18.2673C294.286 16.6751 293.828 14.917 293.828 12.9914C293.828 11.0658 294.286 9.30625 295.203 7.71413C296.119 6.12201 297.369 4.8725 298.952 3.96422C300.535 3.05731 302.262 2.60385 304.132 2.60385C305.595 2.60385 306.969 2.86297 308.256 3.3812C309.543 3.89944 310.603 4.63072 311.437 5.5755L309.742 7.27025C309.112 6.49153 308.302 5.89438 307.312 5.47878C306.321 5.06182 305.261 4.85334 304.132 4.85334C302.743 4.85334 301.443 5.19138 300.23 5.86746C299.017 6.54354 298.045 7.49607 297.314 8.72825C296.582 9.9586 296.217 11.3801 296.217 12.9914C296.217 14.6013 296.582 16.0228 297.314 17.2536C298.045 18.4853 299.017 19.4392 300.23 20.1139C301.443 20.79 302.743 21.128 304.132 21.128C305.465 21.128 306.58 20.9196 307.479 20.504C308.376 20.087 309.159 19.5359 309.825 18.8503C310.307 18.332 310.696 17.7034 310.992 16.9625C311.288 16.2217 311.464 15.416 311.52 14.5456H304.188V12.3518H313.741C313.834 12.87 313.88 13.3518 313.88 13.7956C313.88 15.0182 313.686 16.2075 313.297 17.3654C312.908 18.5218 312.287 19.5359 311.437 20.4059C309.566 22.3871 307.131 23.3775 304.132 23.3775C302.262 23.3775 300.535 22.9241 298.952 22.0172Z" fill="black"/>
    <path d="M316.574 9.15794H318.824V11.4074H318.935C319.194 10.6488 319.726 10.0106 320.532 9.49142C321.337 8.97318 322.138 8.71406 322.934 8.71406C323.508 8.71406 324.045 8.80712 324.545 8.99188V11.5192C324.045 11.2414 323.396 11.1022 322.601 11.1022C321.953 11.1022 321.346 11.2929 320.782 11.6725C320.217 12.0539 319.768 12.5593 319.435 13.1902C319.101 13.8202 318.935 14.5082 318.935 15.2499V22.9336H316.574V9.15794Z" fill="black"/>
    <path d="M334.237 20.6004C334.959 20.1752 335.538 19.5689 335.973 18.7806C336.408 17.9942 336.625 17.0827 336.625 16.0462C336.625 15.0088 336.408 14.0974 335.973 13.3104C335.538 12.524 334.959 11.9172 334.237 11.4911C333.515 11.066 332.737 10.8525 331.904 10.8525C331.089 10.8525 330.321 11.066 329.599 11.4911C328.877 11.9172 328.298 12.524 327.864 13.3104C327.428 14.0974 327.211 15.0088 327.211 16.0462C327.211 17.0827 327.428 17.9942 327.864 18.7806C328.298 19.5689 328.877 20.1752 329.599 20.6004C330.321 21.0269 331.089 21.2386 331.904 21.2386C332.737 21.2386 333.515 21.0269 334.237 20.6004ZM328.266 22.4202C327.192 21.7806 326.354 20.9019 325.752 19.7806C325.151 18.6607 324.851 17.4157 324.851 16.0462C324.851 14.6754 325.151 13.4304 325.752 12.3105C326.354 11.1905 327.192 10.311 328.266 9.67137C329.34 9.03316 330.553 8.71382 331.904 8.71382C333.255 8.71382 334.473 9.03316 335.557 9.67137C336.639 10.311 337.482 11.1905 338.084 12.3105C338.685 13.4304 338.986 14.6754 338.986 16.0462C338.986 17.4157 338.685 18.6607 338.084 19.7806C337.482 20.9019 336.639 21.7806 335.557 22.4202C334.473 23.0584 333.255 23.3772 331.904 23.3772C330.553 23.3772 329.34 23.0584 328.266 22.4202Z" fill="black"/>
    <path d="M342.445 21.9053C341.565 20.9245 341.126 19.5641 341.126 17.8233V9.15789H343.486V17.4346C343.486 19.9715 344.624 21.2388 346.902 21.2388C347.661 21.2388 348.341 21.0267 348.943 20.6006C349.545 20.1754 350.008 19.6193 350.332 18.9341C350.656 18.2498 350.818 17.5277 350.818 16.7681V9.15789H353.151V22.9336H350.929V20.8784H350.818C350.411 21.5828 349.794 22.1749 348.971 22.6553C348.147 23.137 347.263 23.3774 346.319 23.3774C344.615 23.3774 343.324 22.8875 342.445 21.9053Z" fill="black"/>
    <path d="M365.301 20.6005C365.996 20.1754 366.551 19.5691 366.968 18.7808C367.384 17.9943 367.592 17.0828 367.592 16.0464C367.592 15.009 367.384 14.0975 366.968 13.3106C366.551 12.5241 365.996 11.9174 365.301 11.4913C364.607 11.0661 363.852 10.8526 363.038 10.8526C362.223 10.8526 361.468 11.0611 360.774 11.4771C360.08 11.8936 359.525 12.4958 359.108 13.2823C358.692 14.0701 358.483 14.9898 358.483 16.0464C358.483 17.0828 358.692 17.9989 359.108 18.7949C359.525 19.5914 360.08 20.1977 360.774 20.6147C361.468 21.0316 362.223 21.2388 363.038 21.2388C363.852 21.2388 364.607 21.0271 365.301 20.6005ZM356.234 9.15784H358.483V11.1861H358.594C359.038 10.4817 359.677 9.89414 360.51 9.42198C361.344 8.94982 362.306 8.71396 363.399 8.71396C364.584 8.71396 365.676 9.0333 366.676 9.67151C367.675 10.3111 368.472 11.1861 369.065 12.2965C369.657 13.4073 369.953 14.6568 369.953 16.0464C369.953 17.435 369.657 18.6845 369.065 19.7949C368.472 20.9057 367.675 21.7807 366.676 22.4203C365.676 23.0585 364.584 23.3774 363.399 23.3774C362.306 23.3774 361.339 23.142 360.496 22.6698C359.654 22.1977 359.02 21.6005 358.594 20.8784H358.483L358.594 22.7944V28.9329H356.234V9.15784Z" fill="black"/>
    <path d="M373.341 22.2669C372.322 21.526 371.609 20.61 371.202 19.5169L373.285 18.6009C373.655 19.4709 374.178 20.1378 374.854 20.6004C375.53 21.0634 376.266 21.2952 377.062 21.2952C377.95 21.2952 378.687 21.1008 379.27 20.7113C379.853 20.3226 380.145 19.8504 380.145 19.2957C380.145 18.7587 379.927 18.3144 379.492 17.9622C379.057 17.6101 378.312 17.3053 377.257 17.0462L375.368 16.574C374.331 16.3336 373.447 15.898 372.716 15.268C371.984 14.6389 371.619 13.8063 371.619 12.7689C371.619 11.9172 371.864 11.1859 372.355 10.5746C372.845 9.96334 373.498 9.50076 374.313 9.18644C375.127 8.87167 376.016 8.71382 376.979 8.71382C378.164 8.71382 379.242 8.98708 380.214 9.5336C381.186 10.0788 381.876 10.8525 382.283 11.8524L380.201 12.7406C379.904 12.0741 379.455 11.5842 378.853 11.2685C378.252 10.9537 377.581 10.7973 376.84 10.7973C376.118 10.7973 375.465 10.9729 374.882 11.3251C374.299 11.6759 374.007 12.1293 374.007 12.685C374.007 13.1667 374.197 13.5463 374.576 13.8241C374.956 14.1019 375.562 14.3515 376.396 14.5741L378.45 15.0736C379.821 15.4258 380.844 15.9486 381.52 16.6434C382.195 17.3372 382.533 18.1662 382.533 19.1283C382.533 19.9243 382.302 20.6474 381.839 21.2952C381.376 21.943 380.728 22.4516 379.895 22.823C379.062 23.1925 378.117 23.3772 377.062 23.3772C375.599 23.3772 374.359 23.0077 373.341 22.2669Z" fill="black"/>
    <path d="M52.822 17.5616L37.5317 26.4594C35.4226 27.6238 32.7767 26.845 31.6215 24.7192C30.5029 22.6614 31.1887 20.0807 33.1778 18.8615L48.4681 9.96009C50.5509 8.74823 53.2141 9.46732 54.4159 11.5666C55.6183 13.666 54.9048 16.3498 52.822 17.5616Z" fill="#34A853"/>
    <path d="M47.863 8.90293L40.7268 13.0573L33.1779 8.66019C31.0955 7.44833 30.3816 4.76452 31.584 2.66521C32.7863 0.565889 35.449 -0.153198 37.5318 1.05867L49.8235 8.21076C49.1327 8.31616 48.4677 8.55069 47.863 8.90293Z" fill="#F9AB00"/>
    <path d="M21.9516 18.3365L6.54273 9.43664C4.43055 8.24734 1.75452 8.99505 0.565223 11.1072C-0.605825 13.187 0.0999069 15.8215 2.15415 17.0368L17.563 25.9335C19.6957 27.0854 22.358 26.2907 23.5099 24.1585C24.6162 22.1115 23.9324 19.5573 21.9516 18.3365Z" fill="#4285F4"/>
    <path d="M7.15203 8.37986L14.3444 12.5335L21.9519 8.13717C24.0152 6.86575 24.6571 4.16235 23.3852 2.09899C22.1649 0.118197 19.6102 -0.565637 17.5633 0.540176L5.17717 7.69146C5.87287 7.79548 6.54256 8.02905 7.15203 8.37986Z" fill="#EA4335"/>
</svg>
