<svg xmlns="http://www.w3.org/2000/svg" width="88" height="28" viewBox="0 0 88 28" fill="none">
    <path d="M5.29999 20.0172C3.717 19.1103 2.46703 17.8598 1.55099 16.2673C0.634043 14.6751 0.176025 12.917 0.176025 10.9914C0.176025 9.06578 0.634043 7.30625 1.55099 5.71413C2.46703 4.12201 3.717 2.8725 5.29999 1.96422C6.88298 1.05731 8.60921 0.603851 10.4796 0.603851C11.9422 0.603851 13.3167 0.862968 14.6036 1.3812C15.8905 1.89944 16.9507 2.63072 17.7842 3.5755L16.0899 5.27025C15.4599 4.49153 14.6497 3.89438 13.6597 3.47878C12.6689 3.06182 11.6087 2.85334 10.4796 2.85334C9.09095 2.85334 7.79035 3.19138 6.57779 3.86746C5.36477 4.54354 4.39262 5.49607 3.66134 6.72825C2.93006 7.9586 2.5642 9.3801 2.5642 10.9914C2.5642 12.6013 2.93006 14.0228 3.66134 15.2536C4.39262 16.4853 5.36477 17.4392 6.57779 18.1139C7.79035 18.79 9.09095 19.128 10.4796 19.128C11.8126 19.128 12.928 18.9196 13.8262 18.504C14.724 18.087 15.5064 17.5359 16.1729 16.8503C16.6542 16.332 17.0433 15.7034 17.3394 14.9625C17.6359 14.2217 17.812 13.416 17.8672 12.5456H10.5353V10.3518H20.0889C20.1815 10.87 20.228 11.3518 20.228 11.7956C20.228 13.0182 20.0337 14.2075 19.645 15.3654C19.2559 16.5218 18.635 17.5359 17.7842 18.4059C15.9133 20.3871 13.4791 21.3775 10.4796 21.3775C8.60921 21.3775 6.88298 20.9241 5.29999 20.0172Z" fill="black"/>
    <path d="M31.3924 18.6004C32.1146 18.1752 32.693 17.5689 33.1283 16.7806C33.563 15.9942 33.7806 15.0827 33.7806 14.0462C33.7806 13.0088 33.563 12.0974 33.1283 11.3104C32.693 10.524 32.1146 9.91721 31.3924 9.49113C30.6707 9.06596 29.8925 8.85246 29.0595 8.85246C28.2442 8.85246 27.4765 9.06596 26.7548 9.49113C26.0322 9.91721 25.4533 10.524 25.019 11.3104C24.5837 12.0974 24.3661 13.0088 24.3661 14.0462C24.3661 15.0827 24.5837 15.9942 25.019 16.7806C25.4533 17.5689 26.0322 18.1752 26.7548 18.6004C27.4765 19.0269 28.2442 19.2386 29.0595 19.2386C29.8925 19.2386 30.6707 19.0269 31.3924 18.6004ZM25.4213 20.4202C24.3474 19.7806 23.5094 18.9019 22.9077 17.7806C22.306 16.6607 22.0058 15.4157 22.0058 14.0462C22.0058 12.6754 22.306 11.4304 22.9077 10.3105C23.5094 9.1905 24.3474 8.31096 25.4213 7.67137C26.4952 7.03316 27.7082 6.71382 29.0595 6.71382C30.4107 6.71382 31.6287 7.03316 32.7122 7.67137C33.7947 8.31096 34.6369 9.1905 35.2395 10.3105C35.8408 11.4304 36.1414 12.6754 36.1414 14.0462C36.1414 15.4157 35.8408 16.6607 35.2395 17.7806C34.6369 18.9019 33.7947 19.7806 32.7122 20.4202C31.6287 21.0584 30.4107 21.3772 29.0595 21.3772C27.7082 21.3772 26.4952 21.0584 25.4213 20.4202Z" fill="black"/>
    <path d="M47.1398 18.6004C47.862 18.1752 48.4404 17.5689 48.8756 16.7806C49.3104 15.9942 49.528 15.0827 49.528 14.0462C49.528 13.0088 49.3104 12.0974 48.8756 11.3104C48.4404 10.524 47.862 9.91721 47.1398 9.49113C46.4181 9.06596 45.6399 8.85246 44.8068 8.85246C43.9916 8.85246 43.2239 9.06596 42.5022 9.49113C41.7795 9.91721 41.2006 10.524 40.7663 11.3104C40.3311 12.0974 40.1135 13.0088 40.1135 14.0462C40.1135 15.0827 40.3311 15.9942 40.7663 16.7806C41.2006 17.5689 41.7795 18.1752 42.5022 18.6004C43.2239 19.0269 43.9916 19.2386 44.8068 19.2386C45.6399 19.2386 46.4181 19.0269 47.1398 18.6004ZM41.1687 20.4202C40.0948 19.7806 39.2568 18.9019 38.6551 17.7806C38.0534 16.6607 37.7532 15.4157 37.7532 14.0462C37.7532 12.6754 38.0534 11.4304 38.6551 10.3105C39.2568 9.1905 40.0948 8.31096 41.1687 7.67137C42.2426 7.03316 43.4556 6.71382 44.8068 6.71382C46.1581 6.71382 47.3761 7.03316 48.4596 7.67137C49.5421 8.31096 50.3843 9.1905 50.9869 10.3105C51.5882 11.4304 51.8888 12.6754 51.8888 14.0462C51.8888 15.4157 51.5882 16.6607 50.9869 17.7806C50.3843 18.9019 49.5421 19.7806 48.4596 20.4202C47.3761 21.0584 46.1581 21.3772 44.8068 21.3772C43.4556 21.3772 42.2426 21.0584 41.1687 20.4202Z" fill="black"/>
    <path d="M62.6373 18.6111C63.322 18.1928 63.8731 17.5924 64.2896 16.8105C64.7057 16.0286 64.9141 15.1075 64.9141 14.0464C64.9141 12.9853 64.7057 12.0583 64.2896 11.2682C63.8731 10.4767 63.322 9.87589 62.6373 9.46623C61.9516 9.05748 61.2021 8.85265 60.3873 8.85265C59.5721 8.85265 58.8226 9.0625 58.1378 9.48037C57.4526 9.89961 56.902 10.4991 56.4855 11.281C56.0686 12.0629 55.861 12.9853 55.861 14.0464C55.861 15.1075 56.0686 16.0286 56.4855 16.8105C56.902 17.5924 57.4526 18.1928 58.1378 18.6111C58.8226 19.0303 59.5721 19.2388 60.3873 19.2388C61.2021 19.2388 61.9516 19.0303 62.6373 18.6111ZM56.2497 26.1825C55.194 25.3865 54.481 24.4609 54.1106 23.4057L56.3049 22.4892C56.5827 23.303 57.0781 23.965 57.7911 24.475C58.5037 24.9837 59.3504 25.2377 60.3321 25.2377C61.7947 25.2377 62.9192 24.8139 63.7066 23.965C64.4935 23.1155 64.8868 21.9299 64.8868 20.4057V18.9336H64.7755C64.3316 19.638 63.6925 20.221 62.8594 20.684C62.026 21.1466 61.0821 21.3774 60.0265 21.3774C58.86 21.3774 57.777 21.0618 56.777 20.4308C55.777 19.7981 54.981 18.9245 54.3888 17.8091C53.7958 16.6937 53.5002 15.4396 53.5002 14.0464C53.5002 12.6518 53.7958 11.3978 54.3888 10.2824C54.981 9.16697 55.777 8.29336 56.777 7.66198C57.777 7.0297 58.86 6.71401 60.0265 6.71401C61.0821 6.71401 62.026 6.94621 62.8594 7.40788C63.6925 7.87183 64.3316 8.45485 64.7755 9.15784H64.8868V7.15789H67.1363V20.3775C67.1363 21.8957 66.8397 23.1831 66.2476 24.2382C65.6545 25.2934 64.8448 26.0799 63.8175 26.5995C62.7896 27.1177 61.6282 27.3768 60.3321 27.3768C58.6657 27.3768 57.3048 26.9786 56.2497 26.1825Z" fill="black"/>
    <path d="M69.9688 1.04786H72.3296V20.9333H69.9688V1.04786Z" fill="black"/>
    <path d="M85.3829 12.5187C85.346 11.9631 85.1886 11.407 84.9108 10.8522C84.6334 10.2966 84.184 9.82398 83.5641 9.4353C82.9432 9.04708 82.1517 8.85275 81.1891 8.85275C80.1522 8.85275 79.2544 9.18577 78.4953 9.85227C77.7362 10.5192 77.2545 11.407 77.0515 12.5187H85.3829ZM77.8425 20.4341C76.7964 19.8041 75.9771 18.9337 75.385 17.8229C74.7919 16.7111 74.4963 15.4534 74.4963 14.0461C74.4963 12.7131 74.7737 11.4859 75.3293 10.3659C75.885 9.24599 76.676 8.35686 77.7038 7.69949C78.7312 7.04257 79.9118 6.71366 81.2452 6.71366C82.5778 6.71366 83.7488 7.0152 84.7579 7.61601C85.767 8.21772 86.5398 9.06579 87.0772 10.1575C87.6142 11.2505 87.8824 12.5091 87.8824 13.9343C87.8824 14.1948 87.8637 14.3795 87.8272 14.4904H76.8845C76.921 15.5278 77.1714 16.4014 77.6345 17.114C78.0971 17.8279 78.676 18.3603 79.3703 18.7111C80.0646 19.0633 80.7818 19.2384 81.5226 19.2384C83.2625 19.2384 84.6051 18.3886 85.5494 16.6842L87.6324 17.6842C87.0398 18.7946 86.2205 19.6887 85.1744 20.3643C84.1289 21.0395 82.8739 21.3775 81.4118 21.3775C80.0788 21.3775 78.8885 21.0628 77.8425 20.4341Z" fill="black"/>
</svg>