<svg xmlns="http://www.w3.org/2000/svg" width="90" height="27" viewBox="0 0 90 27" fill="none">
    <path d="M5.95233 20.0172C4.36934 19.1103 3.11937 17.8598 2.20288 16.2673C1.28639 14.6751 0.828369 12.917 0.828369 10.9914C0.828369 9.06578 1.28639 7.30625 2.20288 5.71413C3.11937 4.12201 4.36934 2.8725 5.95233 1.96422C7.53532 1.05731 9.26156 0.603851 11.132 0.603851C12.5945 0.603851 13.969 0.862968 15.2559 1.3812C16.5429 1.89944 17.6031 2.63072 18.4365 3.5755L16.7422 5.27025C16.1122 4.49153 15.302 3.89438 14.3121 3.47878C13.3212 3.06182 12.261 2.85334 11.132 2.85334C9.7433 2.85334 8.44269 3.19138 7.23013 3.86746C6.01711 4.54354 5.04496 5.49607 4.31369 6.72825C3.58241 7.9586 3.21654 9.3801 3.21654 10.9914C3.21654 12.6013 3.58241 14.0228 4.31369 15.2536C5.04496 16.4853 6.01711 17.4392 7.23013 18.1139C8.44269 18.79 9.7433 19.128 11.132 19.128C12.4649 19.128 13.5803 18.9196 14.479 18.504C15.3764 18.087 16.1587 17.5359 16.8252 16.8503C17.3065 16.332 17.6957 15.7034 17.9917 14.9625C18.2883 14.2217 18.4643 13.416 18.5195 12.5456H11.1876V10.3518H20.7412C20.8338 10.87 20.8803 11.3518 20.8803 11.7956C20.8803 13.0182 20.686 14.2075 20.2973 15.3654C19.9082 16.5218 19.2873 17.5359 18.4365 18.4059C16.5657 20.3871 14.1314 21.3775 11.132 21.3775C9.26156 21.3775 7.53532 20.9241 5.95233 20.0172Z" fill="black"/>
    <path d="M23.5741 7.15794H25.824V9.40743H25.9349C26.194 8.64878 26.7264 8.01056 27.5316 7.49142C28.3372 6.97318 29.1383 6.71406 29.9343 6.71406C30.5078 6.71406 31.0447 6.80712 31.5447 6.99188V9.51919C31.0447 9.24137 30.3965 9.10223 29.6009 9.10223C28.9526 9.10223 28.3463 9.29292 27.782 9.67247C27.2168 10.0539 26.7679 10.5593 26.4349 11.1902C26.1014 11.8202 25.9349 12.5082 25.9349 13.2499V20.9336H23.5741V7.15794Z" fill="black"/>
    <path d="M41.2372 18.6004C41.9593 18.1752 42.5378 17.5689 42.973 16.7806C43.4077 15.9942 43.6253 15.0827 43.6253 14.0462C43.6253 13.0088 43.4077 12.0974 42.973 11.3104C42.5378 10.524 41.9593 9.91721 41.2372 9.49113C40.515 9.06596 39.7372 8.85246 38.9042 8.85246C38.089 8.85246 37.3212 9.06596 36.5995 9.49113C35.8769 9.91721 35.298 10.524 34.8637 11.3104C34.4285 12.0974 34.2109 13.0088 34.2109 14.0462C34.2109 15.0827 34.4285 15.9942 34.8637 16.7806C35.298 17.5689 35.8769 18.1752 36.5995 18.6004C37.3212 19.0269 38.089 19.2386 38.9042 19.2386C39.7372 19.2386 40.515 19.0269 41.2372 18.6004ZM35.266 20.4202C34.1922 19.7806 33.3541 18.9019 32.7524 17.7806C32.1507 16.6607 31.8505 15.4157 31.8505 14.0462C31.8505 12.6754 32.1507 11.4304 32.7524 10.3105C33.3541 9.1905 34.1922 8.31096 35.266 7.67137C36.3399 7.03316 37.5529 6.71382 38.9042 6.71382C40.2554 6.71382 41.4735 7.03316 42.5569 7.67137C43.6395 8.31096 44.4816 9.1905 45.0842 10.3105C45.6855 11.4304 45.9861 12.6754 45.9861 14.0462C45.9861 15.4157 45.6855 16.6607 45.0842 17.7806C44.4816 18.9019 43.6395 19.7806 42.5569 20.4202C41.4735 21.0584 40.2554 21.3772 38.9042 21.3772C37.5529 21.3772 36.3399 21.0584 35.266 20.4202Z" fill="black"/>
    <path d="M49.4445 19.9053C48.565 18.9245 48.1257 17.5641 48.1257 15.8233V7.15789H50.486V15.4346C50.486 17.9715 51.6242 19.2388 53.902 19.2388C54.6611 19.2388 55.3413 19.0267 55.943 18.6006C56.5447 18.1754 57.0078 17.6193 57.3321 16.9341C57.6556 16.2498 57.818 15.5277 57.818 14.7681V7.15789H60.1509V20.9336H57.9293V18.8784H57.818C57.4106 19.5828 56.7943 20.1749 55.9713 20.6553C55.1469 21.137 54.2628 21.3774 53.3185 21.3774C51.6151 21.3774 50.3236 20.8875 49.4445 19.9053Z" fill="black"/>
    <path d="M72.3014 18.6005C72.9957 18.1754 73.5509 17.5691 73.9678 16.7808C74.3839 15.9943 74.5924 15.0828 74.5924 14.0464C74.5924 13.009 74.3839 12.0975 73.9678 11.3106C73.5509 10.5241 72.9957 9.91735 72.3014 9.49127C71.607 9.0661 70.852 8.8526 70.0377 8.8526C69.223 8.8526 68.4684 9.06108 67.7741 9.47713C67.0802 9.89363 66.5246 10.4958 66.1076 11.2823C65.6916 12.0701 65.4831 12.9898 65.4831 14.0464C65.4831 15.0828 65.6916 15.9989 66.1076 16.7949C66.5246 17.5914 67.0802 18.1977 67.7741 18.6147C68.4684 19.0316 69.223 19.2388 70.0377 19.2388C70.852 19.2388 71.607 19.0271 72.3014 18.6005ZM63.2336 7.15784H65.4831V9.18608H65.5944C66.0383 8.48171 66.6774 7.89414 67.5104 7.42198C68.3439 6.94982 69.306 6.71396 70.3986 6.71396C71.5838 6.71396 72.6759 7.0333 73.6759 7.67151C74.6754 8.3111 75.4719 9.18608 76.0645 10.2965C76.6571 11.4073 76.9532 12.6568 76.9532 14.0464C76.9532 15.435 76.6571 16.6845 76.0645 17.7949C75.4719 18.9057 74.6754 19.7807 73.6759 20.4203C72.6759 21.0585 71.5838 21.3774 70.3986 21.3774C69.306 21.3774 68.3389 21.142 67.4963 20.6698C66.6537 20.1977 66.0196 19.6005 65.5944 18.8784H65.4831L65.5944 20.7944V26.9329H63.2336V7.15784Z" fill="black"/>
    <path d="M80.3407 20.2669C79.322 19.526 78.6094 18.61 78.202 17.5169L80.2855 16.6009C80.655 17.4709 81.1778 18.1378 81.8539 18.6004C82.5299 19.0634 83.2662 19.2952 84.0623 19.2952C84.9505 19.2952 85.6868 19.1008 86.2703 18.7113C86.8533 18.3226 87.1448 17.8504 87.1448 17.2957C87.1448 16.7587 86.9267 16.3144 86.4924 15.9622C86.0572 15.6101 85.3118 15.3053 84.2566 15.0462L82.368 14.574C81.3311 14.3336 80.4474 13.898 79.7157 13.268C78.9839 12.6389 78.619 11.8063 78.619 10.7689C78.619 9.91721 78.864 9.18594 79.3548 8.57464C79.8448 7.96334 80.4981 7.50076 81.3128 7.18644C82.1271 6.87167 83.0158 6.71382 83.9793 6.71382C85.1635 6.71382 86.242 6.98708 87.2141 7.5336C88.1863 8.07875 88.876 8.85246 89.2834 9.85243L87.2009 10.7406C86.9039 10.0741 86.455 9.58419 85.8533 9.26851C85.2516 8.95373 84.5805 8.79726 83.8401 8.79726C83.1175 8.79726 82.4652 8.97289 81.8821 9.32507C81.2987 9.67589 81.0072 10.1293 81.0072 10.685C81.0072 11.1667 81.1969 11.5463 81.5765 11.8241C81.956 12.1019 82.5623 12.3515 83.3958 12.5741L85.4505 13.0736C86.8209 13.4258 87.8437 13.9486 88.5198 14.6434C89.1954 15.3372 89.533 16.1662 89.533 17.1283C89.533 17.9243 89.3017 18.6474 88.8391 19.2952C88.3761 19.943 87.7283 20.4516 86.8952 20.823C86.0618 21.1925 85.1175 21.3772 84.0623 21.3772C82.5993 21.3772 81.3589 21.0077 80.3407 20.2669Z" fill="black"/>
</svg>