<svg xmlns="http://www.w3.org/2000/svg" width="100" height="37" viewBox="0 0 100 37" fill="none">
    <path d="M0 0.146729H3.22987V24.563H15.3034V27.6775H0V0.146729Z" fill="#4285F4"/>
    <path d="M25.1772 28.2927C23.7417 28.2927 22.46 28.0108 21.3321 27.4468C20.2042 26.8829 19.3326 26.1138 18.7174 25.1398C18.1022 24.14 17.7946 23.0121 17.7946 21.7561C17.7946 19.6797 18.5765 18.0648 20.1401 16.9113C21.7038 15.7321 23.6776 15.1425 26.0615 15.1425C27.2407 15.1425 28.3301 15.2707 29.3299 15.5271C30.3552 15.7834 31.1371 16.0782 31.6754 16.4114V15.2194C31.6754 13.7583 31.1627 12.592 30.1373 11.7204C29.112 10.8232 27.8175 10.3746 26.2538 10.3746C25.1515 10.3746 24.139 10.6182 23.2162 11.1052C22.2934 11.5666 21.5628 12.2203 21.0245 13.0662L18.5636 11.2206C19.3326 10.0414 20.3836 9.11858 21.7166 8.45211C23.0752 7.78562 24.5748 7.45238 26.2153 7.45238C28.8813 7.45238 30.9704 8.15731 32.4828 9.56718C34.0209 10.9514 34.7899 12.8483 34.7899 15.2579V27.6775H31.6754V24.8706H31.5216C30.9576 25.8191 30.1117 26.6265 28.9838 27.293C27.8559 27.9595 26.587 28.2927 25.1772 28.2927ZM25.4848 25.4089C26.587 25.4089 27.6124 25.1269 28.5608 24.563C29.5093 23.9991 30.2655 23.2429 30.8294 22.2944C31.3934 21.3459 31.6754 20.3078 31.6754 19.1799C31.0601 18.7697 30.3039 18.4365 29.4068 18.1802C28.5096 17.9238 27.5611 17.7957 26.5614 17.7957C24.767 17.7957 23.4084 18.1673 22.4856 18.9107C21.5884 19.6541 21.1398 20.6154 21.1398 21.7945C21.1398 22.8712 21.55 23.7427 22.3703 24.4092C23.1905 25.0757 24.2287 25.4089 25.4848 25.4089Z" fill="#4285F4"/>
    <path d="M47.7619 36.5981C45.4549 36.5981 43.5451 36.0598 42.0327 34.9832C40.546 33.9065 39.5463 32.612 39.0336 31.0996L41.9943 29.8308C42.4301 30.9586 43.1478 31.8687 44.1475 32.5608C45.1729 33.2785 46.3777 33.6374 47.7619 33.6374C49.787 33.6374 51.3507 33.0478 52.4529 31.8687C53.5808 30.6895 54.1448 29.0233 54.1448 26.87V24.6783H53.991C53.3501 25.6781 52.4401 26.4984 51.2609 27.1392C50.1074 27.7544 48.7873 28.062 47.3005 28.062C45.6087 28.062 44.0578 27.6262 42.648 26.7547C41.2637 25.8831 40.1615 24.6655 39.3412 23.1019C38.5209 21.5382 38.1108 19.7566 38.1108 17.7572C38.1108 15.7834 38.5209 14.0147 39.3412 12.451C40.1615 10.8617 41.2637 9.63126 42.648 8.75971C44.0578 7.88816 45.6087 7.45238 47.3005 7.45238C48.7873 7.45238 50.1074 7.77281 51.2609 8.41365C52.4401 9.02887 53.3501 9.84915 53.991 10.8745H54.1448V8.0676H57.2593V26.9085C57.2593 30.0615 56.3877 32.4582 54.6446 34.0988C52.9015 35.765 50.6073 36.5981 47.7619 36.5981ZM47.7619 25.1013C48.9411 25.1013 50.0049 24.8065 50.9533 24.2169C51.9274 23.6274 52.6964 22.7814 53.2604 21.6792C53.85 20.5769 54.1448 19.2696 54.1448 17.7572C54.1448 16.2192 53.85 14.899 53.2604 13.7968C52.6964 12.6945 51.9274 11.8614 50.9533 11.2975C50.0049 10.7079 48.9411 10.4131 47.7619 10.4131C46.5828 10.4131 45.5061 10.7079 44.5321 11.2975C43.558 11.887 42.7761 12.733 42.1866 13.8352C41.6226 14.9375 41.3406 16.2448 41.3406 17.7572C41.3406 19.2696 41.6226 20.5897 42.1866 21.7176C42.7761 22.8199 43.558 23.6658 44.5321 24.2554C45.5061 24.8193 46.5828 25.1013 47.7619 25.1013Z" fill="#4285F4"/>
    <path d="M70.9399 28.2927C69.0174 28.2927 67.2871 27.8313 65.7491 26.9085C64.2111 25.9857 63.0063 24.7296 62.1347 23.1403C61.2888 21.551 60.8658 19.7951 60.8658 17.8726C60.8658 15.95 61.2888 14.1941 62.1347 12.6048C63.0063 11.0155 64.2111 9.75943 65.7491 8.83661C67.2871 7.91379 69.0174 7.45238 70.9399 7.45238C72.8625 7.45238 74.5928 7.91379 76.1308 8.83661C77.6688 9.75943 78.8608 11.0155 79.7067 12.6048C80.5783 14.1941 81.0141 15.95 81.0141 17.8726C81.0141 19.7951 80.5783 21.551 79.7067 23.1403C78.8608 24.7296 77.6688 25.9857 76.1308 26.9085C74.5928 27.8313 72.8625 28.2927 70.9399 28.2927ZM70.9399 25.332C72.1447 25.332 73.2598 25.0372 74.2852 24.4476C75.3362 23.8324 76.1693 22.9609 76.7845 21.833C77.4253 20.7051 77.7457 19.385 77.7457 17.8726C77.7457 16.3602 77.4253 15.04 76.7845 13.9121C76.1693 12.7842 75.3362 11.9255 74.2852 11.3359C73.2598 10.7207 72.1447 10.4131 70.9399 10.4131C69.7352 10.4131 68.6073 10.7207 67.5563 11.3359C66.5053 11.9255 65.6594 12.7842 65.0185 13.9121C64.4033 15.04 64.0957 16.3602 64.0957 17.8726C64.0957 19.385 64.4033 20.7051 65.0185 21.833C65.6594 22.9609 66.5053 23.8324 67.5563 24.4476C68.6073 25.0372 69.7352 25.332 70.9399 25.332Z" fill="#4285F4"/>
    <path d="M91.4658 28.2927C89.3638 28.2927 87.6079 27.8057 86.198 26.8316C84.7882 25.8319 83.7884 24.563 83.1989 23.025L86.1211 21.7176C86.6082 22.8968 87.3259 23.8068 88.2744 24.4476C89.2484 25.0885 90.3123 25.4089 91.4658 25.4089C92.6962 25.4089 93.7472 25.1654 94.6187 24.6783C95.4903 24.1657 95.9261 23.4479 95.9261 22.5251C95.9261 21.7048 95.58 21.0512 94.8879 20.5641C94.1958 20.0514 93.1063 19.6157 91.6196 19.2568L89.2356 18.6416C87.672 18.2571 86.3903 17.6034 85.3905 16.6806C84.3908 15.7578 83.891 14.5658 83.891 13.1047C83.891 11.9768 84.2242 10.9899 84.8907 10.1439C85.5828 9.27239 86.4928 8.60591 87.6207 8.1445C88.7486 7.68309 89.9662 7.45238 91.2735 7.45238C92.991 7.45238 94.5162 7.82407 95.8492 8.56746C97.2078 9.31084 98.169 10.349 98.733 11.682L95.8876 12.9893C95.0161 11.2462 93.4652 10.3746 91.2351 10.3746C90.1584 10.3746 89.21 10.631 88.3897 11.1437C87.5951 11.6307 87.1977 12.2587 87.1977 13.0278C87.1977 13.7455 87.4797 14.3351 88.0437 14.7965C88.6076 15.2323 89.4535 15.5911 90.5814 15.8731L93.4268 16.6037C95.3493 17.0907 96.7976 17.8213 97.7717 18.7954C98.7458 19.7438 99.2328 20.9102 99.2328 22.2944C99.2328 23.4992 98.8868 24.563 98.1947 25.4858C97.5026 26.383 96.5669 27.0751 95.3878 27.5622C94.2086 28.0492 92.9013 28.2927 91.4658 28.2927Z" fill="#4285F4"/>
</svg>