<svg viewBox="0 0 50 24" fill="none" xmlns="http://www.w3.org/2000/svg">
    <path d="M19.8617 16.5908L5.91984 8.53826C4.00875 7.46218 1.58749 8.1387 0.511413 10.0498C-0.548149 11.9316 0.0903956 14.3153 1.94907 15.4149L15.891 23.4646C17.8206 24.5068 20.2295 23.7878 21.2717 21.8585C22.2727 20.0065 21.6539 17.6954 19.8617 16.5908Z" fill="#4285F4"/>
    <path d="M47.6647 8.53829L33.7228 0.489008C31.7997 -0.564362 29.3871 0.140224 28.3337 2.06328C27.3138 3.92484 27.9391 6.25943 29.7528 7.36233L43.6947 15.4149C45.5938 16.5112 48.0221 15.8607 49.118 13.9616C50.2143 12.0625 49.5638 9.63459 47.6647 8.53829Z" fill="#34A853"/>
    <path d="M43.1428 16.3712L36.636 12.613L29.7528 16.5908C27.8541 17.6871 27.2031 20.115 28.2994 22.0141C29.3957 23.9132 31.8236 24.5637 33.7227 23.4674L44.9305 16.9974C44.3006 16.902 43.6943 16.6899 43.1428 16.3712Z" fill="#F9AB00"/>
    <path d="M6.47105 7.58198L12.9787 11.3402L19.8619 7.36239C21.7288 6.21202 22.3096 3.76598 21.1588 1.89906C20.0547 0.106844 17.7432 -0.511888 15.8911 0.488649L4.6842 6.95912C5.31367 7.05323 5.9196 7.26456 6.47105 7.58198Z" fill="#EA4335"/>
</svg>
