<svg xmlns="http://www.w3.org/2000/svg" width="101" height="34" viewBox="0 0 101 34" fill="none">
    <path d="M0.284595 28.0015C1.2734 27.0127 3.22011 25.066 6.12472 22.1614C9.02933 19.2259 10.9606 17.2328 11.9185 16.1822C13.2163 14.7917 14.097 13.6639 14.5605 12.7987C15.0549 11.9335 15.3021 10.8983 15.3021 9.69322C15.3021 8.48811 14.8386 7.43751 13.9116 6.5414C12.9845 5.6453 11.7331 5.19725 10.1572 5.19725C8.70488 5.19725 7.51523 5.62985 6.58822 6.49505C5.69212 7.32936 5.10502 8.30271 4.82691 9.41512L0.191895 7.51476C0.500896 6.40236 1.07255 5.3054 1.90685 4.2239C2.77206 3.14239 3.91536 2.23084 5.33677 1.48923C6.75817 0.747632 8.39588 0.376831 10.2499 0.376831C12.2584 0.376831 14.0352 0.793983 15.5802 1.62829C17.1561 2.43169 18.3612 3.54409 19.1955 4.9655C20.0607 6.356 20.4933 7.90101 20.4933 9.60052C20.4933 11.4236 20.0143 13.1849 19.0564 14.8844C18.1294 16.553 16.9398 18.1135 15.4875 19.5658C14.8695 20.1529 13.309 21.6979 10.8061 24.2008C8.27228 26.7346 7.00537 28.0015 7.00537 28.0015L7.09807 28.1869H20.9104V32.822H0.284595V28.0015Z" fill="#F9AB00"/>
    <path d="M37.5059 33.8213C34.8902 33.8213 32.5858 33.0895 30.5928 31.626C28.5999 30.1312 27.0584 28.1227 25.9685 25.6003C24.9098 23.0468 24.3804 20.2131 24.3804 17.0991C24.3804 13.9539 24.9098 11.1202 25.9685 8.59783C27.0584 6.04434 28.5999 4.0358 30.5928 2.57221C32.5858 1.10862 34.8902 0.376831 37.5059 0.376831C40.1217 0.376831 42.4105 1.10862 44.3723 2.57221C46.3653 4.0358 47.8912 6.04434 48.9499 8.59783C50.0398 11.1202 50.5848 13.9539 50.5848 17.0991C50.5848 20.2131 50.0398 23.0468 48.9499 25.6003C47.8912 28.1227 46.3653 30.1312 44.3723 31.626C42.3794 33.0895 40.0906 33.8213 37.5059 33.8213ZM37.5059 28.9635C39.0941 28.9635 40.4798 28.4497 41.6631 27.422C42.8776 26.3633 43.7962 24.9464 44.419 23.1714C45.073 21.3653 45.4 19.3412 45.4 17.0991C45.4 14.857 45.073 12.8329 44.419 11.0268C43.7962 9.22063 42.8776 7.80375 41.6631 6.77613C40.4798 5.74851 39.0941 5.23469 37.5059 5.23469C35.8867 5.23469 34.4853 5.74851 33.302 6.77613C32.1187 7.80375 31.2001 9.22063 30.5461 11.0268C29.9233 12.8329 29.6119 14.857 29.6119 17.0991C29.6119 19.3412 29.9233 21.3653 30.5461 23.1714C31.2001 24.9464 32.1187 26.3633 33.302 27.422C34.4853 28.4497 35.8867 28.9635 37.5059 28.9635Z" fill="#F9AB00"/>
    <path d="M54.1476 28.0015C55.1364 27.0127 57.0831 25.066 59.9878 22.1614C62.8924 19.2259 64.8236 17.2328 65.7815 16.1822C67.0793 14.7917 67.96 13.6639 68.4235 12.7987C68.9179 11.9335 69.1651 10.8983 69.1651 9.69322C69.1651 8.48811 68.7016 7.43751 67.7746 6.5414C66.8476 5.6453 65.5961 5.19725 64.0202 5.19725C62.5679 5.19725 61.3783 5.62985 60.4513 6.49505C59.5552 7.32936 58.9681 8.30271 58.69 9.41512L54.0549 7.51476C54.3639 6.40236 54.9356 5.3054 55.7699 4.2239C56.6351 3.14239 57.7784 2.23084 59.1998 1.48923C60.6212 0.747632 62.2589 0.376831 64.1129 0.376831C66.1214 0.376831 67.8982 0.793983 69.4432 1.62829C71.0191 2.43169 72.2242 3.54409 73.0585 4.9655C73.9237 6.356 74.3563 7.90101 74.3563 9.60052C74.3563 11.4236 73.8774 13.1849 72.9195 14.8844C71.9925 16.553 70.8028 18.1135 69.3505 19.5658C68.7325 20.1529 67.172 21.6979 64.6691 24.2008C62.1353 26.7346 60.8684 28.0015 60.8684 28.0015L60.9611 28.1869H74.7735V32.822H54.1476V28.0015Z" fill="#F9AB00"/>
    <path d="M89.1738 33.8213C86.7761 33.8213 84.5495 33.1363 82.4943 31.7661C80.439 30.3648 79.0222 28.3251 78.2437 25.6471L83.0081 23.6852C83.4441 25.3356 84.1914 26.6124 85.2502 27.5155C86.3401 28.4185 87.648 28.8701 89.1738 28.8701C90.7308 28.8701 92.0699 28.403 93.1909 27.4687C94.312 26.5034 94.8725 25.2889 94.8725 23.8254C94.8725 22.3306 94.2808 21.1162 93.0975 20.182C91.9142 19.2166 90.435 18.7339 88.66 18.7339H85.9041V14.0162H88.3798C89.9056 14.0162 91.1824 13.6114 92.21 12.8017C93.2688 11.961 93.7982 10.8243 93.7982 9.3919C93.7982 8.11515 93.331 7.1031 92.3968 6.35574C91.4626 5.57723 90.2793 5.18798 88.8469 5.18798C87.4456 5.18798 86.3245 5.56167 85.4837 6.30903C84.6741 7.05639 84.0824 7.97503 83.7087 9.06493L78.991 7.1031C79.6138 5.32811 80.766 3.77111 82.4476 2.43208C84.1291 1.06191 86.2778 0.376831 88.8936 0.376831C90.8243 0.376831 92.5525 0.750512 94.0784 1.49788C95.6354 2.24524 96.8499 3.28843 97.7218 4.62746C98.5937 5.93535 99.0297 7.4145 99.0297 9.06493C99.0297 10.7465 98.6249 12.1789 97.8152 13.3623C97.0056 14.5145 96.0091 15.4019 94.8258 16.0247V16.305C96.3828 16.959 97.6595 17.9554 98.656 19.2945C99.6525 20.6335 100.151 22.2372 100.151 24.1056C100.151 25.974 99.6681 27.64 98.7027 29.1036C97.7685 30.5672 96.4606 31.7194 94.7791 32.5602C93.1286 33.4009 91.2602 33.8213 89.1738 33.8213Z" fill="#F9AB00"/>
</svg>