<svg width="40" height="40" viewBox="0 0 40 40" fill="none" xmlns="http://www.w3.org/2000/svg">
    <path d="M19.9484 36.6673C29.1534 36.6673 36.6151 29.2057 36.6151 20.0007C36.6151 10.7957 29.1534 3.33398 19.9484 3.33398C10.7434 3.33398 3.28174 10.7957 3.28174 20.0007C3.28174 29.2057 10.7434 36.6673 19.9484 36.6673Z" fill="white"/>
    <path d="M24.9501 17.0525L20.1168 14.2691C18.9168 13.5691 17.4668 13.5691 16.2668 14.2691C15.0668 14.9691 14.3501 16.2025 14.3501 17.6025V23.1858C14.3501 24.5691 15.0668 25.8191 16.2668 26.5191C16.8487 26.8581 17.51 27.0366 18.1834 27.0366C18.8568 27.0366 19.5182 26.8581 20.1001 26.5191L24.9334 23.7358C26.1334 23.0358 26.8501 21.8025 26.8501 20.4025C26.8834 19.0025 26.1668 17.7525 24.9501 17.0525Z" fill="black"/>
</svg>
