<svg width="40" height="41" viewBox="0 0 40 41" fill="none" xmlns="http://www.w3.org/2000/svg">
    <rect x="0.5" y="1" width="39" height="39" rx="19.5" fill="#FFFAEB"/>
    <rect x="0.5" y="1" width="39" height="39" rx="19.5" stroke="#E6E6E6"/>
    <path d="M29.9375 16.5113C29.7263 16.2719 29.4666 16.0803 29.1757 15.949C28.8847 15.8178 28.5692 15.7499 28.25 15.75H23V14.25C23 13.2554 22.6049 12.3016 21.9017 11.5983C21.1984 10.8951 20.2446 10.5 19.25 10.5C19.1107 10.4999 18.9741 10.5386 18.8555 10.6118C18.7369 10.685 18.6411 10.7898 18.5787 10.9144L15.0369 18H11C10.6022 18 10.2206 18.158 9.93934 18.4393C9.65804 18.7206 9.5 19.1022 9.5 19.5V27.75C9.5 28.1478 9.65804 28.5294 9.93934 28.8107C10.2206 29.092 10.6022 29.25 11 29.25H27.125C27.6732 29.2502 28.2025 29.0503 28.6137 28.6878C29.0249 28.3253 29.2896 27.8251 29.3581 27.2812L30.4831 18.2812C30.523 17.9644 30.495 17.6427 30.4009 17.3375C30.3068 17.0323 30.1488 16.7507 29.9375 16.5113ZM11 19.5H14.75V27.75H11V19.5ZM28.9944 18.0938L27.8694 27.0938C27.8465 27.275 27.7583 27.4418 27.6212 27.5626C27.4842 27.6834 27.3077 27.7501 27.125 27.75H16.25V18.9272L19.6916 12.0431C20.2016 12.1452 20.6606 12.4209 20.9903 12.8233C21.32 13.2256 21.5001 13.7298 21.5 14.25V16.5C21.5 16.6989 21.579 16.8897 21.7197 17.0303C21.8603 17.171 22.0511 17.25 22.25 17.25H28.25C28.3564 17.25 28.4616 17.2726 28.5587 17.3163C28.6557 17.3601 28.7423 17.424 28.8127 17.5038C28.8831 17.5836 28.9357 17.6775 28.967 17.7792C28.9984 17.8809 29.0077 17.9882 28.9944 18.0938Z" fill="black"/>
</svg>
