<svg width="40" height="41" viewBox="0 0 40 41" fill="none" xmlns="http://www.w3.org/2000/svg">
    <rect x="0.5" y="1" width="39" height="39" rx="19.5" fill="#FFFAEB"/>
    <rect x="0.5" y="1" width="39" height="39" rx="19.5" stroke="#E6E6E6"/>
    <path d="M28.7806 21.531L22.0306 28.281C21.8899 28.4218 21.699 28.5008 21.5 28.5008C21.301 28.5008 21.1101 28.4218 20.9694 28.281C20.8286 28.1403 20.7496 27.9494 20.7496 27.7504C20.7496 27.5514 20.8286 27.3605 20.9694 27.2198L26.4397 21.7504H11.75C11.5511 21.7504 11.3603 21.6714 11.2197 21.5307C11.079 21.3901 11 21.1993 11 21.0004C11 20.8015 11.079 20.6107 11.2197 20.4701C11.3603 20.3294 11.5511 20.2504 11.75 20.2504H26.4397L20.9694 14.781C20.8286 14.6403 20.7496 14.4494 20.7496 14.2504C20.7496 14.0514 20.8286 13.8605 20.9694 13.7198C21.1101 13.5791 21.301 13.5 21.5 13.5C21.699 13.5 21.8899 13.5791 22.0306 13.7198L28.7806 20.4698C28.8504 20.5394 28.9057 20.6222 28.9434 20.7132C28.9812 20.8043 29.0006 20.9019 29.0006 21.0004C29.0006 21.099 28.9812 21.1966 28.9434 21.2876C28.9057 21.3787 28.8504 21.4614 28.7806 21.531Z" fill="black"/>
</svg>
