<svg width="24" height="16" viewBox="0 0 24 16" fill="none" xmlns="http://www.w3.org/2000/svg">
    <path d="M11.3535 8.35403L6.35354 13.354C6.30708 13.4005 6.25193 13.4373 6.19124 13.4625C6.13054 13.4876 6.06549 13.5006 5.99979 13.5006C5.93409 13.5006 5.86904 13.4876 5.80834 13.4625C5.74764 13.4373 5.69249 13.4005 5.64604 13.354C5.59958 13.3076 5.56273 13.2524 5.53759 13.1917C5.51245 13.131 5.49951 13.066 5.49951 13.0003C5.49951 12.9346 5.51245 12.8695 5.53759 12.8088C5.56273 12.7481 5.59958 12.693 5.64604 12.6465L10.2929 8.00028L5.64604 3.35403C5.55222 3.26021 5.49951 3.13296 5.49951 3.00028C5.49951 2.8676 5.55222 2.74035 5.64604 2.64653C5.73986 2.55271 5.86711 2.5 5.99979 2.5C6.13247 2.5 6.25972 2.55271 6.35354 2.64653L11.3535 7.64653C11.4 7.69296 11.4369 7.74811 11.4621 7.80881C11.4872 7.86951 11.5002 7.93457 11.5002 8.00028C11.5002 8.06599 11.4872 8.13105 11.4621 8.19175C11.4369 8.25245 11.4 8.30759 11.3535 8.35403Z" fill="black"/>
    <path d="M19.3535 8.35403L14.3535 13.354C14.3071 13.4005 14.2519 13.4373 14.1912 13.4625C14.1305 13.4876 14.0655 13.5006 13.9998 13.5006C13.9341 13.5006 13.869 13.4876 13.8083 13.4625C13.7476 13.4373 13.6925 13.4005 13.646 13.354C13.5996 13.3076 13.5627 13.2524 13.5376 13.1917C13.5125 13.131 13.4995 13.066 13.4995 13.0003C13.4995 12.9346 13.5125 12.8695 13.5376 12.8088C13.5627 12.7481 13.5996 12.693 13.646 12.6465L18.2929 8.00028L13.646 3.35403C13.5522 3.26021 13.4995 3.13296 13.4995 3.00028C13.4995 2.8676 13.5522 2.74035 13.646 2.64653C13.7399 2.55271 13.8671 2.5 13.9998 2.5C14.1325 2.5 14.2597 2.55271 14.3535 2.64653L19.3535 7.64653C19.4 7.69296 19.4369 7.74811 19.4621 7.80881C19.4872 7.86951 19.5002 7.93457 19.5002 8.00028C19.5002 8.06599 19.4872 8.13105 19.4621 8.19175C19.4369 8.25245 19.4 8.30759 19.3535 8.35403Z" fill="black"/>
</svg>
