<svg width="40" height="41" viewBox="0 0 40 41" fill="none" xmlns="http://www.w3.org/2000/svg">
    <rect x="0.5" y="1" width="39" height="39" rx="19.5" fill="#FFFAEB"/>
    <rect x="0.5" y="1" width="39" height="39" rx="19.5" stroke="#E6E6E6"/>
    <path d="M30.4999 14.25V20.25C30.4999 20.4489 30.4209 20.6397 30.2803 20.7803C30.1396 20.921 29.9488 21 29.7499 21C29.551 21 29.3603 20.921 29.2196 20.7803C29.0789 20.6397 28.9999 20.4489 28.9999 20.25V16.0603L21.2806 23.7806C21.2109 23.8504 21.1282 23.9057 21.0371 23.9434C20.9461 23.9812 20.8485 24.0006 20.7499 24.0006C20.6514 24.0006 20.5538 23.9812 20.4627 23.9434C20.3717 23.9057 20.289 23.8504 20.2193 23.7806L16.9999 20.5603L10.7806 26.7806C10.6398 26.9214 10.449 27.0004 10.2499 27.0004C10.0509 27.0004 9.86003 26.9214 9.7193 26.7806C9.57857 26.6399 9.49951 26.449 9.49951 26.25C9.49951 26.051 9.57857 25.8601 9.7193 25.7194L16.4693 18.9694C16.539 18.8996 16.6217 18.8443 16.7127 18.8066C16.8038 18.7688 16.9014 18.7494 16.9999 18.7494C17.0985 18.7494 17.1961 18.7688 17.2871 18.8066C17.3782 18.8443 17.4609 18.8996 17.5306 18.9694L20.7499 22.1897L27.9396 15H23.7499C23.551 15 23.3603 14.921 23.2196 14.7803C23.0789 14.6397 22.9999 14.4489 22.9999 14.25C22.9999 14.0511 23.0789 13.8603 23.2196 13.7197C23.3603 13.579 23.551 13.5 23.7499 13.5H29.7499C29.9488 13.5 30.1396 13.579 30.2803 13.7197C30.4209 13.8603 30.4999 14.0511 30.4999 14.25Z" fill="black"/>
</svg>
