<svg width="40" height="40" viewBox="0 0 40 40" fill="none" xmlns="http://www.w3.org/2000/svg">
    <rect x="0.5" y="0.5" width="39" height="39" rx="19.5" fill="#FFFAEB"/>
    <rect x="0.5" y="0.5" width="39" height="39" rx="19.5" stroke="#E6E6E6"/>
    <path d="M30.5004 20.7504V26.7504C30.5004 26.9493 30.4214 27.1401 30.2807 27.2807C30.1401 27.4214 29.9493 27.5004 29.7504 27.5004H23.7504C23.5515 27.5004 23.3607 27.4214 23.2201 27.2807C23.0794 27.1401 23.0004 26.9493 23.0004 26.7504C23.0004 26.5515 23.0794 26.3607 23.2201 26.2201C23.3607 26.0794 23.5515 26.0004 23.7504 26.0004H27.9401L20.7504 18.8107L17.531 22.031C17.4614 22.1008 17.3787 22.1561 17.2876 22.1938C17.1966 22.2316 17.099 22.251 17.0004 22.251C16.9019 22.251 16.8043 22.2316 16.7132 22.1938C16.6222 22.1561 16.5394 22.1008 16.4698 22.031L9.71979 15.281C9.57906 15.1403 9.5 14.9494 9.5 14.7504C9.5 14.5514 9.57906 14.3605 9.71979 14.2198C9.86052 14.0791 10.0514 14 10.2504 14C10.4494 14 10.6403 14.0791 10.781 14.2198L17.0004 20.4401L20.2198 17.2198C20.2894 17.1501 20.3722 17.0947 20.4632 17.057C20.5543 17.0193 20.6519 16.9998 20.7504 16.9998C20.849 16.9998 20.9466 17.0193 21.0376 17.057C21.1287 17.0947 21.2114 17.1501 21.281 17.2198L29.0004 24.9401V20.7504C29.0004 20.5515 29.0794 20.3607 29.2201 20.2201C29.3607 20.0794 29.5515 20.0004 29.7504 20.0004C29.9493 20.0004 30.1401 20.0794 30.2807 20.2201C30.4214 20.3607 30.5004 20.5515 30.5004 20.7504Z" fill="black"/>
</svg>
