<svg width="40" height="41" viewBox="0 0 40 41" fill="none" xmlns="http://www.w3.org/2000/svg">
    <rect x="0.5" y="1" width="39" height="39" rx="19.5" fill="#FFFAEB"/>
    <rect x="0.5" y="1" width="39" height="39" rx="19.5" stroke="#E6E6E6"/>
    <path d="M28.0306 17.031L23.5306 21.531C23.3899 21.6718 23.199 21.7508 23 21.7508C22.801 21.7508 22.6101 21.6718 22.4694 21.531C22.3286 21.3903 22.2496 21.1994 22.2496 21.0004C22.2496 20.8014 22.3286 20.6105 22.4694 20.4698L25.6897 17.2504H14.75V30.0004C14.75 30.1993 14.671 30.3901 14.5303 30.5307C14.3897 30.6714 14.1989 30.7504 14 30.7504C13.8011 30.7504 13.6103 30.6714 13.4697 30.5307C13.329 30.3901 13.25 30.1993 13.25 30.0004V16.5004C13.25 16.3015 13.329 16.1107 13.4697 15.9701C13.6103 15.8294 13.8011 15.7504 14 15.7504H25.6897L22.4694 12.531C22.3286 12.3903 22.2496 12.1994 22.2496 12.0004C22.2496 11.8014 22.3286 11.6105 22.4694 11.4698C22.6101 11.3291 22.801 11.25 23 11.25C23.199 11.25 23.3899 11.3291 23.5306 11.4698L28.0306 15.9698C28.1004 16.0394 28.1557 16.1222 28.1934 16.2132C28.2312 16.3043 28.2506 16.4019 28.2506 16.5004C28.2506 16.599 28.2312 16.6966 28.1934 16.7876C28.1557 16.8787 28.1004 16.9614 28.0306 17.031Z" fill="black"/>
</svg>
