<svg width="40" height="40" viewBox="0 0 40 40" fill="none" xmlns="http://www.w3.org/2000/svg">
    <rect x="0.5" y="0.5" width="39" height="39" rx="19.5" fill="#FFFAEB"/>
    <rect x="0.5" y="0.5" width="39" height="39" rx="19.5" stroke="#E6E6E6"/>
    <path d="M26.7498 15.5004V29.0004C26.7498 29.1993 26.6707 29.3901 26.5301 29.5307C26.3894 29.6714 26.1987 29.7504 25.9998 29.7504C25.8009 29.7504 25.6101 29.6714 25.4694 29.5307C25.3288 29.3901 25.2498 29.1993 25.2498 29.0004V16.2504H14.3101L17.5304 19.4698C17.6711 19.6105 17.7502 19.8014 17.7502 20.0004C17.7502 20.1994 17.6711 20.3903 17.5304 20.531C17.3897 20.6718 17.1988 20.7508 16.9998 20.7508C16.8007 20.7508 16.6099 20.6718 16.4691 20.531L11.9691 16.031L11.9635 16.0245C11.9485 16.0095 11.9335 15.9926 11.9195 15.9757L11.8979 15.9467C11.8902 15.9371 11.883 15.927 11.8763 15.9167L11.8548 15.882C11.8489 15.8729 11.8436 15.8635 11.8388 15.8539C11.8323 15.8426 11.8266 15.8304 11.821 15.8182C11.8154 15.806 11.8116 15.7985 11.807 15.7873C11.8023 15.776 11.7985 15.7639 11.7938 15.7526L11.7816 15.7189L11.7732 15.6823C11.7732 15.6701 11.7666 15.6589 11.7638 15.6476C11.761 15.6364 11.7638 15.6185 11.7582 15.6045C11.7526 15.5904 11.7582 15.5848 11.7535 15.5745C11.7488 15.5252 11.7488 15.4756 11.7535 15.4264C11.7535 15.416 11.7535 15.4067 11.7582 15.3964C11.7629 15.386 11.7582 15.3673 11.7638 15.3532C11.7695 15.3392 11.7695 15.3307 11.7732 15.3185L11.7816 15.282L11.7938 15.2482C11.7985 15.237 11.8023 15.2248 11.807 15.2135C11.8116 15.2023 11.8163 15.1929 11.821 15.1826C11.8257 15.1723 11.8323 15.1582 11.8388 15.147C11.8436 15.1373 11.8489 15.1279 11.8548 15.1189L11.8763 15.0842C11.883 15.0738 11.8902 15.0638 11.8979 15.0542L11.9195 15.0251C11.9335 15.0082 11.9485 14.9914 11.9635 14.9764L11.9691 14.9698L16.4691 10.4698C16.6099 10.3291 16.8007 10.25 16.9998 10.25C17.1988 10.25 17.3897 10.3291 17.5304 10.4698C17.6711 10.6105 17.7502 10.8014 17.7502 11.0004C17.7502 11.1994 17.6711 11.3903 17.5304 11.531L14.3101 14.7504H25.9998C26.1987 14.7504 26.3894 14.8294 26.5301 14.9701C26.6707 15.1107 26.7498 15.3015 26.7498 15.5004Z" fill="black"/>
</svg>
