<svg viewBox="0 0 40 39" fill="none" xmlns="http://www.w3.org/2000/svg">
    <path d="M16.9933 3.13516C17.7991 -0.0508738 22.3259 -0.0508728 23.1317 3.13516C23.6926 5.35268 26.348 6.26173 28.1501 4.85301L29.0386 4.15845C31.4628 2.26334 34.783 4.94556 33.4398 7.71403C32.4578 9.73793 34.0506 12.0617 36.2925 11.8758L36.9853 11.8183C39.999 11.5684 41.1851 15.6329 38.51 17.0431C36.5337 18.0849 36.5337 20.9151 38.51 21.9569C41.1851 23.3671 39.999 27.4316 36.9853 27.1817L36.2925 27.1242C34.0506 26.9383 32.4578 29.2621 33.4398 31.286C34.783 34.0544 31.4628 36.7367 29.0386 34.8415L28.1501 34.147C26.348 32.7383 23.6926 33.6473 23.1317 35.8648C22.3259 39.0509 17.7991 39.0509 16.9933 35.8648C16.4324 33.6473 13.777 32.7383 11.9749 34.147L11.0864 34.8415C8.66215 36.7367 5.34199 34.0544 6.68522 31.286C7.6672 29.2621 6.07437 26.9383 3.83252 27.1242L3.13972 27.1817C0.125953 27.4316 -1.06013 23.3671 1.61502 21.9569C3.59128 20.9151 3.59128 18.0849 1.61502 17.0431C-1.06013 15.6329 0.125957 11.5684 3.13972 11.8183L3.83252 11.8758C6.07438 12.0617 7.6672 9.73793 6.68522 7.71402C5.34199 4.94556 8.66215 2.26333 11.0864 4.15845L11.9749 4.85301C13.777 6.26173 16.4324 5.35268 16.9933 3.13516Z" fill="black"/>
</svg>
