<svg width="323" height="73" viewBox="0 0 323 73" fill="none" xmlns="http://www.w3.org/2000/svg">
    <path d="M20.642 46.0553V29.2103C18.9518 27.8213 16.8386 26.976 14.6046 26.976C9.7745 26.976 6.93631 30.6591 6.93631 37.6025C6.93631 44.2438 9.59302 47.9269 14.4836 47.9269C16.6574 47.9269 18.8913 47.2023 20.642 46.0553ZM29.5783 50.4024L23.2385 53.8442L21.1857 49.3761C19.0725 51.9723 15.9328 53.8442 11.8874 53.8442C4.15928 53.8442 0.113892 47.4439 0.113892 37.542C0.113892 26.7952 4.88353 20.9988 12.491 20.9988C16.0535 20.9988 18.8308 22.327 20.642 24.8026V8.98367H27.1629V45.5723L29.5783 50.4024Z" fill="white"/>
    <path d="M40.928 33.6176H56.3245C56.0224 28.9081 53.7884 26.6742 49.6224 26.6742C45.0937 26.6742 41.9547 29.2704 40.928 33.6176ZM61.9394 38.1456H40.5657C40.9882 43.6402 45.2752 47.3233 52.0375 47.3233C55.4789 47.3233 59.2225 46.5987 61.7582 45.2705L59.7055 51.9719C57.5919 53.1197 54.0297 53.8442 49.9239 53.8442C40.2034 53.8442 33.8035 47.2628 33.8035 37.2399C33.8035 27.1568 39.9013 20.9988 49.6224 20.9988C57.6523 20.9988 62.7241 25.5873 62.7241 33.0137C62.7241 34.7042 62.422 36.6965 61.9394 38.1456Z" fill="white"/>
    <path d="M77.8178 53.0591L65.5009 21.7839H72.6856L80.7162 43.6401L81.6212 46.3573H81.8632L82.7686 43.6401L90.7384 21.7839H97.8025L85.546 53.0591H77.8178Z" fill="white"/>
    <path d="M119.175 21.8443H133.303L132.398 26.8556H118.269L113.319 54.9915C111.93 62.8403 106.677 65.7988 99.3109 65.7988C95.9299 65.7988 94.3601 65.3159 92.6696 64.9536L92.5486 59.8818C94.2391 60.1839 96.2317 60.3651 99.0091 60.3651C103.416 60.3651 106.315 58.6138 106.979 54.931L111.93 26.8556H102.088L102.994 21.8443H112.836L113.319 18.946C114.707 11.1577 119.9 8.19883 127.206 8.19883C130.647 8.19883 132.398 8.68211 133.907 9.04441L134.028 14.2368C132.338 13.814 130.345 13.6329 127.568 13.6329C123.221 13.6329 120.322 15.3839 119.658 19.067L119.175 21.8443Z" fill="white"/>
    <path d="M141.453 33.6176H156.85C156.548 28.9081 154.314 26.6742 150.148 26.6742C145.619 26.6742 142.48 29.2704 141.453 33.6176ZM162.465 38.1456H141.091C141.513 43.6402 145.8 47.3233 152.563 47.3233C156.004 47.3233 159.748 46.5987 162.284 45.2705L160.231 51.9719C158.117 53.1197 154.555 53.8442 150.449 53.8442C140.729 53.8442 134.329 47.2628 134.329 37.2399C134.329 27.1568 140.427 20.9988 150.148 20.9988C158.178 20.9988 163.249 25.5873 163.249 33.0137C163.249 34.7042 162.947 36.6965 162.465 38.1456Z" fill="white"/>
    <path d="M169.467 51.1875L169.044 44.1836C171.822 46.1161 176.894 47.8066 182.206 47.8066C186.252 47.8066 189.15 46.5385 189.15 43.7007C189.15 37.7837 169.708 43.2782 169.708 31.2026C169.708 25.5877 173.935 20.8177 184.018 20.8177C190.177 20.8177 194.886 22.3274 194.886 26.0706C194.886 27.2177 194.403 28.1836 193.92 29.0893C191.263 27.8216 187.097 26.9159 183.595 26.9159C178.765 26.9159 176.229 28.727 176.229 30.7196C176.229 35.9722 195.912 31.3837 195.912 43.1572C195.912 49.7384 190.116 53.8442 181.482 53.8442C175.625 53.8442 171.218 51.9723 169.467 51.1875Z" fill="white"/>
    <path d="M229.542 46.4176L228.214 52.5157C226.643 53.1798 223.504 53.8442 220.606 53.8442C212.817 53.8442 209.496 49.7988 209.496 44.0626V27.2778H200.621V21.7836H209.496V13.2102H216.017V21.7836H228.636V27.2778H216.017V42.0707C216.017 46.1158 218.131 47.9269 221.814 47.9269C223.927 47.9269 227.791 47.4443 229.542 46.4176Z" fill="white"/>
    <path d="M243.993 16.1859C244.537 15.6423 245.607 14.5721 247.204 12.9752C248.801 11.3613 249.862 10.2656 250.389 9.68798C251.103 8.92351 251.587 8.30344 251.842 7.82777C252.113 7.35211 252.249 6.783 252.249 6.12046C252.249 5.45793 251.994 4.88033 251.485 4.38767C250.975 3.89502 250.287 3.64869 249.421 3.64869C248.622 3.64869 247.968 3.88652 247.459 4.36219C246.966 4.82087 246.643 5.356 246.49 5.96757L243.942 4.9228C244.112 4.31123 244.426 3.70815 244.885 3.11356C245.361 2.51898 245.989 2.01783 246.771 1.61011C247.552 1.20239 248.452 0.998535 249.472 0.998535C250.576 0.998535 251.553 1.22788 252.402 1.68656C253.269 2.12825 253.931 2.73982 254.39 3.52128C254.865 4.28574 255.103 5.13515 255.103 6.0695C255.103 7.0718 254.84 8.04013 254.313 8.97447C253.804 9.89184 253.15 10.7497 252.351 11.5482C252.011 11.871 251.154 12.7204 249.778 14.0964C248.384 15.4894 247.688 16.1859 247.688 16.1859L247.739 16.2879H255.333V18.8361H243.993V16.1859Z" fill="#F9AB00"/>
    <path d="M264.456 19.3855C263.018 19.3855 261.751 18.9832 260.656 18.1786C259.56 17.3568 258.712 16.2526 258.113 14.8658C257.531 13.462 257.24 11.904 257.24 10.192C257.24 8.4629 257.531 6.90497 258.113 5.51824C258.712 4.1144 259.56 3.01015 260.656 2.2055C261.751 1.40086 263.018 0.998535 264.456 0.998535C265.894 0.998535 267.153 1.40086 268.231 2.2055C269.327 3.01015 270.166 4.1144 270.748 5.51824C271.347 6.90497 271.647 8.4629 271.647 10.192C271.647 11.904 271.347 13.462 270.748 14.8658C270.166 16.2526 269.327 17.3568 268.231 18.1786C267.136 18.9832 265.877 19.3855 264.456 19.3855ZM264.456 16.7148C265.329 16.7148 266.091 16.4323 266.742 15.8674C267.409 15.2853 267.915 14.5063 268.257 13.5305C268.616 12.5375 268.796 11.4247 268.796 10.192C268.796 8.95939 268.616 7.84658 268.257 6.85361C267.915 5.86065 267.409 5.08168 266.742 4.51672C266.091 3.95176 265.329 3.66927 264.456 3.66927C263.566 3.66927 262.796 3.95176 262.145 4.51672C261.494 5.08168 260.989 5.86065 260.63 6.85361C260.287 7.84658 260.116 8.95939 260.116 10.192C260.116 11.4247 260.287 12.5375 260.63 13.5305C260.989 14.5063 261.494 15.2853 262.145 15.8674C262.796 16.4323 263.566 16.7148 264.456 16.7148Z" fill="#F9AB00"/>
    <path d="M273.606 16.1859C274.149 15.6423 275.22 14.5721 276.816 12.9752C278.413 11.3613 279.475 10.2656 280.002 9.68798C280.715 8.92351 281.199 8.30344 281.454 7.82777C281.726 7.35211 281.862 6.783 281.862 6.12046C281.862 5.45793 281.607 4.88033 281.097 4.38767C280.588 3.89502 279.9 3.64869 279.033 3.64869C278.235 3.64869 277.581 3.88652 277.071 4.36219C276.579 4.82087 276.256 5.356 276.103 5.96757L273.555 4.9228C273.725 4.31123 274.039 3.70815 274.498 3.11356C274.973 2.51898 275.602 2.01783 276.383 1.61011C277.165 1.20239 278.065 0.998535 279.084 0.998535C280.189 0.998535 281.165 1.22788 282.015 1.68656C282.881 2.12825 283.544 2.73982 284.002 3.52128C284.478 4.28574 284.716 5.13515 284.716 6.0695C284.716 7.0718 284.453 8.04013 283.926 8.97447C283.416 9.89184 282.762 10.7497 281.964 11.5482C281.624 11.871 280.766 12.7204 279.39 14.0964C277.997 15.4894 277.301 16.1859 277.301 16.1859L277.352 16.2879H284.945V18.8361H273.606V16.1859Z" fill="#F9AB00"/>
    <path d="M292.862 19.3855C291.544 19.3855 290.32 19.0089 289.19 18.2556C288.06 17.4852 287.281 16.3638 286.853 14.8915L289.472 13.8129C289.712 14.7203 290.123 15.4222 290.705 15.9187C291.304 16.4152 292.023 16.6634 292.862 16.6634C293.718 16.6634 294.454 16.4066 295.071 15.893C295.687 15.3623 295.995 14.6946 295.995 13.89C295.995 13.0682 295.67 12.4005 295.019 11.8869C294.369 11.3562 293.555 11.0908 292.58 11.0908H291.064V8.49714H292.426C293.264 8.49714 293.966 8.27458 294.531 7.82946C295.113 7.36722 295.404 6.74233 295.404 5.95481C295.404 5.25288 295.148 4.69648 294.634 4.2856C294.12 3.85759 293.47 3.64359 292.682 3.64359C291.912 3.64359 291.296 3.84903 290.833 4.25992C290.388 4.6708 290.063 5.17584 289.857 5.77505L287.264 4.69648C287.606 3.72063 288.24 2.86463 289.164 2.12846C290.089 1.37518 291.27 0.998535 292.708 0.998535C293.769 0.998535 294.72 1.20398 295.558 1.61486C296.414 2.02574 297.082 2.59927 297.562 3.33543C298.041 4.05448 298.281 4.86768 298.281 5.77505C298.281 6.69953 298.058 7.48706 297.613 8.13762C297.168 8.77107 296.62 9.25899 295.969 9.60139V9.75547C296.825 10.115 297.527 10.6628 298.075 11.399C298.623 12.1352 298.897 13.0169 298.897 14.0441C298.897 15.0713 298.632 15.9872 298.101 16.7918C297.587 17.5965 296.868 18.2299 295.944 18.6922C295.036 19.1544 294.009 19.3855 292.862 19.3855Z" fill="#F9AB00"/>
    <path d="M244.483 44.1987H247.035V63.4899H256.574V65.9506H244.483V44.1987Z" fill="#4285F4"/>
    <path d="M264.375 66.4367C263.241 66.4367 262.228 66.2139 261.337 65.7684C260.446 65.3228 259.757 64.7152 259.271 63.9456C258.785 63.1557 258.542 62.2646 258.542 61.2721C258.542 59.6316 259.16 58.3557 260.395 57.4443C261.631 56.5127 263.19 56.0468 265.074 56.0468C266.005 56.0468 266.866 56.1481 267.656 56.3506C268.466 56.5532 269.084 56.7861 269.509 57.0494V56.1076C269.509 54.9532 269.104 54.0316 268.294 53.343C267.484 52.6342 266.461 52.2797 265.226 52.2797C264.355 52.2797 263.555 52.4721 262.826 52.857C262.097 53.2215 261.519 53.738 261.094 54.4063L259.15 52.9481C259.757 52.0165 260.588 51.2873 261.641 50.7608C262.714 50.2342 263.899 49.9709 265.195 49.9709C267.302 49.9709 268.952 50.5278 270.147 51.6418C271.362 52.7354 271.97 54.2342 271.97 56.138V65.9506H269.509V63.7329H269.388C268.942 64.4823 268.274 65.1203 267.383 65.6468C266.492 66.1734 265.489 66.4367 264.375 66.4367ZM264.618 64.1582C265.489 64.1582 266.299 63.9354 267.049 63.4899C267.798 63.0443 268.395 62.4468 268.841 61.6975C269.287 60.9481 269.509 60.1278 269.509 59.2367C269.023 58.9127 268.426 58.6494 267.717 58.4468C267.008 58.2443 266.259 58.143 265.469 58.143C264.051 58.143 262.978 58.4367 262.249 59.024C261.54 59.6114 261.185 60.3709 261.185 61.3025C261.185 62.1532 261.509 62.8418 262.157 63.3684C262.805 63.8949 263.626 64.1582 264.618 64.1582Z" fill="#4285F4"/>
    <path d="M282.219 72.9987C280.396 72.9987 278.888 72.5734 277.693 71.7228C276.518 70.8722 275.728 69.8494 275.323 68.6544L277.662 67.6519C278.007 68.543 278.574 69.262 279.363 69.8089C280.174 70.3759 281.126 70.6595 282.219 70.6595C283.819 70.6595 285.055 70.1937 285.926 69.262C286.817 68.3304 287.262 67.0139 287.262 65.3127V63.581H287.141C286.634 64.3709 285.915 65.019 284.984 65.5253C284.072 66.0114 283.029 66.2544 281.855 66.2544C280.518 66.2544 279.293 65.9101 278.179 65.2215C277.085 64.5329 276.214 63.5709 275.566 62.3354C274.918 61.1 274.594 59.6924 274.594 58.1127C274.594 56.5532 274.918 55.1557 275.566 53.9202C276.214 52.6646 277.085 51.6924 278.179 51.0038C279.293 50.3152 280.518 49.9709 281.855 49.9709C283.029 49.9709 284.072 50.224 284.984 50.7304C285.915 51.2165 286.634 51.8646 287.141 52.6747H287.262V50.457H289.723V65.343C289.723 67.8342 289.034 69.7278 287.657 71.024C286.28 72.3405 284.467 72.9987 282.219 72.9987ZM282.219 63.9152C283.151 63.9152 283.991 63.6823 284.741 63.2165C285.51 62.7506 286.118 62.0823 286.563 61.2114C287.029 60.3405 287.262 59.3076 287.262 58.1127C287.262 56.8975 287.029 55.8544 286.563 54.9835C286.118 54.1127 285.51 53.4544 284.741 53.0089C283.991 52.543 283.151 52.3101 282.219 52.3101C281.288 52.3101 280.437 52.543 279.667 53.0089C278.898 53.4747 278.28 54.143 277.814 55.0139C277.369 55.8848 277.146 56.9177 277.146 58.1127C277.146 59.3076 277.369 60.3506 277.814 61.2418C278.28 62.1127 278.898 62.781 279.667 63.2468C280.437 63.6924 281.288 63.9152 282.219 63.9152Z" fill="#4285F4"/>
    <path d="M300.532 66.4367C299.013 66.4367 297.646 66.0721 296.431 65.343C295.216 64.6139 294.264 63.6215 293.575 62.3658C292.907 61.1101 292.573 59.7228 292.573 58.2038C292.573 56.6848 292.907 55.2975 293.575 54.0418C294.264 52.7861 295.216 51.7937 296.431 51.0646C297.646 50.3354 299.013 49.9709 300.532 49.9709C302.051 49.9709 303.418 50.3354 304.633 51.0646C305.848 51.7937 306.79 52.7861 307.459 54.0418C308.147 55.2975 308.491 56.6848 308.491 58.2038C308.491 59.7228 308.147 61.1101 307.459 62.3658C306.79 63.6215 305.848 64.6139 304.633 65.343C303.418 66.0721 302.051 66.4367 300.532 66.4367ZM300.532 64.0975C301.484 64.0975 302.365 63.8646 303.175 63.3987C304.005 62.9127 304.664 62.224 305.15 61.3329C305.656 60.4418 305.909 59.3987 305.909 58.2038C305.909 57.0089 305.656 55.9658 305.15 55.0747C304.664 54.1835 304.005 53.5051 303.175 53.0392C302.365 52.5532 301.484 52.3101 300.532 52.3101C299.58 52.3101 298.689 52.5532 297.859 53.0392C297.028 53.5051 296.36 54.1835 295.854 55.0747C295.367 55.9658 295.124 57.0089 295.124 58.2038C295.124 59.3987 295.367 60.4418 295.854 61.3329C296.36 62.224 297.028 62.9127 297.859 63.3987C298.689 63.8646 299.58 64.0975 300.532 64.0975Z" fill="#4285F4"/>
    <path d="M316.749 66.4367C315.089 66.4367 313.701 66.0519 312.587 65.2823C311.473 64.4924 310.683 63.4899 310.218 62.2747L312.527 61.2418C312.911 62.1734 313.478 62.8924 314.228 63.3987C314.997 63.9051 315.838 64.1582 316.749 64.1582C317.721 64.1582 318.552 63.9658 319.24 63.581C319.929 63.1759 320.273 62.6089 320.273 61.8797C320.273 61.2316 320 60.7152 319.453 60.3304C318.906 59.9253 318.046 59.581 316.871 59.2975L314.987 58.8114C313.752 58.5076 312.739 57.9911 311.949 57.262C311.159 56.5329 310.765 55.5911 310.765 54.4367C310.765 53.5456 311.028 52.7658 311.554 52.0975C312.101 51.4089 312.82 50.8823 313.711 50.5177C314.602 50.1532 315.565 49.9709 316.597 49.9709C317.954 49.9709 319.159 50.2646 320.213 50.8519C321.286 51.4392 322.046 52.2595 322.491 53.3127L320.243 54.3456C319.554 52.9684 318.329 52.2797 316.567 52.2797C315.716 52.2797 314.967 52.4823 314.319 52.8873C313.691 53.2721 313.377 53.7684 313.377 54.3759C313.377 54.943 313.6 55.4089 314.046 55.7734C314.491 56.1177 315.159 56.4013 316.051 56.624L318.299 57.2013C319.818 57.5861 320.962 58.1633 321.732 58.9329C322.501 59.6823 322.886 60.6038 322.886 61.6975C322.886 62.6494 322.613 63.4899 322.066 64.219C321.519 64.9278 320.78 65.4747 319.848 65.8595C318.916 66.2443 317.883 66.4367 316.749 66.4367Z" fill="#4285F4"/>
</svg>
