<svg xmlns="http://www.w3.org/2000/svg" width="103" height="32" viewBox="0 0 103 32" fill="none">
    <path d="M15.9991 0C7.16286 0 0 7.16286 0 15.9994C0 24.8353 7.16286 31.9985 15.9991 31.9985C24.8353 31.9985 31.9982 24.8353 31.9982 15.9994C31.9982 7.16286 24.8353 0 15.9991 0ZM23.2869 23.1201C23.2134 23.2363 23.1177 23.3368 23.0052 23.4159C22.8928 23.495 22.7658 23.5512 22.6316 23.5811C22.4974 23.611 22.3587 23.6141 22.2232 23.5903C22.0878 23.5664 21.9585 23.5161 21.8426 23.4421C19.1362 21.7209 16.0571 21.2264 13.4599 21.2276C10.6806 21.2258 8.48314 21.7944 8.02122 21.926C7.95515 21.9445 7.93183 21.952 7.93183 21.952H7.93243C7.66719 22.0338 7.38033 22.0069 7.13494 21.8772C6.88956 21.7474 6.70575 21.5256 6.62396 21.2603C6.54217 20.9951 6.56909 20.7082 6.69881 20.4628C6.82852 20.2174 7.0504 20.0336 7.31564 19.9519C7.37902 19.9339 9.96277 19.1362 13.4602 19.1348C16.3109 19.1359 19.7973 19.6669 22.9652 21.6763C23.1992 21.8252 23.3646 22.0609 23.4249 22.3316C23.4852 22.6024 23.4356 22.886 23.2869 23.1201ZM25.3645 18.6941C25.2797 18.8378 25.1674 18.9634 25.034 19.0637C24.9006 19.1639 24.7487 19.2369 24.5871 19.2785C24.4254 19.32 24.2572 19.3293 24.092 19.3057C23.9267 19.2822 23.7678 19.2263 23.6242 19.1413C20.0502 17.0279 16.368 16.4538 13.4213 16.4532C10.4375 16.4523 8.22961 17.0479 7.78204 17.1806C7.71806 17.1992 7.70072 17.2052 7.70072 17.2052C7.38162 17.3036 7.03661 17.2724 6.74029 17.1185C6.44397 16.9645 6.22013 16.7002 6.11718 16.3825C6.01422 16.0648 6.04042 15.7194 6.19011 15.4209C6.3398 15.1224 6.60095 14.8948 6.91711 14.7873C7.00201 14.7616 9.62822 13.914 13.421 13.9122C16.69 13.9116 20.8503 14.5497 24.9172 16.9537C25.2073 17.1252 25.4174 17.4049 25.5013 17.7313C25.5852 18.0576 25.536 18.404 25.3645 18.6941ZM26.344 14.4905C26.0898 14.4905 25.8324 14.4268 25.5956 14.2931C21.6157 12.043 17.3881 11.4128 13.9356 11.4134C10.3165 11.4122 7.57874 12.1091 7.01517 12.2661C6.93445 12.2888 6.91053 12.2963 6.91053 12.2963C6.71903 12.3547 6.51789 12.3749 6.3186 12.3556C6.11931 12.3363 5.92577 12.2779 5.74905 12.1838C5.57233 12.0897 5.41589 11.9616 5.28866 11.807C5.16143 11.6524 5.06591 11.4743 5.00755 11.2827C4.94908 11.0912 4.92892 10.89 4.94822 10.6907C4.96752 10.4914 5.02589 10.2978 5.12001 10.121C5.21413 9.94425 5.34214 9.78776 5.49675 9.66047C5.65136 9.53318 5.82952 9.43759 6.02107 9.37917C6.11705 9.35196 9.35735 8.36684 13.9356 8.36415C17.7475 8.36475 22.5135 9.05269 27.0953 11.6379C27.389 11.8035 27.6196 12.0618 27.7509 12.3723C27.8822 12.6829 27.9068 13.0282 27.8209 13.3543C27.7351 13.6803 27.5435 13.9687 27.2763 14.1743C27.009 14.3799 26.6811 14.4911 26.344 14.4905ZM55.5976 11.9713C52.7495 11.9713 50.5523 14.5814 50.5523 17.8013C50.5523 21.021 52.5331 23.6313 55.5976 23.6313C58.4456 23.6313 60.7549 21.021 60.7549 17.8013C60.7549 14.5814 58.4459 11.9713 55.5976 11.9713ZM54.9437 21.0901C53.2554 21.0901 51.9725 19.6176 51.9725 17.8013C51.9725 15.985 53.2551 14.5126 54.9437 14.5126C56.7677 14.5126 57.9149 15.985 57.9149 17.8013C57.9149 19.6176 56.707 21.0901 54.9437 21.0901Z" fill="white"/>
    <path d="M49.2258 12.2324H52.066V14.3815L51.4307 16.4743V19.3893L52.0846 21.7996V26.7142H49.2069L49.2258 12.2324ZM67.4818 11.9583C64.2072 11.9583 61.5522 14.5683 61.5522 17.7883C61.5522 21.0083 64.2072 23.6183 67.4818 23.6183C70.7565 23.6183 73.4114 21.0083 73.4114 17.7883C73.4114 14.5683 70.7568 11.9583 67.4818 11.9583ZM67.4696 21.1518C65.7289 21.1518 64.3178 19.6569 64.3178 17.8131C64.3178 15.9696 65.7289 14.4747 67.4696 14.4747C69.2099 14.4747 70.6211 15.9696 70.6211 17.8131C70.6211 19.6569 69.2102 21.1518 67.4696 21.1518ZM81.8327 12.2076H84.7226V23.444H81.8327V12.2076Z" fill="white"/>
    <path d="M83.3276 10.8124C84.3044 10.8124 85.0963 10.0205 85.0963 9.04364C85.0963 8.06679 84.3044 7.2749 83.3276 7.2749C82.3507 7.2749 81.5588 8.06679 81.5588 9.04364C81.5588 10.0205 82.3507 10.8124 83.3276 10.8124Z" fill="white"/>
    <path d="M90.079 11.6596V23.407H87.1891V11.9735C87.1891 11.9735 86.9326 7.83989 90.802 7.92211C90.802 7.92211 91.9476 7.94692 92.8697 8.29583V10.7074C92.8697 10.7074 92.1479 10.4221 91.1757 10.4138C91.1757 10.4138 90.0641 10.3779 90.079 11.6596ZM77.8339 19.879V9.2669H74.944V20.2931C74.944 20.2931 74.7272 23.8133 78.5568 23.5789C78.5568 23.5789 79.663 23.5789 80.6245 22.9702V20.631C80.6245 20.631 79.9028 21.0466 78.9305 21.0546C78.9305 21.0546 77.7929 21.0848 77.8339 19.879Z" fill="white"/>
    <path d="M99.9979 12.2078L97.3295 19.9313L94.3604 12.2078H85.8686V14.6992H92.3465L95.9094 23.1204C95.6122 24.3911 94.5888 24.3163 94.5888 24.3163C93.8662 24.3163 93.0691 23.818 93.0691 23.818L92.0974 25.9108C92.878 26.637 94.7882 26.733 94.7882 26.733C97.6285 26.733 98.4507 23.9426 98.4507 23.9426L102.96 12.2078H99.9979ZM73.5941 12.2144H80.702V14.7043H73.5941V12.2144ZM46.3293 12.5815C46.3293 12.5815 44.4607 11.0867 42.4674 11.0867C42.4674 11.0867 40.4499 10.9823 40.3498 12.5068C40.3498 12.5068 40.2469 13.793 41.7113 14.1613C41.7113 14.1613 45.3017 15.2305 46.2037 15.6685C46.2037 15.6685 48.4045 16.5902 48.2726 19.4332C48.2726 19.4332 48.2882 23.5677 42.9159 23.6188C42.9159 23.6188 39.2286 23.7187 36.7621 21.1027L38.506 19.1342C38.506 19.1342 40.4493 21.0279 43.0654 21.0279C43.0654 21.0279 45.1528 21.0976 45.3824 19.533C45.3824 19.533 45.6434 18.1464 43.6633 17.6892C43.6633 17.6892 40.5988 16.917 39.6023 16.4186C39.6023 16.4186 37.3238 15.5979 37.41 12.6566C37.41 12.6566 37.5167 8.42548 42.642 8.49574C42.642 8.49574 45.6085 8.39887 47.8741 10.4391L46.3293 12.5815Z" fill="white"/>
</svg>