<svg viewBox="0 0 339 329" fill="none" xmlns="http://www.w3.org/2000/svg">
<path d="M230.256 88.7813C218.726 45.0375 185.156 11.9923 170.865 -1.65228e-07C115.528 44.3706 105.212 115.248 105.32 115.433C100.461 137.594 97.7519 200.681 101.828 234.099C105.387 263.277 112.564 309.846 120.196 328.331C153.901 328.659 221.371 329.173 221.611 328.614C221.91 327.915 230.921 297.355 237.303 257.558C245.644 181.605 244.669 143.461 230.256 88.7813Z" fill="#7A5B48"/>
<path d="M221.711 91.4222C211.927 52.041 184.688 20.7457 172.291 10.0207C123.73 53.7972 111.725 114.39 111.818 114.556C107.435 134.576 105.615 185.784 106.626 218.89C107.435 245.375 118.991 291.28 123.642 310.012C153.058 310.091 221.141 310.784 221.353 310.278C221.619 309.646 224.042 279.552 229.867 243.615C237.633 175.055 233.941 140.649 221.711 91.4222Z" fill="#463426"/>
<path d="M209.335 52.4861L171.909 5.21837L135.825 52.4861C171.909 53.5294 186.394 53.6947 209.335 52.4861Z" fill="#CB7B41"/>
<path d="M109.73 144.489C109.73 145.724 108.996 146.726 108.09 146.726C107.184 146.726 106.45 145.724 106.45 144.489C106.45 143.254 107.184 142.252 108.09 142.252C108.996 142.252 109.73 143.254 109.73 144.489Z" fill="#342A2A"/>
<path d="M236.771 159.697C236.771 160.932 236.036 161.934 235.13 161.934C234.224 161.934 233.49 160.932 233.49 159.697C233.49 158.462 234.224 157.461 235.13 157.461C236.036 157.461 236.771 158.462 236.771 159.697Z" fill="#342A2A"/>
<path d="M236.771 148.367C236.771 149.602 236.036 150.603 235.13 150.603C234.224 150.603 233.49 149.602 233.49 148.367C233.49 147.132 234.224 146.13 235.13 146.13C236.036 146.13 236.771 147.132 236.771 148.367Z" fill="#342A2A"/>
<path d="M109.73 155.823C109.73 157.058 108.996 158.059 108.09 158.059C107.184 158.059 106.45 157.058 106.45 155.823C106.45 154.587 107.184 153.586 108.09 153.586C108.996 153.586 109.73 154.587 109.73 155.823Z" fill="#342A2A"/>
<path d="M236.771 171.031C236.771 172.266 236.036 173.267 235.13 173.267C234.224 173.267 233.49 172.266 233.49 171.031C233.49 169.795 234.224 168.794 235.13 168.794C236.036 168.794 236.771 169.795 236.771 171.031Z" fill="#342A2A"/>
<path d="M109.73 167.153C109.73 168.388 108.996 169.39 108.09 169.39C107.184 169.39 106.45 168.388 106.45 167.153C106.45 165.918 107.184 164.916 108.09 164.916C108.996 164.916 109.73 165.918 109.73 167.153Z" fill="#342A2A"/>
<path d="M113.914 275.817L228.444 278.094L218.43 325.055L122.539 324.714L113.914 275.817Z" fill="#CB7B41"/>
<path d="M105.853 138.67L237.178 143.106L239.371 177.391L103.318 174.008L105.853 138.67Z" fill="#CB7B41"/>
<path d="M333.798 219.81C331.229 217.991 325.438 214.199 322.823 213.58C320.394 213.006 251.23 201.358 209.648 194.379L211.1 191.017L253.236 197.913C277.882 202.017 327.868 209.981 330.642 209.01C333.416 208.039 336.936 207.781 338.349 207.774L333.798 219.81Z" fill="#9E5131" stroke="#844327" stroke-width="0.298216"/>
<path d="M205.985 193.328L200.47 192.422C200.184 190.86 200.969 189.64 201.397 189.225L206.788 190.557C206.933 192.158 206.691 192.699 205.985 193.328Z" fill="#9E5131" stroke="#844327" stroke-width="0.298216"/>
<path d="M3.31266 190.516C6.19121 189.243 12.6197 186.674 15.3052 186.586C17.8003 186.505 87.9004 188.802 130.041 190.207L129.284 186.624L86.6168 185.028C61.6465 184.163 11.0744 182.058 8.54809 180.556C6.02181 179.054 2.62237 178.104 1.23843 177.817L3.31266 190.516Z" fill="#9E5131" stroke="#844327" stroke-width="0.298216"/>
<path d="M129.691 189.538L135.276 189.743C135.866 188.269 135.338 186.917 135.001 186.425L129.453 186.662C128.994 188.203 129.123 188.781 129.691 189.538Z" fill="#9E5131" stroke="#844327" stroke-width="0.298216"/>
<path d="M207.559 186.817C206.958 185.686 201.738 173.353 200.09 169.768L200.09 162.676L206.054 168.491C206.967 171.259 211.685 178.576 212.197 180.59C212.837 183.108 217.606 193.4 212.99 197.176C208.374 200.951 204.488 192.978 204.687 190.991C204.886 189.003 208.309 188.231 207.559 186.817Z" fill="#A97B50" stroke="#825E3A" stroke-width="0.298216"/>
<path d="M132.548 180.481C133.36 179.492 138.217 172.87 140.544 169.683L146.709 160.59L136.57 164.765C135.127 167.297 130.137 171.585 129.236 173.457C128.109 175.798 121.394 184.94 125.17 189.557C128.946 194.173 134.336 187.129 134.535 185.141C134.734 183.153 131.532 181.717 132.548 180.481Z" fill="#A97B50" stroke="#825E3A" stroke-width="0.298216"/>
<path d="M190.133 189.313C187.978 187.67 181.051 173.831 177.857 167.117L191.439 162.9C193.301 168.812 197.179 181.32 197.797 184.058C198.569 187.482 192.827 191.368 190.133 189.313Z" fill="#6C8FA2"/>
<path d="M144.154 180.694C143.659 178.503 147.689 170.639 149.765 166.98L164.849 167.822C162.389 173.077 156.229 183.955 151.264 185.421C145.058 187.253 144.772 183.433 144.154 180.694Z" fill="#6C8FA2"/>
<path d="M190.133 189.313C187.978 187.67 181.051 173.831 177.857 167.117L191.439 162.9C193.301 168.812 197.179 181.32 197.797 184.058C198.569 187.482 192.827 191.368 190.133 189.313Z" stroke="#364B57" stroke-width="0.298216"/>
<path d="M144.154 180.694C143.659 178.503 147.689 170.639 149.765 166.98L164.849 167.822C162.389 173.077 156.229 183.955 151.264 185.421C145.058 187.253 144.772 183.433 144.154 180.694Z" stroke="#364B57" stroke-width="0.298216"/>
<path d="M211.403 172.927C189.979 115.999 148.664 146.049 130.684 168.19L138.501 174.772L150.118 170.136L195.149 168.177L201.309 177.939L211.403 172.927Z" fill="#696868" stroke="#423F3F" stroke-width="0.298216"/>
<path d="M196.653 156.337C195.341 169.446 183.603 179.005 170.435 177.687C157.268 176.368 147.658 164.671 148.971 151.562C150.284 138.454 162.022 128.895 175.189 130.213C188.357 131.532 197.966 143.228 196.653 156.337ZM182.147 155.004C181.634 160.129 177.052 163.867 171.912 163.352C166.772 162.838 163.022 158.266 163.535 153.141C164.048 148.016 168.63 144.278 173.77 144.793C178.91 145.307 182.66 149.88 182.147 155.004ZM171.889 163.581C177.155 164.109 181.85 160.279 182.376 155.027C182.902 149.776 179.059 145.091 173.793 144.564C168.528 144.037 163.832 147.866 163.306 153.118C162.78 158.37 166.623 163.054 171.889 163.581ZM193.679 155.922C192.519 167.504 182.167 175.95 170.556 174.788C158.945 173.625 150.473 163.293 151.633 151.712C152.793 140.13 163.145 131.684 174.756 132.846C186.367 134.009 194.838 144.341 193.679 155.922ZM170.533 175.016C182.27 176.192 192.735 167.654 193.907 155.945C195.08 144.237 186.515 133.793 174.779 132.618C163.042 131.442 152.577 139.981 151.404 151.689C150.232 163.397 158.796 173.841 170.533 175.016ZM189.324 155.518C188.407 164.678 180.214 171.358 171.024 170.438C161.835 169.518 155.129 161.346 156.047 152.186C156.964 143.025 165.157 136.345 174.346 137.265C183.536 138.185 190.241 146.358 189.324 155.518ZM171.002 170.667C180.317 171.6 188.623 164.828 189.553 155.541C190.483 146.253 183.685 137.969 174.369 137.036C165.054 136.103 156.748 142.875 155.818 152.163C154.888 161.45 161.686 169.734 171.002 170.667Z" stroke="#6B441E" stroke-width="0.23" fill="#b48250" />
</svg>
