<svg viewBox="0 0 428 420" fill="none" xmlns="http://www.w3.org/2000/svg">
<path d="M277.666 135.316C266.136 91.5726 232.566 58.5274 218.275 46.5352C162.938 90.9058 152.622 161.783 152.73 161.968C147.871 184.13 145.162 247.216 149.238 280.634C152.797 309.812 159.974 356.381 167.606 374.866C201.311 375.194 268.781 375.708 269.021 375.149C269.32 374.45 278.331 343.89 284.713 304.093C293.054 228.14 292.079 189.996 277.666 135.316Z" fill="#7A5B48"/>
<path d="M269.121 137.957C259.337 98.5762 232.098 67.2809 219.701 56.5559C171.14 100.332 159.135 160.925 159.228 161.091C154.845 181.111 153.025 232.319 154.036 265.425C154.845 291.91 166.401 337.815 171.052 356.547C200.469 356.626 268.551 357.319 268.763 356.814C269.029 356.181 271.452 326.087 277.277 290.15C285.043 221.59 281.351 187.184 269.121 137.957Z" fill="#463426"/>
<path d="M256.745 99.0213L219.319 51.7535L183.235 99.0213C219.319 100.065 233.804 100.23 256.745 99.0213Z" fill="#CB7B41"/>
<path d="M157.141 191.024C157.141 192.259 156.406 193.261 155.5 193.261C154.594 193.261 153.86 192.259 153.86 191.024C153.86 189.789 154.594 188.788 155.5 188.788C156.406 188.788 157.141 189.789 157.141 191.024Z" fill="#342A2A"/>
<path d="M284.181 206.232C284.181 207.468 283.446 208.469 282.54 208.469C281.635 208.469 280.9 207.468 280.9 206.232C280.9 204.997 281.635 203.996 282.54 203.996C283.446 203.996 284.181 204.997 284.181 206.232Z" fill="#342A2A"/>
<path d="M284.181 194.902C284.181 196.137 283.446 197.139 282.54 197.139C281.635 197.139 280.9 196.137 280.9 194.902C280.9 193.667 281.635 192.665 282.54 192.665C283.446 192.665 284.181 193.667 284.181 194.902Z" fill="#342A2A"/>
<path d="M157.141 202.358C157.141 203.593 156.406 204.594 155.5 204.594C154.594 204.594 153.86 203.593 153.86 202.358C153.86 201.122 154.594 200.121 155.5 200.121C156.406 200.121 157.141 201.122 157.141 202.358Z" fill="#342A2A"/>
<path d="M284.181 217.566C284.181 218.801 283.446 219.803 282.54 219.803C281.635 219.803 280.9 218.801 280.9 217.566C280.9 216.331 281.635 215.329 282.54 215.329C283.446 215.329 284.181 216.331 284.181 217.566Z" fill="#342A2A"/>
<path d="M157.141 213.688C157.141 214.923 156.406 215.925 155.5 215.925C154.594 215.925 153.86 214.923 153.86 213.688C153.86 212.453 154.594 211.452 155.5 211.452C156.406 211.452 157.141 212.453 157.141 213.688Z" fill="#342A2A"/>
<path d="M161.324 322.352L275.854 324.629L265.84 371.59L169.949 371.249L161.324 322.352Z" fill="#CB7B41"/>
<path d="M153.264 185.205L284.588 189.641L286.781 223.926L150.729 220.543L153.264 185.205Z" fill="#CB7B41"/>
<path d="M378.671 272.751C378.879 270.444 382.766 254.46 385.483 250.51L386.167 253.37C384.255 258.763 380.894 272.621 380.754 273.077C380.58 273.647 378.412 275.634 378.671 272.751Z" fill="white"/>
<path d="M381.208 266.345C378.639 264.526 372.848 260.734 370.233 260.116C367.804 259.541 298.64 247.893 257.058 240.914L258.51 237.552L300.647 244.448C325.292 248.552 375.278 256.516 378.052 255.545C380.826 254.574 384.346 254.317 385.76 254.309L381.208 266.345Z" fill="#9E5131" stroke="#844327" stroke-width="0.298216"/>
<path d="M254.969 233.352C254.368 232.221 249.149 219.888 247.5 216.303L247.5 209.211L253.464 215.026C254.377 217.794 259.095 225.111 259.607 227.125C260.248 229.643 265.016 239.935 260.4 243.711C255.784 247.487 251.898 239.513 252.097 237.526C252.296 235.538 255.72 234.766 254.969 233.352Z" fill="#A97B50" stroke="#825E3A" stroke-width="0.298216"/>
<path d="M253.395 239.863L247.88 238.957C247.594 237.395 248.379 236.175 248.808 235.76L254.199 237.092C254.343 238.693 254.101 239.234 253.395 239.863Z" fill="#9E5131" stroke="#844327" stroke-width="0.298216"/>
<path d="M254.666 238.594C254.583 239.423 254.371 240.011 254.24 240.067C252.204 240.946 253.707 239.798 253.561 238.483C253.69 237.198 254.033 236.582 254.541 237.065C254.693 237.081 254.749 237.765 254.666 238.594Z" fill="#A97B50"/>
<path d="M41.9843 236.554C42.4634 230.485 46.0987 225.32 47.8564 223.496C48.6625 230.038 50.7147 244.832 52.4747 251.672C54.6746 260.221 49.3369 270.039 48.5423 270.155C47.7478 270.271 46.9279 263.507 46.9979 257.089C47.068 250.67 41.3854 244.141 41.9843 236.554Z" fill="#FDEFC7"/>
<path d="M50.3794 246.04C50.8566 243.773 51.8208 227.352 50.3794 222.779L48.8883 225.314C49.1369 231.03 48.2919 245.264 48.2919 245.742C48.2919 246.338 49.783 248.873 50.3794 246.04Z" fill="white"/>
<path d="M49.7421 220.503C49.3996 220.15 48.7945 221.742 48.5347 222.583C43.7978 236.706 49.1551 244.458 50.2977 246.726C51.4404 248.993 52.1402 258.91 52.5066 258.352C52.8729 257.795 53.5879 251.003 51.352 239.717C49.5633 230.688 49.6661 225.029 50.5184 223.328C50.4024 222.534 50.0847 220.856 49.7421 220.503Z" fill="white"/>
<path d="M179.958 227.012C180.771 226.023 185.627 219.401 187.954 216.214L194.119 207.121L183.98 211.296C182.537 213.828 177.547 218.116 176.646 219.989C175.519 222.33 168.804 231.472 172.58 236.088C176.356 240.704 181.746 233.66 181.945 231.672C182.144 229.685 178.942 228.249 179.958 227.012Z" fill="#A97B50" stroke="#825E3A" stroke-width="0.298216"/>
<path d="M50.7228 237.047C53.6013 235.774 60.0298 233.205 62.7153 233.117C65.2104 233.036 135.311 235.334 177.451 236.739L176.694 233.155L134.027 231.559C109.057 230.694 58.4845 228.59 55.9582 227.087C53.4319 225.585 50.0325 224.635 48.6485 224.348L50.7228 237.047Z" fill="#9E5131" stroke="#844327" stroke-width="0.298216"/>
<path d="M177.101 236.069L182.686 236.275C183.276 234.8 182.748 233.448 182.411 232.957L176.863 233.194C176.404 234.735 176.533 235.312 177.101 236.069Z" fill="#9E5131" stroke="#844327" stroke-width="0.298216"/>
<path d="M176.106 234.578C176.023 235.407 176.114 236.026 176.231 236.107C178.052 237.372 176.807 235.949 177.21 234.689C177.339 233.404 177.125 232.732 176.531 233.105C176.379 233.09 176.189 233.75 176.106 234.578Z" fill="#A97B50"/>
<path d="M237.543 235.849C235.388 234.205 228.461 220.366 225.267 213.652L238.85 209.435C240.711 215.347 244.589 227.855 245.207 230.593C245.98 234.017 240.237 237.903 237.543 235.849Z" fill="#6C8FA2"/>
<path d="M191.564 227.229C191.069 225.038 195.099 217.174 197.175 213.515L212.259 214.357C209.799 219.613 203.639 230.491 198.674 231.956C192.468 233.789 192.182 229.968 191.564 227.229Z" fill="#6C8FA2"/>
<path d="M237.543 235.849C235.388 234.205 228.461 220.366 225.267 213.652L238.85 209.435C240.711 215.347 244.589 227.855 245.207 230.593C245.98 234.017 240.237 237.903 237.543 235.849Z" stroke="#364B57" stroke-width="0.298216"/>
<path d="M191.564 227.229C191.069 225.038 195.099 217.174 197.175 213.515L212.259 214.357C209.799 219.613 203.639 230.491 198.674 231.956C192.468 233.789 192.182 229.968 191.564 227.229Z" stroke="#364B57" stroke-width="0.298216"/>
<path d="M258.813 219.466C237.39 162.538 196.074 192.588 178.094 214.729L185.911 221.311L197.528 216.675L242.559 214.716L248.719 224.478L258.813 219.466Z" fill="#696868" stroke="#423F3F" stroke-width="0.298216"/>
<path d="M244.063 202.872C242.751 215.981 231.013 225.54 217.845 224.222C204.678 222.903 195.069 211.207 196.381 198.098C197.694 184.989 209.432 175.43 222.599 176.748C235.767 178.067 245.376 189.763 244.063 202.872ZM229.557 201.54C229.044 206.664 224.462 210.402 219.322 209.888C214.182 209.373 210.432 204.801 210.945 199.676C211.458 194.551 216.041 190.813 221.181 191.328C226.32 191.843 230.07 196.415 229.557 201.54ZM219.299 210.116C224.565 210.644 229.26 206.814 229.786 201.563C230.312 196.311 226.469 191.626 221.203 191.099C215.938 190.572 211.242 194.401 210.716 199.653C210.191 204.905 214.033 209.589 219.299 210.116ZM241.089 202.457C239.929 214.039 229.577 222.485 217.966 221.323C206.355 220.16 197.883 209.829 199.043 198.247C200.203 186.666 210.555 178.219 222.166 179.382C233.777 180.544 242.249 190.876 241.089 202.457ZM217.943 221.552C229.68 222.727 240.145 214.189 241.318 202.48C242.49 190.772 233.926 180.328 222.189 179.153C210.452 177.977 199.987 186.516 198.814 198.224C197.642 209.933 206.206 220.376 217.943 221.552ZM236.734 202.053C235.817 211.213 227.624 217.894 218.435 216.973C209.245 216.053 202.539 207.881 203.457 198.721C204.374 189.56 212.567 182.88 221.756 183.8C230.946 184.72 237.652 192.893 236.734 202.053ZM218.412 217.202C227.727 218.135 236.033 211.363 236.963 202.076C237.893 192.789 231.095 184.504 221.779 183.571C212.464 182.639 204.158 189.411 203.228 198.698C202.298 207.985 209.096 216.269 218.412 217.202Z" stroke="#6B441E" stroke-width="0.23" fill="#b48250"/>
</svg>
