<svg viewBox="0 0 89 89" fill="none" xmlns="http://www.w3.org/2000/svg">
    <path d="M23.7209 30.1886C24.0641 31.0946 24.4032 32.0018 24.7188 32.9195C24.8917 33.4037 25.0598 33.8923 25.2646 34.3632C26.3601 36.8753 27.4863 39.3758 28.5211 41.9148C29.1508 43.4809 29.7643 45.0536 30.3615 46.6328L31.2501 49.0042L32.1122 51.3854C32.2741 51.8719 32.3968 52.3705 32.4791 52.8765C32.522 53.0822 32.5155 53.2951 32.4599 53.4978C32.4044 53.7005 32.3014 53.887 32.1596 54.042C31.776 54.4801 31.1667 54.3996 30.8093 53.8051C30.5864 53.4128 30.4134 52.9942 30.2944 52.5589C30.0042 51.5727 29.6732 50.6028 29.3013 49.6492C28.9329 48.6941 28.5254 47.7543 28.079 46.8298C27.833 46.3192 27.5461 45.8 27.4176 45.2613C27.0053 43.5406 26.2341 41.945 25.6854 40.2725C25.2768 39.0296 24.7738 37.8161 24.3274 36.5845L23.1302 33.2909C22.725 32.1956 22.3466 31.0889 21.9445 29.9916C21.8 29.5597 21.684 29.1188 21.5973 28.6717C21.5259 28.2469 21.4782 27.8184 21.4542 27.3883C21.4321 27.0078 21.6719 26.9327 21.9472 27.2702C22.3412 27.7552 22.7009 28.2671 23.0236 28.8021C23.1564 29.0217 23.2771 29.25 23.3881 29.4833C23.4894 29.7206 23.5911 29.9587 23.6921 30.1955L23.7209 30.1886Z" fill="#34A853"/>
    <path d="M51.6212 27.2668L51.4854 28.4988L51.3194 29.7291C51.2618 30.1643 51.2037 30.6016 51.1833 31.0397C51.1547 31.624 51.1333 32.2087 51.1142 32.7934L51.0469 34.5464L50.92 38.0512L50.753 42.3662L50.6096 46.6825C50.5831 47.1193 50.5252 47.5536 50.4365 47.9822C50.4074 48.1593 50.3372 48.3272 50.2316 48.4724C50.1261 48.6177 49.988 48.7362 49.8285 48.8186C49.3933 49.0555 48.9357 48.8089 48.8261 48.2204C48.7631 47.8364 48.7498 47.4459 48.7866 47.0586C48.9186 45.2964 48.9391 43.5276 48.848 41.7629C48.7931 41.2749 48.7939 40.7823 48.8505 40.2946C49.1124 38.792 49.0616 37.2658 49.2327 35.7577C49.3607 34.6378 49.4088 33.5069 49.5316 32.3848C49.7582 30.3846 50.0042 28.3881 50.3231 26.401C50.436 25.6453 50.6732 24.9135 51.0249 24.2352C51.1765 23.9412 51.4266 23.9892 51.491 24.3552C51.5792 24.8803 51.633 25.4105 51.6519 25.9426C51.6593 26.3826 51.6406 26.8227 51.5959 27.2605L51.6212 27.2668Z" fill="#34A853"/>
    <path d="M74.9109 39.6999C74.4535 40.2508 73.9933 40.7999 73.5305 41.3472C73.2723 41.6272 73.031 41.9223 72.8078 42.2309C72.2314 43.0654 71.6733 43.9129 71.1157 44.7599C70.557 45.6061 69.9934 46.448 69.4167 47.2801C68.7087 48.3065 67.9902 49.3249 67.274 50.3451L65.1086 53.3936C64.8748 53.6969 64.6049 53.9704 64.3049 54.2083C64.0249 54.4475 63.6261 54.4528 63.1938 54.3296C62.564 54.1503 62.1366 53.6021 62.2964 53.0941C62.4086 52.7734 62.5861 52.4795 62.8177 52.2309C63.8247 51.0718 64.6918 49.7982 65.4009 48.4364C65.5991 48.0594 65.7777 47.6465 66.0903 47.3658C67.0836 46.4664 67.7291 45.3048 68.6045 44.3189C69.252 43.5847 69.8287 42.7916 70.4621 42.0452C71.0268 41.3796 71.5964 40.7186 72.1711 40.0621L73.9364 38.1269C74.3941 37.6196 74.9664 37.2289 75.6056 36.9874C75.6687 36.9591 75.7388 36.9503 75.8069 36.9621C75.875 36.974 75.938 37.0059 75.9879 37.0538C76.0377 37.1017 76.0721 37.1634 76.0867 37.231C76.1012 37.2985 76.0952 37.3689 76.0695 37.4331C75.9166 37.8769 75.7374 38.3113 75.533 38.7338C75.3413 39.0638 75.1255 39.3791 74.8873 39.6773L74.9109 39.6999Z" fill="#34A853"/>
    <path d="M80.0881 60.4911C79.914 60.5726 79.7431 60.6605 79.5638 60.7316L79.0248 60.943C78.8324 61.0129 78.6462 61.0988 78.4683 61.1998C78.0032 61.4863 77.5475 61.7914 77.0783 62.0691C76.6119 62.3525 76.1439 62.6331 75.667 62.8958C75.0801 63.2201 74.488 63.534 73.8859 63.828L72.0799 64.7103C71.8842 64.7892 71.6756 64.831 71.4646 64.8333C71.2584 64.8478 71.0275 64.6608 70.8017 64.3781C70.4727 63.9663 70.329 63.4229 70.5141 63.1858C70.6327 63.0448 70.7931 62.9452 70.972 62.9012C71.7614 62.6658 72.4964 62.2762 73.1344 61.7549C73.3139 61.6108 73.4849 61.429 73.7147 61.3999C74.4451 61.2999 75.0142 60.8643 75.6847 60.6406C76.1845 60.4776 76.6384 60.2156 77.1325 60.0384C78.0117 59.7185 78.8806 59.3788 79.7734 59.0869C80.1409 58.9606 80.5387 58.9516 80.9115 59.0613C80.957 59.0755 80.9988 59.0996 81.0341 59.1317C81.0693 59.1639 81.097 59.2033 81.1154 59.2473C81.1338 59.2913 81.1423 59.3388 81.1404 59.3864C81.1385 59.4341 81.1262 59.4807 81.1044 59.5231C81.0273 59.6321 80.946 59.7387 80.8613 59.8417C80.7804 59.9445 80.6909 60.0401 80.5936 60.1276C80.4325 60.2562 80.2599 60.3697 80.078 60.4668L80.0881 60.4911Z" fill="#34A853"/>
    <path d="M10.0394 56.157C10.4381 56.3864 10.8338 56.6196 11.2263 56.8564C11.4311 56.987 11.6435 57.1052 11.8625 57.2102C12.4566 57.4642 13.049 57.7253 13.6371 57.9979C14.224 58.2729 14.7999 58.5702 15.3649 58.8896C16.0555 59.2898 16.7347 59.7111 17.395 60.1606C18.0555 60.6098 18.7033 61.0768 19.3386 61.5616C19.5284 61.7208 19.6899 61.9108 19.8164 62.1238C19.9494 62.3233 19.9045 62.6177 19.7641 62.9395C19.5592 63.408 19.1255 63.7416 18.8048 63.6507C18.607 63.5853 18.4295 63.4699 18.2895 63.3156C17.631 62.6457 16.8458 62.1135 15.9797 61.7499C15.7405 61.646 15.4737 61.5687 15.3011 61.3771C14.7494 60.7603 13.9867 60.4638 13.3372 59.993C13.0944 59.8193 12.8424 59.6588 12.5822 59.5123C12.3252 59.3602 12.0636 59.2162 11.8081 59.0609C10.8964 58.5084 9.97557 57.9614 9.0288 57.4568C8.63734 57.2319 8.32842 56.8873 8.14751 56.4737C8.04543 56.2828 8.1384 56.0774 8.38921 55.9796L8.64492 55.9097C8.68413 55.8969 8.72547 55.8918 8.76661 55.8949L8.88228 55.8971C9.03486 55.9013 9.18704 55.9146 9.33801 55.9371C9.4591 55.9564 9.57779 55.9884 9.69211 56.0327C9.80365 56.0819 9.91339 56.136 10.0255 56.1832L10.0394 56.157Z" fill="#34A853"/>
</svg>
