<svg viewBox="0 0 25 24" fill="none" xmlns="http://www.w3.org/2000/svg">
    <path d="M10.1667 15L15.3567 12L10.1667 9V15ZM21.7267 7.17C21.8567 7.64 21.9467 8.27 22.0067 9.07C22.0767 9.87 22.1067 10.56 22.1067 11.16L22.1667 12C22.1667 14.19 22.0067 15.8 21.7267 16.83C21.4767 17.73 20.8967 18.31 19.9967 18.56C19.5267 18.69 18.6667 18.78 17.3467 18.84C16.0467 18.91 14.8567 18.94 13.7567 18.94L12.1667 19C7.97675 19 5.36675 18.84 4.33675 18.56C3.43675 18.31 2.85675 17.73 2.60675 16.83C2.47675 16.36 2.38675 15.73 2.32675 14.93C2.25675 14.13 2.22675 13.44 2.22675 12.84L2.16675 12C2.16675 9.81 2.32675 8.2 2.60675 7.17C2.85675 6.27 3.43675 5.69 4.33675 5.44C4.80675 5.31 5.66675 5.22 6.98675 5.16C8.28675 5.09 9.47675 5.06 10.5767 5.06L12.1667 5C16.3567 5 18.9667 5.16 19.9967 5.44C20.8967 5.69 21.4767 6.27 21.7267 7.17Z" fill="black"/>
</svg>
